<svg xmlns="http://www.w3.org/2000/svg" viewBox="0 0 512 512">
	<style type="text/css">
		.st1 { fill: none; }
		.st4 { fill: none; stroke: rgba(255, 255, 255, 0.3); stroke-width: 5; stroke-miterlimit: 10; }
		.st5 { fill: rgba(255, 255, 255, 0.3); }
		.st6 { fill: none; stroke: rgba(255, 255, 255, 0.3); stroke-width: 10; stroke-miterlimit: 10; }
	</style>

	<circle class="st4" cx="256" cy="256" r="231" />
	<circle class="st4" cx="256" cy="256" r="176" />
	<circle class="st1" cx="256" cy="256" r="217.5" />
	<path class="st5" d="M240.6 445.4l-0.8 4.9 -20.2-3.1c-1.4-0.2-2.7 0.8-2.9 2.1l-0.4 2.6 17.8 2.8 -0.8 4.9 -17.8-2.8 -2 12.7 -4.9-0.8 3.1-20.2c0.6-4.1 4.5-7 8.6-6.3L240.6 445.4z" />
	<path class="st5" d="M264.4 453.3l0-0.2c0-1.4-1.2-2.6-2.6-2.6l-11.4 0c-1.4 0-2.6 1.2-2.6 2.6v0.2c0 1.4 1.2 2.6 2.6 2.6l10.1 0c2.6 0 4.9 1.1 6.5 2.9 0.1 0.1 0.2 0.2 0.3 0.4 1.2 1.5 2 3.5 2 5.6 0 4.9-4 8.8-8.8 8.8l-8.8 0c-4.9 0-8.8-4-8.8-8.8l5 0c0 2.1 1.7 3.8 3.8 3.8l8.8 0c2.1 0 3.9-1.7 3.9-3.8 0-2.1-1.8-3.8-3.9-3.8l-10.1 0c-2 0-3.9-0.8-5.2-2.1 -0.4-0.4-0.7-0.8-1-1.2 -0.8-1.2-1.3-2.7-1.3-4.3l0-0.2c0-4.2 3.4-7.6 7.5-7.6l11.4 0c4.2 0 7.6 3.4 7.6 7.6v0.2L264.4 453.3z" />
	<path class="st5" d="M278.5 458.5c0.8 4.9 5.4 8.3 10.3 7.5l13.8-2.2 0.8 4.9 -13.8 2.2c-7.6 1.2-14.8-4-16-11.7s4.1-14.8 11.7-16l13.8-2.2 0.8 4.9 -13.8 2.2C281.1 449 277.8 453.6 278.5 458.5z" />
	<circle class="st1" cx="256" cy="256" r="187.5" />
	<path class="st5" d="M177.1 447.3c-0.9-0.4-1.6-0.9-2.1-1.6 -0.5-0.7-0.9-1.6-1-2.5 -0.1-0.9 0-1.8 0.4-2.7 0.4-0.8 0.9-1.6 1.6-2.1 0.7-0.6 1.6-0.9 2.5-1 0.9-0.1 1.8 0 2.7 0.3 0.9 0.4 1.6 0.9 2.2 1.7 0.6 0.8 0.9 1.6 1 2.5 0.1 0.9 0 1.8-0.3 2.7 -0.5 1.3-1.5 2.3-2.8 2.8C179.8 447.8 178.4 447.8 177.1 447.3z" />
	<path class="st5" d="M89.8 394l3.6-3.4 14.1 14.8c1 1 2.6 1.1 3.6 0.1l1.9-1.8 -12.4-13.1 3.6-3.4 12.4 13.1 9.3-8.8 3.4 3.6 -14.8 14.1c-3 2.9-7.8 2.8-10.7-0.3L89.8 394z" />
	<path class="st5" d="M108.5 371.8l-22.2 17 -3-4 22.2-17L108.5 371.8z" />
	<path class="st5" d="M65.2 357.2l5.6-0.5 25.7-2.1 -13.4 22.1 -2.9 4.8 -2.9-4.8 2.9-4.8 7-11.5 -13.4 1.1 -5.6 0.5L65.2 357.2z" />
	<path class="st5" d="M68.4 346.2l2.4-1 -7.1-16.5 4.6-2 7.1 16.5 4.9-2.1c1.3-0.5 1.9-2.1 1.3-3.4l-8-18.8 4.6-2 8.1 18.8c1.6 3.8-0.2 8.3-4 9.9l-11.8 5.1c-3.8 1.6-8.3-0.1-9.9-3.9l-8-18.8 4.6-2L65 344.8C65.6 346.1 67.1 346.7 68.4 346.2z" />
	<path class="st5" d="M49.2 277.6l-0.2 0c-1.4 0.2-2.4 1.5-2.2 2.9l1.6 11.2c0.2 1.4 1.5 2.4 2.9 2.2l0.2 0c1.4-0.2 2.4-1.5 2.2-2.9l-1.4-10c-0.4-2.6 0.4-5 1.9-6.9 0.1-0.1 0.2-0.2 0.3-0.4 1.3-1.4 3.2-2.5 5.3-2.8 4.8-0.7 9.3 2.7 10 7.5l1.2 8.7c0.7 4.8-2.7 9.3-7.5 10l-0.7-4.9c2.1-0.3 3.6-2.2 3.3-4.3l-1.2-8.7c-0.3-2.1-2.2-3.6-4.3-3.3 -2.1 0.3-3.5 2.3-3.2 4.4l1.4 10c0.3 2-0.2 4-1.3 5.5 -0.3 0.4-0.7 0.8-1 1.1 -1.1 1-2.5 1.7-4 1.9l-0.2 0c-4.1 0.6-8-2.2-8.5-6.4l-1.6-11.2c-0.6-4.1 2.3-8 6.4-8.6l0.2 0L49.2 277.6z" />
	<path class="st5" d="M40.8 239.7l5 0.1 -0.2 11.5 23 0.4 -0.1 5 -23-0.4 -0.2 11.5 -5-0.1L40.8 239.7z" />
	<path class="st5" d="M46.2 204.7l13.8 2.4c7.6 1.3 12.7 8.6 11.4 16.2 -1.3 7.6-8.6 12.7-16.2 11.4l-13.8-2.4 0.9-4.9 13.8 2.4c4.9 0.9 9.6-2.4 10.4-7.3 0.9-4.9-2.4-9.6-7.3-10.4l-13.8-2.4L46.2 204.7z" />
	<path class="st5" d="M52.8 184.3c2.6-7.3 10.6-11.1 17.8-8.5 3.2 1.2 5.8 3.4 7.4 6.1 0.2 0.3 0.4 0.7 0.5 1 1.6 3.2 1.9 7 0.6 10.7l-4.7 13.2 -26.4-9.3L52.8 184.3zM71.5 200.4l3-8.5c1.7-4.7-0.8-9.8-5.5-11.5 -4.7-1.6-9.8 0.8-11.5 5.5l-3 8.5L71.5 200.4z" />
	<path class="st5" d="M69.6 163.4l2.3 1.3 8.7-15.7 4.4 2.4 -8.7 15.8 4.6 2.6c1.2 0.7 2.8 0.2 3.5-1l9.9-17.9 4.4 2.4 -9.9 17.9c-2 3.6-6.6 4.9-10.2 2.9l-11.3-6.2c-3.6-2-5-6.6-3-10.2l9.9-17.9 4.4 2.4 -9.9 17.9C67.9 161.1 68.3 162.7 69.6 163.4z" />
	<path class="st5" d="M95.7 111.4l22 17.4 -6.1 1.5 -22.1 5.5 13.9 11 -3.1 3.9 -21.9-17.3 6.1-1.5 22.1-5.5 -14-11.1L95.7 111.4z" />
	<path class="st5" d="M121.5 87.1l3.4 3.7 -8.5 7.7 15.5 17 -3.7 3.4 -15.5-17 -8.5 7.7 -3.4-3.7L121.5 87.1z" />
	<path class="st5" d="M149.7 77.3l-0.1-0.1c-0.8-1.2-2.4-1.5-3.5-0.7l-9.5 6.2c-1.2 0.8-1.5 2.4-0.7 3.5l0.1 0.1c0.8 1.2 2.4 1.5 3.5 0.8l8.5-5.5c2.2-1.4 4.7-1.7 7-1.1 0.2 0 0.3 0.1 0.5 0.1 1.9 0.6 3.6 1.8 4.7 3.6 2.7 4.1 1.5 9.6-2.6 12.2l-7.3 4.8c-4.1 2.7-9.6 1.5-12.2-2.6l4.2-2.7c1.2 1.8 3.5 2.3 5.3 1.1l7.3-4.8c1.8-1.2 2.3-3.6 1.2-5.3s-3.6-2.3-5.3-1.1l-8.4 5.5c-1.7 1.1-3.7 1.5-5.5 1.1 -0.5-0.1-1-0.3-1.5-0.5 -1.4-0.5-2.6-1.5-3.4-2.9l-0.1-0.1c-2.3-3.5-1.3-8.2 2.2-10.4l9.5-6.2c3.5-2.3 8.2-1.3 10.5 2.2l0.1 0.1L149.7 77.3z" />
	<path class="st5" d="M205.8 60.3c2.4 7.3-1.5 15.3-8.9 17.7s-15.3-1.5-17.7-8.9 1.6-15.3 8.9-17.7C195.4 49 203.4 53 205.8 60.3zM201 61.9c-1.6-4.7-6.7-7.3-11.4-5.7 -4.7 1.6-7.3 6.7-5.7 11.4 1.6 4.7 6.7 7.3 11.4 5.7C200.1 71.7 202.6 66.6 201 61.9z" />
	<path class="st5" d="M235.3 41l0.8 4.9 -20.2 3.3c-1.4 0.2-2.3 1.6-2.1 2.9l0.4 2.6L232 51.9l0.8 4.9 -17.8 2.9 2 12.7 -4.9 0.8 -3.2-20.2c-0.7-4.1 2.1-8 6.2-8.7L235.3 41z" />
	<path class="st5" d="M267.5 54.6c-0.5 4.9 3.1 9.4 8 9.9l13.9 1.4 -0.5 5 -13.9-1.4c-7.7-0.8-13.3-7.7-12.5-15.3 0.8-7.7 7.7-13.3 15.4-12.5l13.9 1.4 -0.5 5 -13.9-1.4C272.4 46.1 268 49.7 267.5 54.6z" />
	<path class="st5" d="M319.9 64.3c-1.9 7.5-9.6 12-17 10.1 -7.5-1.9-12-9.6-10.1-17 1.9-7.5 9.6-12 17-10.1C317.3 49.2 321.8 56.9 319.9 64.3zM315 63.1c1.2-4.8-1.7-9.7-6.5-11 -4.8-1.2-9.7 1.7-11 6.5 -1.2 4.8 1.7 9.7 6.5 11C308.9 70.8 313.8 67.9 315 63.1z" />
	<path class="st5" d="M355.1 64.1L343.9 89.7l-4.6-2 7.2-16.3 -6 1.5 -5 1.3 -2.5-4.5 -3-5.4 -7.1 16.4 -4.6-2 11.2-25.6 3 5.5 5.5 10L349 65.6 355.1 64.1z" />
	<path class="st5" d="M379.7 82c0.4 1.9 0.1 3.9-1 5.7 -1.6 2.6-4.6 3.8-7.4 3.4 -0.7-0.1-1.5-0.3-2.1-0.7 -0.1 0-0.1-0.1-0.2-0.1l0 0 -11.3-7.2 -6.9 10.8 -4.2-2.7 15.1-23.6 14.9 9.5c1.8 1.1 2.9 2.9 3.3 4.7L379.7 82zM372 86.2c1 0.2 2-0.3 2.5-1.1 0.5-0.8 0.4-1.6 0.4-2 -0.1-0.4-0.4-1.1-1.1-1.6l-10.7-6.8 -2.8 4.3 10.7 6.9c0.3 0.2 0.7 0.3 1 0.4L372 86.2z" />
	<path class="st5" d="M409.6 104.3l-9.3 10.5c-5.1 5.8-14 6.3-19.8 1.2 -5.8-5.1-6.3-14-1.1-19.8l9.3-10.5 3.7 3.3 -9.3 10.5c-3.3 3.7-3 9.4 0.7 12.7 3.7 3.3 9.4 3 12.7-0.7l9.3-10.5L409.6 104.3z" />
	<path class="st5" d="M432.4 131.5l-3.9 3.1 -7.2-8.9 -17.9 14.5 -3.1-3.9 17.9-14.5 -7.2-8.9 3.9-3.1L432.4 131.5z" />
	<path class="st5" d="M432.6 145.8l-2.3 1.3 8.9 15.7 -4.3 2.5 -8.9-15.7 -4.6 2.6c-1.2 0.7-1.7 2.3-1 3.5l10.1 17.8 -4.3 2.5 -10.1-17.8c-2-3.6-0.7-8.2 2.9-10.3l11.2-6.3c3.6-2 8.2-0.8 10.3 2.8l10.1 17.8 -4.3 2.5 -10.1-17.8C435.4 145.5 433.8 145.1 432.6 145.8z" />
	<path class="st5" d="M439.9 198.1l-3.8 4.2 -2-5.2 3.8-4.1 4-4.3 0.2-0.2c1-1.3 1.4-3.1 0.8-4.8l-1.7-4.7 -12.1 4.5 -1.7-4.7 26.2-9.8 6.2 16.6c0.7 2 0.6 4-0.2 5.8 -0.8 1.8-2.3 3.2-4.2 3.9 -2.8 1.1-5.9 0.3-8-1.7 -0.5-0.5-1-1.1-1.3-1.8L439.9 198.1zM450.2 188.9c0.1 0.3 0.3 0.7 0.6 0.9 0.7 0.7 1.8 1 2.7 0.6 0.9-0.3 1.3-1 1.5-1.4 0.2-0.4 0.4-1.1 0-1.9l-4.4-11.9 -4.8 1.8L450.2 188.9z" />
	<path class="st5" d="M463.5 242.8l0.2 0c1.4-0.1 2.4-1.4 2.3-2.8l-1.2-11.3c-0.1-1.4-1.4-2.4-2.8-2.3l-0.2 0c-1.4 0.1-2.4 1.4-2.3 2.8l1 10c0.3 2.6-0.6 5-2.2 6.8 -0.1 0.1-0.2 0.2-0.3 0.4 -1.4 1.4-3.3 2.4-5.4 2.6 -4.9 0.5-9.2-3-9.7-7.9l-0.9-8.7c-0.5-4.8 3-9.2 7.9-9.7l0.5 5c-2.1 0.2-3.6 2.1-3.4 4.2l0.9 8.7c0.2 2.1 2.1 3.7 4.2 3.5 2.1-0.2 3.6-2.1 3.4-4.2l-1-10c-0.2-2 0.4-3.9 1.6-5.4 0.3-0.4 0.7-0.7 1.1-1.1 1.1-1 2.5-1.6 4.1-1.7l0.2 0c4.1-0.4 7.9 2.6 8.3 6.7l1.2 11.3c0.4 4.1-2.6 7.9-6.7 8.3l-0.2 0L463.5 242.8z" />
	<path class="st5" d="M457.7 258.1c-4.9-0.3-9.2 3.5-9.5 8.5l-0.8 14 -5-0.3 0.8-14c0.4-7.7 7-13.6 14.8-13.2 7.7 0.4 13.6 7 13.2 14.8l-0.8 14 -5-0.3 0.8-14C466.5 262.7 462.7 258.4 457.7 258.1z" />
	<path class="st5" d="M441.5 283.6l27.7 4.5 -0.8 4.9 -27.6-4.4L441.5 283.6z" />
	<path class="st5" d="M459 302l-2.5-0.7 -4.7 17.4 -4.8-1.3 4.7-17.4 -5.1-1.4c-1.3-0.4-2.8 0.5-3.1 1.8l-5.4 19.7 -4.8-1.3 5.4-19.7c1.1-4 5.3-6.4 9.3-5.3l12.4 3.4c4 1.1 6.4 5.2 5.3 9.2l-5.4 19.7 -4.8-1.3 5.4-19.7C461.2 303.8 460.4 302.4 459 302z" />
	<path class="st5" d="M446 358.7l-25.4-11.7 5.6-2.9 20.1-10.5 -16.1-7.4 2.1-4.5 25.4 11.7 -5.6 2.9 -20.1 10.5 16.2 7.5L446 358.7z" />
	<path class="st5" d="M428.1 361.3c-4.1-2.8-9.7-1.7-12.5 2.4l-7.8 11.6 -4.1-2.8 7.9-11.6c4.3-6.4 13.1-8.1 19.4-3.7 6.4 4.3 8.1 13.1 3.7 19.4l-7.8 11.6 -4.1-2.8 7.9-11.6C433.3 369.7 432.2 364 428.1 361.3z" />
	<path class="st5" d="M413.2 392.4l-1.9-1.8 -12.4 13.1 -3.6-3.4 12.4-13.1 -3.8-3.6c-1-1-2.7-0.9-3.6 0.1l-14 14.8 -3.6-3.4 14.1-14.8c2.9-3 7.6-3.1 10.7-0.3l9.4 8.9c3 2.9 3.2 7.6 0.3 10.7l-14 14.8 -3.6-3.4 14.1-14.8C414.2 395.1 414.2 393.4 413.2 392.4z" />
	<path class="st5" d="M334.9 447.3c-0.9 0.4-1.8 0.5-2.7 0.4 -0.9-0.1-1.7-0.5-2.5-1 -0.7-0.6-1.3-1.3-1.6-2.2 -0.3-0.9-0.5-1.7-0.3-2.7 0.1-0.9 0.5-1.8 1-2.5 0.6-0.7 1.3-1.3 2.1-1.6 0.9-0.4 1.8-0.5 2.7-0.3 0.9 0.1 1.8 0.5 2.5 1.1 0.7 0.6 1.3 1.3 1.6 2.1 0.6 1.3 0.6 2.7 0 4S336.2 446.7 334.9 447.3z" />
	<polygon class="st4" points="255.3 82.1 89.5 202.5 152.8 397.4 357.8 397.4 421.1 202.5 " />
	<path class="st5" d="M256 310.8l10.3-17.8h-7.3v-91.1l18.8 17.7c1.2 1.5 2.1 3.5 2.1 5.5 0 8.2 0 13.1 0 14.9 -3.5 1.2-6 4.5-6 8.4 0 4.9 4 8.9 8.9 8.9 4.9 0 8.9-4 8.9-8.9 0-3.9-2.5-7.2-6-8.4l0-14.7c0-4-2.2-8.2-4.8-10.8 0.1 0.1 0.2 0.2 0 0 -0.1-0.1-19.9-18.8-19.9-18.8 -1.2-1.5-2-3.5-2.1-5.5v-10.3c6.8-1.4 11.9-7.4 11.9-14.6 0-8.2-6.7-14.9-14.9-14.9 -8.2 0-14.9 6.7-14.9 14.9 0 7.2 5.1 13.2 12 14.6v10.1c0 0 0 0.1 0 0.1v22.4c0 2-0.9 4-2.1 5.5 0 0-19.8 18.8-19.9 18.8 -0.2 0.2-0.1 0.1 0 0 -2.6 2.7-4.8 6.9-4.8 10.8l0 14.2h-6v17.8h17.8v-17.8h-6c0 0 0-3.7 0-14.4 0.1-2 0.9-4 2.1-5.5l18.8-17.7v68.9h-7.4L256 310.8z" />
	<polyline class="st6" points="256.3 361.8 169.4 201.3 255.7 361.8 342.7 201.3 " />
</svg>