<svg xmlns="http://www.w3.org/2000/svg" xmlns:xlink="http://www.w3.org/1999/xlink" xmlns:lucid="lucid" width="1140" height="1120"><g transform="translate(-105 -45)" lucid:page-tab-id="0_0"><path d="M595 70c0-2.76 2.24-5 5-5h150c2.76 0 5 2.24 5 5v110c0 2.76-2.24 5-5 5H600c-2.76 0-5-2.24-5-5z" stroke="#000" stroke-opacity="0" stroke-width="2" fill="#3278ca"/><use xlink:href="#a" transform="matrix(1,0,0,1,600,70) translate(19.525 58.6)"/><use xlink:href="#b" transform="matrix(1,0,0,1,600,70) translate(88.475 58.6)"/><path d="M595 230c0-2.76 2.24-5 5-5h150c2.76 0 5 2.24 5 5v110c0 2.76-2.24 5-5 5H600c-2.76 0-5-2.24-5-5z" stroke="#000" stroke-opacity="0" stroke-width="2" fill="#4397ff"/><path d="M725 290.1c1.7 0 2.5-2.4 1.3-3.5l-49.2-49.4-49.3 49.5c-1.2 1.1-.4 3.4 1.3 3.4h8.6V335h26.2v-37.4h22.5V335h26.3v-44.9H725zm-76.1-48.6H634v26.3l14.9-14.9v-11.4z" fill="#85bbff"/><use xlink:href="#c" transform="matrix(1,0,0,1,600,230) translate(51.05 58.6)"/><path d="M675 185v40" stroke="#999" stroke-width="2" fill="none"/><path fill="#999"/><path fill="#999"/><path d="M125 390c0-2.76 2.24-5 5-5h134c2.76 0 5 2.24 5 5v98c0 2.76-2.24 5-5 5H130c-2.76 0-5-2.24-5-5z" stroke="#000" stroke-opacity="0" stroke-width="2" fill="#4397ff"/><path d="M141 402c0-2.76 2.24-5 5-5h134c2.76 0 5 2.24 5 5v98c0 2.76-2.24 5-5 5H146c-2.76 0-5-2.24-5-5z" stroke="#000" stroke-opacity="0" stroke-width="2" fill="#4397ff"/><use xlink:href="#d" transform="matrix(1,0,0,1,146,402) translate(42.574999999999996 52.6)"/><path d="M325 390c0-2.76 2.24-5 5-5h134c2.76 0 5 2.24 5 5v98c0 2.76-2.24 5-5 5H330c-2.76 0-5-2.24-5-5z" stroke="#000" stroke-opacity="0" stroke-width="2" fill="#4397ff"/><path d="M341 402c0-2.76 2.24-5 5-5h134c2.76 0 5 2.24 5 5v98c0 2.76-2.24 5-5 5H346c-2.76 0-5-2.24-5-5z" stroke="#000" stroke-opacity="0" stroke-width="2" fill="#4397ff"/><use xlink:href="#e" transform="matrix(1,0,0,1,345.99999999999994,402) translate(28.574999999999996 52.6)"/><path d="M525 390c0-2.76 2.24-5 5-5h134c2.76 0 5 2.24 5 5v98c0 2.76-2.24 5-5 5H530c-2.76 0-5-2.24-5-5z" stroke="#000" stroke-opacity="0" stroke-width="2" fill="#4397ff"/><path d="M541 402c0-2.76 2.24-5 5-5h134c2.76 0 5 2.24 5 5v98c0 2.76-2.24 5-5 5H546c-2.76 0-5-2.24-5-5z" stroke="#000" stroke-opacity="0" stroke-width="2" fill="#4397ff"/><use xlink:href="#f" transform="matrix(1,0,0,1,546,402) translate(37.05 52.6)"/><path d="M675 345v20H205v20" stroke="#999" stroke-width="2" fill="none"/><path fill="#999"/><path fill="#999"/><path d="M675 345v20H405v20" stroke="#999" stroke-width="2" fill="none"/><path fill="#999"/><path fill="#999"/><path d="M675 345v20h-70v20" stroke="#999" stroke-width="2" fill="none"/><path fill="#999"/><path fill="#999"/><path d="M165 550c0-2.76 2.24-5 5-5h150c2.76 0 5 2.24 5 5v110c0 2.76-2.24 5-5 5H170c-2.76 0-5-2.24-5-5z" stroke="#000" stroke-opacity="0" stroke-width="2" fill="#4397ff"/><use xlink:href="#g" transform="matrix(1,0,0,1,170,550) translate(54.5 58.6)"/><path d="M145.25 504.75V605H165" stroke="#999" stroke-width="2" fill="none"/><path d="M145.25 504.75h-1v-.32z" fill="#999"/><path fill="#999"/><path d="M165 710c0-2.76 2.24-5 5-5h150c2.76 0 5 2.24 5 5v110c0 2.76-2.24 5-5 5H170c-2.76 0-5-2.24-5-5z" stroke="#000" stroke-opacity="0" stroke-width="2" fill="#4397ff"/><use xlink:href="#h" transform="matrix(1,0,0,1,170,710) translate(37.675 58.6)"/><path d="M145.25 504.75V765H165" stroke="#999" stroke-width="2" fill="none"/><path d="M145.25 504.75h-1v-.32z" fill="#999"/><path fill="#999"/><path d="M365 550c0-2.76 2.24-5 5-5h150c2.76 0 5 2.24 5 5v110c0 2.76-2.24 5-5 5H370c-2.76 0-5-2.24-5-5z" stroke="#000" stroke-opacity="0" stroke-width="2" fill="#4397ff"/><use xlink:href="#i" transform="matrix(1,0,0,1,370,550) translate(44.05 58.6)"/><path d="M345.25 504.75V605H365" stroke="#999" stroke-width="2" fill="none"/><path d="M345.25 504.75h-1v-.32z" fill="#999"/><path fill="#999"/><path d="M365 710c0-2.76 2.24-5 5-5h150c2.76 0 5 2.24 5 5v110c0 2.76-2.24 5-5 5H370c-2.76 0-5-2.24-5-5z" stroke="#000" stroke-opacity="0" stroke-width="2" fill="#4397ff"/><use xlink:href="#j" transform="matrix(1,0,0,1,370,710) translate(50 58.6)"/><path d="M345.25 504.75V765H365" stroke="#999" stroke-width="2" fill="none"/><path d="M345.25 504.75h-1v-.32z" fill="#999"/><path fill="#999"/><path d="M365 870c0-2.76 2.24-5 5-5h150c2.76 0 5 2.24 5 5v110c0 2.76-2.24 5-5 5H370c-2.76 0-5-2.24-5-5z" stroke="#000" stroke-opacity="0" stroke-width="2" fill="#4397ff"/><use xlink:href="#k" transform="matrix(1,0,0,1,370,870) translate(43.099999999999994 58.6)"/><path d="M345.25 504.75V925H365" stroke="#999" stroke-width="2" fill="none"/><path d="M345.25 504.75h-1v-.32z" fill="#999"/><path fill="#999"/><path d="M365 1030c0-2.76 2.24-5 5-5h150c2.76 0 5 2.24 5 5v110c0 2.76-2.24 5-5 5H370c-2.76 0-5-2.24-5-5z" stroke="#000" stroke-opacity="0" stroke-width="2" fill="#4397ff"/><use xlink:href="#l" transform="matrix(1,0,0,1,370,1030) translate(34.05 58.6)"/><path d="M345.25 504.75V1085H365" stroke="#999" stroke-width="2" fill="none"/><path d="M345.25 504.75h-1v-.32z" fill="#999"/><path fill="#999"/><path d="M565 550c0-2.76 2.24-5 5-5h150c2.76 0 5 2.24 5 5v110c0 2.76-2.24 5-5 5H570c-2.76 0-5-2.24-5-5z" stroke="#000" stroke-opacity="0" stroke-width="2" fill="#4397ff"/><use xlink:href="#j" transform="matrix(1,0,0,1,570,550) translate(50 58.6)"/><path d="M545.25 504.75V605H565" stroke="#999" stroke-width="2" fill="none"/><path d="M545.25 504.75h-1v-.32z" fill="#999"/><path fill="#999"/><path d="M565 710c0-2.76 2.24-5 5-5h150c2.76 0 5 2.24 5 5v110c0 2.76-2.24 5-5 5H570c-2.76 0-5-2.24-5-5z" stroke="#000" stroke-opacity="0" stroke-width="2" fill="#4397ff"/><use xlink:href="#k" transform="matrix(1,0,0,1,570,710) translate(43.099999999999994 58.6)"/><path d="M545.25 504.75V765H565" stroke="#999" stroke-width="2" fill="none"/><path d="M545.25 504.75h-1v-.32z" fill="#999"/><path fill="#999"/><path d="M565 870c0-2.76 2.24-5 5-5h150c2.76 0 5 2.24 5 5v110c0 2.76-2.24 5-5 5H570c-2.76 0-5-2.24-5-5z" stroke="#000" stroke-opacity="0" stroke-width="2" fill="#4397ff"/><use xlink:href="#l" transform="matrix(1,0,0,1,570,870) translate(34.05 58.6)"/><path d="M545.25 504.75V925H565" stroke="#999" stroke-width="2" fill="none"/><path d="M545.25 504.75h-1v-.32z" fill="#999"/><path fill="#999"/><path d="M705 390c0-2.76 2.24-5 5-5h150c2.76 0 5 2.24 5 5v110c0 2.76-2.24 5-5 5H710c-2.76 0-5-2.24-5-5z" stroke="#000" stroke-opacity="0" stroke-width="2" fill="#4397ff"/><path d="M817.6 443h-30.9v-6.8h17.2v-37.8h-41.2v37.8h17.2v6.8h-27.5v13.7h-13.7v34.4H773v-34.4h-13.7v-6.8h51.4v6.8H797v34.4h34.3v-34.4h-13.7V443z" fill="#85bbff"/><use xlink:href="#m" transform="matrix(1,0,0,1,710,390) translate(47.525 47.8)"/><use xlink:href="#n" transform="matrix(1,0,0,1,710,390) translate(9.424999999999997 69.4)"/><path d="M885 390c0-2.76 2.24-5 5-5h150c2.76 0 5 2.24 5 5v110c0 2.76-2.24 5-5 5H890c-2.76 0-5-2.24-5-5z" stroke="#000" stroke-opacity="0" stroke-width="2" fill="#4397ff"/><use xlink:href="#o" transform="matrix(1,0,0,1,890,390) translate(26.099999999999994 58.6)"/><path d="M1065 390c0-2.76 2.24-5 5-5h150c2.76 0 5 2.24 5 5v110c0 2.76-2.24 5-5 5h-150c-2.76 0-5-2.24-5-5z" stroke="#000" stroke-opacity="0" stroke-width="2" fill="#4397ff"/><use xlink:href="#p" transform="matrix(1,0,0,1,1070,390) translate(54.525 58.6)"/><path d="M675 345v15c0 2.76 2.24 5 5 5h100c2.76 0 5 2.24 5 5v15" stroke="#999" stroke-width="2" fill="none"/><path fill="#999"/><path fill="#999"/><path d="M675 345v15c0 2.76 2.24 5 5 5h280c2.76 0 5 2.24 5 5v15" stroke="#999" stroke-width="2" fill="none"/><path fill="#999"/><path fill="#999"/><path d="M675 345v15c0 2.76 2.24 5 5 5h460c2.76 0 5 2.24 5 5v15" stroke="#999" stroke-width="2" fill="none"/><path fill="#999"/><path fill="#999"/><defs><path fill="#fff" d="M11 0l48-248h34L50-27h125l-5 27H11" id="q"/><path fill="#fff" d="M165-48c-4 18 1 34 23 27l-3 20c-29 8-62 0-52-35h-2C116-14 99 4 63 4 30 4 8-16 8-49c0-68 71-67 138-67 10-26 0-56-31-54-26 1-42 9-47 31l-32-5c8-67 160-71 144 15-5 28-9 54-15 81zM42-50c3 52 80 24 89-6 7-12 7-24 11-38-47 1-103-4-100 44" id="r"/><path fill="#fff" d="M67-158c22-48 132-52 116 29L158 0h-32l25-140c3-38-53-32-70-12C52-117 51-52 38 0H6l36-190h30" id="s"/><path fill="#fff" d="M133-28C103 26-5 8 13-77c13-62 24-115 90-117 29-1 46 15 56 35l19-102h32L160 0h-30zM45-64c-2 27 10 43 35 43 54-1 69-50 69-103 0-29-15-46-42-46-53-1-58 58-62 106" id="t"/><path fill="#fff" d="M50-231l6-30h32l-6 30H50zM6 0l37-190h31L37 0H6" id="u"/><path fill="#fff" d="M103-194c29 0 47 14 56 36 2-11 5-23 8-32h30L160-5C157 61 82 97 21 62 9 55 4 45 1 30l28-7c7 42 83 31 92-3 4-16 9-38 13-55-13 20-29 36-62 36-40 0-60-25-60-64 0-71 23-131 91-131zm4 24c-53 0-58 54-61 104-2 27 10 44 36 44 49 0 65-50 67-102 1-29-15-46-42-46" id="v"/><g id="a"><use transform="matrix(0.05,0,0,0.05,0,0)" xlink:href="#q"/><use transform="matrix(0.05,0,0,0.05,10,0)" xlink:href="#r"/><use transform="matrix(0.05,0,0,0.05,20,0)" xlink:href="#s"/><use transform="matrix(0.05,0,0,0.05,30,0)" xlink:href="#t"/><use transform="matrix(0.05,0,0,0.05,40,0)" xlink:href="#u"/><use transform="matrix(0.05,0,0,0.05,43.95,0)" xlink:href="#s"/><use transform="matrix(0.05,0,0,0.05,53.95,0)" xlink:href="#v"/></g><path fill="#fff" d="M238-179c0 84-86 86-175 82L45 0H11l48-248c82 0 179-12 179 69zm-34 1c0-53-64-42-116-43l-19 98c63 0 135 9 135-55" id="w"/><path fill="#fff" d="M111-194c62-3 86 47 72 106H45c-7 38 6 69 45 68 27-1 43-14 53-32l24 11C152-15 129 4 87 4 38 3 12-23 12-71c0-70 32-119 99-123zm44 81c14-66-71-72-95-28-4 8-8 17-11 28h106" id="x"/><g id="b"><use transform="matrix(0.05,0,0,0.05,0,0)" xlink:href="#w"/><use transform="matrix(0.05,0,0,0.05,12,0)" xlink:href="#r"/><use transform="matrix(0.05,0,0,0.05,22,0)" xlink:href="#v"/><use transform="matrix(0.05,0,0,0.05,32,0)" xlink:href="#x"/></g><path fill="#fff" d="M197 0v-115H63V0H30v-248h33v105h134v-105h34V0h-34" id="y"/><path fill="#fff" d="M100-194c62-1 85 37 85 99 1 63-27 99-86 99S16-35 15-95c0-66 28-99 85-99zM99-20c44 1 53-31 53-75 0-43-8-75-51-75s-53 32-53 75 10 74 51 75" id="z"/><path fill="#fff" d="M210-169c-67 3-38 105-44 169h-31v-121c0-29-5-50-35-48C34-165 62-65 56 0H25l-1-190h30c1 10-1 24 2 32 10-44 99-50 107 0 11-21 27-35 58-36 85-2 47 119 55 194h-31v-121c0-29-5-49-35-48" id="A"/><path fill="#fff" d="M100-194c63 0 86 42 84 106H49c0 40 14 67 53 68 26 1 43-12 49-29l28 8c-11 28-37 45-77 45C44 4 14-33 15-96c1-61 26-98 85-98zm52 81c6-60-76-77-97-28-3 7-6 17-6 28h103" id="B"/><g id="c"><use transform="matrix(0.05,0,0,0.05,0,0)" xlink:href="#y"/><use transform="matrix(0.05,0,0,0.05,12.950000000000001,0)" xlink:href="#z"/><use transform="matrix(0.05,0,0,0.05,22.950000000000003,0)" xlink:href="#A"/><use transform="matrix(0.05,0,0,0.05,37.900000000000006,0)" xlink:href="#B"/></g><path fill="#fff" d="M127-220V0H93v-220H8v-28h204v28h-85" id="C"/><path fill="#fff" d="M114-163C36-179 61-72 57 0H25l-1-190h30c1 12-1 29 2 39 6-27 23-49 58-41v29" id="D"/><path fill="#fff" d="M24-231v-30h32v30H24zM24 0v-190h32V0H24" id="E"/><path fill="#fff" d="M141-36C126-15 110 5 73 4 37 3 15-17 15-53c-1-64 63-63 125-63 3-35-9-54-41-54-24 1-41 7-42 31l-33-3c5-37 33-52 76-52 45 0 72 20 72 64v82c-1 20 7 32 28 27v20c-31 9-61-2-59-35zM48-53c0 20 12 33 32 33 41-3 63-29 60-74-43 2-92-5-92 41" id="F"/><g id="d"><use transform="matrix(0.05,0,0,0.05,0,0)" xlink:href="#C"/><use transform="matrix(0.05,0,0,0.05,8.950000000000001,0)" xlink:href="#B"/><use transform="matrix(0.05,0,0,0.05,18.950000000000003,0)" xlink:href="#z"/><use transform="matrix(0.05,0,0,0.05,28.950000000000003,0)" xlink:href="#D"/><use transform="matrix(0.05,0,0,0.05,34.900000000000006,0)" xlink:href="#E"/><use transform="matrix(0.05,0,0,0.05,38.85000000000001,0)" xlink:href="#F"/></g><path fill="#fff" d="M185-189c-5-48-123-54-124 2 14 75 158 14 163 119 3 78-121 87-175 55-17-10-28-26-33-46l33-7c5 56 141 63 141-1 0-78-155-14-162-118-5-82 145-84 179-34 5 7 8 16 11 25" id="G"/><path fill="#fff" d="M59-47c-2 24 18 29 38 22v24C64 9 27 4 27-40v-127H5v-23h24l9-43h21v43h35v23H59v120" id="H"/><path fill="#fff" d="M84 4C-5 8 30-112 23-190h32v120c0 31 7 50 39 49 72-2 45-101 50-169h31l1 190h-30c-1-10 1-25-2-33-11 22-28 36-60 37" id="I"/><path fill="#fff" d="M117-194c89-4 53 116 60 194h-32v-121c0-31-8-49-39-48C34-167 62-67 57 0H25l-1-190h30c1 10-1 24 2 32 11-22 29-35 61-36" id="J"/><g id="e"><use transform="matrix(0.05,0,0,0.05,0,0)" xlink:href="#G"/><use transform="matrix(0.05,0,0,0.05,12,0)" xlink:href="#H"/><use transform="matrix(0.05,0,0,0.05,17,0)" xlink:href="#D"/><use transform="matrix(0.05,0,0,0.05,22.95,0)" xlink:href="#I"/><use transform="matrix(0.05,0,0,0.05,32.95,0)" xlink:href="#A"/><use transform="matrix(0.05,0,0,0.05,47.900000000000006,0)" xlink:href="#B"/><use transform="matrix(0.05,0,0,0.05,57.900000000000006,0)" xlink:href="#J"/><use transform="matrix(0.05,0,0,0.05,67.9,0)" xlink:href="#H"/><use transform="matrix(0.05,0,0,0.05,72.9,0)" xlink:href="#E"/></g><path fill="#fff" d="M205 0l-28-72H64L36 0H1l101-248h38L239 0h-34zm-38-99l-47-123c-12 45-31 82-46 123h93" id="K"/><path fill="#fff" d="M96-169c-40 0-48 33-48 73s9 75 48 75c24 0 41-14 43-38l32 2c-6 37-31 61-74 61-59 0-76-41-82-99-10-93 101-131 147-64 4 7 5 14 7 22l-32 3c-4-21-16-35-41-35" id="L"/><path fill="#fff" d="M85-194c31 0 48 13 60 33l-1-100h32l1 261h-30c-2-10 0-23-3-31C134-8 116 4 85 4 32 4 16-35 15-94c0-66 23-100 70-100zm9 24c-40 0-46 34-46 75 0 40 6 74 45 74 42 0 51-32 51-76 0-42-9-74-50-73" id="M"/><g id="f"><use transform="matrix(0.05,0,0,0.05,0,0)" xlink:href="#K"/><use transform="matrix(0.05,0,0,0.05,12,0)" xlink:href="#L"/><use transform="matrix(0.05,0,0,0.05,21,0)" xlink:href="#L"/><use transform="matrix(0.05,0,0,0.05,30,0)" xlink:href="#z"/><use transform="matrix(0.05,0,0,0.05,40,0)" xlink:href="#D"/><use transform="matrix(0.05,0,0,0.05,45.95,0)" xlink:href="#M"/><use transform="matrix(0.05,0,0,0.05,55.95,0)" xlink:href="#E"/></g><path fill="#fff" d="M160-131c35 5 61 23 61 61C221 17 115-2 30 0v-248c76 3 177-17 177 60 0 33-19 50-47 57zm-97-11c50-1 110 9 110-42 0-47-63-36-110-37v79zm0 115c55-2 124 14 124-45 0-56-70-42-124-44v89" id="N"/><path fill="#fff" d="M135-143c-3-34-86-38-87 0 15 53 115 12 119 90S17 21 10-45l28-5c4 36 97 45 98 0-10-56-113-15-118-90-4-57 82-63 122-42 12 7 21 19 24 35" id="O"/><g id="g"><use transform="matrix(0.05,0,0,0.05,0,0)" xlink:href="#N"/><use transform="matrix(0.05,0,0,0.05,12,0)" xlink:href="#F"/><use transform="matrix(0.05,0,0,0.05,22,0)" xlink:href="#O"/><use transform="matrix(0.05,0,0,0.05,31,0)" xlink:href="#B"/></g><path fill="#fff" d="M108 0H70L1-190h34L89-25l56-165h34" id="P"/><path fill="#fff" d="M9 0v-24l116-142H16v-24h144v24L44-24h123V0H9" id="Q"/><g id="h"><use transform="matrix(0.05,0,0,0.05,0,0)" xlink:href="#K"/><use transform="matrix(0.05,0,0,0.05,11.65,0)" xlink:href="#P"/><use transform="matrix(0.05,0,0,0.05,20.65,0)" xlink:href="#F"/><use transform="matrix(0.05,0,0,0.05,30.649999999999995,0)" xlink:href="#J"/><use transform="matrix(0.05,0,0,0.05,40.65,0)" xlink:href="#Q"/><use transform="matrix(0.05,0,0,0.05,49.65,0)" xlink:href="#F"/><use transform="matrix(0.05,0,0,0.05,59.650000000000006,0)" xlink:href="#H"/><use transform="matrix(0.05,0,0,0.05,64.65,0)" xlink:href="#F"/></g><g id="i"><use transform="matrix(0.05,0,0,0.05,0,0)" xlink:href="#N"/><use transform="matrix(0.05,0,0,0.05,12,0)" xlink:href="#F"/><use transform="matrix(0.05,0,0,0.05,22,0)" xlink:href="#H"/><use transform="matrix(0.05,0,0,0.05,27,0)" xlink:href="#H"/><use transform="matrix(0.05,0,0,0.05,32,0)" xlink:href="#B"/><use transform="matrix(0.05,0,0,0.05,42,0)" xlink:href="#D"/><use transform="matrix(0.05,0,0,0.05,47.95,0)" xlink:href="#E"/><use transform="matrix(0.05,0,0,0.05,51.900000000000006,0)" xlink:href="#F"/></g><g id="j"><use transform="matrix(0.05,0,0,0.05,0,0)" xlink:href="#N"/><use transform="matrix(0.05,0,0,0.05,12,0)" xlink:href="#F"/><use transform="matrix(0.05,0,0,0.05,22,0)" xlink:href="#O"/><use transform="matrix(0.05,0,0,0.05,31,0)" xlink:href="#O"/><use transform="matrix(0.05,0,0,0.05,40,0)" xlink:href="#z"/></g><path fill="#fff" d="M212-179c-10-28-35-45-73-45-59 0-87 40-87 99 0 60 29 101 89 101 43 0 62-24 78-52l27 14C228-24 195 4 139 4 59 4 22-46 18-125c-6-104 99-153 187-111 19 9 31 26 39 46" id="R"/><path fill="#fff" d="M106-169C34-169 62-67 57 0H25v-261h32l-1 103c12-21 28-36 61-36 89 0 53 116 60 194h-32v-121c2-32-8-49-39-48" id="S"/><g id="k"><use transform="matrix(0.05,0,0,0.05,0,0)" xlink:href="#R"/><use transform="matrix(0.05,0,0,0.05,12.950000000000001,0)" xlink:href="#S"/><use transform="matrix(0.05,0,0,0.05,22.950000000000003,0)" xlink:href="#E"/><use transform="matrix(0.05,0,0,0.05,26.900000000000002,0)" xlink:href="#H"/><use transform="matrix(0.05,0,0,0.05,31.900000000000002,0)" xlink:href="#F"/><use transform="matrix(0.05,0,0,0.05,41.900000000000006,0)" xlink:href="#D"/><use transform="matrix(0.05,0,0,0.05,47.85000000000001,0)" xlink:href="#D"/><use transform="matrix(0.05,0,0,0.05,53.80000000000001,0)" xlink:href="#F"/></g><path fill="#fff" d="M30-248c87 1 191-15 191 75 0 78-77 80-158 76V0H30v-248zm33 125c57 0 124 11 124-50 0-59-68-47-124-48v98" id="T"/><path fill="#fff" d="M101-234c-31-9-42 10-38 44h38v23H63V0H32v-167H5v-23h27c-7-52 17-82 69-68v24" id="U"/><g id="l"><use transform="matrix(0.05,0,0,0.05,0,0)" xlink:href="#T"/><use transform="matrix(0.05,0,0,0.05,12,0)" xlink:href="#E"/><use transform="matrix(0.05,0,0,0.05,15.949999999999998,0)" xlink:href="#F"/><use transform="matrix(0.05,0,0,0.05,25.950000000000003,0)" xlink:href="#J"/><use transform="matrix(0.05,0,0,0.05,35.95,0)" xlink:href="#z"/><use transform="matrix(0.05,0,0,0.05,45.95,0)" xlink:href="#U"/><use transform="matrix(0.05,0,0,0.05,50.95,0)" xlink:href="#z"/><use transform="matrix(0.05,0,0,0.05,60.95,0)" xlink:href="#D"/><use transform="matrix(0.05,0,0,0.05,66.9,0)" xlink:href="#H"/><use transform="matrix(0.05,0,0,0.05,71.9,0)" xlink:href="#B"/></g><path fill="#fff" d="M240 0l2-218c-23 76-54 145-80 218h-23L58-218 59 0H30v-248h44l77 211c21-75 51-140 76-211h43V0h-30" id="V"/><path fill="#fff" d="M115-194c55 1 70 41 70 98S169 2 115 4C84 4 66-9 55-30l1 105H24l-1-265h31l2 30c10-21 28-34 59-34zm-8 174c40 0 45-34 45-75s-6-73-45-74c-42 0-51 32-51 76 0 43 10 73 51 73" id="W"/><g id="m"><use transform="matrix(0.05,0,0,0.05,0,0)" xlink:href="#V"/><use transform="matrix(0.05,0,0,0.05,14.950000000000001,0)" xlink:href="#F"/><use transform="matrix(0.05,0,0,0.05,24.950000000000003,0)" xlink:href="#W"/><use transform="matrix(0.05,0,0,0.05,34.95,0)" xlink:href="#W"/><use transform="matrix(0.05,0,0,0.05,44.95,0)" xlink:href="#F"/></g><path fill="#fff" d="M24 0v-261h32V0H24" id="X"/><path fill="#fff" d="M47-170H22l-4-78h33" id="Y"/><g id="n"><use transform="matrix(0.05,0,0,0.05,0,0)" xlink:href="#M"/><use transform="matrix(0.05,0,0,0.05,10,0)" xlink:href="#B"/><use transform="matrix(0.05,0,0,0.05,20,0)" xlink:href="#X"/><use transform="matrix(0.05,0,0,0.05,23.95,0)" xlink:href="#X"/><use transform="matrix(0.05,0,0,0.05,27.899999999999995,0)" xlink:href="#Y"/><use transform="matrix(0.05,0,0,0.05,31.299999999999997,0)" xlink:href="#F"/><use transform="matrix(0.05,0,0,0.05,41.3,0)" xlink:href="#W"/><use transform="matrix(0.05,0,0,0.05,51.29999999999999,0)" xlink:href="#W"/><use transform="matrix(0.05,0,0,0.05,61.29999999999999,0)" xlink:href="#X"/><use transform="matrix(0.05,0,0,0.05,65.25,0)" xlink:href="#E"/><use transform="matrix(0.05,0,0,0.05,69.2,0)" xlink:href="#L"/><use transform="matrix(0.05,0,0,0.05,78.2,0)" xlink:href="#F"/><use transform="matrix(0.05,0,0,0.05,88.2,0)" xlink:href="#Q"/><use transform="matrix(0.05,0,0,0.05,97.2,0)" xlink:href="#E"/><use transform="matrix(0.05,0,0,0.05,101.15,0)" xlink:href="#z"/><use transform="matrix(0.05,0,0,0.05,111.15,0)" xlink:href="#J"/><use transform="matrix(0.05,0,0,0.05,121.15,0)" xlink:href="#B"/></g><path fill="#fff" d="M33 0v-248h34V0H33" id="Z"/><g id="o"><use transform="matrix(0.05,0,0,0.05,0,0)" xlink:href="#Z"/><use transform="matrix(0.05,0,0,0.05,5,0)" xlink:href="#J"/><use transform="matrix(0.05,0,0,0.05,15,0)" xlink:href="#U"/><use transform="matrix(0.05,0,0,0.05,20,0)" xlink:href="#z"/><use transform="matrix(0.05,0,0,0.05,30,0)" xlink:href="#D"/><use transform="matrix(0.05,0,0,0.05,35.95,0)" xlink:href="#A"/><use transform="matrix(0.05,0,0,0.05,50.900000000000006,0)" xlink:href="#F"/><use transform="matrix(0.05,0,0,0.05,60.900000000000006,0)" xlink:href="#Q"/><use transform="matrix(0.05,0,0,0.05,69.9,0)" xlink:href="#E"/><use transform="matrix(0.05,0,0,0.05,73.85000000000001,0)" xlink:href="#z"/><use transform="matrix(0.05,0,0,0.05,83.85000000000001,0)" xlink:href="#J"/><use transform="matrix(0.05,0,0,0.05,93.85000000000001,0)" xlink:href="#E"/></g><g id="p"><use transform="matrix(0.05,0,0,0.05,0,0)" xlink:href="#K"/><use transform="matrix(0.05,0,0,0.05,12,0)" xlink:href="#E"/><use transform="matrix(0.05,0,0,0.05,15.949999999999998,0)" xlink:href="#I"/><use transform="matrix(0.05,0,0,0.05,25.950000000000003,0)" xlink:href="#H"/><use transform="matrix(0.05,0,0,0.05,30.950000000000003,0)" xlink:href="#z"/></g></defs></g></svg>