<?xml version="1.0" encoding="utf-8"?>
<!-- Generator: Adobe Illustrator 23.0.1, SVG Export Plug-In . SVG Version: 6.00 Build 0)  -->
<svg version="1.1" xmlns="http://www.w3.org/2000/svg" xmlns:xlink="http://www.w3.org/1999/xlink" x="0px" y="0px"
	 viewBox="0 0 993 1468" style="enable-background:new 0 0 993 1468;" xml:space="preserve">
<style type="text/css">
	.st0{fill:none;stroke:#000000;stroke-width:6;stroke-miterlimit:10;}
	.st1{fill:none;stroke:#000000;stroke-width:4;stroke-miterlimit:10;}
	.st2{fill:none;stroke:#000000;stroke-width:3;stroke-miterlimit:10;}
	.st3{fill:none;stroke:#000000;stroke-miterlimit:10;}
	.st4{fill:#E55100;stroke:#E55100;stroke-width:4;stroke-miterlimit:10;}
	.st5{fill:#FFFFFF;}
	.st6{display:none;}
	.st7{display:inline;}
</style>
<g id="CAPOTASTO">
	<g>
		<rect x="296.5" y="167.5" width="603" height="22"/>
		<path d="M899,168v21H297v-21H899 M900,167H296v23h604V167L900,167z"/>
	</g>
	<g>
		<line class="st0" x1="299" y1="189" x2="299" y2="1391"/>
	</g>
	<line class="st1" x1="499" y1="189" x2="499" y2="1391"/>
	<line class="st2" x1="699.5" y1="189" x2="699.5" y2="1392"/>
	<line class="st2" x1="898.5" y1="189" x2="898.5" y2="1392"/>
	<line class="st3" x1="299" y1="491" x2="898.5" y2="490.5"/>
	<line class="st3" x1="298.5" y1="790.5" x2="898.5" y2="790.5"/>
	<line class="st3" x1="298.5" y1="1090.5" x2="898.5" y2="1090.5"/>
	<line class="st3" x1="298.5" y1="1390.5" x2="898.5" y2="1391.5"/>
</g>
<g id="Scritte_Tasti">
	<g>
		<path d="M29.2,335.5v32.2h-3.3v-29.3h-7.6v-2.9H29.2z"/>
		<path d="M40.4,348.9c-1.1-0.6-2-1.5-2.6-2.6c-0.6-1.1-1-2.4-1-3.7c0-1.3,0.3-2.5,1-3.7c0.6-1.1,1.5-2,2.6-2.6c1.1-0.6,2.4-1,3.7-1
			c1.3,0,2.6,0.3,3.7,1c1.1,0.6,2,1.5,2.7,2.6c0.6,1.1,1,2.3,1,3.7c0,1.4-0.3,2.6-1,3.7c-0.6,1.1-1.5,2-2.7,2.6
			c-1.1,0.6-2.4,1-3.7,1C42.8,349.9,41.6,349.5,40.4,348.9z M47.9,346.4c1-1,1.5-2.3,1.5-3.8c0-1.5-0.5-2.8-1.5-3.8
			c-1-1-2.3-1.5-3.8-1.5s-2.8,0.5-3.8,1.5c-1,1-1.5,2.3-1.5,3.8c0,1.5,0.5,2.8,1.5,3.8c1,1,2.3,1.5,3.8,1.5S46.9,347.4,47.9,346.4z"
			/>
		<path d="M77.3,338.5H66v-2.9h26v2.9H80.7v29.3h-3.4V338.5z"/>
		<path d="M111.2,345.7c1.7,1.6,2.5,3.9,2.5,7v15h-3.1v-3.8c-0.7,1.3-1.8,2.2-3.2,2.9c-1.4,0.7-3.1,1.1-5.1,1.1
			c-2.7,0-4.8-0.6-6.4-1.9c-1.6-1.3-2.4-3-2.4-5.1c0-2.1,0.7-3.7,2.2-5c1.5-1.3,3.9-1.9,7.1-1.9h7.7v-1.5c0-2.1-0.6-3.7-1.7-4.8
			c-1.2-1.1-2.9-1.6-5.1-1.6c-1.5,0-3,0.3-4.4,0.8s-2.6,1.2-3.6,2.1l-1.5-2.4c1.2-1,2.7-1.8,4.4-2.4c1.7-0.6,3.5-0.9,5.4-0.9
			C107.1,343.3,109.5,344.1,111.2,345.7z M107.5,364.1c1.3-0.8,2.3-2.1,2.9-3.7v-4h-7.6c-4.1,0-6.2,1.4-6.2,4.3
			c0,1.4,0.5,2.5,1.6,3.3c1.1,0.8,2.6,1.2,4.5,1.2C104.6,365.4,106.2,364.9,107.5,364.1z"/>
		<path d="M123.5,367.1c-1.8-0.6-3.2-1.3-4.2-2.1l1.5-2.6c1,0.8,2.3,1.4,3.8,2c1.5,0.5,3.1,0.8,4.8,0.8c2.2,0,3.8-0.3,4.9-1
			c1.1-0.7,1.6-1.7,1.6-2.9c0-0.9-0.3-1.6-0.9-2.1s-1.3-0.9-2.2-1.1c-0.9-0.3-2.1-0.5-3.5-0.8c-2-0.4-3.5-0.7-4.7-1.1
			c-1.2-0.4-2.2-1-3.1-2c-0.8-0.9-1.3-2.2-1.3-3.8c0-2,0.8-3.7,2.5-5c1.7-1.3,4-1.9,7-1.9c1.6,0,3.1,0.2,4.7,0.6
			c1.6,0.4,2.9,1,3.9,1.6l-1.4,2.6c-2-1.4-4.4-2.1-7.1-2.1c-2.1,0-3.7,0.4-4.7,1.1c-1.1,0.7-1.6,1.7-1.6,2.9c0,0.9,0.3,1.7,0.9,2.2
			c0.6,0.6,1.3,1,2.2,1.2c0.9,0.3,2.1,0.5,3.7,0.8c1.9,0.4,3.5,0.7,4.6,1.1c1.2,0.4,2.2,1,3,1.9c0.8,0.9,1.2,2.1,1.2,3.7
			c0,2.1-0.9,3.8-2.6,5c-1.8,1.2-4.2,1.9-7.3,1.9C127.1,367.9,125.3,367.7,123.5,367.1z"/>
		<path d="M157.8,366.2c-0.6,0.6-1.4,1-2.3,1.3c-0.9,0.3-1.8,0.4-2.8,0.4c-2.3,0-4-0.6-5.2-1.8s-1.8-3-1.8-5.2v-14.6h-4.3v-2.8h4.3
			v-5.3h3.3v5.3h7.4v2.8h-7.4v14.4c0,1.4,0.4,2.5,1.1,3.3c0.7,0.8,1.8,1.1,3.1,1.1c0.7,0,1.3-0.1,2-0.3c0.6-0.2,1.2-0.5,1.6-0.9
			L157.8,366.2z"/>
		<path d="M166.5,366.4c-1.9-1.1-3.3-2.5-4.4-4.4c-1.1-1.9-1.6-4-1.6-6.3c0-2.4,0.5-4.5,1.6-6.3c1.1-1.9,2.5-3.3,4.4-4.4
			c1.9-1,4-1.6,6.3-1.6s4.4,0.5,6.3,1.6c1.9,1,3.3,2.5,4.4,4.4c1.1,1.9,1.6,4,1.6,6.3c0,2.4-0.5,4.5-1.6,6.3
			c-1.1,1.9-2.5,3.3-4.4,4.4c-1.9,1.1-4,1.6-6.3,1.6S168.4,367.4,166.5,366.4z M177.4,363.9c1.4-0.8,2.4-1.9,3.2-3.3
			c0.8-1.4,1.1-3.1,1.1-4.9c0-1.8-0.4-3.5-1.1-4.9c-0.8-1.4-1.8-2.6-3.2-3.3c-1.4-0.8-2.9-1.2-4.6-1.2c-1.7,0-3.3,0.4-4.6,1.2
			c-1.4,0.8-2.4,1.9-3.2,3.3c-0.8,1.4-1.2,3.1-1.2,4.9c0,1.8,0.4,3.5,1.2,4.9c0.8,1.4,1.9,2.6,3.2,3.3c1.4,0.8,2.9,1.2,4.6,1.2
			C174.5,365,176.1,364.7,177.4,363.9z"/>
	</g>
	<g>
		<path d="M42.3,663.6v2.9H19.7v-2.3L33.1,651c1.7-1.7,2.8-3.1,3.4-4.3c0.6-1.2,0.9-2.4,0.9-3.7c0-1.9-0.7-3.4-2-4.4
			c-1.3-1.1-3.2-1.6-5.6-1.6c-3.8,0-6.7,1.2-8.8,3.6l-2.3-2c1.3-1.5,2.9-2.6,4.8-3.4c1.9-0.8,4.1-1.2,6.6-1.2c3.3,0,5.9,0.8,7.8,2.3
			c1.9,1.5,2.9,3.7,2.9,6.4c0,1.7-0.4,3.3-1.1,4.8c-0.7,1.5-2.1,3.3-4.2,5.3l-10.9,10.8H42.3z"/>
		<path d="M49.9,647.7c-1.1-0.6-2-1.5-2.6-2.6c-0.6-1.1-1-2.4-1-3.7c0-1.3,0.3-2.5,1-3.7c0.6-1.1,1.5-2,2.6-2.6c1.1-0.6,2.4-1,3.7-1
			c1.3,0,2.6,0.3,3.7,1c1.1,0.6,2,1.5,2.7,2.6c0.6,1.1,1,2.3,1,3.7c0,1.3-0.3,2.6-1,3.7c-0.6,1.1-1.5,2-2.7,2.6
			c-1.1,0.6-2.4,1-3.7,1C52.3,648.7,51.1,648.3,49.9,647.7z M57.4,645.2c1-1,1.5-2.3,1.5-3.8c0-1.5-0.5-2.8-1.5-3.8
			c-1-1-2.3-1.5-3.8-1.5s-2.8,0.5-3.8,1.5c-1,1-1.5,2.3-1.5,3.8c0,1.5,0.5,2.8,1.5,3.8c1,1,2.3,1.5,3.8,1.5S56.4,646.2,57.4,645.2z"
			/>
		<path d="M86.9,637.2H75.5v-2.9h26v2.9H90.3v29.3h-3.4V637.2z"/>
		<path d="M120.7,644.5c1.7,1.6,2.5,3.9,2.5,7v15h-3.1v-3.8c-0.7,1.3-1.8,2.2-3.2,2.9c-1.4,0.7-3.1,1.1-5.1,1.1
			c-2.7,0-4.8-0.6-6.4-1.9c-1.6-1.3-2.4-3-2.4-5.1c0-2.1,0.7-3.7,2.2-5c1.5-1.3,3.9-1.9,7.1-1.9h7.7v-1.5c0-2.1-0.6-3.7-1.7-4.8
			s-2.9-1.6-5.1-1.6c-1.5,0-3,0.3-4.4,0.8c-1.4,0.5-2.6,1.2-3.6,2.1l-1.5-2.4c1.2-1,2.7-1.8,4.4-2.4c1.7-0.6,3.5-0.9,5.4-0.9
			C116.6,642.1,119,642.9,120.7,644.5z M117,662.9c1.3-0.8,2.3-2.1,2.9-3.7v-4h-7.6c-4.1,0-6.2,1.4-6.2,4.3c0,1.4,0.5,2.5,1.6,3.3
			c1.1,0.8,2.6,1.2,4.5,1.2C114.1,664.2,115.7,663.7,117,662.9z"/>
		<path d="M133,665.9c-1.8-0.6-3.2-1.3-4.2-2.1l1.5-2.6c1,0.8,2.3,1.4,3.8,2c1.5,0.5,3.1,0.8,4.8,0.8c2.2,0,3.8-0.3,4.9-1
			c1.1-0.7,1.6-1.7,1.6-2.9c0-0.9-0.3-1.6-0.9-2.1s-1.3-0.9-2.2-1.2c-0.9-0.3-2.1-0.5-3.5-0.8c-2-0.4-3.5-0.7-4.7-1.1
			c-1.2-0.4-2.2-1-3.1-2c-0.8-0.9-1.3-2.2-1.3-3.8c0-2,0.8-3.7,2.5-5c1.7-1.3,4-1.9,7-1.9c1.6,0,3.1,0.2,4.7,0.6s2.9,1,3.9,1.6
			l-1.4,2.6c-2-1.4-4.4-2.1-7.1-2.1c-2.1,0-3.7,0.4-4.7,1.1c-1.1,0.7-1.6,1.7-1.6,2.9c0,0.9,0.3,1.7,0.9,2.2c0.6,0.6,1.3,1,2.2,1.2
			c0.9,0.3,2.1,0.5,3.7,0.8c1.9,0.4,3.5,0.7,4.6,1.1c1.2,0.4,2.2,1,3,1.9c0.8,0.9,1.2,2.1,1.2,3.7c0,2.1-0.9,3.8-2.6,5
			c-1.8,1.2-4.2,1.9-7.3,1.9C136.6,666.7,134.8,666.4,133,665.9z"/>
		<path d="M167.4,665c-0.6,0.6-1.4,1-2.3,1.3c-0.9,0.3-1.8,0.4-2.8,0.4c-2.3,0-4-0.6-5.2-1.8c-1.2-1.2-1.8-3-1.8-5.2v-14.6h-4.3
			v-2.8h4.3V637h3.3v5.3h7.4v2.8h-7.4v14.4c0,1.4,0.4,2.5,1.1,3.3c0.7,0.8,1.8,1.1,3.1,1.1c0.7,0,1.3-0.1,2-0.3
			c0.6-0.2,1.2-0.5,1.6-0.9L167.4,665z"/>
		<path d="M176,665.1c-1.9-1.1-3.3-2.5-4.4-4.4c-1.1-1.9-1.6-4-1.6-6.3s0.5-4.5,1.6-6.3c1.1-1.9,2.5-3.3,4.4-4.4
			c1.9-1,4-1.6,6.3-1.6s4.4,0.5,6.3,1.6c1.9,1,3.3,2.5,4.4,4.4c1.1,1.9,1.6,4,1.6,6.3s-0.5,4.5-1.6,6.3c-1.1,1.9-2.5,3.3-4.4,4.4
			c-1.9,1.1-4,1.6-6.3,1.6S177.9,666.2,176,665.1z M186.9,662.7c1.4-0.8,2.4-1.9,3.2-3.3c0.8-1.4,1.1-3.1,1.1-4.9
			c0-1.8-0.4-3.5-1.1-4.9c-0.8-1.4-1.8-2.6-3.2-3.3c-1.4-0.8-2.9-1.2-4.6-1.2c-1.7,0-3.3,0.4-4.6,1.2c-1.4,0.8-2.4,1.9-3.2,3.3
			c-0.8,1.4-1.2,3.1-1.2,4.9c0,1.8,0.4,3.5,1.2,4.9c0.8,1.4,1.9,2.6,3.2,3.3c1.4,0.8,2.9,1.2,4.6,1.2
			C184,663.8,185.6,663.4,186.9,662.7z"/>
	</g>
	<g>
		<path d="M39.1,952.8c1.8,1.6,2.6,3.8,2.6,6.4c0,1.8-0.4,3.5-1.3,4.9c-0.9,1.4-2.2,2.6-4,3.4s-3.9,1.2-6.4,1.2
			c-2.3,0-4.5-0.4-6.6-1.1c-2.1-0.8-3.7-1.8-5-3l1.6-2.6c1.1,1.1,2.5,2,4.3,2.7c1.8,0.7,3.7,1,5.7,1c2.6,0,4.7-0.6,6.1-1.7
			c1.4-1.1,2.2-2.7,2.2-4.8c0-2-0.7-3.6-2.2-4.7c-1.4-1.1-3.6-1.7-6.5-1.7h-2.3v-2.4l8.9-11.2H19.8v-2.9h20.7v2.3l-9.1,11.5
			C34.8,950.3,37.4,951.2,39.1,952.8z"/>
		<path d="M49.2,949.7c-1.1-0.6-2-1.5-2.6-2.6c-0.6-1.1-1-2.4-1-3.7c0-1.3,0.3-2.5,1-3.7c0.6-1.1,1.5-2,2.6-2.6c1.1-0.6,2.4-1,3.7-1
			c1.3,0,2.6,0.3,3.7,1c1.1,0.6,2,1.5,2.7,2.6c0.6,1.1,1,2.3,1,3.7c0,1.3-0.3,2.6-1,3.7c-0.6,1.1-1.5,2-2.7,2.6
			c-1.1,0.6-2.4,1-3.7,1C51.6,950.6,50.4,950.3,49.2,949.7z M56.7,947.2c1-1,1.5-2.3,1.5-3.8c0-1.5-0.5-2.8-1.5-3.8
			c-1-1-2.3-1.5-3.8-1.5s-2.8,0.5-3.8,1.5c-1,1-1.5,2.3-1.5,3.8c0,1.5,0.5,2.8,1.5,3.8c1,1,2.3,1.5,3.8,1.5S55.7,948.2,56.7,947.2z"
			/>
		<path d="M86.2,939.2H74.8v-2.9h26v2.9H89.6v29.3h-3.4V939.2z"/>
		<path d="M120,946.5c1.7,1.6,2.5,3.9,2.5,7v15h-3.1v-3.8c-0.7,1.3-1.8,2.2-3.2,2.9c-1.4,0.7-3.1,1.1-5.1,1.1
			c-2.7,0-4.8-0.6-6.4-1.9c-1.6-1.3-2.4-3-2.4-5.1c0-2.1,0.7-3.7,2.2-5c1.5-1.3,3.9-1.9,7.1-1.9h7.7v-1.5c0-2.1-0.6-3.7-1.7-4.8
			s-2.9-1.6-5.1-1.6c-1.5,0-3,0.3-4.4,0.8c-1.4,0.5-2.6,1.2-3.6,2.1l-1.5-2.4c1.2-1,2.7-1.8,4.4-2.4c1.7-0.6,3.5-0.9,5.4-0.9
			C115.9,944.1,118.3,944.9,120,946.5z M116.3,964.9c1.3-0.8,2.3-2.1,2.9-3.7v-4h-7.6c-4.1,0-6.2,1.4-6.2,4.3c0,1.4,0.5,2.5,1.6,3.3
			c1.1,0.8,2.6,1.2,4.5,1.2C113.4,966.1,115,965.7,116.3,964.9z"/>
		<path d="M132.3,967.9c-1.8-0.6-3.2-1.3-4.2-2.1l1.5-2.6c1,0.8,2.3,1.4,3.8,2c1.5,0.5,3.1,0.8,4.8,0.8c2.2,0,3.8-0.3,4.9-1
			c1.1-0.7,1.6-1.7,1.6-2.9c0-0.9-0.3-1.6-0.9-2.1s-1.3-0.9-2.2-1.2c-0.9-0.3-2.1-0.5-3.5-0.8c-2-0.4-3.5-0.7-4.7-1.1
			c-1.2-0.4-2.2-1-3.1-2c-0.8-0.9-1.3-2.2-1.3-3.8c0-2,0.8-3.7,2.5-5c1.7-1.3,4-1.9,7-1.9c1.6,0,3.1,0.2,4.7,0.6s2.9,1,3.9,1.6
			l-1.4,2.6c-2-1.4-4.4-2.1-7.1-2.1c-2.1,0-3.7,0.4-4.7,1.1c-1.1,0.7-1.6,1.7-1.6,2.9c0,0.9,0.3,1.7,0.9,2.2c0.6,0.6,1.3,1,2.2,1.2
			c0.9,0.3,2.1,0.5,3.7,0.8c1.9,0.4,3.5,0.7,4.6,1.1c1.2,0.4,2.2,1,3,1.9c0.8,0.9,1.2,2.1,1.2,3.7c0,2.1-0.9,3.8-2.6,5
			c-1.8,1.2-4.2,1.9-7.3,1.9C135.9,968.7,134.1,968.4,132.3,967.9z"/>
		<path d="M166.7,967c-0.6,0.6-1.4,1-2.3,1.3c-0.9,0.3-1.8,0.4-2.8,0.4c-2.3,0-4-0.6-5.2-1.8c-1.2-1.2-1.8-3-1.8-5.2V947h-4.3v-2.8
			h4.3V939h3.3v5.3h7.4v2.8h-7.4v14.4c0,1.4,0.4,2.5,1.1,3.3c0.7,0.8,1.8,1.1,3.1,1.1c0.7,0,1.3-0.1,2-0.3c0.6-0.2,1.2-0.5,1.6-0.9
			L166.7,967z"/>
		<path d="M175.3,967.1c-1.9-1.1-3.3-2.5-4.4-4.4c-1.1-1.9-1.6-4-1.6-6.3s0.5-4.5,1.6-6.3c1.1-1.9,2.5-3.3,4.4-4.4
			c1.9-1,4-1.6,6.3-1.6s4.4,0.5,6.3,1.6c1.9,1,3.3,2.5,4.4,4.4c1.1,1.9,1.6,4,1.6,6.3s-0.5,4.5-1.6,6.3c-1.1,1.9-2.5,3.3-4.4,4.4
			c-1.9,1.1-4,1.6-6.3,1.6S177.2,968.2,175.3,967.1z M186.2,964.6c1.4-0.8,2.4-1.9,3.2-3.3c0.8-1.4,1.1-3.1,1.1-4.9
			c0-1.8-0.4-3.5-1.1-4.9c-0.8-1.4-1.8-2.6-3.2-3.3c-1.4-0.8-2.9-1.2-4.6-1.2c-1.7,0-3.3,0.4-4.6,1.2c-1.4,0.8-2.4,1.9-3.2,3.3
			c-0.8,1.4-1.2,3.1-1.2,4.9c0,1.8,0.4,3.5,1.2,4.9c0.8,1.4,1.9,2.6,3.2,3.3c1.4,0.8,2.9,1.2,4.6,1.2
			C183.3,965.8,184.9,965.4,186.2,964.6z"/>
	</g>
	<g>
		<path d="M47.8,1254h-6.4v8.5h-3.3v-8.5H19.9v-2.4l17.1-21.3h3.7l-16.5,20.8h14v-7.5h3.2v7.5h6.4V1254z"/>
		<path d="M53,1243.6c-1.1-0.6-2-1.5-2.6-2.6c-0.6-1.1-1-2.4-1-3.7c0-1.3,0.3-2.5,1-3.7c0.6-1.1,1.5-2,2.6-2.6c1.1-0.6,2.4-1,3.7-1
			c1.3,0,2.6,0.3,3.7,1c1.1,0.6,2,1.5,2.7,2.6c0.6,1.1,1,2.3,1,3.7c0,1.3-0.3,2.6-1,3.7c-0.6,1.1-1.5,2-2.7,2.6
			c-1.1,0.6-2.4,1-3.7,1C55.4,1244.6,54.1,1244.3,53,1243.6z M60.5,1241.1c1-1,1.5-2.3,1.5-3.8c0-1.5-0.5-2.8-1.5-3.8
			c-1-1-2.3-1.5-3.8-1.5s-2.8,0.5-3.8,1.5c-1,1-1.5,2.3-1.5,3.8c0,1.5,0.5,2.8,1.5,3.8c1,1,2.3,1.5,3.8,1.5S59.5,1242.2,60.5,1241.1
			z"/>
		<path d="M89.9,1233.2H78.6v-2.9h26v2.9H93.3v29.3h-3.4V1233.2z"/>
		<path d="M123.8,1240.5c1.7,1.6,2.5,3.9,2.5,7v15h-3.1v-3.8c-0.7,1.3-1.8,2.2-3.2,2.9c-1.4,0.7-3.1,1.1-5.1,1.1
			c-2.7,0-4.8-0.6-6.4-1.9c-1.6-1.3-2.4-3-2.4-5.1c0-2.1,0.7-3.7,2.2-5c1.5-1.3,3.9-1.9,7.1-1.9h7.7v-1.5c0-2.1-0.6-3.7-1.7-4.8
			s-2.9-1.6-5.1-1.6c-1.5,0-3,0.3-4.4,0.8c-1.4,0.5-2.6,1.2-3.6,2.1l-1.5-2.4c1.2-1,2.7-1.8,4.4-2.4c1.7-0.6,3.5-0.9,5.4-0.9
			C119.7,1238.1,122.1,1238.9,123.8,1240.5z M120.1,1258.9c1.3-0.8,2.3-2.1,2.9-3.7v-4h-7.6c-4.1,0-6.2,1.4-6.2,4.3
			c0,1.4,0.5,2.5,1.6,3.3c1.1,0.8,2.6,1.2,4.5,1.2C117.2,1260.1,118.8,1259.7,120.1,1258.9z"/>
		<path d="M136,1261.8c-1.8-0.6-3.2-1.3-4.2-2.1l1.5-2.6c1,0.8,2.3,1.4,3.8,2c1.5,0.5,3.1,0.8,4.8,0.8c2.2,0,3.8-0.3,4.9-1
			c1.1-0.7,1.6-1.7,1.6-2.9c0-0.9-0.3-1.6-0.9-2.1s-1.3-0.9-2.2-1.2c-0.9-0.3-2.1-0.5-3.5-0.8c-2-0.4-3.5-0.7-4.7-1.1
			c-1.2-0.4-2.2-1-3.1-2c-0.8-0.9-1.3-2.2-1.3-3.8c0-2,0.8-3.7,2.5-5c1.7-1.3,4-1.9,7-1.9c1.6,0,3.1,0.2,4.7,0.6s2.9,1,3.9,1.6
			l-1.4,2.6c-2-1.4-4.4-2.1-7.1-2.1c-2.1,0-3.7,0.4-4.7,1.1c-1.1,0.7-1.6,1.7-1.6,2.9c0,0.9,0.3,1.7,0.9,2.2c0.6,0.6,1.3,1,2.2,1.2
			c0.9,0.3,2.1,0.5,3.7,0.8c1.9,0.4,3.5,0.7,4.6,1.1c1.2,0.4,2.2,1,3,1.9c0.8,0.9,1.2,2.1,1.2,3.7c0,2.1-0.9,3.8-2.6,5
			c-1.8,1.2-4.2,1.9-7.3,1.9C139.7,1262.7,137.8,1262.4,136,1261.8z"/>
		<path d="M170.4,1261c-0.6,0.6-1.4,1-2.3,1.3c-0.9,0.3-1.8,0.4-2.8,0.4c-2.3,0-4-0.6-5.2-1.8c-1.2-1.2-1.8-3-1.8-5.2V1241h-4.3
			v-2.8h4.3v-5.3h3.3v5.3h7.4v2.8h-7.4v14.4c0,1.4,0.4,2.5,1.1,3.3c0.7,0.8,1.8,1.1,3.1,1.1c0.7,0,1.3-0.1,2-0.3
			c0.6-0.2,1.2-0.5,1.6-0.9L170.4,1261z"/>
		<path d="M179.1,1261.1c-1.9-1.1-3.3-2.5-4.4-4.4c-1.1-1.9-1.6-4-1.6-6.3s0.5-4.5,1.6-6.3c1.1-1.9,2.5-3.3,4.4-4.4
			c1.9-1,4-1.6,6.3-1.6s4.4,0.5,6.3,1.6c1.9,1,3.3,2.5,4.4,4.4c1.1,1.9,1.6,4,1.6,6.3s-0.5,4.5-1.6,6.3c-1.1,1.9-2.5,3.3-4.4,4.4
			c-1.9,1.1-4,1.6-6.3,1.6S180.9,1262.2,179.1,1261.1z M190,1258.6c1.4-0.8,2.4-1.9,3.2-3.3c0.8-1.4,1.1-3.1,1.1-4.9
			c0-1.8-0.4-3.5-1.1-4.9c-0.8-1.4-1.8-2.6-3.2-3.3c-1.4-0.8-2.9-1.2-4.6-1.2c-1.7,0-3.3,0.4-4.6,1.2c-1.4,0.8-2.4,1.9-3.2,3.3
			c-0.8,1.4-1.2,3.1-1.2,4.9c0,1.8,0.4,3.5,1.2,4.9c0.8,1.4,1.9,2.6,3.2,3.3c1.4,0.8,2.9,1.2,4.6,1.2
			C187.1,1259.8,188.6,1259.4,190,1258.6z"/>
	</g>
</g>
<g id="Note">
	<g>
		<path d="M310.6,1407.5v45.5H306v-36.4l-17.9,30.6h-2.3l-17.9-30.4v36.2h-4.6v-45.5h4l19.8,33.7l19.6-33.7H310.6z"/>
		<path d="M324.4,1410.4c-0.6-0.7-1-1.4-1-2.3c0-0.9,0.3-1.6,1-2.3c0.6-0.7,1.5-1,2.4-1c1,0,1.8,0.3,2.4,0.9c0.6,0.6,1,1.4,1,2.2
			c0,1-0.3,1.8-1,2.4c-0.7,0.6-1.5,1-2.4,1C325.8,1411.3,325,1411,324.4,1410.4z M324.4,1418.8h4.6v34.2h-4.6V1418.8z"/>
	</g>
	<g>
		<path d="M467.9,1407.5h4.8v41.3h25.5v4.2h-30.3V1407.5z"/>
		<path d="M527.6,1421.9c2.4,2.2,3.6,5.5,3.6,9.9v21.2h-4.4v-5.3c-1,1.8-2.6,3.2-4.6,4.2c-2,1-4.4,1.5-7.2,1.5
			c-3.8,0-6.8-0.9-9.1-2.7c-2.3-1.8-3.4-4.2-3.4-7.2c0-2.9,1-5.2,3.2-7c2.1-1.8,5.4-2.7,10-2.7h10.9v-2.1c0-2.9-0.8-5.2-2.5-6.7
			c-1.6-1.5-4.1-2.3-7.2-2.3c-2.2,0-4.2,0.4-6.2,1.1c-2,0.7-3.7,1.7-5.1,3l-2.1-3.4c1.7-1.5,3.8-2.6,6.2-3.4c2.4-0.8,5-1.2,7.7-1.2
			C521.8,1418.5,525.2,1419.7,527.6,1421.9z M522.4,1447.9c1.9-1.2,3.3-2.9,4.2-5.2v-5.6h-10.7c-5.9,0-8.8,2-8.8,6.1
			c0,2,0.8,3.6,2.3,4.7c1.5,1.1,3.6,1.7,6.4,1.7C518.3,1449.7,520.5,1449.1,522.4,1447.9z"/>
	</g>
	<g>
		<path d="M695,1454l-10.4-14.6c-1.2,0.1-2.4,0.2-3.6,0.2h-12.2v14.4h-4.8v-45.5h17c5.8,0,10.4,1.4,13.6,4.2
			c3.3,2.8,4.9,6.6,4.9,11.4c0,3.6-0.9,6.6-2.7,9c-1.8,2.4-4.4,4.2-7.7,5.3l11.1,15.6H695z M691.2,1432.5c2.4-2,3.6-4.8,3.6-8.4
			c0-3.7-1.2-6.5-3.6-8.5c-2.4-2-5.8-3-10.3-3h-12.1v22.8h12.1C685.3,1435.5,688.8,1434.5,691.2,1432.5z"/>
		<path d="M739.7,1438.3h-28.6c0.3,3.6,1.6,6.4,4.1,8.6c2.5,2.2,5.6,3.3,9.4,3.3c2.1,0,4.1-0.4,5.9-1.1c1.8-0.8,3.3-1.9,4.6-3.3
			l2.6,3c-1.5,1.8-3.4,3.2-5.7,4.2c-2.3,1-4.8,1.4-7.5,1.4c-3.5,0-6.6-0.7-9.3-2.2c-2.7-1.5-4.8-3.6-6.3-6.2c-1.5-2.6-2.3-5.6-2.3-9
			s0.7-6.3,2.2-9c1.5-2.6,3.4-4.7,6-6.2c2.5-1.5,5.4-2.2,8.5-2.2c3.2,0,6,0.7,8.5,2.2c2.5,1.5,4.5,3.5,5.9,6.1
			c1.4,2.6,2.1,5.6,2.1,9L739.7,1438.3z M714.9,1426.7c-2.2,2.1-3.5,4.8-3.8,8.2h24.2c-0.3-3.4-1.6-6.1-3.8-8.2
			c-2.2-2.1-5-3.2-8.4-3.2C719.9,1423.5,717.2,1424.6,714.9,1426.7z"/>
	</g>
	<g>
		<path d="M860,1450.9c-3.1-1.1-5.5-2.5-7.2-4.3l1.9-3.7c1.6,1.6,3.8,3,6.6,4c2.7,1,5.5,1.5,8.5,1.5c4.1,0,7.1-0.7,9.2-2.2
			c2-1.5,3.1-3.4,3.1-5.8c0-1.8-0.6-3.3-1.7-4.4c-1.1-1.1-2.5-1.9-4.1-2.5c-1.6-0.6-3.8-1.2-6.7-1.9c-3.4-0.9-6.2-1.7-8.2-2.5
			c-2-0.8-3.8-2-5.2-3.7c-1.5-1.6-2.2-3.9-2.2-6.7c0-2.3,0.6-4.4,1.8-6.3c1.2-1.9,3.1-3.4,5.6-4.5c2.5-1.1,5.6-1.7,9.4-1.7
			c2.6,0,5.1,0.4,7.6,1.1c2.5,0.7,4.6,1.7,6.5,3l-1.6,3.8c-1.9-1.3-3.9-2.2-6.1-2.8c-2.2-0.6-4.3-0.9-6.4-0.9c-4,0-7,0.8-9,2.3
			c-2,1.5-3,3.5-3,5.9c0,1.8,0.6,3.3,1.7,4.4c1.1,1.1,2.5,2,4.2,2.5c1.7,0.6,3.9,1.2,6.7,1.9c3.3,0.8,6,1.6,8.1,2.4
			c2.1,0.8,3.8,2,5.2,3.6s2.1,3.8,2.1,6.6c0,2.3-0.6,4.4-1.9,6.3c-1.2,1.9-3.1,3.4-5.7,4.5c-2.6,1.1-5.7,1.7-9.4,1.7
			C866.3,1452.5,863.1,1452,860,1450.9z"/>
		<path d="M901.2,1450.2c-2.6-1.5-4.7-3.6-6.2-6.2c-1.5-2.6-2.3-5.6-2.3-9s0.8-6.3,2.3-9c1.5-2.6,3.6-4.7,6.2-6.2
			c2.6-1.5,5.6-2.2,8.9-2.2c3.3,0,6.3,0.7,8.9,2.2c2.6,1.5,4.7,3.5,6.2,6.2c1.5,2.6,2.2,5.6,2.2,9s-0.7,6.3-2.2,9
			c-1.5,2.6-3.6,4.7-6.2,6.2c-2.6,1.5-5.6,2.2-8.9,2.2C906.9,1452.5,903.9,1451.7,901.2,1450.2z M916.7,1446.7
			c1.9-1.1,3.4-2.7,4.5-4.7c1.1-2,1.6-4.4,1.6-7c0-2.6-0.5-4.9-1.6-7c-1.1-2-2.6-3.6-4.5-4.7c-1.9-1.1-4.1-1.7-6.5-1.7
			c-2.4,0-4.6,0.6-6.5,1.7c-1.9,1.1-3.4,2.7-4.5,4.7c-1.1,2-1.7,4.4-1.7,7c0,2.6,0.6,4.9,1.7,7c1.1,2,2.6,3.6,4.5,4.7
			c1.9,1.1,4.1,1.7,6.5,1.7C912.6,1448.4,914.7,1447.8,916.7,1446.7z"/>
		<path d="M936.9,1403.9h4.6v48.2h-4.6V1403.9z"/>
	</g>
</g>
<g id="Corda_nulla_1">
	<circle class="st4" cx="899.3" cy="85.5" r="65.5"/>
	<g>
		<path class="st5" d="M913.8,103l-14.6-17.3l-14.3,17.4l-8,0l18.1-21.6L878,61.1l7.9,0l13.6,16.1L912.8,61l7.5,0l-17,20.3
			l18.4,21.7L913.8,103z"/>
	</g>
</g>
<g id="Corda_nulla">
	<circle class="st4" cx="702.3" cy="85.5" r="65.5"/>
	<g>
		<path class="st5" d="M716.8,103l-14.6-17.3l-14.3,17.4l-8,0l18.1-21.6L681,61.1l7.9,0l13.6,16.1L715.8,61l7.5,0l-17,20.3
			l18.4,21.7L716.8,103z"/>
	</g>
</g>
<g id="Dito_4">
	<g>
		<circle class="st4" cx="299.8" cy="1240.5" r="65.5"/>
	</g>
	<g>
		<g>
			<path class="st5" d="M322.1,1247.7l-9.2,0l0,10.3l-6.7,0l0-10.3l-26.9,0.1l0-4.2l24.7-27.5l7.5,0l-23.7,26.6l18.6,0l0-9.1l6.5,0
				l0,9.1l9.2,0L322.1,1247.7z"/>
		</g>
	</g>
</g>
<g id="Dito_3">
	<g>
		<circle class="st4" cx="500.8" cy="953.5" r="65.5"/>
	</g>
	<g>
		<g>
			<path class="st5" d="M513.7,950.5c2.5,2.1,3.8,4.9,3.8,8.2c0,2.4-0.7,4.6-2.1,6.5c-1.4,1.9-3.4,3.5-6.2,4.6
				c-2.7,1.1-6.1,1.7-10.1,1.7c-3.5,0-6.8-0.4-10-1.3s-5.8-2.1-7.8-3.7l3.2-4.7c1.7,1.4,3.8,2.4,6.4,3.3c2.6,0.8,5.3,1.2,8.2,1.2
				c3.6,0,6.4-0.7,8.4-2c2-1.3,3-3.1,3-5.5c0-2.3-1-4.1-3-5.4c-2-1.3-5-1.9-9-1.9l-3.9,0l0-4.2l12.1-13l-23.3,0.1l0-5.2l32-0.1
				l0,4.1l-12.6,13.6C507.6,947.1,511.2,948.4,513.7,950.5z"/>
		</g>
	</g>
</g>
<g id="Dito_2" class="st6">
	<g class="st7">
		<circle class="st4" cx="498.3" cy="654.5" r="65.5"/>
	</g>
	<g class="st7">
		<g>
			<path class="st5" d="M515.8,666.8l0,5.2l-34.8,0.1l0-4.1l19.7-16.6c2.4-2,4-3.7,4.8-5.2c0.8-1.5,1.2-2.9,1.2-4.4
				c0-2.2-0.9-3.9-2.7-5.1c-1.8-1.2-4.3-1.8-7.7-1.8c-5.4,0-9.5,1.5-12.4,4.6l-4.7-3.5c1.9-2,4.4-3.6,7.4-4.7
				c3.1-1.1,6.5-1.7,10.3-1.7c5.1,0,9.1,1,12.1,3.1c3,2.1,4.5,4.9,4.5,8.5c0,2.2-0.5,4.4-1.6,6.4c-1.1,2-3.2,4.3-6.3,6.9L491,666.9
				L515.8,666.8z"/>
		</g>
	</g>
</g>
<g id="Dito_1">
	<g>
		<circle class="st4" cx="300.3" cy="357.5" r="65.5"/>
	</g>
	<g>
		<g>
			<path class="st5" d="M305.8,333.1l0.1,42l-6.9,0l-0.1-36.8l-10.9,0l0-5.2L305.8,333.1z"/>
		</g>
	</g>
</g>
<g id="Vuota" class="st6">
	<g class="st7">
		<circle class="st4" cx="300.5" cy="86.5" r="65.5"/>
	</g>
	<g class="st7">
		<g>
			<path class="st5" d="M288.7,106.7c-3.5-2-6.2-4.8-8.2-8.6c-2-3.8-3-8.3-3-13.4s1-9.7,3-13.4c2-3.8,4.7-6.7,8.2-8.7
				c3.5-2,7.4-3,11.9-3c4.4,0,8.4,1,11.8,2.9c3.5,2,6.2,4.8,8.2,8.6c2,3.8,3,8.3,3,13.4s-1,9.7-3,13.4c-2,3.8-4.7,6.7-8.2,8.7
				c-3.5,2-7.4,3-11.8,3C296.1,109.6,292.2,108.6,288.7,106.7z M311.4,98.5c2.7-3.2,4.1-7.9,4-14c0-6.1-1.4-10.8-4.1-14
				c-2.7-3.2-6.4-4.8-10.9-4.8c-4.6,0-8.2,1.6-10.9,4.9c-2.7,3.2-4.1,7.9-4,14c0,6.1,1.4,10.8,4.1,14c2.7,3.2,6.4,4.8,11,4.8
				C305.1,103.4,308.7,101.7,311.4,98.5z"/>
		</g>
	</g>
</g>
</svg>
