<?xml version="1.0" encoding="utf-8"?>
<!-- Generator: Adobe Illustrator 23.0.1, SVG Export Plug-In . SVG Version: 6.00 Build 0)  -->
<svg version="1.1" xmlns="http://www.w3.org/2000/svg" xmlns:xlink="http://www.w3.org/1999/xlink" x="0px" y="0px"
	 viewBox="0 0 1828 531" style="enable-background:new 0 0 1828 531;" xml:space="preserve">
<style type="text/css">
	.st0{fill:none;stroke:#000000;stroke-width:2;stroke-miterlimit:10;}
	.st1{display:none;}
	.st2{fill:#E55100;}
	.st3{fill:#E55100;stroke:#E55100;stroke-width:4;stroke-miterlimit:10;}
</style>
<g id="TastiChitarra">
	<g id="_x31_">
		<line class="st0" x1="91" y1="99.5" x2="1819" y2="99.85"/>
	</g>
	<g id="_x32_">
		<line class="st0" x1="90.88" y1="169.5" x2="1818.5" y2="169.5"/>
	</g>
	<g id="_x33_">
		<line class="st0" x1="90.88" y1="241.5" x2="1818.5" y2="241.5"/>
	</g>
	<g id="_x34_">
		<line class="st0" x1="90.88" y1="313.5" x2="1819.5" y2="313.5"/>
	</g>
	<line id="_x35_" class="st0" x1="91.13" y1="385.5" x2="1819.5" y2="385.5"/>
	<g id="_x36_">
		<line class="st0" x1="90" y1="457.5" x2="1820" y2="457.5"/>
	</g>
	<line id="SX" class="st0" x1="92" y1="100" x2="91" y2="458"/>
	<line id="DX" class="st0" x1="1818" y1="100" x2="1819" y2="458"/>
</g>
<g id="Tasti">
	<line class="st0" x1="235" y1="99" x2="235" y2="458"/>
	<line class="st0" x1="379.5" y1="99.5" x2="379.5" y2="457.5"/>
	<line class="st0" x1="523.5" y1="99.5" x2="523.5" y2="458"/>
	<line class="st0" x1="667.5" y1="99.5" x2="667.5" y2="457.5"/>
	<line class="st0" x1="811.5" y1="99.5" x2="811.5" y2="457.5"/>
	<line class="st0" x1="955.5" y1="99.5" x2="955.5" y2="457.5"/>
	<line class="st0" x1="1099.5" y1="99.5" x2="1099.5" y2="457.5"/>
	<line class="st0" x1="1243.5" y1="99.5" x2="1243.5" y2="457.5"/>
	<line class="st0" x1="1387.5" y1="99.5" x2="1387.5" y2="457.5"/>
	<line class="st0" x1="1531.5" y1="99.5" x2="1531.5" y2="457.5"/>
	<line class="st0" x1="1675.5" y1="99.5" x2="1675.5" y2="457.5"/>
</g>
<g id="Numero_Tasto">
	<g>
		<path d="M123.97,500.24v18.02h-1.85v-16.37h-4.25v-1.65H123.97z"/>
		<path d="M130.24,507.73c-0.63-0.36-1.12-0.85-1.48-1.48c-0.36-0.63-0.54-1.32-0.54-2.07c0-0.74,0.18-1.42,0.54-2.05
			s0.85-1.12,1.48-1.48c0.63-0.36,1.32-0.54,2.07-0.54c0.75,0,1.45,0.18,2.08,0.54c0.63,0.36,1.13,0.85,1.49,1.48
			s0.54,1.31,0.54,2.05c0,0.75-0.18,1.45-0.54,2.07c-0.36,0.63-0.86,1.12-1.49,1.48c-0.64,0.36-1.33,0.54-2.08,0.54
			C131.56,508.27,130.86,508.09,130.24,507.73z M134.43,506.33c0.57-0.57,0.86-1.29,0.86-2.15c0-0.84-0.29-1.55-0.86-2.12
			c-0.58-0.57-1.28-0.86-2.12-0.86c-0.84,0-1.54,0.29-2.11,0.86s-0.85,1.28-0.85,2.12c0,0.86,0.28,1.57,0.85,2.15
			c0.57,0.58,1.27,0.86,2.11,0.86C133.15,507.19,133.86,506.9,134.43,506.33z"/>
		<path d="M150.89,501.89h-6.33v-1.65h14.57v1.65h-6.33v16.37h-1.9V501.89z"/>
		<path d="M169.84,505.94c0.94,0.88,1.42,2.19,1.42,3.93v8.39h-1.75v-2.11c-0.41,0.7-1.02,1.25-1.81,1.65
			c-0.8,0.4-1.75,0.59-2.84,0.59c-1.51,0-2.71-0.36-3.6-1.08c-0.89-0.72-1.34-1.67-1.34-2.86c0-1.15,0.42-2.08,1.25-2.78
			c0.83-0.7,2.16-1.06,3.98-1.06h4.3v-0.82c0-1.17-0.33-2.06-0.98-2.66c-0.65-0.61-1.6-0.91-2.86-0.91c-0.86,0-1.68,0.14-2.47,0.42
			c-0.79,0.28-1.47,0.67-2.03,1.17l-0.82-1.36c0.69-0.58,1.51-1.03,2.47-1.35c0.96-0.32,1.97-0.48,3.04-0.48
			C167.54,504.61,168.9,505.06,169.84,505.94z M167.78,516.24c0.74-0.47,1.29-1.15,1.65-2.05v-2.21h-4.25
			c-2.32,0-3.48,0.81-3.48,2.42c0,0.79,0.3,1.41,0.9,1.87s1.44,0.68,2.52,0.68C166.16,516.94,167.04,516.71,167.78,516.24z"/>
		<path d="M176.7,517.91c-1-0.32-1.79-0.72-2.35-1.2l0.82-1.44c0.57,0.45,1.28,0.81,2.14,1.09c0.86,0.28,1.75,0.42,2.68,0.42
			c1.24,0,2.15-0.19,2.74-0.58c0.59-0.39,0.89-0.93,0.89-1.63c0-0.5-0.16-0.89-0.49-1.17c-0.33-0.28-0.74-0.5-1.24-0.64
			c-0.5-0.15-1.16-0.29-1.98-0.42c-1.1-0.21-1.98-0.42-2.65-0.63c-0.67-0.21-1.24-0.58-1.71-1.09c-0.47-0.51-0.71-1.23-0.71-2.14
			c0-1.13,0.47-2.06,1.42-2.78c0.94-0.72,2.26-1.08,3.94-1.08c0.88,0,1.75,0.12,2.63,0.35c0.88,0.23,1.6,0.54,2.16,0.91l-0.8,1.47
			c-1.12-0.77-2.45-1.16-3.99-1.16c-1.17,0-2.05,0.21-2.64,0.62c-0.59,0.41-0.89,0.95-0.89,1.62c0,0.51,0.17,0.93,0.5,1.24
			s0.75,0.54,1.25,0.68c0.5,0.15,1.18,0.3,2.06,0.45c1.08,0.21,1.95,0.41,2.6,0.62c0.65,0.21,1.21,0.56,1.67,1.06
			c0.46,0.5,0.69,1.18,0.69,2.06c0,1.18-0.49,2.12-1.48,2.82c-0.99,0.69-2.36,1.04-4.11,1.04
			C178.75,518.38,177.7,518.23,176.7,517.91z"/>
		<path d="M195.94,517.43c-0.34,0.31-0.77,0.54-1.27,0.71c-0.51,0.16-1.03,0.24-1.58,0.24c-1.27,0-2.25-0.34-2.93-1.03
			c-0.69-0.69-1.03-1.66-1.03-2.91v-8.19h-2.42v-1.54h2.42v-2.96h1.83v2.96h4.12v1.54h-4.12v8.08c0,0.81,0.2,1.42,0.6,1.84
			c0.4,0.42,0.98,0.63,1.74,0.63c0.38,0,0.74-0.06,1.09-0.18c0.35-0.12,0.66-0.29,0.91-0.51L195.94,517.43z"/>
		<path d="M200.78,517.5c-1.05-0.59-1.87-1.41-2.47-2.46c-0.6-1.05-0.9-2.23-0.9-3.55s0.3-2.51,0.9-3.55
			c0.6-1.05,1.42-1.86,2.47-2.45c1.05-0.58,2.22-0.88,3.53-0.88c1.3,0,2.48,0.29,3.53,0.88c1.05,0.58,1.87,1.4,2.46,2.45
			c0.59,1.05,0.89,2.23,0.89,3.55s-0.3,2.51-0.89,3.55s-1.41,1.87-2.46,2.46c-1.05,0.59-2.22,0.89-3.53,0.89
			C203,518.38,201.82,518.09,200.78,517.5z M206.89,516.11c0.76-0.44,1.36-1.06,1.79-1.87c0.43-0.81,0.64-1.72,0.64-2.75
			c0-1.03-0.21-1.95-0.64-2.75c-0.43-0.81-1.03-1.43-1.79-1.87c-0.76-0.44-1.63-0.66-2.59-0.66c-0.96,0-1.82,0.22-2.59,0.66
			c-0.76,0.44-1.36,1.06-1.8,1.87c-0.44,0.81-0.66,1.72-0.66,2.75c0,1.03,0.22,1.95,0.66,2.75c0.44,0.81,1.04,1.43,1.8,1.87
			c0.76,0.44,1.63,0.66,2.59,0.66C205.27,516.76,206.13,516.54,206.89,516.11z"/>
	</g>
	<g>
		<path d="M272.62,516.61v1.65h-12.64v-1.31l7.49-7.34c0.94-0.93,1.58-1.73,1.92-2.41s0.5-1.36,0.5-2.05c0-1.06-0.37-1.89-1.09-2.48
			c-0.73-0.59-1.77-0.89-3.13-0.89c-2.11,0-3.75,0.67-4.92,2.01l-1.31-1.13c0.7-0.82,1.6-1.46,2.69-1.9
			c1.09-0.45,2.32-0.67,3.69-0.67c1.84,0,3.29,0.43,4.36,1.3c1.07,0.87,1.61,2.06,1.61,3.56c0,0.93-0.21,1.82-0.62,2.68
			c-0.41,0.86-1.19,1.85-2.34,2.96l-6.13,6.02H272.62z"/>
		<path d="M276.9,507.73c-0.63-0.36-1.12-0.85-1.48-1.48c-0.36-0.63-0.54-1.32-0.54-2.07c0-0.74,0.18-1.42,0.54-2.05
			s0.85-1.12,1.48-1.48s1.32-0.54,2.07-0.54s1.45,0.18,2.08,0.54s1.13,0.85,1.49,1.48s0.54,1.31,0.54,2.05
			c0,0.75-0.18,1.45-0.54,2.07c-0.36,0.63-0.86,1.12-1.49,1.48s-1.33,0.54-2.08,0.54S277.53,508.09,276.9,507.73z M281.1,506.33
			c0.57-0.57,0.86-1.29,0.86-2.15c0-0.84-0.29-1.55-0.86-2.12c-0.58-0.57-1.28-0.86-2.12-0.86s-1.54,0.29-2.11,0.86
			s-0.85,1.28-0.85,2.12c0,0.86,0.28,1.57,0.85,2.15c0.57,0.58,1.27,0.86,2.11,0.86S280.52,506.9,281.1,506.33z"/>
		<path d="M297.56,501.89h-6.33v-1.65h14.57v1.65h-6.33v16.37h-1.9V501.89z"/>
		<path d="M316.5,505.94c0.94,0.88,1.42,2.19,1.42,3.93v8.39h-1.75v-2.11c-0.41,0.7-1.02,1.25-1.81,1.65
			c-0.8,0.4-1.75,0.59-2.84,0.59c-1.51,0-2.71-0.36-3.6-1.08c-0.89-0.72-1.34-1.67-1.34-2.86c0-1.15,0.42-2.08,1.25-2.78
			s2.16-1.06,3.98-1.06h4.3v-0.82c0-1.17-0.33-2.06-0.98-2.66c-0.65-0.61-1.61-0.91-2.86-0.91c-0.86,0-1.68,0.14-2.47,0.42
			c-0.79,0.28-1.47,0.67-2.03,1.17l-0.82-1.36c0.69-0.58,1.51-1.03,2.47-1.35c0.96-0.32,1.97-0.48,3.04-0.48
			C314.2,504.61,315.56,505.06,316.5,505.94z M314.44,516.24c0.74-0.47,1.29-1.15,1.65-2.05v-2.21h-4.25
			c-2.32,0-3.47,0.81-3.47,2.42c0,0.79,0.3,1.41,0.9,1.87s1.44,0.68,2.52,0.68C312.82,516.94,313.71,516.71,314.44,516.24z"/>
		<path d="M323.36,517.91c-1-0.32-1.79-0.72-2.35-1.2l0.82-1.44c0.57,0.45,1.28,0.81,2.14,1.09c0.86,0.28,1.75,0.42,2.68,0.42
			c1.24,0,2.15-0.19,2.74-0.58s0.89-0.93,0.89-1.63c0-0.5-0.16-0.89-0.49-1.17c-0.33-0.28-0.74-0.5-1.24-0.64
			c-0.5-0.15-1.16-0.29-1.98-0.42c-1.1-0.21-1.98-0.42-2.65-0.63c-0.67-0.21-1.24-0.58-1.71-1.09c-0.47-0.51-0.71-1.23-0.71-2.14
			c0-1.13,0.47-2.06,1.42-2.78c0.94-0.72,2.26-1.08,3.94-1.08c0.88,0,1.75,0.12,2.63,0.35c0.88,0.23,1.6,0.54,2.16,0.91l-0.8,1.47
			c-1.12-0.77-2.45-1.16-3.99-1.16c-1.17,0-2.05,0.21-2.64,0.62c-0.59,0.41-0.89,0.95-0.89,1.62c0,0.51,0.17,0.93,0.5,1.24
			c0.33,0.31,0.75,0.54,1.25,0.68c0.5,0.15,1.18,0.3,2.06,0.45c1.08,0.21,1.95,0.41,2.6,0.62c0.65,0.21,1.21,0.56,1.67,1.06
			c0.46,0.5,0.7,1.18,0.7,2.06c0,1.18-0.49,2.12-1.48,2.82c-0.99,0.69-2.36,1.04-4.11,1.04
			C325.42,518.38,324.37,518.23,323.36,517.91z"/>
		<path d="M342.6,517.43c-0.34,0.31-0.77,0.54-1.27,0.71c-0.51,0.16-1.03,0.24-1.58,0.24c-1.27,0-2.25-0.34-2.93-1.03
			c-0.69-0.69-1.03-1.66-1.03-2.91v-8.19h-2.42v-1.54h2.42v-2.96h1.83v2.96h4.12v1.54h-4.12v8.08c0,0.81,0.2,1.42,0.61,1.84
			c0.4,0.42,0.98,0.63,1.74,0.63c0.38,0,0.74-0.06,1.09-0.18s0.66-0.29,0.91-0.51L342.6,517.43z"/>
		<path d="M347.44,517.5c-1.05-0.59-1.87-1.41-2.47-2.46c-0.6-1.05-0.9-2.23-0.9-3.55s0.3-2.51,0.9-3.55
			c0.6-1.05,1.42-1.86,2.47-2.45c1.05-0.58,2.22-0.88,3.53-0.88c1.3,0,2.48,0.29,3.53,0.88c1.05,0.58,1.87,1.4,2.46,2.45
			c0.59,1.05,0.89,2.23,0.89,3.55s-0.3,2.51-0.89,3.55s-1.41,1.87-2.46,2.46c-1.05,0.59-2.22,0.89-3.53,0.89
			C349.66,518.38,348.49,518.09,347.44,517.5z M353.56,516.11c0.76-0.44,1.36-1.06,1.79-1.87c0.43-0.81,0.64-1.72,0.64-2.75
			c0-1.03-0.21-1.95-0.64-2.75c-0.43-0.81-1.03-1.43-1.79-1.87c-0.76-0.44-1.63-0.66-2.59-0.66s-1.82,0.22-2.59,0.66
			c-0.76,0.44-1.36,1.06-1.8,1.87c-0.44,0.81-0.66,1.72-0.66,2.75c0,1.03,0.22,1.95,0.66,2.75c0.44,0.81,1.04,1.43,1.8,1.87
			s1.63,0.66,2.59,0.66S352.79,516.54,353.56,516.11z"/>
	</g>
	<g>
		<path d="M415,509.49c0.99,0.92,1.48,2.12,1.48,3.59c0,1.03-0.25,1.94-0.75,2.74c-0.5,0.8-1.24,1.43-2.21,1.89
			s-2.17,0.69-3.58,0.69c-1.3,0-2.54-0.21-3.69-0.63s-2.09-0.98-2.79-1.69l0.9-1.47c0.6,0.62,1.4,1.12,2.39,1.51
			c1,0.39,2.06,0.58,3.19,0.58c1.48,0,2.62-0.32,3.42-0.97c0.81-0.64,1.21-1.53,1.21-2.66c0-1.12-0.4-1.99-1.21-2.63
			c-0.81-0.63-2.02-0.95-3.66-0.95h-1.29v-1.36l4.99-6.25h-9.21v-1.65h11.58v1.31l-5.1,6.41C412.57,508.06,414.01,508.57,415,509.49
			z"/>
		<path d="M420.66,507.73c-0.63-0.36-1.12-0.85-1.48-1.48c-0.36-0.63-0.54-1.32-0.54-2.07c0-0.74,0.18-1.42,0.54-2.05
			s0.85-1.12,1.48-1.48c0.63-0.36,1.32-0.54,2.07-0.54c0.75,0,1.45,0.18,2.08,0.54c0.63,0.36,1.13,0.85,1.49,1.48
			s0.54,1.31,0.54,2.05c0,0.75-0.18,1.45-0.54,2.07c-0.36,0.63-0.86,1.12-1.49,1.48c-0.64,0.36-1.33,0.54-2.08,0.54
			C421.98,508.27,421.28,508.09,420.66,507.73z M424.85,506.33c0.57-0.57,0.86-1.29,0.86-2.15c0-0.84-0.29-1.55-0.86-2.12
			c-0.58-0.57-1.28-0.86-2.12-0.86c-0.84,0-1.54,0.29-2.11,0.86s-0.85,1.28-0.85,2.12c0,0.86,0.28,1.57,0.85,2.15
			c0.57,0.58,1.27,0.86,2.11,0.86C423.57,507.19,424.28,506.9,424.85,506.33z"/>
		<path d="M441.31,501.89h-6.33v-1.65h14.57v1.65h-6.33v16.37h-1.9V501.89z"/>
		<path d="M460.26,505.94c0.94,0.88,1.42,2.19,1.42,3.93v8.39h-1.75v-2.11c-0.41,0.7-1.02,1.25-1.81,1.65
			c-0.8,0.4-1.75,0.59-2.84,0.59c-1.51,0-2.71-0.36-3.6-1.08c-0.89-0.72-1.34-1.67-1.34-2.86c0-1.15,0.42-2.08,1.25-2.78
			c0.83-0.7,2.16-1.06,3.98-1.06h4.3v-0.82c0-1.17-0.33-2.06-0.98-2.66c-0.65-0.61-1.6-0.91-2.86-0.91c-0.86,0-1.68,0.14-2.47,0.42
			c-0.79,0.28-1.47,0.67-2.03,1.17l-0.82-1.36c0.69-0.58,1.51-1.03,2.47-1.35c0.96-0.32,1.97-0.48,3.04-0.48
			C457.96,504.61,459.31,505.06,460.26,505.94z M458.2,516.24c0.74-0.47,1.29-1.15,1.65-2.05v-2.21h-4.25
			c-2.32,0-3.48,0.81-3.48,2.42c0,0.79,0.3,1.41,0.9,1.87s1.44,0.68,2.52,0.68C456.58,516.94,457.46,516.71,458.2,516.24z"/>
		<path d="M467.12,517.91c-1-0.32-1.79-0.72-2.35-1.2l0.82-1.44c0.57,0.45,1.28,0.81,2.14,1.09c0.86,0.28,1.75,0.42,2.68,0.42
			c1.24,0,2.15-0.19,2.74-0.58c0.59-0.39,0.89-0.93,0.89-1.63c0-0.5-0.16-0.89-0.49-1.17c-0.33-0.28-0.74-0.5-1.24-0.64
			c-0.5-0.15-1.16-0.29-1.98-0.42c-1.1-0.21-1.98-0.42-2.65-0.63c-0.67-0.21-1.24-0.58-1.71-1.09c-0.47-0.51-0.71-1.23-0.71-2.14
			c0-1.13,0.47-2.06,1.42-2.78c0.94-0.72,2.26-1.08,3.94-1.08c0.88,0,1.75,0.12,2.63,0.35c0.88,0.23,1.6,0.54,2.16,0.91l-0.8,1.47
			c-1.12-0.77-2.45-1.16-3.99-1.16c-1.17,0-2.05,0.21-2.64,0.62c-0.59,0.41-0.89,0.95-0.89,1.62c0,0.51,0.17,0.93,0.5,1.24
			s0.75,0.54,1.25,0.68c0.5,0.15,1.18,0.3,2.06,0.45c1.08,0.21,1.95,0.41,2.6,0.62c0.65,0.21,1.21,0.56,1.67,1.06
			c0.46,0.5,0.69,1.18,0.69,2.06c0,1.18-0.49,2.12-1.48,2.82c-0.99,0.69-2.36,1.04-4.11,1.04
			C469.17,518.38,468.12,518.23,467.12,517.91z"/>
		<path d="M486.36,517.43c-0.34,0.31-0.77,0.54-1.27,0.71c-0.51,0.16-1.03,0.24-1.58,0.24c-1.27,0-2.25-0.34-2.93-1.03
			c-0.69-0.69-1.03-1.66-1.03-2.91v-8.19h-2.42v-1.54h2.42v-2.96h1.83v2.96h4.12v1.54h-4.12v8.08c0,0.81,0.2,1.42,0.6,1.84
			c0.4,0.42,0.98,0.63,1.74,0.63c0.38,0,0.74-0.06,1.09-0.18c0.35-0.12,0.66-0.29,0.91-0.51L486.36,517.43z"/>
		<path d="M491.2,517.5c-1.05-0.59-1.87-1.41-2.47-2.46c-0.6-1.05-0.9-2.23-0.9-3.55s0.3-2.51,0.9-3.55
			c0.6-1.05,1.42-1.86,2.47-2.45c1.05-0.58,2.22-0.88,3.53-0.88c1.3,0,2.48,0.29,3.53,0.88c1.05,0.58,1.87,1.4,2.46,2.45
			c0.59,1.05,0.89,2.23,0.89,3.55s-0.3,2.51-0.89,3.55s-1.41,1.87-2.46,2.46c-1.05,0.59-2.22,0.89-3.53,0.89
			C493.42,518.38,492.24,518.09,491.2,517.5z M497.31,516.11c0.76-0.44,1.36-1.06,1.79-1.87c0.43-0.81,0.64-1.72,0.64-2.75
			c0-1.03-0.21-1.95-0.64-2.75c-0.43-0.81-1.03-1.43-1.79-1.87c-0.76-0.44-1.63-0.66-2.59-0.66c-0.96,0-1.82,0.22-2.59,0.66
			c-0.76,0.44-1.36,1.06-1.8,1.87c-0.44,0.81-0.66,1.72-0.66,2.75c0,1.03,0.22,1.95,0.66,2.75c0.44,0.81,1.04,1.43,1.8,1.87
			c0.76,0.44,1.63,0.66,2.59,0.66C495.68,516.76,496.55,516.54,497.31,516.11z"/>
	</g>
	<g>
		<path d="M562.82,513.52h-3.6v4.74h-1.85v-4.74h-10.17v-1.34l9.55-11.94h2.06l-9.21,11.63h7.83v-4.17h1.8v4.17h3.6V513.52z"/>
		<path d="M565.71,507.73c-0.63-0.36-1.12-0.85-1.48-1.48c-0.36-0.63-0.54-1.32-0.54-2.07c0-0.74,0.18-1.42,0.54-2.05
			s0.85-1.12,1.48-1.48c0.63-0.36,1.32-0.54,2.07-0.54c0.75,0,1.45,0.18,2.08,0.54c0.63,0.36,1.13,0.85,1.49,1.48
			s0.54,1.31,0.54,2.05c0,0.75-0.18,1.45-0.54,2.07c-0.36,0.63-0.86,1.12-1.49,1.48c-0.64,0.36-1.33,0.54-2.08,0.54
			C567.03,508.27,566.34,508.09,565.71,507.73z M569.91,506.33c0.57-0.57,0.86-1.29,0.86-2.15c0-0.84-0.29-1.55-0.86-2.12
			c-0.58-0.57-1.28-0.86-2.12-0.86c-0.84,0-1.54,0.29-2.11,0.86s-0.85,1.28-0.85,2.12c0,0.86,0.28,1.57,0.85,2.15
			c0.57,0.58,1.27,0.86,2.11,0.86C568.63,507.19,569.33,506.9,569.91,506.33z"/>
		<path d="M586.37,501.89h-6.33v-1.65h14.57v1.65h-6.33v16.37h-1.9V501.89z"/>
		<path d="M605.31,505.94c0.94,0.88,1.42,2.19,1.42,3.93v8.39h-1.75v-2.11c-0.41,0.7-1.02,1.25-1.81,1.65
			c-0.8,0.4-1.75,0.59-2.84,0.59c-1.51,0-2.71-0.36-3.6-1.08c-0.89-0.72-1.34-1.67-1.34-2.86c0-1.15,0.42-2.08,1.25-2.78
			c0.83-0.7,2.16-1.06,3.98-1.06h4.3v-0.82c0-1.17-0.33-2.06-0.98-2.66c-0.65-0.61-1.6-0.91-2.86-0.91c-0.86,0-1.68,0.14-2.47,0.42
			c-0.79,0.28-1.47,0.67-2.03,1.17l-0.82-1.36c0.69-0.58,1.51-1.03,2.47-1.35c0.96-0.32,1.97-0.48,3.04-0.48
			C603.01,504.61,604.37,505.06,605.31,505.94z M603.25,516.24c0.74-0.47,1.29-1.15,1.65-2.05v-2.21h-4.25
			c-2.32,0-3.48,0.81-3.48,2.42c0,0.79,0.3,1.41,0.9,1.87s1.44,0.68,2.52,0.68C601.63,516.94,602.52,516.71,603.25,516.24z"/>
		<path d="M612.17,517.91c-1-0.32-1.79-0.72-2.35-1.2l0.82-1.44c0.57,0.45,1.28,0.81,2.14,1.09c0.86,0.28,1.75,0.42,2.68,0.42
			c1.24,0,2.15-0.19,2.74-0.58c0.59-0.39,0.89-0.93,0.89-1.63c0-0.5-0.16-0.89-0.49-1.17c-0.33-0.28-0.74-0.5-1.24-0.64
			c-0.5-0.15-1.16-0.29-1.98-0.42c-1.1-0.21-1.98-0.42-2.65-0.63c-0.67-0.21-1.24-0.58-1.71-1.09c-0.47-0.51-0.71-1.23-0.71-2.14
			c0-1.13,0.47-2.06,1.42-2.78c0.94-0.72,2.26-1.08,3.94-1.08c0.88,0,1.75,0.12,2.63,0.35c0.88,0.23,1.6,0.54,2.16,0.91l-0.8,1.47
			c-1.12-0.77-2.45-1.16-3.99-1.16c-1.17,0-2.05,0.21-2.64,0.62c-0.59,0.41-0.89,0.95-0.89,1.62c0,0.51,0.17,0.93,0.5,1.24
			s0.75,0.54,1.25,0.68c0.5,0.15,1.18,0.3,2.06,0.45c1.08,0.21,1.95,0.41,2.6,0.62c0.65,0.21,1.21,0.56,1.67,1.06
			c0.46,0.5,0.69,1.18,0.69,2.06c0,1.18-0.49,2.12-1.48,2.82c-0.99,0.69-2.36,1.04-4.11,1.04
			C614.23,518.38,613.18,518.23,612.17,517.91z"/>
		<path d="M631.41,517.43c-0.34,0.31-0.77,0.54-1.27,0.71c-0.51,0.16-1.03,0.24-1.58,0.24c-1.27,0-2.25-0.34-2.93-1.03
			c-0.69-0.69-1.03-1.66-1.03-2.91v-8.19h-2.42v-1.54h2.42v-2.96h1.83v2.96h4.12v1.54h-4.12v8.08c0,0.81,0.2,1.42,0.6,1.84
			c0.4,0.42,0.98,0.63,1.74,0.63c0.38,0,0.74-0.06,1.09-0.18c0.35-0.12,0.66-0.29,0.91-0.51L631.41,517.43z"/>
		<path d="M636.25,517.5c-1.05-0.59-1.87-1.41-2.47-2.46c-0.6-1.05-0.9-2.23-0.9-3.55s0.3-2.51,0.9-3.55
			c0.6-1.05,1.42-1.86,2.47-2.45c1.05-0.58,2.22-0.88,3.53-0.88c1.3,0,2.48,0.29,3.53,0.88c1.05,0.58,1.87,1.4,2.46,2.45
			c0.59,1.05,0.89,2.23,0.89,3.55s-0.3,2.51-0.89,3.55s-1.41,1.87-2.46,2.46c-1.05,0.59-2.22,0.89-3.53,0.89
			C638.48,518.38,637.3,518.09,636.25,517.5z M642.37,516.11c0.76-0.44,1.36-1.06,1.79-1.87c0.43-0.81,0.64-1.72,0.64-2.75
			c0-1.03-0.21-1.95-0.64-2.75c-0.43-0.81-1.03-1.43-1.79-1.87c-0.76-0.44-1.63-0.66-2.59-0.66c-0.96,0-1.82,0.22-2.59,0.66
			c-0.76,0.44-1.36,1.06-1.8,1.87c-0.44,0.81-0.66,1.72-0.66,2.75c0,1.03,0.22,1.95,0.66,2.75c0.44,0.81,1.04,1.43,1.8,1.87
			c0.76,0.44,1.63,0.66,2.59,0.66C640.74,516.76,641.6,516.54,642.37,516.11z"/>
	</g>
	<g>
		<path d="M702.97,509.03c1.19,0.94,1.79,2.24,1.79,3.93c0,1.05-0.24,1.98-0.73,2.81c-0.49,0.82-1.22,1.47-2.2,1.94
			c-0.98,0.47-2.18,0.71-3.6,0.71c-1.29,0-2.51-0.21-3.67-0.63c-1.16-0.42-2.09-0.98-2.79-1.69l0.9-1.47
			c0.6,0.62,1.39,1.12,2.37,1.51c0.98,0.39,2.03,0.58,3.17,0.58c1.49,0,2.65-0.33,3.46-1c0.81-0.67,1.22-1.56,1.22-2.68
			c0-1.24-0.46-2.17-1.38-2.81c-0.92-0.63-2.47-0.95-4.65-0.95h-3.83l0.93-9.03h9.86v1.65h-8.24l-0.62,5.74h2.32
			C699.88,507.63,701.78,508.09,702.97,509.03z"/>
		<path d="M708.68,507.73c-0.63-0.36-1.12-0.85-1.48-1.48c-0.36-0.63-0.54-1.32-0.54-2.07c0-0.74,0.18-1.42,0.54-2.05
			s0.85-1.12,1.48-1.48c0.63-0.36,1.32-0.54,2.07-0.54c0.75,0,1.45,0.18,2.08,0.54c0.63,0.36,1.13,0.85,1.49,1.48
			s0.54,1.31,0.54,2.05c0,0.75-0.18,1.45-0.54,2.07c-0.36,0.63-0.86,1.12-1.49,1.48c-0.64,0.36-1.33,0.54-2.08,0.54
			C710,508.27,709.31,508.09,708.68,507.73z M712.88,506.33c0.57-0.57,0.86-1.29,0.86-2.15c0-0.84-0.29-1.55-0.86-2.12
			c-0.58-0.57-1.28-0.86-2.12-0.86c-0.84,0-1.54,0.29-2.11,0.86s-0.85,1.28-0.85,2.12c0,0.86,0.28,1.57,0.85,2.15
			c0.57,0.58,1.27,0.86,2.11,0.86C711.6,507.19,712.3,506.9,712.88,506.33z"/>
		<path d="M729.34,501.89h-6.33v-1.65h14.57v1.65h-6.33v16.37h-1.9V501.89z"/>
		<path d="M748.28,505.94c0.94,0.88,1.42,2.19,1.42,3.93v8.39h-1.75v-2.11c-0.41,0.7-1.02,1.25-1.81,1.65
			c-0.8,0.4-1.75,0.59-2.84,0.59c-1.51,0-2.71-0.36-3.6-1.08c-0.89-0.72-1.34-1.67-1.34-2.86c0-1.15,0.42-2.08,1.25-2.78
			c0.83-0.7,2.16-1.06,3.98-1.06h4.3v-0.82c0-1.17-0.33-2.06-0.98-2.66c-0.65-0.61-1.6-0.91-2.86-0.91c-0.86,0-1.68,0.14-2.47,0.42
			c-0.79,0.28-1.47,0.67-2.03,1.17l-0.82-1.36c0.69-0.58,1.51-1.03,2.47-1.35c0.96-0.32,1.97-0.48,3.04-0.48
			C745.98,504.61,747.34,505.06,748.28,505.94z M746.23,516.24c0.74-0.47,1.29-1.15,1.65-2.05v-2.21h-4.25
			c-2.32,0-3.48,0.81-3.48,2.42c0,0.79,0.3,1.41,0.9,1.87s1.44,0.68,2.52,0.68C744.6,516.94,745.49,516.71,746.23,516.24z"/>
		<path d="M755.14,517.91c-1-0.32-1.79-0.72-2.35-1.2l0.82-1.44c0.57,0.45,1.28,0.81,2.14,1.09c0.86,0.28,1.75,0.42,2.68,0.42
			c1.24,0,2.15-0.19,2.74-0.58c0.59-0.39,0.89-0.93,0.89-1.63c0-0.5-0.16-0.89-0.49-1.17c-0.33-0.28-0.74-0.5-1.24-0.64
			c-0.5-0.15-1.16-0.29-1.98-0.42c-1.1-0.21-1.98-0.42-2.65-0.63c-0.67-0.21-1.24-0.58-1.71-1.09c-0.47-0.51-0.71-1.23-0.71-2.14
			c0-1.13,0.47-2.06,1.42-2.78c0.94-0.72,2.26-1.08,3.94-1.08c0.88,0,1.75,0.12,2.63,0.35c0.88,0.23,1.6,0.54,2.16,0.91l-0.8,1.47
			c-1.12-0.77-2.45-1.16-3.99-1.16c-1.17,0-2.05,0.21-2.64,0.62c-0.59,0.41-0.89,0.95-0.89,1.62c0,0.51,0.17,0.93,0.5,1.24
			s0.75,0.54,1.25,0.68c0.5,0.15,1.18,0.3,2.06,0.45c1.08,0.21,1.95,0.41,2.6,0.62c0.65,0.21,1.21,0.56,1.67,1.06
			c0.46,0.5,0.69,1.18,0.69,2.06c0,1.18-0.49,2.12-1.48,2.82c-0.99,0.69-2.36,1.04-4.11,1.04
			C757.2,518.39,756.15,518.23,755.14,517.91z"/>
		<path d="M774.38,517.43c-0.34,0.31-0.77,0.54-1.27,0.71c-0.51,0.16-1.03,0.24-1.58,0.24c-1.27,0-2.25-0.34-2.93-1.03
			c-0.69-0.69-1.03-1.66-1.03-2.91v-8.19h-2.42v-1.54h2.42v-2.96h1.83v2.96h4.12v1.54h-4.12v8.08c0,0.81,0.2,1.42,0.6,1.84
			c0.4,0.42,0.98,0.63,1.74,0.63c0.38,0,0.74-0.06,1.09-0.18c0.35-0.12,0.66-0.29,0.91-0.51L774.38,517.43z"/>
		<path d="M779.22,517.5c-1.05-0.59-1.87-1.41-2.47-2.46c-0.6-1.05-0.9-2.23-0.9-3.55s0.3-2.51,0.9-3.55
			c0.6-1.05,1.42-1.86,2.47-2.45c1.05-0.58,2.22-0.88,3.53-0.88c1.3,0,2.48,0.29,3.53,0.88c1.05,0.58,1.87,1.4,2.46,2.45
			c0.59,1.05,0.89,2.23,0.89,3.55s-0.3,2.51-0.89,3.55s-1.41,1.87-2.46,2.46c-1.05,0.59-2.22,0.89-3.53,0.89
			C781.45,518.39,780.27,518.09,779.22,517.5z M785.34,516.11c0.76-0.44,1.36-1.06,1.79-1.87c0.43-0.81,0.64-1.72,0.64-2.75
			c0-1.03-0.21-1.95-0.64-2.75c-0.43-0.81-1.03-1.43-1.79-1.87c-0.76-0.44-1.63-0.66-2.59-0.66c-0.96,0-1.82,0.22-2.59,0.66
			c-0.76,0.44-1.36,1.06-1.8,1.87c-0.44,0.81-0.66,1.72-0.66,2.75c0,1.03,0.22,1.95,0.66,2.75c0.44,0.81,1.04,1.43,1.8,1.87
			c0.76,0.44,1.63,0.66,2.59,0.66C783.71,516.76,784.57,516.54,785.34,516.11z"/>
	</g>
	<g>
		<path d="M846.67,508.14c0.92,0.45,1.63,1.08,2.15,1.89c0.51,0.82,0.77,1.76,0.77,2.84c0,1.1-0.27,2.07-0.8,2.91
			c-0.53,0.84-1.27,1.49-2.2,1.94c-0.94,0.46-1.99,0.68-3.15,0.68c-2.39,0-4.21-0.79-5.48-2.35c-1.27-1.57-1.9-3.79-1.9-6.65
			c0-2.01,0.34-3.71,1.03-5.1c0.69-1.39,1.65-2.44,2.88-3.15s2.68-1.07,4.32-1.07c1.78,0,3.21,0.33,4.27,0.98l-0.75,1.49
			c-0.86-0.57-2.02-0.85-3.5-0.85c-1.99,0-3.55,0.63-4.68,1.89c-1.13,1.26-1.7,3.09-1.7,5.5c0,0.43,0.03,0.92,0.08,1.47
			c0.45-0.98,1.16-1.74,2.14-2.28s2.1-0.81,3.37-0.81C844.7,507.47,845.76,507.69,846.67,508.14z M846.54,515.77
			c0.81-0.71,1.22-1.66,1.22-2.84s-0.41-2.13-1.22-2.83c-0.82-0.7-1.92-1.06-3.31-1.06c-0.91,0-1.71,0.17-2.41,0.51
			c-0.69,0.34-1.24,0.82-1.63,1.42c-0.39,0.6-0.59,1.27-0.59,2.01c0,0.69,0.18,1.32,0.55,1.9c0.37,0.58,0.91,1.06,1.63,1.42
			s1.58,0.54,2.57,0.54C844.67,516.84,845.73,516.48,846.54,515.77z"/>
		<path d="M853.16,507.73c-0.63-0.36-1.12-0.85-1.48-1.48c-0.36-0.63-0.54-1.32-0.54-2.07c0-0.74,0.18-1.42,0.54-2.05
			s0.85-1.12,1.48-1.48c0.63-0.36,1.32-0.54,2.07-0.54c0.75,0,1.45,0.18,2.08,0.54c0.63,0.36,1.13,0.85,1.49,1.48
			s0.54,1.31,0.54,2.05c0,0.75-0.18,1.45-0.54,2.07c-0.36,0.63-0.86,1.12-1.49,1.48c-0.64,0.36-1.33,0.54-2.08,0.54
			C854.48,508.27,853.79,508.09,853.16,507.73z M857.36,506.33c0.57-0.57,0.86-1.29,0.86-2.15c0-0.84-0.29-1.55-0.86-2.12
			c-0.58-0.57-1.28-0.86-2.12-0.86c-0.84,0-1.54,0.29-2.11,0.86s-0.85,1.28-0.85,2.12c0,0.86,0.28,1.57,0.85,2.15
			c0.57,0.58,1.27,0.86,2.11,0.86C856.07,507.19,856.78,506.9,857.36,506.33z"/>
		<path d="M873.82,501.89h-6.33v-1.65h14.57v1.65h-6.33v16.37h-1.9V501.89z"/>
		<path d="M892.76,505.94c0.94,0.88,1.42,2.19,1.42,3.93v8.39h-1.75v-2.11c-0.41,0.7-1.02,1.25-1.81,1.65
			c-0.8,0.4-1.75,0.59-2.84,0.59c-1.51,0-2.71-0.36-3.6-1.08c-0.89-0.72-1.34-1.67-1.34-2.86c0-1.15,0.42-2.08,1.25-2.78
			c0.83-0.7,2.16-1.06,3.98-1.06h4.3v-0.82c0-1.17-0.33-2.06-0.98-2.66c-0.65-0.61-1.6-0.91-2.86-0.91c-0.86,0-1.68,0.14-2.47,0.42
			c-0.79,0.28-1.47,0.67-2.03,1.17l-0.82-1.36c0.69-0.58,1.51-1.03,2.47-1.35c0.96-0.32,1.97-0.48,3.04-0.48
			C890.46,504.61,891.82,505.06,892.76,505.94z M890.7,516.24c0.74-0.47,1.29-1.15,1.65-2.05v-2.21h-4.25
			c-2.32,0-3.48,0.81-3.48,2.42c0,0.79,0.3,1.41,0.9,1.87s1.44,0.68,2.52,0.68C889.08,516.94,889.96,516.71,890.7,516.24z"/>
		<path d="M899.62,517.91c-1-0.32-1.79-0.72-2.35-1.2l0.82-1.44c0.57,0.45,1.28,0.81,2.14,1.09c0.86,0.28,1.75,0.42,2.68,0.42
			c1.24,0,2.15-0.19,2.74-0.58c0.59-0.39,0.89-0.93,0.89-1.63c0-0.5-0.16-0.89-0.49-1.17c-0.33-0.28-0.74-0.5-1.24-0.64
			c-0.5-0.15-1.16-0.29-1.98-0.42c-1.1-0.21-1.98-0.42-2.65-0.63c-0.67-0.21-1.24-0.58-1.71-1.09c-0.47-0.51-0.71-1.23-0.71-2.14
			c0-1.13,0.47-2.06,1.42-2.78c0.94-0.72,2.26-1.08,3.94-1.08c0.88,0,1.75,0.12,2.63,0.35c0.88,0.23,1.6,0.54,2.16,0.91l-0.8,1.47
			c-1.12-0.77-2.45-1.16-3.99-1.16c-1.17,0-2.05,0.21-2.64,0.62c-0.59,0.41-0.89,0.95-0.89,1.62c0,0.51,0.17,0.93,0.5,1.24
			s0.75,0.54,1.25,0.68c0.5,0.15,1.18,0.3,2.06,0.45c1.08,0.21,1.95,0.41,2.6,0.62c0.65,0.21,1.21,0.56,1.67,1.06
			c0.46,0.5,0.69,1.18,0.69,2.06c0,1.18-0.49,2.12-1.48,2.82c-0.99,0.69-2.36,1.04-4.11,1.04
			C901.67,518.38,900.62,518.23,899.62,517.91z"/>
		<path d="M918.86,517.43c-0.34,0.31-0.77,0.54-1.27,0.71c-0.51,0.16-1.03,0.24-1.58,0.24c-1.27,0-2.25-0.34-2.93-1.03
			c-0.69-0.69-1.03-1.66-1.03-2.91v-8.19h-2.42v-1.54h2.42v-2.96h1.83v2.96h4.12v1.54h-4.12v8.08c0,0.81,0.2,1.42,0.6,1.84
			c0.4,0.42,0.98,0.63,1.74,0.63c0.38,0,0.74-0.06,1.09-0.18c0.35-0.12,0.66-0.29,0.91-0.51L918.86,517.43z"/>
		<path d="M923.7,517.5c-1.05-0.59-1.87-1.41-2.47-2.46c-0.6-1.05-0.9-2.23-0.9-3.55s0.3-2.51,0.9-3.55
			c0.6-1.05,1.42-1.86,2.47-2.45c1.05-0.58,2.22-0.88,3.53-0.88c1.3,0,2.48,0.29,3.53,0.88c1.05,0.58,1.87,1.4,2.46,2.45
			c0.59,1.05,0.89,2.23,0.89,3.55s-0.3,2.51-0.89,3.55s-1.41,1.87-2.46,2.46c-1.05,0.59-2.22,0.89-3.53,0.89
			C925.92,518.38,924.75,518.09,923.7,517.5z M929.81,516.11c0.76-0.44,1.36-1.06,1.79-1.87c0.43-0.81,0.64-1.72,0.64-2.75
			c0-1.03-0.21-1.95-0.64-2.75c-0.43-0.81-1.03-1.43-1.79-1.87c-0.76-0.44-1.63-0.66-2.59-0.66c-0.96,0-1.82,0.22-2.59,0.66
			c-0.76,0.44-1.36,1.06-1.8,1.87c-0.44,0.81-0.66,1.72-0.66,2.75c0,1.03,0.22,1.95,0.66,2.75c0.44,0.81,1.04,1.43,1.8,1.87
			c0.76,0.44,1.63,0.66,2.59,0.66C928.19,516.76,929.05,516.54,929.81,516.11z"/>
	</g>
	<g>
		<path d="M992.71,500.24v1.31l-7.54,16.71h-2.01l7.41-16.37h-9.27v3.37h-1.83v-5.02H992.71z"/>
		<path d="M997.22,507.73c-0.63-0.36-1.12-0.85-1.48-1.48c-0.36-0.63-0.54-1.32-0.54-2.07c0-0.74,0.18-1.42,0.54-2.05
			s0.85-1.12,1.48-1.48c0.63-0.36,1.32-0.54,2.07-0.54c0.75,0,1.45,0.18,2.08,0.54c0.63,0.36,1.13,0.85,1.49,1.48
			c0.36,0.63,0.54,1.31,0.54,2.05c0,0.75-0.18,1.45-0.54,2.07c-0.36,0.63-0.86,1.12-1.49,1.48c-0.64,0.36-1.33,0.54-2.08,0.54
			C998.54,508.27,997.85,508.09,997.22,507.73z M1001.42,506.33c0.58-0.57,0.86-1.29,0.86-2.15c0-0.84-0.29-1.55-0.86-2.12
			s-1.28-0.86-2.12-0.86s-1.54,0.29-2.11,0.86c-0.57,0.57-0.85,1.28-0.85,2.12c0,0.86,0.28,1.57,0.85,2.15
			c0.57,0.58,1.27,0.86,2.11,0.86S1000.84,506.9,1001.42,506.33z"/>
		<path d="M1017.88,501.89h-6.33v-1.65h14.57v1.65h-6.33v16.37h-1.91V501.89z"/>
		<path d="M1036.83,505.94c0.94,0.88,1.42,2.19,1.42,3.93v8.39h-1.75v-2.11c-0.41,0.7-1.02,1.25-1.81,1.65
			c-0.8,0.4-1.75,0.59-2.84,0.59c-1.51,0-2.71-0.36-3.6-1.08c-0.89-0.72-1.34-1.67-1.34-2.86c0-1.15,0.42-2.08,1.25-2.78
			s2.16-1.06,3.98-1.06h4.3v-0.82c0-1.17-0.33-2.06-0.98-2.66c-0.65-0.61-1.6-0.91-2.86-0.91c-0.86,0-1.68,0.14-2.47,0.42
			s-1.47,0.67-2.03,1.17l-0.82-1.36c0.69-0.58,1.51-1.03,2.47-1.35c0.96-0.32,1.97-0.48,3.04-0.48
			C1034.53,504.61,1035.88,505.06,1036.83,505.94z M1034.77,516.24c0.74-0.47,1.29-1.15,1.65-2.05v-2.21h-4.25
			c-2.32,0-3.47,0.81-3.47,2.42c0,0.79,0.3,1.41,0.9,1.87s1.44,0.68,2.52,0.68C1033.14,516.94,1034.03,516.71,1034.77,516.24z"/>
		<path d="M1043.68,517.91c-1-0.32-1.79-0.72-2.36-1.2l0.82-1.44c0.57,0.45,1.28,0.81,2.14,1.09c0.86,0.28,1.75,0.42,2.68,0.42
			c1.24,0,2.15-0.19,2.74-0.58s0.89-0.93,0.89-1.63c0-0.5-0.16-0.89-0.49-1.17s-0.74-0.5-1.24-0.64c-0.5-0.15-1.16-0.29-1.98-0.42
			c-1.1-0.21-1.98-0.42-2.65-0.63c-0.67-0.21-1.24-0.58-1.71-1.09c-0.47-0.51-0.71-1.23-0.71-2.14c0-1.13,0.47-2.06,1.42-2.78
			c0.94-0.72,2.26-1.08,3.94-1.08c0.88,0,1.75,0.12,2.63,0.35c0.88,0.23,1.6,0.54,2.16,0.91l-0.8,1.47
			c-1.12-0.77-2.45-1.16-3.99-1.16c-1.17,0-2.05,0.21-2.64,0.62c-0.59,0.41-0.89,0.95-0.89,1.62c0,0.51,0.17,0.93,0.5,1.24
			c0.33,0.31,0.75,0.54,1.25,0.68c0.5,0.15,1.18,0.3,2.06,0.45c1.08,0.21,1.95,0.41,2.6,0.62c0.65,0.21,1.21,0.56,1.67,1.06
			c0.46,0.5,0.69,1.18,0.69,2.06c0,1.18-0.49,2.12-1.48,2.82c-0.99,0.69-2.36,1.04-4.11,1.04
			C1045.74,518.38,1044.69,518.23,1043.68,517.91z"/>
		<path d="M1062.93,517.43c-0.34,0.31-0.77,0.54-1.27,0.71c-0.51,0.16-1.03,0.24-1.58,0.24c-1.27,0-2.25-0.34-2.93-1.03
			c-0.69-0.69-1.03-1.66-1.03-2.91v-8.19h-2.42v-1.54h2.42v-2.96h1.83v2.96h4.12v1.54h-4.12v8.08c0,0.81,0.2,1.42,0.61,1.84
			c0.4,0.42,0.98,0.63,1.74,0.63c0.38,0,0.74-0.06,1.09-0.18s0.66-0.29,0.91-0.51L1062.93,517.43z"/>
		<path d="M1067.76,517.5c-1.05-0.59-1.87-1.41-2.47-2.46s-0.9-2.23-0.9-3.55s0.3-2.51,0.9-3.55c0.6-1.05,1.42-1.86,2.47-2.45
			c1.05-0.58,2.22-0.88,3.53-0.88c1.3,0,2.48,0.29,3.53,0.88c1.05,0.58,1.87,1.4,2.46,2.45c0.59,1.05,0.89,2.23,0.89,3.55
			s-0.3,2.51-0.89,3.55c-0.59,1.05-1.41,1.87-2.46,2.46c-1.05,0.59-2.22,0.89-3.53,0.89
			C1069.99,518.38,1068.81,518.09,1067.76,517.5z M1073.88,516.11c0.76-0.44,1.36-1.06,1.79-1.87c0.43-0.81,0.64-1.72,0.64-2.75
			c0-1.03-0.21-1.95-0.64-2.75c-0.43-0.81-1.03-1.43-1.79-1.87c-0.76-0.44-1.63-0.66-2.59-0.66s-1.82,0.22-2.59,0.66
			c-0.76,0.44-1.36,1.06-1.8,1.87c-0.44,0.81-0.66,1.72-0.66,2.75c0,1.03,0.22,1.95,0.66,2.75c0.44,0.81,1.04,1.43,1.8,1.87
			s1.63,0.66,2.59,0.66S1073.11,516.54,1073.88,516.11z"/>
	</g>
	<g>
		<path d="M1136.35,510.51c0.61,0.76,0.91,1.66,0.91,2.73c0,1.05-0.28,1.96-0.85,2.74s-1.38,1.38-2.43,1.8
			c-1.05,0.42-2.29,0.63-3.72,0.63c-2.16,0-3.86-0.46-5.1-1.39c-1.24-0.93-1.85-2.19-1.85-3.78c0-1.08,0.3-1.99,0.89-2.74
			c0.59-0.75,1.45-1.31,2.59-1.69c-0.93-0.36-1.63-0.88-2.11-1.56c-0.48-0.68-0.72-1.48-0.72-2.41c0-1.46,0.57-2.62,1.71-3.47
			c1.14-0.86,2.67-1.29,4.59-1.29c1.27,0,2.38,0.19,3.33,0.58s1.69,0.94,2.23,1.66c0.53,0.72,0.8,1.56,0.8,2.52
			c0,0.93-0.25,1.73-0.75,2.41c-0.5,0.68-1.21,1.2-2.14,1.56C1134.87,509.19,1135.74,509.75,1136.35,510.51z M1134,515.86
			c0.9-0.65,1.35-1.54,1.35-2.65c0-1.12-0.45-2-1.35-2.64c-0.9-0.64-2.15-0.96-3.75-0.96c-1.58,0-2.82,0.32-3.72,0.96
			c-0.9,0.64-1.35,1.52-1.35,2.64c0,1.13,0.45,2.02,1.34,2.66c0.89,0.64,2.14,0.97,3.73,0.97S1133.1,516.51,1134,515.86z
			 M1126.99,507.26c0.79,0.58,1.88,0.88,3.27,0.88c1.39,0,2.48-0.29,3.28-0.88c0.8-0.58,1.2-1.36,1.2-2.34
			c0-1.01-0.41-1.81-1.22-2.39c-0.82-0.58-1.9-0.88-3.26-0.88c-1.37,0-2.46,0.29-3.26,0.88c-0.8,0.58-1.2,1.37-1.2,2.37
			S1126.2,506.68,1126.99,507.26z"/>
		<path d="M1141.8,507.73c-0.63-0.36-1.12-0.85-1.48-1.48c-0.36-0.63-0.54-1.32-0.54-2.07c0-0.74,0.18-1.42,0.54-2.05
			s0.85-1.12,1.48-1.48c0.63-0.36,1.32-0.54,2.07-0.54c0.75,0,1.45,0.18,2.08,0.54c0.63,0.36,1.13,0.85,1.49,1.48
			c0.36,0.63,0.54,1.31,0.54,2.05c0,0.75-0.18,1.45-0.54,2.07c-0.36,0.63-0.86,1.12-1.49,1.48c-0.64,0.36-1.33,0.54-2.08,0.54
			C1143.12,508.27,1142.43,508.09,1141.8,507.73z M1146,506.33c0.58-0.57,0.86-1.29,0.86-2.15c0-0.84-0.29-1.55-0.86-2.12
			s-1.28-0.86-2.12-0.86s-1.54,0.29-2.11,0.86c-0.57,0.57-0.85,1.28-0.85,2.12c0,0.86,0.28,1.57,0.85,2.15
			c0.57,0.58,1.27,0.86,2.11,0.86S1145.42,506.9,1146,506.33z"/>
		<path d="M1162.46,501.89h-6.33v-1.65h14.57v1.65h-6.33v16.37h-1.91V501.89z"/>
		<path d="M1181.4,505.94c0.94,0.88,1.42,2.19,1.42,3.93v8.39h-1.75v-2.11c-0.41,0.7-1.02,1.25-1.81,1.65
			c-0.8,0.4-1.75,0.59-2.84,0.59c-1.51,0-2.71-0.36-3.6-1.08c-0.89-0.72-1.34-1.67-1.34-2.86c0-1.15,0.42-2.08,1.25-2.78
			s2.16-1.06,3.98-1.06h4.3v-0.82c0-1.17-0.33-2.06-0.98-2.66c-0.65-0.61-1.6-0.91-2.86-0.91c-0.86,0-1.68,0.14-2.47,0.42
			s-1.47,0.67-2.03,1.17l-0.82-1.36c0.69-0.58,1.51-1.03,2.47-1.35c0.96-0.32,1.97-0.48,3.04-0.48
			C1179.1,504.61,1180.46,505.06,1181.4,505.94z M1179.34,516.24c0.74-0.47,1.29-1.15,1.65-2.05v-2.21h-4.25
			c-2.32,0-3.47,0.81-3.47,2.42c0,0.79,0.3,1.41,0.9,1.87s1.44,0.68,2.52,0.68C1177.72,516.94,1178.61,516.71,1179.34,516.24z"/>
		<path d="M1188.26,517.91c-1-0.32-1.79-0.72-2.36-1.2l0.82-1.44c0.57,0.45,1.28,0.81,2.14,1.09c0.86,0.28,1.75,0.42,2.68,0.42
			c1.24,0,2.15-0.19,2.74-0.58s0.89-0.93,0.89-1.63c0-0.5-0.16-0.89-0.49-1.17s-0.74-0.5-1.24-0.64c-0.5-0.15-1.16-0.29-1.98-0.42
			c-1.1-0.21-1.98-0.42-2.65-0.63c-0.67-0.21-1.24-0.58-1.71-1.09c-0.47-0.51-0.71-1.23-0.71-2.14c0-1.13,0.47-2.06,1.42-2.78
			c0.94-0.72,2.26-1.08,3.94-1.08c0.88,0,1.75,0.12,2.63,0.35c0.88,0.23,1.6,0.54,2.16,0.91l-0.8,1.47
			c-1.12-0.77-2.45-1.16-3.99-1.16c-1.17,0-2.05,0.21-2.64,0.62c-0.59,0.41-0.89,0.95-0.89,1.62c0,0.51,0.17,0.93,0.5,1.24
			c0.33,0.31,0.75,0.54,1.25,0.68c0.5,0.15,1.18,0.3,2.06,0.45c1.08,0.21,1.95,0.41,2.6,0.62c0.65,0.21,1.21,0.56,1.67,1.06
			c0.46,0.5,0.69,1.18,0.69,2.06c0,1.18-0.49,2.12-1.48,2.82c-0.99,0.69-2.36,1.04-4.11,1.04
			C1190.32,518.38,1189.27,518.23,1188.26,517.91z"/>
		<path d="M1207.5,517.43c-0.34,0.31-0.77,0.54-1.27,0.71c-0.51,0.16-1.03,0.24-1.58,0.24c-1.27,0-2.25-0.34-2.93-1.03
			c-0.69-0.69-1.03-1.66-1.03-2.91v-8.19h-2.42v-1.54h2.42v-2.96h1.83v2.96h4.12v1.54h-4.12v8.08c0,0.81,0.2,1.42,0.61,1.84
			c0.4,0.42,0.98,0.63,1.74,0.63c0.38,0,0.74-0.06,1.09-0.18s0.66-0.29,0.91-0.51L1207.5,517.43z"/>
		<path d="M1212.34,517.5c-1.05-0.59-1.87-1.41-2.47-2.46s-0.9-2.23-0.9-3.55s0.3-2.51,0.9-3.55c0.6-1.05,1.42-1.86,2.47-2.45
			c1.05-0.58,2.22-0.88,3.53-0.88c1.3,0,2.48,0.29,3.53,0.88c1.05,0.58,1.87,1.4,2.46,2.45c0.59,1.05,0.89,2.23,0.89,3.55
			s-0.3,2.51-0.89,3.55c-0.59,1.05-1.41,1.87-2.46,2.46c-1.05,0.59-2.22,0.89-3.53,0.89
			C1214.57,518.38,1213.39,518.09,1212.34,517.5z M1218.46,516.11c0.76-0.44,1.36-1.06,1.79-1.87c0.43-0.81,0.64-1.72,0.64-2.75
			c0-1.03-0.21-1.95-0.64-2.75c-0.43-0.81-1.03-1.43-1.79-1.87c-0.76-0.44-1.63-0.66-2.59-0.66s-1.82,0.22-2.59,0.66
			c-0.76,0.44-1.36,1.06-1.8,1.87c-0.44,0.81-0.66,1.72-0.66,2.75c0,1.03,0.22,1.95,0.66,2.75c0.44,0.81,1.04,1.43,1.8,1.87
			s1.63,0.66,2.59,0.66S1217.69,516.54,1218.46,516.11z"/>
	</g>
	<g>
		<path d="M1278.83,502.44c1.27,1.57,1.9,3.79,1.9,6.65c0,2.01-0.34,3.71-1.03,5.1s-1.65,2.44-2.88,3.15s-2.68,1.07-4.32,1.07
			c-1.79,0-3.21-0.33-4.27-0.98l0.75-1.49c0.86,0.57,2.02,0.85,3.5,0.85c1.99,0,3.55-0.63,4.69-1.89c1.13-1.26,1.7-3.09,1.7-5.5
			c0-0.45-0.03-0.94-0.08-1.47c-0.45,0.98-1.16,1.74-2.14,2.28c-0.98,0.54-2.1,0.81-3.37,0.81c-1.18,0-2.24-0.22-3.15-0.67
			c-0.92-0.45-1.63-1.08-2.15-1.89s-0.77-1.76-0.77-2.84c0-1.1,0.27-2.07,0.8-2.91s1.27-1.49,2.2-1.94
			c0.93-0.45,1.99-0.68,3.15-0.68C1275.73,500.08,1277.56,500.87,1278.83,502.44z M1275.96,508.94c0.7-0.34,1.24-0.81,1.63-1.42
			c0.39-0.6,0.59-1.27,0.59-2.01c0-0.69-0.18-1.32-0.55-1.9c-0.37-0.58-0.91-1.06-1.63-1.42s-1.58-0.54-2.57-0.54
			c-1.3,0-2.36,0.36-3.18,1.07c-0.81,0.71-1.22,1.66-1.22,2.84s0.41,2.13,1.22,2.83c0.82,0.7,1.92,1.06,3.31,1.06
			C1274.46,509.45,1275.26,509.28,1275.96,508.94z"/>
		<path d="M1285.48,507.73c-0.63-0.36-1.12-0.85-1.48-1.48c-0.36-0.63-0.54-1.32-0.54-2.07c0-0.74,0.18-1.42,0.54-2.05
			s0.85-1.12,1.48-1.48c0.63-0.36,1.32-0.54,2.07-0.54c0.75,0,1.45,0.18,2.08,0.54c0.63,0.36,1.13,0.85,1.49,1.48
			c0.36,0.63,0.54,1.31,0.54,2.05c0,0.75-0.18,1.45-0.54,2.07c-0.36,0.63-0.86,1.12-1.49,1.48c-0.64,0.36-1.33,0.54-2.08,0.54
			C1286.8,508.27,1286.11,508.09,1285.48,507.73z M1289.68,506.33c0.58-0.57,0.86-1.29,0.86-2.15c0-0.84-0.29-1.55-0.86-2.12
			s-1.28-0.86-2.12-0.86s-1.54,0.29-2.11,0.86c-0.57,0.57-0.85,1.28-0.85,2.12c0,0.86,0.28,1.57,0.85,2.15
			c0.57,0.58,1.27,0.86,2.11,0.86S1289.1,506.9,1289.68,506.33z"/>
		<path d="M1306.14,501.89h-6.33v-1.65h14.57v1.65h-6.33v16.37h-1.91V501.89z"/>
		<path d="M1325.08,505.94c0.94,0.88,1.42,2.19,1.42,3.93v8.39h-1.75v-2.11c-0.41,0.7-1.02,1.25-1.81,1.65
			c-0.8,0.4-1.75,0.59-2.84,0.59c-1.51,0-2.71-0.36-3.6-1.08c-0.89-0.72-1.34-1.67-1.34-2.86c0-1.15,0.42-2.08,1.25-2.78
			s2.16-1.06,3.98-1.06h4.3v-0.82c0-1.17-0.33-2.06-0.98-2.66c-0.65-0.61-1.6-0.91-2.86-0.91c-0.86,0-1.68,0.14-2.47,0.42
			s-1.47,0.67-2.03,1.17l-0.82-1.36c0.69-0.58,1.51-1.03,2.47-1.35c0.96-0.32,1.97-0.48,3.04-0.48
			C1322.78,504.61,1324.14,505.06,1325.08,505.94z M1323.02,516.24c0.74-0.47,1.29-1.15,1.65-2.05v-2.21h-4.25
			c-2.32,0-3.47,0.81-3.47,2.42c0,0.79,0.3,1.41,0.9,1.87s1.44,0.68,2.52,0.68C1321.4,516.94,1322.28,516.71,1323.02,516.24z"/>
		<path d="M1331.94,517.91c-1-0.32-1.79-0.72-2.36-1.2l0.82-1.44c0.57,0.45,1.28,0.81,2.14,1.09c0.86,0.28,1.75,0.42,2.68,0.42
			c1.24,0,2.15-0.19,2.74-0.58s0.89-0.93,0.89-1.63c0-0.5-0.16-0.89-0.49-1.17s-0.74-0.5-1.24-0.64c-0.5-0.15-1.16-0.29-1.98-0.42
			c-1.1-0.21-1.98-0.42-2.65-0.63c-0.67-0.21-1.24-0.58-1.71-1.09c-0.47-0.51-0.71-1.23-0.71-2.14c0-1.13,0.47-2.06,1.42-2.78
			c0.94-0.72,2.26-1.08,3.94-1.08c0.88,0,1.75,0.12,2.63,0.35c0.88,0.23,1.6,0.54,2.16,0.91l-0.8,1.47
			c-1.12-0.77-2.45-1.16-3.99-1.16c-1.17,0-2.05,0.21-2.64,0.62c-0.59,0.41-0.89,0.95-0.89,1.62c0,0.51,0.17,0.93,0.5,1.24
			c0.33,0.31,0.75,0.54,1.25,0.68c0.5,0.15,1.18,0.3,2.06,0.45c1.08,0.21,1.95,0.41,2.6,0.62c0.65,0.21,1.21,0.56,1.67,1.06
			c0.46,0.5,0.69,1.18,0.69,2.06c0,1.18-0.49,2.12-1.48,2.82c-0.99,0.69-2.36,1.04-4.11,1.04
			C1334,518.38,1332.95,518.23,1331.94,517.91z"/>
		<path d="M1351.18,517.43c-0.34,0.31-0.77,0.54-1.27,0.71c-0.51,0.16-1.03,0.24-1.58,0.24c-1.27,0-2.25-0.34-2.93-1.03
			c-0.69-0.69-1.03-1.66-1.03-2.91v-8.19h-2.42v-1.54h2.42v-2.96h1.83v2.96h4.12v1.54h-4.12v8.08c0,0.81,0.2,1.42,0.61,1.84
			c0.4,0.42,0.98,0.63,1.74,0.63c0.38,0,0.74-0.06,1.09-0.18s0.66-0.29,0.91-0.51L1351.18,517.43z"/>
		<path d="M1356.02,517.5c-1.05-0.59-1.87-1.41-2.47-2.46s-0.9-2.23-0.9-3.55s0.3-2.51,0.9-3.55c0.6-1.05,1.42-1.86,2.47-2.45
			c1.05-0.58,2.22-0.88,3.53-0.88c1.3,0,2.48,0.29,3.53,0.88c1.05,0.58,1.87,1.4,2.46,2.45c0.59,1.05,0.89,2.23,0.89,3.55
			s-0.3,2.51-0.89,3.55c-0.59,1.05-1.41,1.87-2.46,2.46c-1.05,0.59-2.22,0.89-3.53,0.89
			C1358.24,518.38,1357.07,518.09,1356.02,517.5z M1362.13,516.11c0.76-0.44,1.36-1.06,1.79-1.87c0.43-0.81,0.64-1.72,0.64-2.75
			c0-1.03-0.21-1.95-0.64-2.75c-0.43-0.81-1.03-1.43-1.79-1.87c-0.76-0.44-1.63-0.66-2.59-0.66s-1.82,0.22-2.59,0.66
			c-0.76,0.44-1.36,1.06-1.8,1.87c-0.44,0.81-0.66,1.72-0.66,2.75c0,1.03,0.22,1.95,0.66,2.75c0.44,0.81,1.04,1.43,1.8,1.87
			s1.63,0.66,2.59,0.66S1361.37,516.54,1362.13,516.11z"/>
	</g>
	<g>
		<path d="M1411.4,500.24v18.02h-1.85v-16.37h-4.25v-1.65H1411.4z"/>
		<path d="M1419.16,517.3c-1.09-0.74-1.94-1.8-2.55-3.18c-0.61-1.38-0.91-3.01-0.91-4.88s0.3-3.5,0.91-4.88s1.46-2.44,2.55-3.18
			c1.09-0.74,2.33-1.11,3.72-1.11c1.39,0,2.63,0.37,3.72,1.11s1.94,1.8,2.56,3.18c0.62,1.38,0.93,3.01,0.93,4.88
			s-0.31,3.5-0.93,4.88c-0.62,1.38-1.47,2.44-2.56,3.18s-2.33,1.11-3.72,1.11C1421.49,518.41,1420.25,518.04,1419.16,517.3z
			 M1425.65,515.84c0.8-0.58,1.42-1.43,1.87-2.55c0.45-1.12,0.67-2.46,0.67-4.04s-0.22-2.93-0.67-4.04
			c-0.45-1.12-1.07-1.96-1.87-2.55c-0.8-0.58-1.72-0.88-2.77-0.88s-1.97,0.29-2.77,0.88c-0.8,0.58-1.42,1.43-1.87,2.55
			c-0.45,1.12-0.67,2.46-0.67,4.04s0.22,2.93,0.67,4.04c0.45,1.12,1.07,1.96,1.87,2.55s1.72,0.88,2.77,0.88
			S1424.85,516.42,1425.65,515.84z"/>
		<path d="M1434.81,507.73c-0.63-0.36-1.12-0.85-1.48-1.48c-0.36-0.63-0.54-1.32-0.54-2.07c0-0.74,0.18-1.42,0.54-2.05
			s0.85-1.12,1.48-1.48c0.63-0.36,1.32-0.54,2.07-0.54c0.75,0,1.45,0.18,2.08,0.54c0.63,0.36,1.13,0.85,1.49,1.48
			c0.36,0.63,0.54,1.31,0.54,2.05c0,0.75-0.18,1.45-0.54,2.07c-0.36,0.63-0.86,1.12-1.49,1.48c-0.64,0.36-1.33,0.54-2.08,0.54
			C1436.13,508.27,1435.44,508.09,1434.81,507.73z M1439.01,506.33c0.58-0.57,0.86-1.29,0.86-2.15c0-0.84-0.29-1.55-0.86-2.12
			s-1.28-0.86-2.12-0.86s-1.54,0.29-2.11,0.86c-0.57,0.57-0.85,1.28-0.85,2.12c0,0.86,0.28,1.57,0.85,2.15
			c0.57,0.58,1.27,0.86,2.11,0.86S1438.43,506.9,1439.01,506.33z"/>
		<path d="M1455.47,501.89h-6.33v-1.65h14.57v1.65h-6.33v16.37h-1.91V501.89z"/>
		<path d="M1474.41,505.94c0.94,0.88,1.42,2.19,1.42,3.93v8.39h-1.75v-2.11c-0.41,0.7-1.02,1.25-1.81,1.65
			c-0.8,0.4-1.75,0.59-2.84,0.59c-1.51,0-2.71-0.36-3.6-1.08c-0.89-0.72-1.34-1.67-1.34-2.86c0-1.15,0.42-2.08,1.25-2.78
			s2.16-1.06,3.98-1.06h4.3v-0.82c0-1.17-0.33-2.06-0.98-2.66c-0.65-0.61-1.6-0.91-2.86-0.91c-0.86,0-1.68,0.14-2.47,0.42
			s-1.47,0.67-2.03,1.17l-0.82-1.36c0.69-0.58,1.51-1.03,2.47-1.35c0.96-0.32,1.97-0.48,3.04-0.48
			C1472.11,504.61,1473.47,505.06,1474.41,505.94z M1472.35,516.24c0.74-0.47,1.29-1.15,1.65-2.05v-2.21h-4.25
			c-2.32,0-3.47,0.81-3.47,2.42c0,0.79,0.3,1.41,0.9,1.87s1.44,0.68,2.52,0.68C1470.73,516.94,1471.61,516.71,1472.35,516.24z"/>
		<path d="M1481.27,517.91c-1-0.32-1.79-0.72-2.36-1.2l0.82-1.44c0.57,0.45,1.28,0.81,2.14,1.09c0.86,0.28,1.75,0.42,2.68,0.42
			c1.24,0,2.15-0.19,2.74-0.58s0.89-0.93,0.89-1.63c0-0.5-0.16-0.89-0.49-1.17s-0.74-0.5-1.24-0.64c-0.5-0.15-1.16-0.29-1.98-0.42
			c-1.1-0.21-1.98-0.42-2.65-0.63c-0.67-0.21-1.24-0.58-1.71-1.09c-0.47-0.51-0.71-1.23-0.71-2.14c0-1.13,0.47-2.06,1.42-2.78
			c0.94-0.72,2.26-1.08,3.94-1.08c0.88,0,1.75,0.12,2.63,0.35c0.88,0.23,1.6,0.54,2.16,0.91l-0.8,1.47
			c-1.12-0.77-2.45-1.16-3.99-1.16c-1.17,0-2.05,0.21-2.64,0.62c-0.59,0.41-0.89,0.95-0.89,1.62c0,0.51,0.17,0.93,0.5,1.24
			c0.33,0.31,0.75,0.54,1.25,0.68c0.5,0.15,1.18,0.3,2.06,0.45c1.08,0.21,1.95,0.41,2.6,0.62c0.65,0.21,1.21,0.56,1.67,1.06
			c0.46,0.5,0.69,1.18,0.69,2.06c0,1.18-0.49,2.12-1.48,2.82c-0.99,0.69-2.36,1.04-4.11,1.04
			C1483.33,518.38,1482.27,518.23,1481.27,517.91z"/>
		<path d="M1500.51,517.43c-0.34,0.31-0.77,0.54-1.27,0.71c-0.51,0.16-1.03,0.24-1.58,0.24c-1.27,0-2.25-0.34-2.93-1.03
			c-0.69-0.69-1.03-1.66-1.03-2.91v-8.19h-2.42v-1.54h2.42v-2.96h1.83v2.96h4.12v1.54h-4.12v8.08c0,0.81,0.2,1.42,0.61,1.84
			c0.4,0.42,0.98,0.63,1.74,0.63c0.38,0,0.74-0.06,1.09-0.18s0.66-0.29,0.91-0.51L1500.51,517.43z"/>
		<path d="M1505.35,517.5c-1.05-0.59-1.87-1.41-2.47-2.46s-0.9-2.23-0.9-3.55s0.3-2.51,0.9-3.55c0.6-1.05,1.42-1.86,2.47-2.45
			c1.05-0.58,2.22-0.88,3.53-0.88c1.3,0,2.48,0.29,3.53,0.88c1.05,0.58,1.87,1.4,2.46,2.45c0.59,1.05,0.89,2.23,0.89,3.55
			s-0.3,2.51-0.89,3.55c-0.59,1.05-1.41,1.87-2.46,2.46c-1.05,0.59-2.22,0.89-3.53,0.89C1507.57,518.38,1506.4,518.09,1505.35,517.5
			z M1511.46,516.11c0.76-0.44,1.36-1.06,1.79-1.87c0.43-0.81,0.64-1.72,0.64-2.75c0-1.03-0.21-1.95-0.64-2.75
			c-0.43-0.81-1.03-1.43-1.79-1.87c-0.76-0.44-1.63-0.66-2.59-0.66s-1.82,0.22-2.59,0.66c-0.76,0.44-1.36,1.06-1.8,1.87
			c-0.44,0.81-0.66,1.72-0.66,2.75c0,1.03,0.22,1.95,0.66,2.75c0.44,0.81,1.04,1.43,1.8,1.87s1.63,0.66,2.59,0.66
			S1510.7,516.54,1511.46,516.11z"/>
	</g>
	<g>
		<path d="M1559.33,500.24v18.02h-1.85v-16.37h-4.25v-1.65H1559.33z"/>
		<path d="M1568.62,500.24v18.02h-1.85v-16.37h-4.25v-1.65H1568.62z"/>
		<path d="M1574.88,507.73c-0.63-0.36-1.12-0.85-1.48-1.48c-0.36-0.63-0.54-1.32-0.54-2.07c0-0.74,0.18-1.42,0.54-2.05
			s0.85-1.12,1.48-1.48c0.63-0.36,1.32-0.54,2.07-0.54c0.75,0,1.45,0.18,2.08,0.54c0.63,0.36,1.13,0.85,1.49,1.48
			c0.36,0.63,0.54,1.31,0.54,2.05c0,0.75-0.18,1.45-0.54,2.07c-0.36,0.63-0.86,1.12-1.49,1.48c-0.64,0.36-1.33,0.54-2.08,0.54
			C1576.2,508.27,1575.51,508.09,1574.88,507.73z M1579.08,506.33c0.58-0.57,0.86-1.29,0.86-2.15c0-0.84-0.29-1.55-0.86-2.12
			s-1.28-0.86-2.12-0.86s-1.54,0.29-2.11,0.86c-0.57,0.57-0.85,1.28-0.85,2.12c0,0.86,0.28,1.57,0.85,2.15
			c0.57,0.58,1.27,0.86,2.11,0.86S1578.5,506.9,1579.08,506.33z"/>
		<path d="M1595.54,501.89h-6.33v-1.65h14.57v1.65h-6.33v16.37h-1.91V501.89z"/>
		<path d="M1614.49,505.94c0.94,0.88,1.42,2.19,1.42,3.93v8.39h-1.75v-2.11c-0.41,0.7-1.02,1.25-1.81,1.65
			c-0.8,0.4-1.75,0.59-2.84,0.59c-1.51,0-2.71-0.36-3.6-1.08c-0.89-0.72-1.34-1.67-1.34-2.86c0-1.15,0.42-2.08,1.25-2.78
			s2.16-1.06,3.98-1.06h4.3v-0.82c0-1.17-0.33-2.06-0.98-2.66c-0.65-0.61-1.6-0.91-2.86-0.91c-0.86,0-1.68,0.14-2.47,0.42
			s-1.47,0.67-2.03,1.17l-0.82-1.36c0.69-0.58,1.51-1.03,2.47-1.35c0.96-0.32,1.97-0.48,3.04-0.48
			C1612.19,504.61,1613.54,505.06,1614.49,505.94z M1612.43,516.24c0.74-0.47,1.29-1.15,1.65-2.05v-2.21h-4.25
			c-2.32,0-3.47,0.81-3.47,2.42c0,0.79,0.3,1.41,0.9,1.87s1.44,0.68,2.52,0.68C1610.8,516.94,1611.69,516.71,1612.43,516.24z"/>
		<path d="M1621.34,517.91c-1-0.32-1.79-0.72-2.36-1.2l0.82-1.44c0.57,0.45,1.28,0.81,2.14,1.09c0.86,0.28,1.75,0.42,2.68,0.42
			c1.24,0,2.15-0.19,2.74-0.58s0.89-0.93,0.89-1.63c0-0.5-0.16-0.89-0.49-1.17s-0.74-0.5-1.24-0.64c-0.5-0.15-1.16-0.29-1.98-0.42
			c-1.1-0.21-1.98-0.42-2.65-0.63c-0.67-0.21-1.24-0.58-1.71-1.09c-0.47-0.51-0.71-1.23-0.71-2.14c0-1.13,0.47-2.06,1.42-2.78
			c0.94-0.72,2.26-1.08,3.94-1.08c0.88,0,1.75,0.12,2.63,0.35c0.88,0.23,1.6,0.54,2.16,0.91l-0.8,1.47
			c-1.12-0.77-2.45-1.16-3.99-1.16c-1.17,0-2.05,0.21-2.64,0.62c-0.59,0.41-0.89,0.95-0.89,1.62c0,0.51,0.17,0.93,0.5,1.24
			c0.33,0.31,0.75,0.54,1.25,0.68c0.5,0.15,1.18,0.3,2.06,0.45c1.08,0.21,1.95,0.41,2.6,0.62c0.65,0.21,1.21,0.56,1.67,1.06
			c0.46,0.5,0.69,1.18,0.69,2.06c0,1.18-0.49,2.12-1.48,2.82c-0.99,0.69-2.36,1.04-4.11,1.04
			C1623.4,518.38,1622.35,518.23,1621.34,517.91z"/>
		<path d="M1640.59,517.43c-0.34,0.31-0.77,0.54-1.27,0.71c-0.51,0.16-1.03,0.24-1.58,0.24c-1.27,0-2.25-0.34-2.93-1.03
			c-0.69-0.69-1.03-1.66-1.03-2.91v-8.19h-2.42v-1.54h2.42v-2.96h1.83v2.96h4.12v1.54h-4.12v8.08c0,0.81,0.2,1.42,0.61,1.84
			c0.4,0.42,0.98,0.63,1.74,0.63c0.38,0,0.74-0.06,1.09-0.18s0.66-0.29,0.91-0.51L1640.59,517.43z"/>
		<path d="M1645.42,517.5c-1.05-0.59-1.87-1.41-2.47-2.46s-0.9-2.23-0.9-3.55s0.3-2.51,0.9-3.55c0.6-1.05,1.42-1.86,2.47-2.45
			c1.05-0.58,2.22-0.88,3.53-0.88c1.3,0,2.48,0.29,3.53,0.88c1.05,0.58,1.87,1.4,2.46,2.45c0.59,1.05,0.89,2.23,0.89,3.55
			s-0.3,2.51-0.89,3.55c-0.59,1.05-1.41,1.87-2.46,2.46c-1.05,0.59-2.22,0.89-3.53,0.89
			C1647.65,518.38,1646.47,518.09,1645.42,517.5z M1651.54,516.11c0.76-0.44,1.36-1.06,1.79-1.87c0.43-0.81,0.64-1.72,0.64-2.75
			c0-1.03-0.21-1.95-0.64-2.75c-0.43-0.81-1.03-1.43-1.79-1.87c-0.76-0.44-1.63-0.66-2.59-0.66s-1.82,0.22-2.59,0.66
			c-0.76,0.44-1.36,1.06-1.8,1.87c-0.44,0.81-0.66,1.72-0.66,2.75c0,1.03,0.22,1.95,0.66,2.75c0.44,0.81,1.04,1.43,1.8,1.87
			s1.63,0.66,2.59,0.66S1650.77,516.54,1651.54,516.11z"/>
	</g>
	<g>
		<path d="M1700.66,500.24v18.02h-1.85v-16.37h-4.25v-1.65H1700.66z"/>
		<path d="M1717.26,516.61v1.65h-12.64v-1.31l7.49-7.34c0.94-0.93,1.58-1.73,1.92-2.41c0.33-0.68,0.5-1.36,0.5-2.05
			c0-1.06-0.37-1.89-1.09-2.48c-0.73-0.59-1.77-0.89-3.13-0.89c-2.11,0-3.75,0.67-4.92,2.01l-1.31-1.13c0.7-0.82,1.6-1.46,2.69-1.9
			c1.09-0.45,2.32-0.67,3.69-0.67c1.84,0,3.29,0.43,4.36,1.3c1.07,0.87,1.61,2.06,1.61,3.56c0,0.93-0.21,1.82-0.62,2.68
			c-0.41,0.86-1.19,1.85-2.34,2.96l-6.13,6.02H1717.26z"/>
		<path d="M1721.55,507.73c-0.63-0.36-1.12-0.85-1.48-1.48c-0.36-0.63-0.54-1.32-0.54-2.07c0-0.74,0.18-1.42,0.54-2.05
			s0.85-1.12,1.48-1.48c0.63-0.36,1.32-0.54,2.07-0.54c0.75,0,1.45,0.18,2.08,0.54c0.63,0.36,1.13,0.85,1.49,1.48
			c0.36,0.63,0.54,1.31,0.54,2.05c0,0.75-0.18,1.45-0.54,2.07c-0.36,0.63-0.86,1.12-1.49,1.48c-0.64,0.36-1.33,0.54-2.08,0.54
			C1722.86,508.27,1722.17,508.09,1721.55,507.73z M1725.74,506.33c0.58-0.57,0.86-1.29,0.86-2.15c0-0.84-0.29-1.55-0.86-2.12
			s-1.28-0.86-2.12-0.86s-1.54,0.29-2.11,0.86c-0.57,0.57-0.85,1.28-0.85,2.12c0,0.86,0.28,1.57,0.85,2.15
			c0.57,0.58,1.27,0.86,2.11,0.86S1725.17,506.9,1725.74,506.33z"/>
		<path d="M1742.2,501.89h-6.33v-1.65h14.57v1.65h-6.33v16.37h-1.91V501.89z"/>
		<path d="M1761.15,505.94c0.94,0.88,1.42,2.19,1.42,3.93v8.39h-1.75v-2.11c-0.41,0.7-1.02,1.25-1.81,1.65
			c-0.8,0.4-1.75,0.59-2.84,0.59c-1.51,0-2.71-0.36-3.6-1.08c-0.89-0.72-1.34-1.67-1.34-2.86c0-1.15,0.42-2.08,1.25-2.78
			s2.16-1.06,3.98-1.06h4.3v-0.82c0-1.17-0.33-2.06-0.98-2.66c-0.65-0.61-1.6-0.91-2.86-0.91c-0.86,0-1.68,0.14-2.47,0.42
			s-1.47,0.67-2.03,1.17l-0.82-1.36c0.69-0.58,1.51-1.03,2.47-1.35c0.96-0.32,1.97-0.48,3.04-0.48
			C1758.85,504.61,1760.2,505.06,1761.15,505.94z M1759.09,516.24c0.74-0.47,1.29-1.15,1.65-2.05v-2.21h-4.25
			c-2.32,0-3.47,0.81-3.47,2.42c0,0.79,0.3,1.41,0.9,1.87s1.44,0.68,2.52,0.68C1757.47,516.94,1758.35,516.71,1759.09,516.24z"/>
		<path d="M1768.01,517.91c-1-0.32-1.79-0.72-2.36-1.2l0.82-1.44c0.57,0.45,1.28,0.81,2.14,1.09c0.86,0.28,1.75,0.42,2.68,0.42
			c1.24,0,2.15-0.19,2.74-0.58s0.89-0.93,0.89-1.63c0-0.5-0.16-0.89-0.49-1.17s-0.74-0.5-1.24-0.64c-0.5-0.15-1.16-0.29-1.98-0.42
			c-1.1-0.21-1.98-0.42-2.65-0.63c-0.67-0.21-1.24-0.58-1.71-1.09c-0.47-0.51-0.71-1.23-0.71-2.14c0-1.13,0.47-2.06,1.42-2.78
			c0.94-0.72,2.26-1.08,3.94-1.08c0.88,0,1.75,0.12,2.63,0.35c0.88,0.23,1.6,0.54,2.16,0.91l-0.8,1.47
			c-1.12-0.77-2.45-1.16-3.99-1.16c-1.17,0-2.05,0.21-2.64,0.62c-0.59,0.41-0.89,0.95-0.89,1.62c0,0.51,0.17,0.93,0.5,1.24
			c0.33,0.31,0.75,0.54,1.25,0.68c0.5,0.15,1.18,0.3,2.06,0.45c1.08,0.21,1.95,0.41,2.6,0.62c0.65,0.21,1.21,0.56,1.67,1.06
			c0.46,0.5,0.69,1.18,0.69,2.06c0,1.18-0.49,2.12-1.48,2.82c-0.99,0.69-2.36,1.04-4.11,1.04
			C1770.06,518.38,1769.01,518.23,1768.01,517.91z"/>
		<path d="M1787.25,517.43c-0.34,0.31-0.77,0.54-1.27,0.71c-0.51,0.16-1.03,0.24-1.58,0.24c-1.27,0-2.25-0.34-2.93-1.03
			c-0.69-0.69-1.03-1.66-1.03-2.91v-8.19h-2.42v-1.54h2.42v-2.96h1.83v2.96h4.12v1.54h-4.12v8.08c0,0.81,0.2,1.42,0.61,1.84
			c0.4,0.42,0.98,0.63,1.74,0.63c0.38,0,0.74-0.06,1.09-0.18s0.66-0.29,0.91-0.51L1787.25,517.43z"/>
		<path d="M1792.09,517.5c-1.05-0.59-1.87-1.41-2.47-2.46s-0.9-2.23-0.9-3.55s0.3-2.51,0.9-3.55c0.6-1.05,1.42-1.86,2.47-2.45
			c1.05-0.58,2.22-0.88,3.53-0.88c1.3,0,2.48,0.29,3.53,0.88c1.05,0.58,1.87,1.4,2.46,2.45c0.59,1.05,0.89,2.23,0.89,3.55
			s-0.3,2.51-0.89,3.55c-0.59,1.05-1.41,1.87-2.46,2.46c-1.05,0.59-2.22,0.89-3.53,0.89
			C1794.31,518.38,1793.13,518.09,1792.09,517.5z M1798.2,516.11c0.76-0.44,1.36-1.06,1.79-1.87c0.43-0.81,0.64-1.72,0.64-2.75
			c0-1.03-0.21-1.95-0.64-2.75c-0.43-0.81-1.03-1.43-1.79-1.87c-0.76-0.44-1.63-0.66-2.59-0.66s-1.82,0.22-2.59,0.66
			c-0.76,0.44-1.36,1.06-1.8,1.87c-0.44,0.81-0.66,1.72-0.66,2.75c0,1.03,0.22,1.95,0.66,2.75c0.44,0.81,1.04,1.43,1.8,1.87
			s1.63,0.66,2.59,0.66S1797.44,516.54,1798.2,516.11z"/>
	</g>
</g>
<g id="Guide" class="st1">
</g>
<g id="Corde">
	<g>
		<path d="M49.9,447.05v18.02h-1.83v-14.41l-7.08,12.12h-0.9l-7.08-12.05v14.34h-1.83v-18.02h1.57l7.82,13.36l7.75-13.36H49.9z"/>
		<path d="M55.35,448.18c-0.26-0.26-0.39-0.57-0.39-0.93c0-0.34,0.13-0.64,0.39-0.9s0.58-0.39,0.95-0.39c0.38,0,0.7,0.12,0.95,0.37
			c0.26,0.25,0.39,0.55,0.39,0.89c0,0.38-0.13,0.69-0.39,0.95c-0.26,0.26-0.58,0.39-0.95,0.39
			C55.93,448.57,55.61,448.44,55.35,448.18z M55.38,451.53h1.83v13.54h-1.83V451.53z"/>
	</g>
	<g>
		<path d="M31.74,375.05h1.9v16.37h10.09v1.65h-12V375.05z"/>
		<path d="M55.36,380.75c0.94,0.88,1.42,2.19,1.42,3.93v8.39h-1.75v-2.11c-0.41,0.7-1.02,1.25-1.81,1.65
			c-0.8,0.4-1.75,0.59-2.84,0.59c-1.51,0-2.71-0.36-3.6-1.08c-0.89-0.72-1.34-1.67-1.34-2.86c0-1.15,0.42-2.08,1.25-2.78
			s2.16-1.06,3.98-1.06h4.3v-0.82c0-1.17-0.33-2.06-0.98-2.66c-0.65-0.61-1.6-0.91-2.86-0.91c-0.86,0-1.68,0.14-2.47,0.42
			s-1.47,0.67-2.03,1.17l-0.82-1.36c0.69-0.58,1.51-1.03,2.47-1.35c0.96-0.32,1.97-0.48,3.04-0.48
			C53.06,379.42,54.42,379.87,55.36,380.75z M53.3,391.05c0.74-0.47,1.29-1.15,1.65-2.05v-2.21h-4.25c-2.32,0-3.47,0.81-3.47,2.42
			c0,0.79,0.3,1.41,0.9,1.87s1.44,0.68,2.52,0.68C51.68,391.75,52.57,391.52,53.3,391.05z"/>
	</g>
	<g>
		<path d="M42.16,321.07l-4.12-5.79c-0.46,0.05-0.94,0.08-1.44,0.08h-4.84v5.71h-1.9v-18.02h6.74c2.3,0,4.1,0.55,5.41,1.65
			c1.3,1.1,1.96,2.61,1.96,4.53c0,1.41-0.36,2.6-1.07,3.56c-0.71,0.97-1.73,1.67-3.05,2.1l4.4,6.18H42.16z M40.64,312.55
			c0.94-0.79,1.42-1.9,1.42-3.32c0-1.46-0.47-2.58-1.42-3.36c-0.94-0.78-2.31-1.17-4.09-1.17h-4.79v9.03h4.79
			C38.33,313.73,39.7,313.34,40.64,312.55z"/>
		<path d="M59.87,314.86H48.54c0.1,1.41,0.64,2.54,1.62,3.41c0.98,0.87,2.21,1.3,3.71,1.3c0.84,0,1.61-0.15,2.32-0.45
			c0.7-0.3,1.31-0.74,1.83-1.33l1.03,1.18c-0.6,0.72-1.35,1.27-2.25,1.65c-0.9,0.38-1.89,0.57-2.97,0.57c-1.39,0-2.62-0.3-3.69-0.89
			c-1.07-0.59-1.91-1.41-2.51-2.46s-0.9-2.23-0.9-3.55s0.29-2.51,0.86-3.55c0.58-1.05,1.36-1.86,2.37-2.45
			c1-0.58,2.13-0.88,3.38-0.88c1.25,0,2.38,0.29,3.37,0.88c1,0.58,1.78,1.39,2.34,2.43s0.85,2.23,0.85,3.56L59.87,314.86z
			 M50.05,310.24c-0.88,0.83-1.39,1.92-1.51,3.26h9.6c-0.12-1.34-0.62-2.42-1.51-3.26c-0.88-0.83-1.99-1.25-3.31-1.25
			C52.03,309,50.93,309.41,50.05,310.24z"/>
	</g>
	<g>
		<path d="M28.61,248.58c-1.23-0.43-2.18-0.99-2.84-1.7l0.75-1.47c0.65,0.65,1.52,1.18,2.6,1.58c1.08,0.4,2.2,0.61,3.35,0.61
			c1.61,0,2.82-0.3,3.63-0.89c0.81-0.59,1.21-1.36,1.21-2.3c0-0.72-0.22-1.29-0.66-1.72s-0.97-0.76-1.61-0.99s-1.52-0.49-2.65-0.76
			c-1.36-0.34-2.44-0.67-3.24-0.99c-0.81-0.32-1.5-0.8-2.07-1.45c-0.58-0.65-0.86-1.54-0.86-2.65c0-0.91,0.24-1.74,0.72-2.48
			c0.48-0.75,1.22-1.34,2.21-1.79s2.23-0.67,3.71-0.67c1.03,0,2.04,0.14,3.02,0.42s1.84,0.67,2.56,1.17l-0.64,1.52
			c-0.76-0.5-1.56-0.87-2.42-1.12c-0.86-0.25-1.7-0.37-2.52-0.37c-1.58,0-2.77,0.3-3.56,0.91s-1.2,1.39-1.2,2.36
			c0,0.72,0.22,1.3,0.66,1.74s0.99,0.77,1.65,1s1.55,0.48,2.66,0.76c1.32,0.33,2.39,0.65,3.2,0.97s1.51,0.8,2.07,1.44
			s0.85,1.51,0.85,2.61c0,0.91-0.24,1.74-0.73,2.48c-0.49,0.75-1.24,1.34-2.25,1.78s-2.26,0.66-3.73,0.66
			C31.12,249.22,29.83,249.01,28.61,248.58z"/>
		<path d="M44.94,248.31c-1.05-0.59-1.87-1.41-2.47-2.46c-0.6-1.05-0.9-2.23-0.9-3.55s0.3-2.5,0.9-3.55
			c0.6-1.05,1.42-1.86,2.47-2.45c1.05-0.58,2.22-0.88,3.53-0.88c1.3,0,2.48,0.29,3.53,0.88s1.87,1.4,2.46,2.45
			c0.59,1.05,0.89,2.23,0.89,3.55s-0.3,2.51-0.89,3.55c-0.59,1.05-1.41,1.87-2.46,2.46c-1.05,0.59-2.22,0.89-3.53,0.89
			C47.16,249.2,45.99,248.9,44.94,248.31z M51.05,246.92c0.76-0.44,1.36-1.06,1.79-1.87c0.43-0.81,0.64-1.72,0.64-2.75
			s-0.21-1.95-0.64-2.75s-1.03-1.43-1.79-1.87s-1.63-0.66-2.59-0.66s-1.82,0.22-2.59,0.66s-1.36,1.06-1.8,1.87
			c-0.44,0.81-0.66,1.72-0.66,2.75s0.22,1.95,0.66,2.75c0.44,0.81,1.04,1.43,1.8,1.87s1.63,0.66,2.59,0.66
			S50.29,247.36,51.05,246.92z"/>
		<path d="M59.07,229.97h1.83v19.1h-1.83V229.97z"/>
	</g>
	<g>
		<path d="M36.68,176.58c-1.23-0.43-2.17-0.99-2.84-1.7l0.75-1.47c0.65,0.65,1.52,1.18,2.6,1.58c1.08,0.4,2.2,0.6,3.35,0.6
			c1.61,0,2.82-0.3,3.63-0.89c0.81-0.59,1.21-1.36,1.21-2.3c0-0.72-0.22-1.3-0.66-1.72s-0.97-0.76-1.61-0.99
			c-0.64-0.23-1.52-0.48-2.65-0.76c-1.36-0.34-2.44-0.67-3.24-0.99c-0.81-0.32-1.5-0.8-2.07-1.45c-0.58-0.65-0.86-1.54-0.86-2.65
			c0-0.91,0.24-1.74,0.72-2.48s1.22-1.34,2.21-1.79c1-0.45,2.23-0.67,3.71-0.67c1.03,0,2.04,0.14,3.02,0.42s1.84,0.67,2.56,1.17
			l-0.64,1.52c-0.76-0.5-1.56-0.87-2.42-1.12c-0.86-0.25-1.7-0.37-2.52-0.37c-1.58,0-2.77,0.3-3.56,0.91
			c-0.8,0.61-1.2,1.39-1.2,2.36c0,0.72,0.22,1.3,0.66,1.74s0.99,0.77,1.65,1c0.66,0.23,1.55,0.48,2.66,0.76
			c1.32,0.33,2.39,0.65,3.21,0.97c0.81,0.32,1.51,0.8,2.07,1.44c0.57,0.64,0.85,1.51,0.85,2.61c0,0.91-0.24,1.74-0.73,2.48
			c-0.49,0.75-1.24,1.34-2.25,1.78c-1.01,0.44-2.26,0.66-3.73,0.66C39.19,177.22,37.9,177.01,36.68,176.58z"/>
		<path d="M50.98,160.18c-0.26-0.26-0.39-0.57-0.39-0.93c0-0.34,0.13-0.64,0.39-0.9s0.58-0.39,0.95-0.39c0.38,0,0.7,0.12,0.95,0.37
			c0.26,0.25,0.39,0.55,0.39,0.89c0,0.38-0.13,0.69-0.39,0.95c-0.26,0.26-0.58,0.39-0.95,0.39
			C51.55,160.57,51.23,160.44,50.98,160.18z M51,163.53h1.83v13.54H51V163.53z"/>
	</g>
	<g id="Mi_Cantino">
		<path d="M50.51,89.22v18.02h-2.02V92.83l-7.82,12.12h-1L31.86,92.9v14.34h-2.02V89.22h1.74l8.65,13.36l8.56-13.36H50.51z"/>
		<path d="M56.54,90.36c-0.28-0.26-0.43-0.57-0.43-0.93c0-0.34,0.14-0.64,0.43-0.9s0.63-0.39,1.05-0.39c0.42,0,0.77,0.13,1.05,0.37
			c0.29,0.25,0.43,0.54,0.43,0.89c0,0.38-0.14,0.69-0.43,0.95c-0.28,0.26-0.63,0.39-1.05,0.39C57.18,90.74,56.83,90.61,56.54,90.36z
			 M56.57,93.7h2.02v13.54h-2.02V93.7z"/>
	</g>
</g>
<g id="Nota_sullo_schema">
	<g>
		<path class="st2" d="M884.6,5.49h13.68c3.55,0,6.69,0.71,9.41,2.14c2.72,1.42,4.83,3.41,6.34,5.95c1.5,2.54,2.26,5.45,2.26,8.71
			c0,3.26-0.75,6.17-2.26,8.71c-1.5,2.54-3.62,4.53-6.34,5.95c-2.72,1.42-5.86,2.14-9.41,2.14H884.6V5.49z M898.09,36.02
			c2.94,0,5.52-0.58,7.73-1.75c2.21-1.17,3.92-2.78,5.14-4.85c1.22-2.06,1.82-4.44,1.82-7.13s-0.61-5.06-1.82-7.13
			c-1.22-2.06-2.93-3.68-5.14-4.85c-2.21-1.17-4.78-1.75-7.73-1.75h-9.94v27.46H898.09z"/>
		<path class="st2" d="M927.27,37.67c-1.95-1.1-3.49-2.63-4.61-4.58c-1.12-1.95-1.68-4.16-1.68-6.62c0-2.46,0.56-4.67,1.68-6.62
			c1.12-1.95,2.66-3.47,4.61-4.56c1.95-1.09,4.14-1.63,6.58-1.63c2.43,0,4.62,0.54,6.58,1.63c1.95,1.09,3.48,2.61,4.58,4.56
			c1.1,1.95,1.66,4.16,1.66,6.62c0,2.46-0.55,4.67-1.66,6.62c-1.1,1.95-2.63,3.48-4.58,4.58c-1.95,1.1-4.14,1.66-6.58,1.66
			C931.42,39.33,929.22,38.78,927.27,37.67z M938.67,35.08c1.42-0.82,2.54-1.98,3.34-3.48c0.8-1.5,1.2-3.22,1.2-5.14
			s-0.4-3.63-1.2-5.14c-0.8-1.5-1.91-2.66-3.34-3.48c-1.42-0.82-3.03-1.22-4.82-1.22c-1.79,0-3.4,0.41-4.82,1.22
			c-1.42,0.82-2.54,1.98-3.36,3.48c-0.82,1.5-1.22,3.22-1.22,5.14s0.41,3.63,1.22,5.14c0.82,1.5,1.94,2.66,3.36,3.48
			c1.42,0.82,3.03,1.22,4.82,1.22C935.64,36.3,937.25,35.9,938.67,35.08z"/>
	</g>
</g>
<g id="Pallini">
	<g>
		<circle class="st3" cx="162.5" cy="169.5" r="32.5"/>
	</g>
	<g>
		<circle class="st3" cx="451.5" cy="385.5" r="32.5"/>
	</g>
	<g>
		<circle class="st3" cx="739.5" cy="241.5" r="32.5"/>
	</g>
	<g>
		<circle class="st3" cx="1171.5" cy="98.5" r="32.5"/>
	</g>
	<g>
		<circle class="st3" cx="1171.5" cy="457.5" r="32.5"/>
	</g>
	<g>
		<circle class="st3" cx="1459.5" cy="313.5" r="32.5"/>
	</g>
	<g>
	</g>
	<g>
	</g>
	<g>
	</g>
	<g>
	</g>
	<g>
	</g>
	<g>
	</g>
	<g>
	</g>
	<g>
	</g>
	<g>
	</g>
	<g>
	</g>
	<g>
	</g>
	<g>
	</g>
	<g>
	</g>
	<g>
	</g>
	<g>
	</g>
</g>
</svg>
