<?xml version="1.0" encoding="utf-8"?>
<!-- Generator: Adobe Illustrator 23.0.1, SVG Export Plug-In . SVG Version: 6.00 Build 0)  -->
<svg version="1.1" xmlns="http://www.w3.org/2000/svg" xmlns:xlink="http://www.w3.org/1999/xlink" x="0px" y="0px"
	 viewBox="0 0 1829 531" style="enable-background:new 0 0 1829 531;" xml:space="preserve">
<style type="text/css">
	.st0{fill:none;stroke:#000000;stroke-width:2;stroke-miterlimit:10;}
	.st1{display:none;}
	.st2{fill:#E55100;stroke:#E55100;stroke-width:4;stroke-miterlimit:10;}
	.st3{fill:#FFFFFF;}
	.st4{fill:#E55100;}
</style>
<g id="TastiChitarra">
	<g id="_x31_">
		<line class="st0" x1="92" y1="99.5" x2="1820" y2="99.85"/>
	</g>
	<g id="_x32_">
		<line class="st0" x1="91.88" y1="169.5" x2="1819.5" y2="169.5"/>
	</g>
	<g id="_x33_">
		<line class="st0" x1="91.88" y1="241.5" x2="1819.5" y2="241.5"/>
	</g>
	<g id="_x34_">
		<line class="st0" x1="91.88" y1="313.5" x2="1820.5" y2="313.5"/>
	</g>
	<line id="_x35_" class="st0" x1="92.13" y1="385.5" x2="1820.5" y2="385.5"/>
	<g id="_x36_">
		<line class="st0" x1="91" y1="457.5" x2="1821" y2="457.5"/>
	</g>
	<line id="SX" class="st0" x1="93" y1="100" x2="92" y2="458"/>
	<line id="DX" class="st0" x1="1819" y1="100" x2="1820" y2="458"/>
</g>
<g id="Tasti">
	<line class="st0" x1="236" y1="99" x2="236" y2="458"/>
	<line class="st0" x1="380.5" y1="99.5" x2="380.5" y2="457.5"/>
	<line class="st0" x1="524.5" y1="99.5" x2="524.5" y2="458"/>
	<line class="st0" x1="668.5" y1="99.5" x2="668.5" y2="457.5"/>
	<line class="st0" x1="812.5" y1="99.5" x2="812.5" y2="457.5"/>
	<line class="st0" x1="956.5" y1="99.5" x2="956.5" y2="457.5"/>
	<line class="st0" x1="1100.5" y1="99.5" x2="1100.5" y2="457.5"/>
	<line class="st0" x1="1244.5" y1="99.5" x2="1244.5" y2="457.5"/>
	<line class="st0" x1="1388.5" y1="99.5" x2="1388.5" y2="457.5"/>
	<line class="st0" x1="1532.5" y1="99.5" x2="1532.5" y2="457.5"/>
	<line class="st0" x1="1676.5" y1="99.5" x2="1676.5" y2="457.5"/>
</g>
<g id="Numero_Tasto">
	<g>
		<path d="M124.97,500.24v18.02h-1.85v-16.37h-4.25v-1.65H124.97z"/>
		<path d="M131.24,507.73c-0.63-0.36-1.12-0.85-1.48-1.48c-0.36-0.63-0.54-1.32-0.54-2.07c0-0.74,0.18-1.42,0.54-2.05
			s0.85-1.12,1.48-1.48c0.63-0.36,1.32-0.54,2.07-0.54c0.75,0,1.45,0.18,2.08,0.54c0.63,0.36,1.13,0.85,1.49,1.48
			s0.54,1.31,0.54,2.05c0,0.75-0.18,1.45-0.54,2.07c-0.36,0.63-0.86,1.12-1.49,1.48c-0.64,0.36-1.33,0.54-2.08,0.54
			C132.56,508.27,131.86,508.09,131.24,507.73z M135.43,506.33c0.57-0.57,0.86-1.29,0.86-2.15c0-0.84-0.29-1.55-0.86-2.12
			c-0.58-0.57-1.28-0.86-2.12-0.86c-0.84,0-1.54,0.29-2.11,0.86s-0.85,1.28-0.85,2.12c0,0.86,0.28,1.57,0.85,2.15
			c0.57,0.58,1.27,0.86,2.11,0.86C134.15,507.19,134.86,506.9,135.43,506.33z"/>
		<path d="M151.89,501.89h-6.33v-1.65h14.57v1.65h-6.33v16.37h-1.9V501.89z"/>
		<path d="M170.84,505.94c0.94,0.88,1.42,2.19,1.42,3.93v8.39h-1.75v-2.11c-0.41,0.7-1.02,1.25-1.81,1.65
			c-0.8,0.4-1.75,0.59-2.84,0.59c-1.51,0-2.71-0.36-3.6-1.08c-0.89-0.72-1.34-1.67-1.34-2.86c0-1.15,0.42-2.08,1.25-2.78
			c0.83-0.7,2.16-1.06,3.98-1.06h4.3v-0.82c0-1.17-0.33-2.06-0.98-2.66c-0.65-0.61-1.6-0.91-2.86-0.91c-0.86,0-1.68,0.14-2.47,0.42
			c-0.79,0.28-1.47,0.67-2.03,1.17l-0.82-1.36c0.69-0.58,1.51-1.03,2.47-1.35c0.96-0.32,1.97-0.48,3.04-0.48
			C168.54,504.61,169.9,505.06,170.84,505.94z M168.78,516.24c0.74-0.47,1.29-1.15,1.65-2.05v-2.21h-4.25
			c-2.32,0-3.48,0.81-3.48,2.42c0,0.79,0.3,1.41,0.9,1.87s1.44,0.68,2.52,0.68C167.16,516.94,168.04,516.71,168.78,516.24z"/>
		<path d="M177.7,517.91c-1-0.32-1.79-0.72-2.35-1.2l0.82-1.44c0.57,0.45,1.28,0.81,2.14,1.09c0.86,0.28,1.75,0.42,2.68,0.42
			c1.24,0,2.15-0.19,2.74-0.58c0.59-0.39,0.89-0.93,0.89-1.63c0-0.5-0.16-0.89-0.49-1.17c-0.33-0.28-0.74-0.5-1.24-0.64
			c-0.5-0.15-1.16-0.29-1.98-0.42c-1.1-0.21-1.98-0.42-2.65-0.63c-0.67-0.21-1.24-0.58-1.71-1.09c-0.47-0.51-0.71-1.23-0.71-2.14
			c0-1.13,0.47-2.06,1.42-2.78c0.94-0.72,2.26-1.08,3.94-1.08c0.88,0,1.75,0.12,2.63,0.35c0.88,0.23,1.6,0.54,2.16,0.91l-0.8,1.47
			c-1.12-0.77-2.45-1.16-3.99-1.16c-1.17,0-2.05,0.21-2.64,0.62c-0.59,0.41-0.89,0.95-0.89,1.62c0,0.51,0.17,0.93,0.5,1.24
			s0.75,0.54,1.25,0.68c0.5,0.15,1.18,0.3,2.06,0.45c1.08,0.21,1.95,0.41,2.6,0.62c0.65,0.21,1.21,0.56,1.67,1.06
			c0.46,0.5,0.69,1.18,0.69,2.06c0,1.18-0.49,2.12-1.48,2.82c-0.99,0.69-2.36,1.04-4.11,1.04
			C179.75,518.38,178.7,518.23,177.7,517.91z"/>
		<path d="M196.94,517.43c-0.34,0.31-0.77,0.54-1.27,0.71c-0.51,0.16-1.03,0.24-1.58,0.24c-1.27,0-2.25-0.34-2.93-1.03
			c-0.69-0.69-1.03-1.66-1.03-2.91v-8.19h-2.42v-1.54h2.42v-2.96h1.83v2.96h4.12v1.54h-4.12v8.08c0,0.81,0.2,1.42,0.6,1.84
			c0.4,0.42,0.98,0.63,1.74,0.63c0.38,0,0.74-0.06,1.09-0.18c0.35-0.12,0.66-0.29,0.91-0.51L196.94,517.43z"/>
		<path d="M201.78,517.5c-1.05-0.59-1.87-1.41-2.47-2.46c-0.6-1.05-0.9-2.23-0.9-3.55s0.3-2.51,0.9-3.55
			c0.6-1.05,1.42-1.86,2.47-2.45c1.05-0.58,2.22-0.88,3.53-0.88c1.3,0,2.48,0.29,3.53,0.88c1.05,0.58,1.87,1.4,2.46,2.45
			c0.59,1.05,0.89,2.23,0.89,3.55s-0.3,2.51-0.89,3.55s-1.41,1.87-2.46,2.46c-1.05,0.59-2.22,0.89-3.53,0.89
			C204,518.38,202.82,518.09,201.78,517.5z M207.89,516.11c0.76-0.44,1.36-1.06,1.79-1.87c0.43-0.81,0.64-1.72,0.64-2.75
			c0-1.03-0.21-1.95-0.64-2.75c-0.43-0.81-1.03-1.43-1.79-1.87c-0.76-0.44-1.63-0.66-2.59-0.66c-0.96,0-1.82,0.22-2.59,0.66
			c-0.76,0.44-1.36,1.06-1.8,1.87c-0.44,0.81-0.66,1.72-0.66,2.75c0,1.03,0.22,1.95,0.66,2.75c0.44,0.81,1.04,1.43,1.8,1.87
			c0.76,0.44,1.63,0.66,2.59,0.66C206.27,516.76,207.13,516.54,207.89,516.11z"/>
	</g>
	<g>
		<path d="M273.62,516.61v1.65h-12.64v-1.31l7.49-7.34c0.94-0.93,1.58-1.73,1.92-2.41s0.5-1.36,0.5-2.05c0-1.06-0.37-1.89-1.09-2.48
			c-0.73-0.59-1.77-0.89-3.13-0.89c-2.11,0-3.75,0.67-4.92,2.01l-1.31-1.13c0.7-0.82,1.6-1.46,2.69-1.9
			c1.09-0.45,2.32-0.67,3.69-0.67c1.84,0,3.29,0.43,4.36,1.3c1.07,0.87,1.61,2.06,1.61,3.56c0,0.93-0.21,1.82-0.62,2.68
			c-0.41,0.86-1.19,1.85-2.34,2.96l-6.13,6.02H273.62z"/>
		<path d="M277.9,507.73c-0.63-0.36-1.12-0.85-1.48-1.48c-0.36-0.63-0.54-1.32-0.54-2.07c0-0.74,0.18-1.42,0.54-2.05
			s0.85-1.12,1.48-1.48s1.32-0.54,2.07-0.54s1.45,0.18,2.08,0.54s1.13,0.85,1.49,1.48s0.54,1.31,0.54,2.05
			c0,0.75-0.18,1.45-0.54,2.07c-0.36,0.63-0.86,1.12-1.49,1.48s-1.33,0.54-2.08,0.54S278.53,508.09,277.9,507.73z M282.1,506.33
			c0.57-0.57,0.86-1.29,0.86-2.15c0-0.84-0.29-1.55-0.86-2.12c-0.58-0.57-1.28-0.86-2.12-0.86s-1.54,0.29-2.11,0.86
			s-0.85,1.28-0.85,2.12c0,0.86,0.28,1.57,0.85,2.15c0.57,0.58,1.27,0.86,2.11,0.86S281.52,506.9,282.1,506.33z"/>
		<path d="M298.56,501.89h-6.33v-1.65h14.57v1.65h-6.33v16.37h-1.9V501.89z"/>
		<path d="M317.5,505.94c0.94,0.88,1.42,2.19,1.42,3.93v8.39h-1.75v-2.11c-0.41,0.7-1.02,1.25-1.81,1.65
			c-0.8,0.4-1.75,0.59-2.84,0.59c-1.51,0-2.71-0.36-3.6-1.08c-0.89-0.72-1.34-1.67-1.34-2.86c0-1.15,0.42-2.08,1.25-2.78
			s2.16-1.06,3.98-1.06h4.3v-0.82c0-1.17-0.33-2.06-0.98-2.66c-0.65-0.61-1.61-0.91-2.86-0.91c-0.86,0-1.68,0.14-2.47,0.42
			c-0.79,0.28-1.47,0.67-2.03,1.17l-0.82-1.36c0.69-0.58,1.51-1.03,2.47-1.35c0.96-0.32,1.97-0.48,3.04-0.48
			C315.2,504.61,316.56,505.06,317.5,505.94z M315.44,516.24c0.74-0.47,1.29-1.15,1.65-2.05v-2.21h-4.25
			c-2.32,0-3.47,0.81-3.47,2.42c0,0.79,0.3,1.41,0.9,1.87s1.44,0.68,2.52,0.68C313.82,516.94,314.71,516.71,315.44,516.24z"/>
		<path d="M324.36,517.91c-1-0.32-1.79-0.72-2.35-1.2l0.82-1.44c0.57,0.45,1.28,0.81,2.14,1.09c0.86,0.28,1.75,0.42,2.68,0.42
			c1.24,0,2.15-0.19,2.74-0.58s0.89-0.93,0.89-1.63c0-0.5-0.16-0.89-0.49-1.17c-0.33-0.28-0.74-0.5-1.24-0.64
			c-0.5-0.15-1.16-0.29-1.98-0.42c-1.1-0.21-1.98-0.42-2.65-0.63c-0.67-0.21-1.24-0.58-1.71-1.09c-0.47-0.51-0.71-1.23-0.71-2.14
			c0-1.13,0.47-2.06,1.42-2.78c0.94-0.72,2.26-1.08,3.94-1.08c0.88,0,1.75,0.12,2.63,0.35c0.88,0.23,1.6,0.54,2.16,0.91l-0.8,1.47
			c-1.12-0.77-2.45-1.16-3.99-1.16c-1.17,0-2.05,0.21-2.64,0.62c-0.59,0.41-0.89,0.95-0.89,1.62c0,0.51,0.17,0.93,0.5,1.24
			c0.33,0.31,0.75,0.54,1.25,0.68c0.5,0.15,1.18,0.3,2.06,0.45c1.08,0.21,1.95,0.41,2.6,0.62c0.65,0.21,1.21,0.56,1.67,1.06
			c0.46,0.5,0.7,1.18,0.7,2.06c0,1.18-0.49,2.12-1.48,2.82c-0.99,0.69-2.36,1.04-4.11,1.04
			C326.42,518.38,325.37,518.23,324.36,517.91z"/>
		<path d="M343.6,517.43c-0.34,0.31-0.77,0.54-1.27,0.71c-0.51,0.16-1.03,0.24-1.58,0.24c-1.27,0-2.25-0.34-2.93-1.03
			c-0.69-0.69-1.03-1.66-1.03-2.91v-8.19h-2.42v-1.54h2.42v-2.96h1.83v2.96h4.12v1.54h-4.12v8.08c0,0.81,0.2,1.42,0.61,1.84
			c0.4,0.42,0.98,0.63,1.74,0.63c0.38,0,0.74-0.06,1.09-0.18s0.66-0.29,0.91-0.51L343.6,517.43z"/>
		<path d="M348.44,517.5c-1.05-0.59-1.87-1.41-2.47-2.46s-0.9-2.23-0.9-3.55s0.3-2.51,0.9-3.55c0.6-1.05,1.42-1.86,2.47-2.45
			c1.05-0.58,2.22-0.88,3.53-0.88c1.3,0,2.48,0.29,3.53,0.88c1.05,0.58,1.87,1.4,2.46,2.45c0.59,1.05,0.89,2.23,0.89,3.55
			s-0.3,2.51-0.89,3.55s-1.41,1.87-2.46,2.46c-1.05,0.59-2.22,0.89-3.53,0.89C350.66,518.38,349.49,518.09,348.44,517.5z
			 M354.56,516.11c0.76-0.44,1.36-1.06,1.79-1.87c0.43-0.81,0.64-1.72,0.64-2.75c0-1.03-0.21-1.95-0.64-2.75
			c-0.43-0.81-1.03-1.43-1.79-1.87c-0.76-0.44-1.63-0.66-2.59-0.66c-0.96,0-1.82,0.22-2.59,0.66c-0.76,0.44-1.36,1.06-1.8,1.87
			c-0.44,0.81-0.66,1.72-0.66,2.75c0,1.03,0.22,1.95,0.66,2.75c0.44,0.81,1.04,1.43,1.8,1.87c0.76,0.44,1.63,0.66,2.59,0.66
			C352.93,516.76,353.79,516.54,354.56,516.11z"/>
	</g>
	<g>
		<path d="M416,509.49c0.99,0.92,1.48,2.12,1.48,3.59c0,1.03-0.25,1.94-0.75,2.74c-0.5,0.8-1.24,1.43-2.21,1.89
			s-2.17,0.69-3.58,0.69c-1.3,0-2.54-0.21-3.69-0.63s-2.09-0.98-2.79-1.69l0.9-1.47c0.6,0.62,1.4,1.12,2.39,1.51
			c1,0.39,2.06,0.58,3.19,0.58c1.48,0,2.62-0.32,3.42-0.97c0.81-0.64,1.21-1.53,1.21-2.66c0-1.12-0.4-1.99-1.21-2.63
			c-0.81-0.63-2.02-0.95-3.66-0.95h-1.29v-1.36l4.99-6.25h-9.21v-1.65h11.58v1.31l-5.1,6.41C413.57,508.06,415.01,508.57,416,509.49
			z"/>
		<path d="M421.66,507.73c-0.63-0.36-1.12-0.85-1.48-1.48c-0.36-0.63-0.54-1.32-0.54-2.07c0-0.74,0.18-1.42,0.54-2.05
			s0.85-1.12,1.48-1.48c0.63-0.36,1.32-0.54,2.07-0.54c0.75,0,1.45,0.18,2.08,0.54c0.63,0.36,1.13,0.85,1.49,1.48
			s0.54,1.31,0.54,2.05c0,0.75-0.18,1.45-0.54,2.07c-0.36,0.63-0.86,1.12-1.49,1.48c-0.64,0.36-1.33,0.54-2.08,0.54
			C422.97,508.27,422.28,508.09,421.66,507.73z M425.85,506.33c0.57-0.57,0.86-1.29,0.86-2.15c0-0.84-0.29-1.55-0.86-2.12
			c-0.58-0.57-1.28-0.86-2.12-0.86c-0.84,0-1.54,0.29-2.11,0.86s-0.85,1.28-0.85,2.12c0,0.86,0.28,1.57,0.85,2.15
			c0.57,0.58,1.27,0.86,2.11,0.86C424.57,507.19,425.28,506.9,425.85,506.33z"/>
		<path d="M442.31,501.89h-6.33v-1.65h14.57v1.65h-6.33v16.37h-1.9V501.89z"/>
		<path d="M461.26,505.94c0.94,0.88,1.42,2.19,1.42,3.93v8.39h-1.75v-2.11c-0.41,0.7-1.02,1.25-1.81,1.65
			c-0.8,0.4-1.75,0.59-2.84,0.59c-1.51,0-2.71-0.36-3.6-1.08c-0.89-0.72-1.34-1.67-1.34-2.86c0-1.15,0.42-2.08,1.25-2.78
			c0.83-0.7,2.16-1.06,3.98-1.06h4.3v-0.82c0-1.17-0.33-2.06-0.98-2.66c-0.65-0.61-1.6-0.91-2.86-0.91c-0.86,0-1.68,0.14-2.47,0.42
			c-0.79,0.28-1.47,0.67-2.03,1.17l-0.82-1.36c0.69-0.58,1.51-1.03,2.47-1.35c0.96-0.32,1.97-0.48,3.04-0.48
			C458.96,504.61,460.31,505.06,461.26,505.94z M459.2,516.24c0.74-0.47,1.29-1.15,1.65-2.05v-2.21h-4.25
			c-2.32,0-3.48,0.81-3.48,2.42c0,0.79,0.3,1.41,0.9,1.87s1.44,0.68,2.52,0.68C457.58,516.94,458.46,516.71,459.2,516.24z"/>
		<path d="M468.12,517.91c-1-0.32-1.79-0.72-2.35-1.2l0.82-1.44c0.57,0.45,1.28,0.81,2.14,1.09c0.86,0.28,1.75,0.42,2.68,0.42
			c1.24,0,2.15-0.19,2.74-0.58c0.59-0.39,0.89-0.93,0.89-1.63c0-0.5-0.16-0.89-0.49-1.17c-0.33-0.28-0.74-0.5-1.24-0.64
			c-0.5-0.15-1.16-0.29-1.98-0.42c-1.1-0.21-1.98-0.42-2.65-0.63c-0.67-0.21-1.24-0.58-1.71-1.09c-0.47-0.51-0.71-1.23-0.71-2.14
			c0-1.13,0.47-2.06,1.42-2.78c0.94-0.72,2.26-1.08,3.94-1.08c0.88,0,1.75,0.12,2.63,0.35c0.88,0.23,1.6,0.54,2.16,0.91l-0.8,1.47
			c-1.12-0.77-2.45-1.16-3.99-1.16c-1.17,0-2.05,0.21-2.64,0.62c-0.59,0.41-0.89,0.95-0.89,1.62c0,0.51,0.17,0.93,0.5,1.24
			s0.75,0.54,1.25,0.68c0.5,0.15,1.18,0.3,2.06,0.45c1.08,0.21,1.95,0.41,2.6,0.62c0.65,0.21,1.21,0.56,1.67,1.06
			c0.46,0.5,0.69,1.18,0.69,2.06c0,1.18-0.49,2.12-1.48,2.82c-0.99,0.69-2.36,1.04-4.11,1.04
			C470.17,518.38,469.12,518.23,468.12,517.91z"/>
		<path d="M487.36,517.43c-0.34,0.31-0.77,0.54-1.27,0.71c-0.51,0.16-1.03,0.24-1.58,0.24c-1.27,0-2.25-0.34-2.93-1.03
			c-0.69-0.69-1.03-1.66-1.03-2.91v-8.19h-2.42v-1.54h2.42v-2.96h1.83v2.96h4.12v1.54h-4.12v8.08c0,0.81,0.2,1.42,0.6,1.84
			c0.4,0.42,0.98,0.63,1.74,0.63c0.38,0,0.74-0.06,1.09-0.18c0.35-0.12,0.66-0.29,0.91-0.51L487.36,517.43z"/>
		<path d="M492.2,517.5c-1.05-0.59-1.87-1.41-2.47-2.46c-0.6-1.05-0.9-2.23-0.9-3.55s0.3-2.51,0.9-3.55
			c0.6-1.05,1.42-1.86,2.47-2.45c1.05-0.58,2.22-0.88,3.53-0.88c1.3,0,2.48,0.29,3.53,0.88c1.05,0.58,1.87,1.4,2.46,2.45
			c0.59,1.05,0.89,2.23,0.89,3.55s-0.3,2.51-0.89,3.55s-1.41,1.87-2.46,2.46c-1.05,0.59-2.22,0.89-3.53,0.89
			C494.42,518.38,493.24,518.09,492.2,517.5z M498.31,516.11c0.76-0.44,1.36-1.06,1.79-1.87c0.43-0.81,0.64-1.72,0.64-2.75
			c0-1.03-0.21-1.95-0.64-2.75c-0.43-0.81-1.03-1.43-1.79-1.87c-0.76-0.44-1.63-0.66-2.59-0.66c-0.96,0-1.82,0.22-2.59,0.66
			c-0.76,0.44-1.36,1.06-1.8,1.87c-0.44,0.81-0.66,1.72-0.66,2.75c0,1.03,0.22,1.95,0.66,2.75c0.44,0.81,1.04,1.43,1.8,1.87
			c0.76,0.44,1.63,0.66,2.59,0.66C496.68,516.76,497.55,516.54,498.31,516.11z"/>
	</g>
	<g>
		<path d="M563.82,513.52h-3.6v4.74h-1.85v-4.74h-10.17v-1.34l9.55-11.94h2.06l-9.21,11.63h7.83v-4.17h1.8v4.17h3.6V513.52z"/>
		<path d="M566.71,507.73c-0.63-0.36-1.12-0.85-1.48-1.48c-0.36-0.63-0.54-1.32-0.54-2.07c0-0.74,0.18-1.42,0.54-2.05
			s0.85-1.12,1.48-1.48c0.63-0.36,1.32-0.54,2.07-0.54c0.75,0,1.45,0.18,2.08,0.54c0.63,0.36,1.13,0.85,1.49,1.48
			s0.54,1.31,0.54,2.05c0,0.75-0.18,1.45-0.54,2.07c-0.36,0.63-0.86,1.12-1.49,1.48c-0.64,0.36-1.33,0.54-2.08,0.54
			C568.03,508.27,567.34,508.09,566.71,507.73z M570.91,506.33c0.57-0.57,0.86-1.29,0.86-2.15c0-0.84-0.29-1.55-0.86-2.12
			c-0.58-0.57-1.28-0.86-2.12-0.86c-0.84,0-1.54,0.29-2.11,0.86s-0.85,1.28-0.85,2.12c0,0.86,0.28,1.57,0.85,2.15
			c0.57,0.58,1.27,0.86,2.11,0.86C569.63,507.19,570.33,506.9,570.91,506.33z"/>
		<path d="M587.37,501.89h-6.33v-1.65h14.57v1.65h-6.33v16.37h-1.9V501.89z"/>
		<path d="M606.31,505.94c0.94,0.88,1.42,2.19,1.42,3.93v8.39h-1.75v-2.11c-0.41,0.7-1.02,1.25-1.81,1.65
			c-0.8,0.4-1.75,0.59-2.84,0.59c-1.51,0-2.71-0.36-3.6-1.08c-0.89-0.72-1.34-1.67-1.34-2.86c0-1.15,0.42-2.08,1.25-2.78
			c0.83-0.7,2.16-1.06,3.98-1.06h4.3v-0.82c0-1.17-0.33-2.06-0.98-2.66c-0.65-0.61-1.6-0.91-2.86-0.91c-0.86,0-1.68,0.14-2.47,0.42
			c-0.79,0.28-1.47,0.67-2.03,1.17l-0.82-1.36c0.69-0.58,1.51-1.03,2.47-1.35c0.96-0.32,1.97-0.48,3.04-0.48
			C604.01,504.61,605.37,505.06,606.31,505.94z M604.25,516.24c0.74-0.47,1.29-1.15,1.65-2.05v-2.21h-4.25
			c-2.32,0-3.48,0.81-3.48,2.42c0,0.79,0.3,1.41,0.9,1.87s1.44,0.68,2.52,0.68C602.63,516.94,603.52,516.71,604.25,516.24z"/>
		<path d="M613.17,517.91c-1-0.32-1.79-0.72-2.35-1.2l0.82-1.44c0.57,0.45,1.28,0.81,2.14,1.09c0.86,0.28,1.75,0.42,2.68,0.42
			c1.24,0,2.15-0.19,2.74-0.58c0.59-0.39,0.89-0.93,0.89-1.63c0-0.5-0.16-0.89-0.49-1.17c-0.33-0.28-0.74-0.5-1.24-0.64
			c-0.5-0.15-1.16-0.29-1.98-0.42c-1.1-0.21-1.98-0.42-2.65-0.63c-0.67-0.21-1.24-0.58-1.71-1.09c-0.47-0.51-0.71-1.23-0.71-2.14
			c0-1.13,0.47-2.06,1.42-2.78c0.94-0.72,2.26-1.08,3.94-1.08c0.88,0,1.75,0.12,2.63,0.35c0.88,0.23,1.6,0.54,2.16,0.91l-0.8,1.47
			c-1.12-0.77-2.45-1.16-3.99-1.16c-1.17,0-2.05,0.21-2.64,0.62c-0.59,0.41-0.89,0.95-0.89,1.62c0,0.51,0.17,0.93,0.5,1.24
			s0.75,0.54,1.25,0.68c0.5,0.15,1.18,0.3,2.06,0.45c1.08,0.21,1.95,0.41,2.6,0.62c0.65,0.21,1.21,0.56,1.67,1.06
			c0.46,0.5,0.69,1.18,0.69,2.06c0,1.18-0.49,2.12-1.48,2.82c-0.99,0.69-2.36,1.04-4.11,1.04
			C615.23,518.38,614.18,518.23,613.17,517.91z"/>
		<path d="M632.41,517.43c-0.34,0.31-0.77,0.54-1.27,0.71c-0.51,0.16-1.03,0.24-1.58,0.24c-1.27,0-2.25-0.34-2.93-1.03
			c-0.69-0.69-1.03-1.66-1.03-2.91v-8.19h-2.42v-1.54h2.42v-2.96h1.83v2.96h4.12v1.54h-4.12v8.08c0,0.81,0.2,1.42,0.6,1.84
			c0.4,0.42,0.98,0.63,1.74,0.63c0.38,0,0.74-0.06,1.09-0.18c0.35-0.12,0.66-0.29,0.91-0.51L632.41,517.43z"/>
		<path d="M637.25,517.5c-1.05-0.59-1.87-1.41-2.47-2.46c-0.6-1.05-0.9-2.23-0.9-3.55s0.3-2.51,0.9-3.55
			c0.6-1.05,1.42-1.86,2.47-2.45c1.05-0.58,2.22-0.88,3.53-0.88c1.3,0,2.48,0.29,3.53,0.88c1.05,0.58,1.87,1.4,2.46,2.45
			c0.59,1.05,0.89,2.23,0.89,3.55s-0.3,2.51-0.89,3.55s-1.41,1.87-2.46,2.46c-1.05,0.59-2.22,0.89-3.53,0.89
			C639.48,518.38,638.3,518.09,637.25,517.5z M643.37,516.11c0.76-0.44,1.36-1.06,1.79-1.87c0.43-0.81,0.64-1.72,0.64-2.75
			c0-1.03-0.21-1.95-0.64-2.75c-0.43-0.81-1.03-1.43-1.79-1.87c-0.76-0.44-1.63-0.66-2.59-0.66c-0.96,0-1.82,0.22-2.59,0.66
			c-0.76,0.44-1.36,1.06-1.8,1.87c-0.44,0.81-0.66,1.72-0.66,2.75c0,1.03,0.22,1.95,0.66,2.75c0.44,0.81,1.04,1.43,1.8,1.87
			c0.76,0.44,1.63,0.66,2.59,0.66C641.74,516.76,642.6,516.54,643.37,516.11z"/>
	</g>
	<g>
		<path d="M703.97,509.03c1.19,0.94,1.79,2.24,1.79,3.93c0,1.05-0.24,1.98-0.73,2.81c-0.49,0.82-1.22,1.47-2.2,1.94
			c-0.98,0.47-2.18,0.71-3.6,0.71c-1.29,0-2.51-0.21-3.67-0.63c-1.16-0.42-2.09-0.98-2.79-1.69l0.9-1.47
			c0.6,0.62,1.39,1.12,2.37,1.51c0.98,0.39,2.03,0.58,3.17,0.58c1.49,0,2.65-0.33,3.46-1c0.81-0.67,1.22-1.56,1.22-2.68
			c0-1.24-0.46-2.17-1.38-2.81c-0.92-0.63-2.47-0.95-4.65-0.95h-3.83l0.93-9.03h9.86v1.65h-8.24l-0.62,5.74h2.32
			C700.88,507.63,702.78,508.09,703.97,509.03z"/>
		<path d="M709.68,507.73c-0.63-0.36-1.12-0.85-1.48-1.48c-0.36-0.63-0.54-1.32-0.54-2.07c0-0.74,0.18-1.42,0.54-2.05
			s0.85-1.12,1.48-1.48c0.63-0.36,1.32-0.54,2.07-0.54c0.75,0,1.45,0.18,2.08,0.54c0.63,0.36,1.13,0.85,1.49,1.48
			s0.54,1.31,0.54,2.05c0,0.75-0.18,1.45-0.54,2.07c-0.36,0.63-0.86,1.12-1.49,1.48c-0.64,0.36-1.33,0.54-2.08,0.54
			C711,508.27,710.31,508.09,709.68,507.73z M713.88,506.33c0.57-0.57,0.86-1.29,0.86-2.15c0-0.84-0.29-1.55-0.86-2.12
			c-0.58-0.57-1.28-0.86-2.12-0.86c-0.84,0-1.54,0.29-2.11,0.86s-0.85,1.28-0.85,2.12c0,0.86,0.28,1.57,0.85,2.15
			c0.57,0.58,1.27,0.86,2.11,0.86C712.6,507.19,713.3,506.9,713.88,506.33z"/>
		<path d="M730.34,501.89h-6.33v-1.65h14.57v1.65h-6.33v16.37h-1.9V501.89z"/>
		<path d="M749.28,505.94c0.94,0.88,1.42,2.19,1.42,3.93v8.39h-1.75v-2.11c-0.41,0.7-1.02,1.25-1.81,1.65
			c-0.8,0.4-1.75,0.59-2.84,0.59c-1.51,0-2.71-0.36-3.6-1.08c-0.89-0.72-1.34-1.67-1.34-2.86c0-1.15,0.42-2.08,1.25-2.78
			c0.83-0.7,2.16-1.06,3.98-1.06h4.3v-0.82c0-1.17-0.33-2.06-0.98-2.66c-0.65-0.61-1.6-0.91-2.86-0.91c-0.86,0-1.68,0.14-2.47,0.42
			c-0.79,0.28-1.47,0.67-2.03,1.17l-0.82-1.36c0.69-0.58,1.51-1.03,2.47-1.35c0.96-0.32,1.97-0.48,3.04-0.48
			C746.98,504.61,748.34,505.06,749.28,505.94z M747.23,516.24c0.74-0.47,1.29-1.15,1.65-2.05v-2.21h-4.25
			c-2.32,0-3.48,0.81-3.48,2.42c0,0.79,0.3,1.41,0.9,1.87s1.44,0.68,2.52,0.68C745.6,516.94,746.49,516.71,747.23,516.24z"/>
		<path d="M756.14,517.91c-1-0.32-1.79-0.72-2.35-1.2l0.82-1.44c0.57,0.45,1.28,0.81,2.14,1.09c0.86,0.28,1.75,0.42,2.68,0.42
			c1.24,0,2.15-0.19,2.74-0.58c0.59-0.39,0.89-0.93,0.89-1.63c0-0.5-0.16-0.89-0.49-1.17c-0.33-0.28-0.74-0.5-1.24-0.64
			c-0.5-0.15-1.16-0.29-1.98-0.42c-1.1-0.21-1.98-0.42-2.65-0.63c-0.67-0.21-1.24-0.58-1.71-1.09c-0.47-0.51-0.71-1.23-0.71-2.14
			c0-1.13,0.47-2.06,1.42-2.78c0.94-0.72,2.26-1.08,3.94-1.08c0.88,0,1.75,0.12,2.63,0.35c0.88,0.23,1.6,0.54,2.16,0.91l-0.8,1.47
			c-1.12-0.77-2.45-1.16-3.99-1.16c-1.17,0-2.05,0.21-2.64,0.62c-0.59,0.41-0.89,0.95-0.89,1.62c0,0.51,0.17,0.93,0.5,1.24
			s0.75,0.54,1.25,0.68c0.5,0.15,1.18,0.3,2.06,0.45c1.08,0.21,1.95,0.41,2.6,0.62c0.65,0.21,1.21,0.56,1.67,1.06
			c0.46,0.5,0.69,1.18,0.69,2.06c0,1.18-0.49,2.12-1.48,2.82c-0.99,0.69-2.36,1.04-4.11,1.04
			C758.2,518.39,757.15,518.23,756.14,517.91z"/>
		<path d="M775.38,517.43c-0.34,0.31-0.77,0.54-1.27,0.71c-0.51,0.16-1.03,0.24-1.58,0.24c-1.27,0-2.25-0.34-2.93-1.03
			c-0.69-0.69-1.03-1.66-1.03-2.91v-8.19h-2.42v-1.54h2.42v-2.96h1.83v2.96h4.12v1.54h-4.12v8.08c0,0.81,0.2,1.42,0.6,1.84
			c0.4,0.42,0.98,0.63,1.74,0.63c0.38,0,0.74-0.06,1.09-0.18c0.35-0.12,0.66-0.29,0.91-0.51L775.38,517.43z"/>
		<path d="M780.22,517.5c-1.05-0.59-1.87-1.41-2.47-2.46c-0.6-1.05-0.9-2.23-0.9-3.55s0.3-2.51,0.9-3.55
			c0.6-1.05,1.42-1.86,2.47-2.45c1.05-0.58,2.22-0.88,3.53-0.88c1.3,0,2.48,0.29,3.53,0.88c1.05,0.58,1.87,1.4,2.46,2.45
			c0.59,1.05,0.89,2.23,0.89,3.55s-0.3,2.51-0.89,3.55s-1.41,1.87-2.46,2.46c-1.05,0.59-2.22,0.89-3.53,0.89
			C782.45,518.39,781.27,518.09,780.22,517.5z M786.34,516.11c0.76-0.44,1.36-1.06,1.79-1.87c0.43-0.81,0.64-1.72,0.64-2.75
			c0-1.03-0.21-1.95-0.64-2.75c-0.43-0.81-1.03-1.43-1.79-1.87c-0.76-0.44-1.63-0.66-2.59-0.66c-0.96,0-1.82,0.22-2.59,0.66
			c-0.76,0.44-1.36,1.06-1.8,1.87c-0.44,0.81-0.66,1.72-0.66,2.75c0,1.03,0.22,1.95,0.66,2.75c0.44,0.81,1.04,1.43,1.8,1.87
			c0.76,0.44,1.63,0.66,2.59,0.66C784.71,516.76,785.57,516.54,786.34,516.11z"/>
	</g>
	<g>
		<path d="M847.67,508.14c0.92,0.45,1.63,1.08,2.15,1.89c0.51,0.82,0.77,1.76,0.77,2.84c0,1.1-0.27,2.07-0.8,2.91
			c-0.53,0.84-1.27,1.49-2.2,1.94c-0.94,0.46-1.99,0.68-3.15,0.68c-2.39,0-4.21-0.79-5.48-2.35c-1.27-1.57-1.9-3.79-1.9-6.65
			c0-2.01,0.34-3.71,1.03-5.1c0.69-1.39,1.65-2.44,2.88-3.15s2.68-1.07,4.32-1.07c1.78,0,3.21,0.33,4.27,0.98l-0.75,1.49
			c-0.86-0.57-2.02-0.85-3.5-0.85c-1.99,0-3.55,0.63-4.68,1.89c-1.13,1.26-1.7,3.09-1.7,5.5c0,0.43,0.03,0.92,0.08,1.47
			c0.45-0.98,1.16-1.74,2.14-2.28s2.1-0.81,3.37-0.81C845.7,507.47,846.76,507.69,847.67,508.14z M847.54,515.77
			c0.81-0.71,1.22-1.66,1.22-2.84s-0.41-2.13-1.22-2.83c-0.82-0.7-1.92-1.06-3.31-1.06c-0.91,0-1.71,0.17-2.41,0.51
			c-0.69,0.34-1.24,0.82-1.63,1.42c-0.39,0.6-0.59,1.27-0.59,2.01c0,0.69,0.18,1.32,0.55,1.9c0.37,0.58,0.91,1.06,1.63,1.42
			s1.58,0.54,2.57,0.54C845.67,516.84,846.73,516.48,847.54,515.77z"/>
		<path d="M854.16,507.73c-0.63-0.36-1.12-0.85-1.48-1.48c-0.36-0.63-0.54-1.32-0.54-2.07c0-0.74,0.18-1.42,0.54-2.05
			s0.85-1.12,1.48-1.48c0.63-0.36,1.32-0.54,2.07-0.54c0.75,0,1.45,0.18,2.08,0.54c0.63,0.36,1.13,0.85,1.49,1.48
			s0.54,1.31,0.54,2.05c0,0.75-0.18,1.45-0.54,2.07c-0.36,0.63-0.86,1.12-1.49,1.48c-0.64,0.36-1.33,0.54-2.08,0.54
			C855.48,508.27,854.79,508.09,854.16,507.73z M858.36,506.33c0.57-0.57,0.86-1.29,0.86-2.15c0-0.84-0.29-1.55-0.86-2.12
			c-0.58-0.57-1.28-0.86-2.12-0.86c-0.84,0-1.54,0.29-2.11,0.86s-0.85,1.28-0.85,2.12c0,0.86,0.28,1.57,0.85,2.15
			c0.57,0.58,1.27,0.86,2.11,0.86C857.07,507.19,857.78,506.9,858.36,506.33z"/>
		<path d="M874.82,501.89h-6.33v-1.65h14.57v1.65h-6.33v16.37h-1.9V501.89z"/>
		<path d="M893.76,505.94c0.94,0.88,1.42,2.19,1.42,3.93v8.39h-1.75v-2.11c-0.41,0.7-1.02,1.25-1.81,1.65
			c-0.8,0.4-1.75,0.59-2.84,0.59c-1.51,0-2.71-0.36-3.6-1.08c-0.89-0.72-1.34-1.67-1.34-2.86c0-1.15,0.42-2.08,1.25-2.78
			c0.83-0.7,2.16-1.06,3.98-1.06h4.3v-0.82c0-1.17-0.33-2.06-0.98-2.66c-0.65-0.61-1.6-0.91-2.86-0.91c-0.86,0-1.68,0.14-2.47,0.42
			c-0.79,0.28-1.47,0.67-2.03,1.17l-0.82-1.36c0.69-0.58,1.51-1.03,2.47-1.35c0.96-0.32,1.97-0.48,3.04-0.48
			C891.46,504.61,892.82,505.06,893.76,505.94z M891.7,516.24c0.74-0.47,1.29-1.15,1.65-2.05v-2.21h-4.25
			c-2.32,0-3.48,0.81-3.48,2.42c0,0.79,0.3,1.41,0.9,1.87s1.44,0.68,2.52,0.68C890.08,516.94,890.96,516.71,891.7,516.24z"/>
		<path d="M900.62,517.91c-1-0.32-1.79-0.72-2.35-1.2l0.82-1.44c0.57,0.45,1.28,0.81,2.14,1.09c0.86,0.28,1.75,0.42,2.68,0.42
			c1.24,0,2.15-0.19,2.74-0.58c0.59-0.39,0.89-0.93,0.89-1.63c0-0.5-0.16-0.89-0.49-1.17c-0.33-0.28-0.74-0.5-1.24-0.64
			c-0.5-0.15-1.16-0.29-1.98-0.42c-1.1-0.21-1.98-0.42-2.65-0.63c-0.67-0.21-1.24-0.58-1.71-1.09c-0.47-0.51-0.71-1.23-0.71-2.14
			c0-1.13,0.47-2.06,1.42-2.78c0.94-0.72,2.26-1.08,3.94-1.08c0.88,0,1.75,0.12,2.63,0.35c0.88,0.23,1.6,0.54,2.16,0.91l-0.8,1.47
			c-1.12-0.77-2.45-1.16-3.99-1.16c-1.17,0-2.05,0.21-2.64,0.62c-0.59,0.41-0.89,0.95-0.89,1.62c0,0.51,0.17,0.93,0.5,1.24
			s0.75,0.54,1.25,0.68c0.5,0.15,1.18,0.3,2.06,0.45c1.08,0.21,1.95,0.41,2.6,0.62c0.65,0.21,1.21,0.56,1.67,1.06
			c0.46,0.5,0.69,1.18,0.69,2.06c0,1.18-0.49,2.12-1.48,2.82c-0.99,0.69-2.36,1.04-4.11,1.04
			C902.67,518.38,901.62,518.23,900.62,517.91z"/>
		<path d="M919.86,517.43c-0.34,0.31-0.77,0.54-1.27,0.71c-0.51,0.16-1.03,0.24-1.58,0.24c-1.27,0-2.25-0.34-2.93-1.03
			c-0.69-0.69-1.03-1.66-1.03-2.91v-8.19h-2.42v-1.54h2.42v-2.96h1.83v2.96h4.12v1.54h-4.12v8.08c0,0.81,0.2,1.42,0.6,1.84
			c0.4,0.42,0.98,0.63,1.74,0.63c0.38,0,0.74-0.06,1.09-0.18c0.35-0.12,0.66-0.29,0.91-0.51L919.86,517.43z"/>
		<path d="M924.7,517.5c-1.05-0.59-1.87-1.41-2.47-2.46c-0.6-1.05-0.9-2.23-0.9-3.55s0.3-2.51,0.9-3.55
			c0.6-1.05,1.42-1.86,2.47-2.45c1.05-0.58,2.22-0.88,3.53-0.88c1.3,0,2.48,0.29,3.53,0.88c1.05,0.58,1.87,1.4,2.46,2.45
			c0.59,1.05,0.89,2.23,0.89,3.55s-0.3,2.51-0.89,3.55s-1.41,1.87-2.46,2.46c-1.05,0.59-2.22,0.89-3.53,0.89
			C926.92,518.38,925.75,518.09,924.7,517.5z M930.81,516.11c0.76-0.44,1.36-1.06,1.79-1.87c0.43-0.81,0.64-1.72,0.64-2.75
			c0-1.03-0.21-1.95-0.64-2.75c-0.43-0.81-1.03-1.43-1.79-1.87c-0.76-0.44-1.63-0.66-2.59-0.66c-0.96,0-1.82,0.22-2.59,0.66
			c-0.76,0.44-1.36,1.06-1.8,1.87c-0.44,0.81-0.66,1.72-0.66,2.75c0,1.03,0.22,1.95,0.66,2.75c0.44,0.81,1.04,1.43,1.8,1.87
			c0.76,0.44,1.63,0.66,2.59,0.66C929.19,516.76,930.05,516.54,930.81,516.11z"/>
	</g>
	<g>
		<path d="M993.71,500.24v1.31l-7.54,16.71h-2.01l7.41-16.37h-9.27v3.37h-1.83v-5.02H993.71z"/>
		<path d="M998.22,507.73c-0.63-0.36-1.12-0.85-1.48-1.48c-0.36-0.63-0.54-1.32-0.54-2.07c0-0.74,0.18-1.42,0.54-2.05
			s0.85-1.12,1.48-1.48c0.63-0.36,1.32-0.54,2.07-0.54c0.75,0,1.45,0.18,2.08,0.54c0.63,0.36,1.13,0.85,1.49,1.48
			c0.36,0.63,0.54,1.31,0.54,2.05c0,0.75-0.18,1.45-0.54,2.07c-0.36,0.63-0.86,1.12-1.49,1.48c-0.64,0.36-1.33,0.54-2.08,0.54
			C999.54,508.27,998.85,508.09,998.22,507.73z M1002.42,506.33c0.58-0.57,0.86-1.29,0.86-2.15c0-0.84-0.29-1.55-0.86-2.12
			s-1.28-0.86-2.12-0.86s-1.54,0.29-2.11,0.86c-0.57,0.57-0.85,1.28-0.85,2.12c0,0.86,0.28,1.57,0.85,2.15
			c0.57,0.58,1.27,0.86,2.11,0.86S1001.84,506.9,1002.42,506.33z"/>
		<path d="M1018.88,501.89h-6.33v-1.65h14.57v1.65h-6.33v16.37h-1.91V501.89z"/>
		<path d="M1037.83,505.94c0.94,0.88,1.42,2.19,1.42,3.93v8.39h-1.75v-2.11c-0.41,0.7-1.02,1.25-1.81,1.65
			c-0.8,0.4-1.75,0.59-2.84,0.59c-1.51,0-2.71-0.36-3.6-1.08c-0.89-0.72-1.34-1.67-1.34-2.86c0-1.15,0.42-2.08,1.25-2.78
			s2.16-1.06,3.98-1.06h4.3v-0.82c0-1.17-0.33-2.06-0.98-2.66c-0.65-0.61-1.6-0.91-2.86-0.91c-0.86,0-1.68,0.14-2.47,0.42
			s-1.47,0.67-2.03,1.17l-0.82-1.36c0.69-0.58,1.51-1.03,2.47-1.35c0.96-0.32,1.97-0.48,3.04-0.48
			C1035.53,504.61,1036.88,505.06,1037.83,505.94z M1035.77,516.24c0.74-0.47,1.29-1.15,1.65-2.05v-2.21h-4.25
			c-2.32,0-3.47,0.81-3.47,2.42c0,0.79,0.3,1.41,0.9,1.87s1.44,0.68,2.52,0.68C1034.14,516.94,1035.03,516.71,1035.77,516.24z"/>
		<path d="M1044.68,517.91c-1-0.32-1.79-0.72-2.36-1.2l0.82-1.44c0.57,0.45,1.28,0.81,2.14,1.09c0.86,0.28,1.75,0.42,2.68,0.42
			c1.24,0,2.15-0.19,2.74-0.58s0.89-0.93,0.89-1.63c0-0.5-0.16-0.89-0.49-1.17s-0.74-0.5-1.24-0.64c-0.5-0.15-1.16-0.29-1.98-0.42
			c-1.1-0.21-1.98-0.42-2.65-0.63c-0.67-0.21-1.24-0.58-1.71-1.09c-0.47-0.51-0.71-1.23-0.71-2.14c0-1.13,0.47-2.06,1.42-2.78
			c0.94-0.72,2.26-1.08,3.94-1.08c0.88,0,1.75,0.12,2.63,0.35c0.88,0.23,1.6,0.54,2.16,0.91l-0.8,1.47
			c-1.12-0.77-2.45-1.16-3.99-1.16c-1.17,0-2.05,0.21-2.64,0.62c-0.59,0.41-0.89,0.95-0.89,1.62c0,0.51,0.17,0.93,0.5,1.24
			c0.33,0.31,0.75,0.54,1.25,0.68c0.5,0.15,1.18,0.3,2.06,0.45c1.08,0.21,1.95,0.41,2.6,0.62c0.65,0.21,1.21,0.56,1.67,1.06
			c0.46,0.5,0.69,1.18,0.69,2.06c0,1.18-0.49,2.12-1.48,2.82c-0.99,0.69-2.36,1.04-4.11,1.04
			C1046.74,518.38,1045.69,518.23,1044.68,517.91z"/>
		<path d="M1063.93,517.43c-0.34,0.31-0.77,0.54-1.27,0.71c-0.51,0.16-1.03,0.24-1.58,0.24c-1.27,0-2.25-0.34-2.93-1.03
			c-0.69-0.69-1.03-1.66-1.03-2.91v-8.19h-2.42v-1.54h2.42v-2.96h1.83v2.96h4.12v1.54h-4.12v8.08c0,0.81,0.2,1.42,0.61,1.84
			c0.4,0.42,0.98,0.63,1.74,0.63c0.38,0,0.74-0.06,1.09-0.18s0.66-0.29,0.91-0.51L1063.93,517.43z"/>
		<path d="M1068.76,517.5c-1.05-0.59-1.87-1.41-2.47-2.46s-0.9-2.23-0.9-3.55s0.3-2.51,0.9-3.55c0.6-1.05,1.42-1.86,2.47-2.45
			c1.05-0.58,2.22-0.88,3.53-0.88c1.3,0,2.48,0.29,3.53,0.88c1.05,0.58,1.87,1.4,2.46,2.45c0.59,1.05,0.89,2.23,0.89,3.55
			s-0.3,2.51-0.89,3.55c-0.59,1.05-1.41,1.87-2.46,2.46c-1.05,0.59-2.22,0.89-3.53,0.89
			C1070.99,518.38,1069.81,518.09,1068.76,517.5z M1074.88,516.11c0.76-0.44,1.36-1.06,1.79-1.87c0.43-0.81,0.64-1.72,0.64-2.75
			c0-1.03-0.21-1.95-0.64-2.75c-0.43-0.81-1.03-1.43-1.79-1.87c-0.76-0.44-1.63-0.66-2.59-0.66s-1.82,0.22-2.59,0.66
			c-0.76,0.44-1.36,1.06-1.8,1.87c-0.44,0.81-0.66,1.72-0.66,2.75c0,1.03,0.22,1.95,0.66,2.75c0.44,0.81,1.04,1.43,1.8,1.87
			s1.63,0.66,2.59,0.66S1074.11,516.54,1074.88,516.11z"/>
	</g>
	<g>
		<path d="M1137.35,510.51c0.61,0.76,0.91,1.66,0.91,2.73c0,1.05-0.28,1.96-0.85,2.74s-1.38,1.38-2.43,1.8
			c-1.05,0.42-2.29,0.63-3.72,0.63c-2.16,0-3.86-0.46-5.1-1.39c-1.24-0.93-1.85-2.19-1.85-3.78c0-1.08,0.3-1.99,0.89-2.74
			c0.59-0.75,1.45-1.31,2.59-1.69c-0.93-0.36-1.63-0.88-2.11-1.56c-0.48-0.68-0.72-1.48-0.72-2.41c0-1.46,0.57-2.62,1.71-3.47
			c1.14-0.86,2.67-1.29,4.59-1.29c1.27,0,2.38,0.19,3.33,0.58s1.69,0.94,2.23,1.66c0.53,0.72,0.8,1.56,0.8,2.52
			c0,0.93-0.25,1.73-0.75,2.41c-0.5,0.68-1.21,1.2-2.14,1.56C1135.87,509.19,1136.74,509.75,1137.35,510.51z M1135,515.86
			c0.9-0.65,1.35-1.54,1.35-2.65c0-1.12-0.45-2-1.35-2.64c-0.9-0.64-2.15-0.96-3.75-0.96c-1.58,0-2.82,0.32-3.72,0.96
			c-0.9,0.64-1.35,1.52-1.35,2.64c0,1.13,0.45,2.02,1.34,2.66c0.89,0.64,2.14,0.97,3.73,0.97S1134.1,516.51,1135,515.86z
			 M1127.99,507.26c0.79,0.58,1.88,0.88,3.27,0.88c1.39,0,2.48-0.29,3.28-0.88c0.8-0.58,1.2-1.36,1.2-2.34
			c0-1.01-0.41-1.81-1.22-2.39c-0.82-0.58-1.9-0.88-3.26-0.88c-1.37,0-2.46,0.29-3.26,0.88c-0.8,0.58-1.2,1.37-1.2,2.37
			S1127.2,506.68,1127.99,507.26z"/>
		<path d="M1142.8,507.73c-0.63-0.36-1.12-0.85-1.48-1.48c-0.36-0.63-0.54-1.32-0.54-2.07c0-0.74,0.18-1.42,0.54-2.05
			s0.85-1.12,1.48-1.48c0.63-0.36,1.32-0.54,2.07-0.54c0.75,0,1.45,0.18,2.08,0.54c0.63,0.36,1.13,0.85,1.49,1.48
			c0.36,0.63,0.54,1.31,0.54,2.05c0,0.75-0.18,1.45-0.54,2.07c-0.36,0.63-0.86,1.12-1.49,1.48c-0.64,0.36-1.33,0.54-2.08,0.54
			C1144.12,508.27,1143.43,508.09,1142.8,507.73z M1147,506.33c0.58-0.57,0.86-1.29,0.86-2.15c0-0.84-0.29-1.55-0.86-2.12
			s-1.28-0.86-2.12-0.86s-1.54,0.29-2.11,0.86c-0.57,0.57-0.85,1.28-0.85,2.12c0,0.86,0.28,1.57,0.85,2.15
			c0.57,0.58,1.27,0.86,2.11,0.86S1146.42,506.9,1147,506.33z"/>
		<path d="M1163.46,501.89h-6.33v-1.65h14.57v1.65h-6.33v16.37h-1.91V501.89z"/>
		<path d="M1182.41,505.94c0.94,0.88,1.42,2.19,1.42,3.93v8.39h-1.75v-2.11c-0.41,0.7-1.02,1.25-1.81,1.65
			c-0.8,0.4-1.75,0.59-2.84,0.59c-1.51,0-2.71-0.36-3.6-1.08c-0.89-0.72-1.34-1.67-1.34-2.86c0-1.15,0.42-2.08,1.25-2.78
			s2.16-1.06,3.98-1.06h4.3v-0.82c0-1.17-0.33-2.06-0.98-2.66c-0.65-0.61-1.6-0.91-2.86-0.91c-0.86,0-1.68,0.14-2.47,0.42
			s-1.47,0.67-2.03,1.17l-0.82-1.36c0.69-0.58,1.51-1.03,2.47-1.35c0.96-0.32,1.97-0.48,3.04-0.48
			C1180.11,504.61,1181.46,505.06,1182.41,505.94z M1180.35,516.24c0.74-0.47,1.29-1.15,1.65-2.05v-2.21h-4.25
			c-2.32,0-3.47,0.81-3.47,2.42c0,0.79,0.3,1.41,0.9,1.87s1.44,0.68,2.52,0.68C1178.72,516.94,1179.61,516.71,1180.35,516.24z"/>
		<path d="M1189.26,517.91c-1-0.32-1.79-0.72-2.36-1.2l0.82-1.44c0.57,0.45,1.28,0.81,2.14,1.09c0.86,0.28,1.75,0.42,2.68,0.42
			c1.24,0,2.15-0.19,2.74-0.58s0.89-0.93,0.89-1.63c0-0.5-0.16-0.89-0.49-1.17s-0.74-0.5-1.24-0.64c-0.5-0.15-1.16-0.29-1.98-0.42
			c-1.1-0.21-1.98-0.42-2.65-0.63c-0.67-0.21-1.24-0.58-1.71-1.09c-0.47-0.51-0.71-1.23-0.71-2.14c0-1.13,0.47-2.06,1.42-2.78
			c0.94-0.72,2.26-1.08,3.94-1.08c0.88,0,1.75,0.12,2.63,0.35c0.88,0.23,1.6,0.54,2.16,0.91l-0.8,1.47
			c-1.12-0.77-2.45-1.16-3.99-1.16c-1.17,0-2.05,0.21-2.64,0.62c-0.59,0.41-0.89,0.95-0.89,1.62c0,0.51,0.17,0.93,0.5,1.24
			c0.33,0.31,0.75,0.54,1.25,0.68c0.5,0.15,1.18,0.3,2.06,0.45c1.08,0.21,1.95,0.41,2.6,0.62c0.65,0.21,1.21,0.56,1.67,1.06
			c0.46,0.5,0.69,1.18,0.69,2.06c0,1.18-0.49,2.12-1.48,2.82c-0.99,0.69-2.36,1.04-4.11,1.04
			C1191.32,518.38,1190.27,518.23,1189.26,517.91z"/>
		<path d="M1208.51,517.43c-0.34,0.31-0.77,0.54-1.27,0.71c-0.51,0.16-1.03,0.24-1.58,0.24c-1.27,0-2.25-0.34-2.93-1.03
			c-0.69-0.69-1.03-1.66-1.03-2.91v-8.19h-2.42v-1.54h2.42v-2.96h1.83v2.96h4.12v1.54h-4.12v8.08c0,0.81,0.2,1.42,0.61,1.84
			c0.4,0.42,0.98,0.63,1.74,0.63c0.38,0,0.74-0.06,1.09-0.18s0.66-0.29,0.91-0.51L1208.51,517.43z"/>
		<path d="M1213.34,517.5c-1.05-0.59-1.87-1.41-2.47-2.46s-0.9-2.23-0.9-3.55s0.3-2.51,0.9-3.55c0.6-1.05,1.42-1.86,2.47-2.45
			c1.05-0.58,2.22-0.88,3.53-0.88c1.3,0,2.48,0.29,3.53,0.88c1.05,0.58,1.87,1.4,2.46,2.45c0.59,1.05,0.89,2.23,0.89,3.55
			s-0.3,2.51-0.89,3.55c-0.59,1.05-1.41,1.87-2.46,2.46c-1.05,0.59-2.22,0.89-3.53,0.89
			C1215.57,518.38,1214.39,518.09,1213.34,517.5z M1219.46,516.11c0.76-0.44,1.36-1.06,1.79-1.87c0.43-0.81,0.64-1.72,0.64-2.75
			c0-1.03-0.21-1.95-0.64-2.75c-0.43-0.81-1.03-1.43-1.79-1.87c-0.76-0.44-1.63-0.66-2.59-0.66s-1.82,0.22-2.59,0.66
			c-0.76,0.44-1.36,1.06-1.8,1.87c-0.44,0.81-0.66,1.72-0.66,2.75c0,1.03,0.22,1.95,0.66,2.75c0.44,0.81,1.04,1.43,1.8,1.87
			s1.63,0.66,2.59,0.66S1218.69,516.54,1219.46,516.11z"/>
	</g>
	<g>
		<path d="M1279.83,502.44c1.27,1.57,1.9,3.79,1.9,6.65c0,2.01-0.34,3.71-1.03,5.1s-1.65,2.44-2.88,3.15s-2.68,1.07-4.32,1.07
			c-1.79,0-3.21-0.33-4.27-0.98l0.75-1.49c0.86,0.57,2.02,0.85,3.5,0.85c1.99,0,3.55-0.63,4.69-1.89c1.13-1.26,1.7-3.09,1.7-5.5
			c0-0.45-0.03-0.94-0.08-1.47c-0.45,0.98-1.16,1.74-2.14,2.28c-0.98,0.54-2.1,0.81-3.37,0.81c-1.18,0-2.24-0.22-3.15-0.67
			c-0.92-0.45-1.63-1.08-2.15-1.89s-0.77-1.76-0.77-2.84c0-1.1,0.27-2.07,0.8-2.91s1.27-1.49,2.2-1.94
			c0.93-0.45,1.99-0.68,3.15-0.68C1276.73,500.08,1278.56,500.87,1279.83,502.44z M1276.96,508.94c0.7-0.34,1.24-0.81,1.63-1.42
			c0.39-0.6,0.59-1.27,0.59-2.01c0-0.69-0.18-1.32-0.55-1.9c-0.37-0.58-0.91-1.06-1.63-1.42s-1.58-0.54-2.57-0.54
			c-1.3,0-2.36,0.36-3.18,1.07c-0.81,0.71-1.22,1.66-1.22,2.84s0.41,2.13,1.22,2.83c0.82,0.7,1.92,1.06,3.31,1.06
			C1275.46,509.45,1276.26,509.28,1276.96,508.94z"/>
		<path d="M1286.48,507.73c-0.63-0.36-1.12-0.85-1.48-1.48c-0.36-0.63-0.54-1.32-0.54-2.07c0-0.74,0.18-1.42,0.54-2.05
			s0.85-1.12,1.48-1.48c0.63-0.36,1.32-0.54,2.07-0.54c0.75,0,1.45,0.18,2.08,0.54c0.63,0.36,1.13,0.85,1.49,1.48
			c0.36,0.63,0.54,1.31,0.54,2.05c0,0.75-0.18,1.45-0.54,2.07c-0.36,0.63-0.86,1.12-1.49,1.48c-0.64,0.36-1.33,0.54-2.08,0.54
			C1287.8,508.27,1287.11,508.09,1286.48,507.73z M1290.68,506.33c0.58-0.57,0.86-1.29,0.86-2.15c0-0.84-0.29-1.55-0.86-2.12
			s-1.28-0.86-2.12-0.86s-1.54,0.29-2.11,0.86c-0.57,0.57-0.85,1.28-0.85,2.12c0,0.86,0.28,1.57,0.85,2.15
			c0.57,0.58,1.27,0.86,2.11,0.86S1290.1,506.9,1290.68,506.33z"/>
		<path d="M1307.14,501.89h-6.33v-1.65h14.57v1.65h-6.33v16.37h-1.91V501.89z"/>
		<path d="M1326.08,505.94c0.94,0.88,1.42,2.19,1.42,3.93v8.39h-1.75v-2.11c-0.41,0.7-1.02,1.25-1.81,1.65
			c-0.8,0.4-1.75,0.59-2.84,0.59c-1.51,0-2.71-0.36-3.6-1.08c-0.89-0.72-1.34-1.67-1.34-2.86c0-1.15,0.42-2.08,1.25-2.78
			s2.16-1.06,3.98-1.06h4.3v-0.82c0-1.17-0.33-2.06-0.98-2.66c-0.65-0.61-1.6-0.91-2.86-0.91c-0.86,0-1.68,0.14-2.47,0.42
			s-1.47,0.67-2.03,1.17l-0.82-1.36c0.69-0.58,1.51-1.03,2.47-1.35c0.96-0.32,1.97-0.48,3.04-0.48
			C1323.78,504.61,1325.14,505.06,1326.08,505.94z M1324.02,516.24c0.74-0.47,1.29-1.15,1.65-2.05v-2.21h-4.25
			c-2.32,0-3.47,0.81-3.47,2.42c0,0.79,0.3,1.41,0.9,1.87s1.44,0.68,2.52,0.68C1322.4,516.94,1323.29,516.71,1324.02,516.24z"/>
		<path d="M1332.94,517.91c-1-0.32-1.79-0.72-2.36-1.2l0.82-1.44c0.57,0.45,1.28,0.81,2.14,1.09c0.86,0.28,1.75,0.42,2.68,0.42
			c1.24,0,2.15-0.19,2.74-0.58s0.89-0.93,0.89-1.63c0-0.5-0.16-0.89-0.49-1.17s-0.74-0.5-1.24-0.64c-0.5-0.15-1.16-0.29-1.98-0.42
			c-1.1-0.21-1.98-0.42-2.65-0.63c-0.67-0.21-1.24-0.58-1.71-1.09c-0.47-0.51-0.71-1.23-0.71-2.14c0-1.13,0.47-2.06,1.42-2.78
			c0.94-0.72,2.26-1.08,3.94-1.08c0.88,0,1.75,0.12,2.63,0.35c0.88,0.23,1.6,0.54,2.16,0.91l-0.8,1.47
			c-1.12-0.77-2.45-1.16-3.99-1.16c-1.17,0-2.05,0.21-2.64,0.62c-0.59,0.41-0.89,0.95-0.89,1.62c0,0.51,0.17,0.93,0.5,1.24
			c0.33,0.31,0.75,0.54,1.25,0.68c0.5,0.15,1.18,0.3,2.06,0.45c1.08,0.21,1.95,0.41,2.6,0.62c0.65,0.21,1.21,0.56,1.67,1.06
			c0.46,0.5,0.69,1.18,0.69,2.06c0,1.18-0.49,2.12-1.48,2.82c-0.99,0.69-2.36,1.04-4.11,1.04
			C1335,518.38,1333.95,518.23,1332.94,517.91z"/>
		<path d="M1352.18,517.43c-0.34,0.31-0.77,0.54-1.27,0.71c-0.51,0.16-1.03,0.24-1.58,0.24c-1.27,0-2.25-0.34-2.93-1.03
			c-0.69-0.69-1.03-1.66-1.03-2.91v-8.19h-2.42v-1.54h2.42v-2.96h1.83v2.96h4.12v1.54h-4.12v8.08c0,0.81,0.2,1.42,0.61,1.84
			c0.4,0.42,0.98,0.63,1.74,0.63c0.38,0,0.74-0.06,1.09-0.18s0.66-0.29,0.91-0.51L1352.18,517.43z"/>
		<path d="M1357.02,517.5c-1.05-0.59-1.87-1.41-2.47-2.46s-0.9-2.23-0.9-3.55s0.3-2.51,0.9-3.55c0.6-1.05,1.42-1.86,2.47-2.45
			c1.05-0.58,2.22-0.88,3.53-0.88c1.3,0,2.48,0.29,3.53,0.88c1.05,0.58,1.87,1.4,2.46,2.45c0.59,1.05,0.89,2.23,0.89,3.55
			s-0.3,2.51-0.89,3.55c-0.59,1.05-1.41,1.87-2.46,2.46c-1.05,0.59-2.22,0.89-3.53,0.89
			C1359.24,518.38,1358.07,518.09,1357.02,517.5z M1363.13,516.11c0.76-0.44,1.36-1.06,1.79-1.87c0.43-0.81,0.64-1.72,0.64-2.75
			c0-1.03-0.21-1.95-0.64-2.75c-0.43-0.81-1.03-1.43-1.79-1.87c-0.76-0.44-1.63-0.66-2.59-0.66s-1.82,0.22-2.59,0.66
			c-0.76,0.44-1.36,1.06-1.8,1.87c-0.44,0.81-0.66,1.72-0.66,2.75c0,1.03,0.22,1.95,0.66,2.75c0.44,0.81,1.04,1.43,1.8,1.87
			s1.63,0.66,2.59,0.66S1362.37,516.54,1363.13,516.11z"/>
	</g>
	<g>
		<path d="M1412.4,500.24v18.02h-1.85v-16.37h-4.25v-1.65H1412.4z"/>
		<path d="M1420.16,517.3c-1.09-0.74-1.94-1.8-2.55-3.18c-0.61-1.38-0.91-3.01-0.91-4.88s0.3-3.5,0.91-4.88s1.46-2.44,2.55-3.18
			c1.09-0.74,2.33-1.11,3.72-1.11c1.39,0,2.63,0.37,3.72,1.11s1.94,1.8,2.56,3.18c0.62,1.38,0.93,3.01,0.93,4.88
			s-0.31,3.5-0.93,4.88c-0.62,1.38-1.47,2.44-2.56,3.18s-2.33,1.11-3.72,1.11C1422.49,518.41,1421.25,518.04,1420.16,517.3z
			 M1426.65,515.84c0.8-0.58,1.42-1.43,1.87-2.55c0.45-1.12,0.67-2.46,0.67-4.04s-0.22-2.93-0.67-4.04
			c-0.45-1.12-1.07-1.96-1.87-2.55c-0.8-0.58-1.72-0.88-2.77-0.88s-1.97,0.29-2.77,0.88c-0.8,0.58-1.42,1.43-1.87,2.55
			c-0.45,1.12-0.67,2.46-0.67,4.04s0.22,2.93,0.67,4.04c0.45,1.12,1.07,1.96,1.87,2.55s1.72,0.88,2.77,0.88
			S1425.85,516.42,1426.65,515.84z"/>
		<path d="M1435.81,507.73c-0.63-0.36-1.12-0.85-1.48-1.48c-0.36-0.63-0.54-1.32-0.54-2.07c0-0.74,0.18-1.42,0.54-2.05
			s0.85-1.12,1.48-1.48c0.63-0.36,1.32-0.54,2.07-0.54c0.75,0,1.45,0.18,2.08,0.54c0.63,0.36,1.13,0.85,1.49,1.48
			c0.36,0.63,0.54,1.31,0.54,2.05c0,0.75-0.18,1.45-0.54,2.07c-0.36,0.63-0.86,1.12-1.49,1.48c-0.64,0.36-1.33,0.54-2.08,0.54
			C1437.13,508.27,1436.44,508.09,1435.81,507.73z M1440,506.33c0.58-0.57,0.86-1.29,0.86-2.15c0-0.84-0.29-1.55-0.86-2.12
			s-1.28-0.86-2.12-0.86s-1.54,0.29-2.11,0.86c-0.57,0.57-0.85,1.28-0.85,2.12c0,0.86,0.28,1.57,0.85,2.15
			c0.57,0.58,1.27,0.86,2.11,0.86S1439.43,506.9,1440,506.33z"/>
		<path d="M1456.47,501.89h-6.33v-1.65h14.57v1.65h-6.33v16.37h-1.91V501.89z"/>
		<path d="M1475.41,505.94c0.94,0.88,1.42,2.19,1.42,3.93v8.39h-1.75v-2.11c-0.41,0.7-1.02,1.25-1.81,1.65
			c-0.8,0.4-1.75,0.59-2.84,0.59c-1.51,0-2.71-0.36-3.6-1.08c-0.89-0.72-1.34-1.67-1.34-2.86c0-1.15,0.42-2.08,1.25-2.78
			s2.16-1.06,3.98-1.06h4.3v-0.82c0-1.17-0.33-2.06-0.98-2.66c-0.65-0.61-1.6-0.91-2.86-0.91c-0.86,0-1.68,0.14-2.47,0.42
			s-1.47,0.67-2.03,1.17l-0.82-1.36c0.69-0.58,1.51-1.03,2.47-1.35c0.96-0.32,1.97-0.48,3.04-0.48
			C1473.11,504.61,1474.47,505.06,1475.41,505.94z M1473.35,516.24c0.74-0.47,1.29-1.15,1.65-2.05v-2.21h-4.25
			c-2.32,0-3.47,0.81-3.47,2.42c0,0.79,0.3,1.41,0.9,1.87s1.44,0.68,2.52,0.68C1471.73,516.94,1472.61,516.71,1473.35,516.24z"/>
		<path d="M1482.27,517.91c-1-0.32-1.79-0.72-2.36-1.2l0.82-1.44c0.57,0.45,1.28,0.81,2.14,1.09c0.86,0.28,1.75,0.42,2.68,0.42
			c1.24,0,2.15-0.19,2.74-0.58s0.89-0.93,0.89-1.63c0-0.5-0.16-0.89-0.49-1.17s-0.74-0.5-1.24-0.64c-0.5-0.15-1.16-0.29-1.98-0.42
			c-1.1-0.21-1.98-0.42-2.65-0.63c-0.67-0.21-1.24-0.58-1.71-1.09c-0.47-0.51-0.71-1.23-0.71-2.14c0-1.13,0.47-2.06,1.42-2.78
			c0.94-0.72,2.26-1.08,3.94-1.08c0.88,0,1.75,0.12,2.63,0.35c0.88,0.23,1.6,0.54,2.16,0.91l-0.8,1.47
			c-1.12-0.77-2.45-1.16-3.99-1.16c-1.17,0-2.05,0.21-2.64,0.62c-0.59,0.41-0.89,0.95-0.89,1.62c0,0.51,0.17,0.93,0.5,1.24
			c0.33,0.31,0.75,0.54,1.25,0.68c0.5,0.15,1.18,0.3,2.06,0.45c1.08,0.21,1.95,0.41,2.6,0.62c0.65,0.21,1.21,0.56,1.67,1.06
			c0.46,0.5,0.69,1.18,0.69,2.06c0,1.18-0.49,2.12-1.48,2.82c-0.99,0.69-2.36,1.04-4.11,1.04
			C1484.33,518.38,1483.27,518.23,1482.27,517.91z"/>
		<path d="M1501.51,517.43c-0.34,0.31-0.77,0.54-1.27,0.71c-0.51,0.16-1.03,0.24-1.58,0.24c-1.27,0-2.25-0.34-2.93-1.03
			c-0.69-0.69-1.03-1.66-1.03-2.91v-8.19h-2.42v-1.54h2.42v-2.96h1.83v2.96h4.12v1.54h-4.12v8.08c0,0.81,0.2,1.42,0.61,1.84
			c0.4,0.42,0.98,0.63,1.74,0.63c0.38,0,0.74-0.06,1.09-0.18s0.66-0.29,0.91-0.51L1501.51,517.43z"/>
		<path d="M1506.35,517.5c-1.05-0.59-1.87-1.41-2.47-2.46s-0.9-2.23-0.9-3.55s0.3-2.51,0.9-3.55c0.6-1.05,1.42-1.86,2.47-2.45
			c1.05-0.58,2.22-0.88,3.53-0.88c1.3,0,2.48,0.29,3.53,0.88c1.05,0.58,1.87,1.4,2.46,2.45c0.59,1.05,0.89,2.23,0.89,3.55
			s-0.3,2.51-0.89,3.55c-0.59,1.05-1.41,1.87-2.46,2.46c-1.05,0.59-2.22,0.89-3.53,0.89C1508.57,518.38,1507.4,518.09,1506.35,517.5
			z M1512.46,516.11c0.76-0.44,1.36-1.06,1.79-1.87c0.43-0.81,0.64-1.72,0.64-2.75c0-1.03-0.21-1.95-0.64-2.75
			c-0.43-0.81-1.03-1.43-1.79-1.87c-0.76-0.44-1.63-0.66-2.59-0.66s-1.82,0.22-2.59,0.66c-0.76,0.44-1.36,1.06-1.8,1.87
			c-0.44,0.81-0.66,1.72-0.66,2.75c0,1.03,0.22,1.95,0.66,2.75c0.44,0.81,1.04,1.43,1.8,1.87s1.63,0.66,2.59,0.66
			S1511.7,516.54,1512.46,516.11z"/>
	</g>
	<g>
		<path d="M1560.33,500.24v18.02h-1.85v-16.37h-4.25v-1.65H1560.33z"/>
		<path d="M1569.62,500.24v18.02h-1.85v-16.37h-4.25v-1.65H1569.62z"/>
		<path d="M1575.88,507.73c-0.63-0.36-1.12-0.85-1.48-1.48c-0.36-0.63-0.54-1.32-0.54-2.07c0-0.74,0.18-1.42,0.54-2.05
			s0.85-1.12,1.48-1.48c0.63-0.36,1.32-0.54,2.07-0.54c0.75,0,1.45,0.18,2.08,0.54c0.63,0.36,1.13,0.85,1.49,1.48
			c0.36,0.63,0.54,1.31,0.54,2.05c0,0.75-0.18,1.45-0.54,2.07c-0.36,0.63-0.86,1.12-1.49,1.48c-0.64,0.36-1.33,0.54-2.08,0.54
			C1577.2,508.27,1576.51,508.09,1575.88,507.73z M1580.08,506.33c0.58-0.57,0.86-1.29,0.86-2.15c0-0.84-0.29-1.55-0.86-2.12
			s-1.28-0.86-2.12-0.86s-1.54,0.29-2.11,0.86c-0.57,0.57-0.85,1.28-0.85,2.12c0,0.86,0.28,1.57,0.85,2.15
			c0.57,0.58,1.27,0.86,2.11,0.86S1579.5,506.9,1580.08,506.33z"/>
		<path d="M1596.54,501.89h-6.33v-1.65h14.57v1.65h-6.33v16.37h-1.91V501.89z"/>
		<path d="M1615.49,505.94c0.94,0.88,1.42,2.19,1.42,3.93v8.39h-1.75v-2.11c-0.41,0.7-1.02,1.25-1.81,1.65
			c-0.8,0.4-1.75,0.59-2.84,0.59c-1.51,0-2.71-0.36-3.6-1.08c-0.89-0.72-1.34-1.67-1.34-2.86c0-1.15,0.42-2.08,1.25-2.78
			s2.16-1.06,3.98-1.06h4.3v-0.82c0-1.17-0.33-2.06-0.98-2.66c-0.65-0.61-1.6-0.91-2.86-0.91c-0.86,0-1.68,0.14-2.47,0.42
			s-1.47,0.67-2.03,1.17l-0.82-1.36c0.69-0.58,1.51-1.03,2.47-1.35c0.96-0.32,1.97-0.48,3.04-0.48
			C1613.19,504.61,1614.54,505.06,1615.49,505.94z M1613.43,516.24c0.74-0.47,1.29-1.15,1.65-2.05v-2.21h-4.25
			c-2.32,0-3.47,0.81-3.47,2.42c0,0.79,0.3,1.41,0.9,1.87s1.44,0.68,2.52,0.68C1611.81,516.94,1612.69,516.71,1613.43,516.24z"/>
		<path d="M1622.35,517.91c-1-0.32-1.79-0.72-2.36-1.2l0.82-1.44c0.57,0.45,1.28,0.81,2.14,1.09c0.86,0.28,1.75,0.42,2.68,0.42
			c1.24,0,2.15-0.19,2.74-0.58s0.89-0.93,0.89-1.63c0-0.5-0.16-0.89-0.49-1.17s-0.74-0.5-1.24-0.64c-0.5-0.15-1.16-0.29-1.98-0.42
			c-1.1-0.21-1.98-0.42-2.65-0.63c-0.67-0.21-1.24-0.58-1.71-1.09c-0.47-0.51-0.71-1.23-0.71-2.14c0-1.13,0.47-2.06,1.42-2.78
			c0.94-0.72,2.26-1.08,3.94-1.08c0.88,0,1.75,0.12,2.63,0.35c0.88,0.23,1.6,0.54,2.16,0.91l-0.8,1.47
			c-1.12-0.77-2.45-1.16-3.99-1.16c-1.17,0-2.05,0.21-2.64,0.62c-0.59,0.41-0.89,0.95-0.89,1.62c0,0.51,0.17,0.93,0.5,1.24
			c0.33,0.31,0.75,0.54,1.25,0.68c0.5,0.15,1.18,0.3,2.06,0.45c1.08,0.21,1.95,0.41,2.6,0.62c0.65,0.21,1.21,0.56,1.67,1.06
			c0.46,0.5,0.69,1.18,0.69,2.06c0,1.18-0.49,2.12-1.48,2.82c-0.99,0.69-2.36,1.04-4.11,1.04
			C1624.4,518.38,1623.35,518.23,1622.35,517.91z"/>
		<path d="M1641.59,517.43c-0.34,0.31-0.77,0.54-1.27,0.71c-0.51,0.16-1.03,0.24-1.58,0.24c-1.27,0-2.25-0.34-2.93-1.03
			c-0.69-0.69-1.03-1.66-1.03-2.91v-8.19h-2.42v-1.54h2.42v-2.96h1.83v2.96h4.12v1.54h-4.12v8.08c0,0.81,0.2,1.42,0.61,1.84
			c0.4,0.42,0.98,0.63,1.74,0.63c0.38,0,0.74-0.06,1.09-0.18s0.66-0.29,0.91-0.51L1641.59,517.43z"/>
		<path d="M1646.42,517.5c-1.05-0.59-1.87-1.41-2.47-2.46s-0.9-2.23-0.9-3.55s0.3-2.51,0.9-3.55c0.6-1.05,1.42-1.86,2.47-2.45
			c1.05-0.58,2.22-0.88,3.53-0.88c1.3,0,2.48,0.29,3.53,0.88c1.05,0.58,1.87,1.4,2.46,2.45c0.59,1.05,0.89,2.23,0.89,3.55
			s-0.3,2.51-0.89,3.55c-0.59,1.05-1.41,1.87-2.46,2.46c-1.05,0.59-2.22,0.89-3.53,0.89
			C1648.65,518.38,1647.47,518.09,1646.42,517.5z M1652.54,516.11c0.76-0.44,1.36-1.06,1.79-1.87c0.43-0.81,0.64-1.72,0.64-2.75
			c0-1.03-0.21-1.95-0.64-2.75c-0.43-0.81-1.03-1.43-1.79-1.87c-0.76-0.44-1.63-0.66-2.59-0.66s-1.82,0.22-2.59,0.66
			c-0.76,0.44-1.36,1.06-1.8,1.87c-0.44,0.81-0.66,1.72-0.66,2.75c0,1.03,0.22,1.95,0.66,2.75c0.44,0.81,1.04,1.43,1.8,1.87
			s1.63,0.66,2.59,0.66S1651.77,516.54,1652.54,516.11z"/>
	</g>
	<g>
		<path d="M1701.66,500.24v18.02h-1.85v-16.37h-4.25v-1.65H1701.66z"/>
		<path d="M1718.26,516.61v1.65h-12.64v-1.31l7.49-7.34c0.94-0.93,1.58-1.73,1.92-2.41c0.33-0.68,0.5-1.36,0.5-2.05
			c0-1.06-0.37-1.89-1.09-2.48c-0.73-0.59-1.77-0.89-3.13-0.89c-2.11,0-3.75,0.67-4.92,2.01l-1.31-1.13c0.7-0.82,1.6-1.46,2.69-1.9
			c1.09-0.45,2.32-0.67,3.69-0.67c1.84,0,3.29,0.43,4.36,1.3c1.07,0.87,1.61,2.06,1.61,3.56c0,0.93-0.21,1.82-0.62,2.68
			c-0.41,0.86-1.19,1.85-2.34,2.96l-6.13,6.02H1718.26z"/>
		<path d="M1722.55,507.73c-0.63-0.36-1.12-0.85-1.48-1.48c-0.36-0.63-0.54-1.32-0.54-2.07c0-0.74,0.18-1.42,0.54-2.05
			s0.85-1.12,1.48-1.48c0.63-0.36,1.32-0.54,2.07-0.54c0.75,0,1.45,0.18,2.08,0.54c0.63,0.36,1.13,0.85,1.49,1.48
			c0.36,0.63,0.54,1.31,0.54,2.05c0,0.75-0.18,1.45-0.54,2.07c-0.36,0.63-0.86,1.12-1.49,1.48c-0.64,0.36-1.33,0.54-2.08,0.54
			C1723.86,508.27,1723.17,508.09,1722.55,507.73z M1726.74,506.33c0.58-0.57,0.86-1.29,0.86-2.15c0-0.84-0.29-1.55-0.86-2.12
			s-1.28-0.86-2.12-0.86s-1.54,0.29-2.11,0.86c-0.57,0.57-0.85,1.28-0.85,2.12c0,0.86,0.28,1.57,0.85,2.15
			c0.57,0.58,1.27,0.86,2.11,0.86S1726.17,506.9,1726.74,506.33z"/>
		<path d="M1743.2,501.89h-6.33v-1.65h14.57v1.65h-6.33v16.37h-1.91V501.89z"/>
		<path d="M1762.15,505.94c0.94,0.88,1.42,2.19,1.42,3.93v8.39h-1.75v-2.11c-0.41,0.7-1.02,1.25-1.81,1.65
			c-0.8,0.4-1.75,0.59-2.84,0.59c-1.51,0-2.71-0.36-3.6-1.08c-0.89-0.72-1.34-1.67-1.34-2.86c0-1.15,0.42-2.08,1.25-2.78
			s2.16-1.06,3.98-1.06h4.3v-0.82c0-1.17-0.33-2.06-0.98-2.66c-0.65-0.61-1.6-0.91-2.86-0.91c-0.86,0-1.68,0.14-2.47,0.42
			s-1.47,0.67-2.03,1.17l-0.82-1.36c0.69-0.58,1.51-1.03,2.47-1.35c0.96-0.32,1.97-0.48,3.04-0.48
			C1759.85,504.61,1761.21,505.06,1762.15,505.94z M1760.09,516.24c0.74-0.47,1.29-1.15,1.65-2.05v-2.21h-4.25
			c-2.32,0-3.47,0.81-3.47,2.42c0,0.79,0.3,1.41,0.9,1.87s1.44,0.68,2.52,0.68C1758.47,516.94,1759.35,516.71,1760.09,516.24z"/>
		<path d="M1769.01,517.91c-1-0.32-1.79-0.72-2.36-1.2l0.82-1.44c0.57,0.45,1.28,0.81,2.14,1.09c0.86,0.28,1.75,0.42,2.68,0.42
			c1.24,0,2.15-0.19,2.74-0.58s0.89-0.93,0.89-1.63c0-0.5-0.16-0.89-0.49-1.17s-0.74-0.5-1.24-0.64c-0.5-0.15-1.16-0.29-1.98-0.42
			c-1.1-0.21-1.98-0.42-2.65-0.63c-0.67-0.21-1.24-0.58-1.71-1.09c-0.47-0.51-0.71-1.23-0.71-2.14c0-1.13,0.47-2.06,1.42-2.78
			c0.94-0.72,2.26-1.08,3.94-1.08c0.88,0,1.75,0.12,2.63,0.35c0.88,0.23,1.6,0.54,2.16,0.91l-0.8,1.47
			c-1.12-0.77-2.45-1.16-3.99-1.16c-1.17,0-2.05,0.21-2.64,0.62c-0.59,0.41-0.89,0.95-0.89,1.62c0,0.51,0.17,0.93,0.5,1.24
			c0.33,0.31,0.75,0.54,1.25,0.68c0.5,0.15,1.18,0.3,2.06,0.45c1.08,0.21,1.95,0.41,2.6,0.62c0.65,0.21,1.21,0.56,1.67,1.06
			c0.46,0.5,0.69,1.18,0.69,2.06c0,1.18-0.49,2.12-1.48,2.82c-0.99,0.69-2.36,1.04-4.11,1.04
			C1771.06,518.38,1770.01,518.23,1769.01,517.91z"/>
		<path d="M1788.25,517.43c-0.34,0.31-0.77,0.54-1.27,0.71c-0.51,0.16-1.03,0.24-1.58,0.24c-1.27,0-2.25-0.34-2.93-1.03
			c-0.69-0.69-1.03-1.66-1.03-2.91v-8.19h-2.42v-1.54h2.42v-2.96h1.83v2.96h4.12v1.54h-4.12v8.08c0,0.81,0.2,1.42,0.61,1.84
			c0.4,0.42,0.98,0.63,1.74,0.63c0.38,0,0.74-0.06,1.09-0.18s0.66-0.29,0.91-0.51L1788.25,517.43z"/>
		<path d="M1793.09,517.5c-1.05-0.59-1.87-1.41-2.47-2.46s-0.9-2.23-0.9-3.55s0.3-2.51,0.9-3.55c0.6-1.05,1.42-1.86,2.47-2.45
			c1.05-0.58,2.22-0.88,3.53-0.88c1.3,0,2.48,0.29,3.53,0.88c1.05,0.58,1.87,1.4,2.46,2.45c0.59,1.05,0.89,2.23,0.89,3.55
			s-0.3,2.51-0.89,3.55c-0.59,1.05-1.41,1.87-2.46,2.46c-1.05,0.59-2.22,0.89-3.53,0.89
			C1795.31,518.38,1794.13,518.09,1793.09,517.5z M1799.2,516.11c0.76-0.44,1.36-1.06,1.79-1.87c0.43-0.81,0.64-1.72,0.64-2.75
			c0-1.03-0.21-1.95-0.64-2.75c-0.43-0.81-1.03-1.43-1.79-1.87c-0.76-0.44-1.63-0.66-2.59-0.66s-1.82,0.22-2.59,0.66
			c-0.76,0.44-1.36,1.06-1.8,1.87c-0.44,0.81-0.66,1.72-0.66,2.75c0,1.03,0.22,1.95,0.66,2.75c0.44,0.81,1.04,1.43,1.8,1.87
			s1.63,0.66,2.59,0.66S1798.44,516.54,1799.2,516.11z"/>
	</g>
</g>
<g id="Guide" class="st1">
</g>
<g id="Corde">
	<g id="Pallini">
		<g>
			<circle class="st2" cx="44.5" cy="313.5" r="32.5"/>
		</g>
		<g>
			<circle class="st2" cx="452.5" cy="169.5" r="32.5"/>
		</g>
		<g>
			<circle class="st2" cx="740.5" cy="385.5" r="32.5"/>
		</g>
		<g>
			<circle class="st2" cx="1460.5" cy="98.5" r="32.5"/>
		</g>
		<g>
			<circle class="st2" cx="1028.5" cy="241.5" r="32.5"/>
		</g>
		<g>
			<circle class="st2" cx="1460.5" cy="457.5" r="32.5"/>
		</g>
		<g>
			<circle class="st2" cx="1747.5" cy="313.5" r="32.5"/>
		</g>
	</g>
	<g>
		<path d="M50.9,447.05v18.02h-1.83v-14.41l-7.08,12.12h-0.9l-7.08-12.05v14.34h-1.83v-18.02h1.57l7.82,13.36l7.75-13.36H50.9z"/>
		<path d="M56.35,448.18c-0.26-0.26-0.39-0.57-0.39-0.93c0-0.34,0.13-0.64,0.39-0.9s0.58-0.39,0.95-0.39c0.38,0,0.7,0.12,0.95,0.37
			c0.26,0.25,0.39,0.55,0.39,0.89c0,0.38-0.13,0.69-0.39,0.95c-0.26,0.26-0.58,0.39-0.95,0.39
			C56.93,448.57,56.61,448.44,56.35,448.18z M56.38,451.53h1.83v13.54h-1.83V451.53z"/>
	</g>
	<g>
		<path d="M32.74,375.05h1.9v16.37h10.09v1.65h-12V375.05z"/>
		<path d="M56.36,380.75c0.94,0.88,1.42,2.19,1.42,3.93v8.39h-1.75v-2.11c-0.41,0.7-1.02,1.25-1.81,1.65
			c-0.8,0.4-1.75,0.59-2.84,0.59c-1.51,0-2.71-0.36-3.6-1.08c-0.89-0.72-1.34-1.67-1.34-2.86c0-1.15,0.42-2.08,1.25-2.78
			s2.16-1.06,3.98-1.06h4.3v-0.82c0-1.17-0.33-2.06-0.98-2.66c-0.65-0.61-1.6-0.91-2.86-0.91c-0.86,0-1.68,0.14-2.47,0.42
			s-1.47,0.67-2.03,1.17l-0.82-1.36c0.69-0.58,1.51-1.03,2.47-1.35c0.96-0.32,1.97-0.48,3.04-0.48
			C54.06,379.42,55.42,379.87,56.36,380.75z M54.3,391.05c0.74-0.47,1.29-1.15,1.65-2.05v-2.21h-4.25c-2.32,0-3.47,0.81-3.47,2.42
			c0,0.79,0.3,1.41,0.9,1.87s1.44,0.68,2.52,0.68C52.68,391.75,53.57,391.52,54.3,391.05z"/>
	</g>
	<g>
		<path class="st3" d="M43.16,321.07l-4.12-5.79c-0.46,0.05-0.94,0.08-1.44,0.08h-4.84v5.71h-1.9v-18.02h6.74
			c2.3,0,4.1,0.55,5.41,1.65c1.3,1.1,1.96,2.61,1.96,4.53c0,1.41-0.36,2.6-1.07,3.56c-0.71,0.97-1.73,1.67-3.05,2.1l4.4,6.18H43.16z
			 M41.64,312.55c0.94-0.79,1.42-1.9,1.42-3.32c0-1.46-0.47-2.58-1.42-3.36c-0.94-0.78-2.31-1.17-4.09-1.17h-4.79v9.03h4.79
			C39.33,313.73,40.7,313.34,41.64,312.55z"/>
		<path class="st3" d="M60.87,314.86H49.54c0.1,1.41,0.64,2.54,1.62,3.41c0.98,0.87,2.21,1.3,3.71,1.3c0.84,0,1.61-0.15,2.32-0.45
			c0.7-0.3,1.31-0.74,1.83-1.33l1.03,1.18c-0.6,0.72-1.35,1.27-2.25,1.65c-0.9,0.38-1.89,0.57-2.97,0.57c-1.39,0-2.62-0.3-3.69-0.89
			c-1.07-0.59-1.91-1.41-2.51-2.46s-0.9-2.23-0.9-3.55s0.29-2.51,0.86-3.55c0.58-1.05,1.36-1.86,2.37-2.45
			c1-0.58,2.13-0.88,3.38-0.88c1.25,0,2.38,0.29,3.37,0.88c1,0.58,1.78,1.39,2.34,2.43s0.85,2.23,0.85,3.56L60.87,314.86z
			 M51.05,310.24c-0.88,0.83-1.39,1.92-1.51,3.26h9.6c-0.12-1.34-0.62-2.42-1.51-3.26c-0.88-0.83-1.99-1.25-3.31-1.25
			C53.03,309,51.93,309.41,51.05,310.24z"/>
	</g>
	<g>
		<path d="M29.61,248.58c-1.23-0.43-2.18-0.99-2.84-1.7l0.75-1.47c0.65,0.65,1.52,1.18,2.6,1.58c1.08,0.4,2.2,0.61,3.35,0.61
			c1.61,0,2.82-0.3,3.63-0.89c0.81-0.59,1.21-1.36,1.21-2.3c0-0.72-0.22-1.29-0.66-1.72s-0.97-0.76-1.61-0.99s-1.52-0.49-2.65-0.76
			c-1.36-0.34-2.44-0.67-3.24-0.99c-0.81-0.32-1.5-0.8-2.07-1.45c-0.58-0.65-0.86-1.54-0.86-2.65c0-0.91,0.24-1.74,0.72-2.48
			c0.48-0.75,1.22-1.34,2.21-1.79s2.23-0.67,3.71-0.67c1.03,0,2.04,0.14,3.02,0.42s1.84,0.67,2.56,1.17l-0.64,1.52
			c-0.76-0.5-1.56-0.87-2.42-1.12c-0.86-0.25-1.7-0.37-2.52-0.37c-1.58,0-2.77,0.3-3.56,0.91s-1.2,1.39-1.2,2.36
			c0,0.72,0.22,1.3,0.66,1.74s0.99,0.77,1.65,1s1.55,0.48,2.66,0.76c1.32,0.33,2.39,0.65,3.2,0.97s1.51,0.8,2.07,1.44
			s0.85,1.51,0.85,2.61c0,0.91-0.24,1.74-0.73,2.48c-0.49,0.75-1.24,1.34-2.25,1.78s-2.26,0.66-3.73,0.66
			C32.12,249.22,30.83,249.01,29.61,248.58z"/>
		<path d="M45.94,248.31c-1.05-0.59-1.87-1.41-2.47-2.46c-0.6-1.05-0.9-2.23-0.9-3.55s0.3-2.5,0.9-3.55
			c0.6-1.05,1.42-1.86,2.47-2.45c1.05-0.58,2.22-0.88,3.53-0.88c1.3,0,2.48,0.29,3.53,0.88s1.87,1.4,2.46,2.45
			c0.59,1.05,0.89,2.23,0.89,3.55s-0.3,2.51-0.89,3.55c-0.59,1.05-1.41,1.87-2.46,2.46c-1.05,0.59-2.22,0.89-3.53,0.89
			C48.16,249.2,46.99,248.9,45.94,248.31z M52.05,246.92c0.76-0.44,1.36-1.06,1.79-1.87c0.43-0.81,0.64-1.72,0.64-2.75
			s-0.21-1.95-0.64-2.75s-1.03-1.43-1.79-1.87s-1.63-0.66-2.59-0.66s-1.82,0.22-2.59,0.66s-1.36,1.06-1.8,1.87
			c-0.44,0.81-0.66,1.72-0.66,2.75s0.22,1.95,0.66,2.75c0.44,0.81,1.04,1.43,1.8,1.87s1.63,0.66,2.59,0.66
			S51.29,247.36,52.05,246.92z"/>
		<path d="M60.07,229.97h1.83v19.1h-1.83V229.97z"/>
	</g>
	<g>
		<path d="M37.68,176.58c-1.23-0.43-2.17-0.99-2.84-1.7l0.75-1.47c0.65,0.65,1.52,1.18,2.6,1.58c1.08,0.4,2.2,0.6,3.35,0.6
			c1.61,0,2.82-0.3,3.63-0.89c0.81-0.59,1.21-1.36,1.21-2.3c0-0.72-0.22-1.3-0.66-1.72s-0.97-0.76-1.61-0.99
			c-0.64-0.23-1.52-0.48-2.65-0.76c-1.36-0.34-2.44-0.67-3.24-0.99c-0.81-0.32-1.5-0.8-2.07-1.45c-0.58-0.65-0.86-1.54-0.86-2.65
			c0-0.91,0.24-1.74,0.72-2.48s1.22-1.34,2.21-1.79c1-0.45,2.23-0.67,3.71-0.67c1.03,0,2.04,0.14,3.02,0.42s1.84,0.67,2.56,1.17
			l-0.64,1.52c-0.76-0.5-1.56-0.87-2.42-1.12c-0.86-0.25-1.7-0.37-2.52-0.37c-1.58,0-2.77,0.3-3.56,0.91
			c-0.8,0.61-1.2,1.39-1.2,2.36c0,0.72,0.22,1.3,0.66,1.74s0.99,0.77,1.65,1c0.66,0.23,1.55,0.48,2.66,0.76
			c1.32,0.33,2.39,0.65,3.21,0.97c0.81,0.32,1.51,0.8,2.07,1.44c0.57,0.64,0.85,1.51,0.85,2.61c0,0.91-0.24,1.74-0.73,2.48
			c-0.49,0.75-1.24,1.34-2.25,1.78c-1.01,0.44-2.26,0.66-3.73,0.66C40.19,177.22,38.9,177.01,37.68,176.58z"/>
		<path d="M51.98,160.18c-0.26-0.26-0.39-0.57-0.39-0.93c0-0.34,0.13-0.64,0.39-0.9s0.58-0.39,0.95-0.39c0.38,0,0.7,0.12,0.95,0.37
			c0.26,0.25,0.39,0.55,0.39,0.89c0,0.38-0.13,0.69-0.39,0.95c-0.26,0.26-0.58,0.39-0.95,0.39
			C52.55,160.57,52.23,160.44,51.98,160.18z M52,163.53h1.83v13.54H52V163.53z"/>
	</g>
	<g id="Mi_Cantino">
		<path d="M51.51,89.22v18.02h-2.02V92.83l-7.82,12.12h-1L32.86,92.9v14.34h-2.02V89.22h1.74l8.65,13.36l8.56-13.36H51.51z"/>
		<path d="M57.54,90.36c-0.28-0.26-0.43-0.57-0.43-0.93c0-0.34,0.14-0.64,0.43-0.9s0.63-0.39,1.05-0.39c0.42,0,0.77,0.13,1.05,0.37
			c0.29,0.25,0.43,0.54,0.43,0.89c0,0.38-0.14,0.69-0.43,0.95c-0.28,0.26-0.63,0.39-1.05,0.39C58.18,90.74,57.83,90.61,57.54,90.36z
			 M57.57,93.7h2.02v13.54h-2.02V93.7z"/>
	</g>
</g>
<g id="Nota_sullo_schema">
	<g>
		<path class="st4" d="M911.07,39.09l-7.68-10.8c-0.86,0.1-1.76,0.14-2.69,0.14h-9.02v10.66h-3.55V5.49h12.58
			c4.29,0,7.65,1.02,10.08,3.07s3.65,4.86,3.65,8.45c0,2.62-0.67,4.84-1.99,6.65c-1.33,1.81-3.22,3.11-5.69,3.91l8.21,11.52H911.07z
			 M908.24,23.2c1.76-1.47,2.64-3.54,2.64-6.19c0-2.72-0.88-4.81-2.64-6.26c-1.76-1.46-4.3-2.18-7.63-2.18h-8.93v16.85h8.93
			C903.93,25.41,906.48,24.67,908.24,23.2z"/>
		<path class="st4" d="M944.09,27.52h-21.12c0.19,2.62,1.2,4.74,3.02,6.36c1.82,1.62,4.13,2.42,6.91,2.42
			c1.57,0,3.01-0.28,4.32-0.84c1.31-0.56,2.45-1.38,3.41-2.47l1.92,2.21c-1.12,1.34-2.52,2.37-4.2,3.07
			c-1.68,0.7-3.53,1.06-5.54,1.06c-2.59,0-4.89-0.55-6.89-1.66s-3.56-2.63-4.68-4.58c-1.12-1.95-1.68-4.16-1.68-6.62
			c0-2.46,0.54-4.67,1.61-6.62c1.07-1.95,2.54-3.47,4.42-4.56c1.87-1.09,3.98-1.63,6.31-1.63c2.33,0,4.43,0.54,6.29,1.63
			c1.86,1.09,3.31,2.6,4.37,4.54c1.06,1.94,1.58,4.15,1.58,6.65L944.09,27.52z M925.78,18.9c-1.65,1.55-2.58,3.58-2.81,6.07h17.9
			c-0.22-2.5-1.16-4.52-2.81-6.07c-1.65-1.55-3.7-2.33-6.17-2.33C929.47,16.58,927.43,17.35,925.78,18.9z"/>
	</g>
	<g>
	</g>
	<g>
	</g>
	<g>
	</g>
	<g>
	</g>
	<g>
	</g>
	<g>
	</g>
	<g>
	</g>
	<g>
	</g>
	<g>
	</g>
	<g>
	</g>
	<g>
	</g>
	<g>
	</g>
	<g>
	</g>
	<g>
	</g>
	<g>
	</g>
</g>
</svg>
