<?xml version="1.0" encoding="utf-8"?>
<!-- Generator: Adobe Illustrator 23.0.1, SVG Export Plug-In . SVG Version: 6.00 Build 0)  -->
<svg version="1.1" xmlns="http://www.w3.org/2000/svg" xmlns:xlink="http://www.w3.org/1999/xlink" x="0px" y="0px"
	 viewBox="0 0 1391 1468" style="enable-background:new 0 0 1391 1468;" xml:space="preserve">
<style type="text/css">
	.st0{fill:none;stroke:#000000;stroke-width:6;stroke-miterlimit:10;}
	.st1{fill:none;stroke:#000000;stroke-width:4;stroke-miterlimit:10;}
	.st2{fill:none;stroke:#000000;stroke-width:3;stroke-miterlimit:10;}
	.st3{fill:none;stroke:#000000;stroke-width:2;stroke-miterlimit:10;}
	.st4{fill:none;stroke:#000000;stroke-miterlimit:10;}
	.st5{display:none;}
	.st6{display:inline;fill:#E55100;stroke:#E55100;stroke-width:4;stroke-miterlimit:10;}
	.st7{display:inline;}
	.st8{fill:#FFFFFF;}
	.st9{fill:#E55100;stroke:#E55100;stroke-width:4;stroke-miterlimit:10;}
</style>
<g id="CAPOTASTO">
	<g>
		<rect x="296.5" y="167.5" width="1003" height="22"/>
		<path d="M1299,168v21H297v-21H1299 M1300,167H296v23h1004V167L1300,167z"/>
	</g>
	<g>
		<line class="st0" x1="299" y1="189" x2="299" y2="1391"/>
	</g>
	<line class="st1" x1="499" y1="189" x2="499" y2="1391"/>
	<line class="st2" x1="699.5" y1="189" x2="699.5" y2="1392"/>
	<line class="st2" x1="898.5" y1="189" x2="898.5" y2="1392"/>
	<line class="st3" x1="1099.5" y1="189" x2="1100" y2="1391"/>
	<line class="st3" x1="1299" y1="189" x2="1307" y2="1391"/>
	<line class="st4" x1="299" y1="491" x2="1301.5" y2="490.5"/>
	<line class="st4" x1="298.5" y1="790.5" x2="1301" y2="790.5"/>
	<line class="st4" x1="298.5" y1="1090.5" x2="1306" y2="1090.5"/>
	<line class="st4" x1="298.5" y1="1390.5" x2="1308" y2="1391.5"/>
</g>
<g id="Scritte_Tasti">
	<g>
		<path d="M29.23,335.51v32.2h-3.31v-29.26h-7.59v-2.94H29.23z"/>
		<path d="M40.43,348.9c-1.12-0.64-2-1.53-2.65-2.65c-0.64-1.12-0.97-2.35-0.97-3.7c0-1.32,0.32-2.54,0.97-3.66
			c0.64-1.12,1.52-2,2.65-2.65c1.12-0.64,2.35-0.97,3.7-0.97c1.35,0,2.59,0.32,3.73,0.97c1.13,0.64,2.02,1.53,2.67,2.65
			c0.64,1.12,0.97,2.34,0.97,3.66c0,1.35-0.32,2.58-0.97,3.7c-0.64,1.12-1.53,2-2.67,2.65c-1.13,0.64-2.38,0.97-3.73,0.97
			C42.78,349.86,41.55,349.54,40.43,348.9z M47.93,346.39c1.03-1.03,1.54-2.31,1.54-3.84c0-1.5-0.51-2.77-1.54-3.79
			c-1.03-1.03-2.29-1.54-3.8-1.54s-2.76,0.51-3.77,1.54c-1.01,1.03-1.52,2.29-1.52,3.79c0,1.53,0.51,2.81,1.52,3.84
			c1.01,1.03,2.27,1.54,3.77,1.54S46.9,347.42,47.93,346.39z"/>
		<path d="M77.35,338.46H66.03v-2.94h26.04v2.94H80.75v29.26h-3.4V338.46z"/>
		<path d="M111.2,345.7c1.69,1.58,2.53,3.92,2.53,7.02v15h-3.13v-3.77c-0.74,1.26-1.82,2.24-3.24,2.94
			c-1.43,0.71-3.12,1.06-5.08,1.06c-2.7,0-4.85-0.64-6.44-1.93c-1.59-1.29-2.39-2.99-2.39-5.11c0-2.05,0.74-3.71,2.23-4.97
			c1.49-1.26,3.86-1.89,7.11-1.89h7.68v-1.47c0-2.09-0.58-3.67-1.75-4.76c-1.17-1.09-2.87-1.63-5.11-1.63
			c-1.53,0-3.01,0.25-4.42,0.76s-2.62,1.2-3.63,2.09l-1.47-2.44c1.23-1.04,2.7-1.85,4.42-2.42c1.72-0.57,3.53-0.85,5.43-0.85
			C107.09,343.33,109.51,344.12,111.2,345.7z M107.52,364.1c1.32-0.84,2.3-2.06,2.94-3.66v-3.96h-7.59c-4.14,0-6.21,1.44-6.21,4.32
			c0,1.41,0.54,2.52,1.61,3.33c1.07,0.81,2.58,1.22,4.51,1.22C104.62,365.37,106.2,364.94,107.52,364.1z"/>
		<path d="M123.46,367.09c-1.79-0.57-3.2-1.28-4.21-2.14l1.47-2.58c1.01,0.8,2.28,1.45,3.82,1.96c1.53,0.51,3.13,0.76,4.78,0.76
			c2.21,0,3.84-0.34,4.9-1.04c1.06-0.69,1.59-1.66,1.59-2.92c0-0.89-0.29-1.59-0.87-2.09s-1.32-0.89-2.21-1.15
			c-0.89-0.26-2.07-0.51-3.54-0.76c-1.96-0.37-3.54-0.74-4.74-1.13c-1.2-0.38-2.22-1.04-3.06-1.96c-0.84-0.92-1.27-2.19-1.27-3.82
			c0-2.02,0.84-3.68,2.53-4.97c1.69-1.29,4.03-1.93,7.04-1.93c1.56,0,3.13,0.21,4.69,0.62c1.56,0.41,2.85,0.96,3.86,1.63l-1.43,2.62
			c-1.99-1.38-4.37-2.07-7.13-2.07c-2.09,0-3.66,0.37-4.72,1.1c-1.06,0.74-1.59,1.7-1.59,2.9c0,0.92,0.3,1.66,0.9,2.21
			c0.6,0.55,1.34,0.96,2.23,1.22c0.89,0.26,2.12,0.53,3.68,0.81c1.93,0.37,3.48,0.74,4.65,1.1c1.17,0.37,2.16,1,2.99,1.89
			c0.83,0.89,1.24,2.12,1.24,3.68c0,2.12-0.88,3.79-2.65,5.04c-1.76,1.24-4.21,1.86-7.34,1.86
			C127.13,367.94,125.25,367.66,123.46,367.09z"/>
		<path d="M157.85,366.24c-0.61,0.55-1.37,0.97-2.28,1.27c-0.9,0.29-1.85,0.44-2.83,0.44c-2.27,0-4.02-0.61-5.24-1.84
			s-1.84-2.96-1.84-5.2v-14.63h-4.32v-2.76h4.32v-5.29h3.27v5.29h7.36v2.76h-7.36v14.44c0,1.44,0.36,2.54,1.08,3.29
			c0.72,0.75,1.75,1.13,3.1,1.13c0.67,0,1.33-0.11,1.96-0.32c0.63-0.21,1.17-0.52,1.63-0.92L157.85,366.24z"/>
		<path d="M166.49,366.35c-1.87-1.06-3.34-2.52-4.42-4.39c-1.07-1.87-1.61-3.99-1.61-6.35c0-2.36,0.54-4.48,1.61-6.35
			c1.07-1.87,2.54-3.33,4.42-4.37c1.87-1.04,3.97-1.56,6.3-1.56s4.43,0.52,6.3,1.56c1.87,1.04,3.33,2.5,4.39,4.37
			c1.06,1.87,1.59,3.99,1.59,6.35c0,2.36-0.53,4.48-1.59,6.35c-1.06,1.87-2.52,3.33-4.39,4.39c-1.87,1.06-3.97,1.59-6.3,1.59
			S168.36,367.41,166.49,366.35z M177.42,363.87c1.36-0.78,2.43-1.89,3.2-3.33c0.77-1.44,1.15-3.08,1.15-4.92
			c0-1.84-0.38-3.48-1.15-4.92c-0.77-1.44-1.83-2.55-3.2-3.33c-1.36-0.78-2.91-1.17-4.62-1.17c-1.72,0-3.26,0.39-4.62,1.17
			c-1.36,0.78-2.44,1.89-3.22,3.33c-0.78,1.44-1.17,3.08-1.17,4.92c0,1.84,0.39,3.48,1.17,4.92c0.78,1.44,1.85,2.55,3.22,3.33
			c1.36,0.78,2.91,1.17,4.62,1.17C174.51,365.04,176.05,364.65,177.42,363.87z"/>
	</g>
	<g>
		<path d="M42.29,663.56v2.94H19.7v-2.35l13.39-13.11c1.69-1.66,2.83-3.09,3.43-4.3c0.6-1.21,0.9-2.43,0.9-3.66
			c0-1.9-0.65-3.38-1.96-4.44c-1.3-1.06-3.17-1.59-5.59-1.59c-3.77,0-6.7,1.2-8.79,3.59l-2.35-2.02c1.26-1.47,2.86-2.61,4.81-3.4
			c1.95-0.8,4.15-1.2,6.6-1.2c3.28,0,5.88,0.77,7.8,2.32c1.92,1.55,2.88,3.67,2.88,6.37c0,1.66-0.37,3.25-1.1,4.78
			c-0.74,1.53-2.13,3.3-4.19,5.29l-10.95,10.76H42.29z"/>
		<path d="M49.95,647.69c-1.12-0.64-2-1.52-2.65-2.64c-0.64-1.12-0.97-2.35-0.97-3.7c0-1.32,0.32-2.54,0.97-3.66
			c0.64-1.12,1.52-2,2.65-2.64c1.12-0.64,2.35-0.97,3.7-0.97c1.35,0,2.59,0.32,3.73,0.97c1.13,0.64,2.02,1.53,2.67,2.64
			c0.64,1.12,0.97,2.34,0.97,3.66c0,1.35-0.32,2.58-0.97,3.7c-0.64,1.12-1.53,2-2.67,2.64c-1.13,0.64-2.38,0.97-3.73,0.97
			C52.3,648.65,51.07,648.33,49.95,647.69z M57.45,645.18c1.03-1.03,1.54-2.31,1.54-3.84c0-1.5-0.51-2.77-1.54-3.79
			c-1.03-1.03-2.29-1.54-3.8-1.54s-2.76,0.51-3.77,1.54c-1.01,1.03-1.52,2.29-1.52,3.79c0,1.53,0.51,2.81,1.52,3.84
			c1.01,1.03,2.27,1.54,3.77,1.54S56.42,646.21,57.45,645.18z"/>
		<path d="M86.86,637.25H75.55v-2.94h26.04v2.94H90.27v29.26h-3.4V637.25z"/>
		<path d="M120.72,644.49c1.69,1.58,2.53,3.92,2.53,7.01v15h-3.13v-3.77c-0.74,1.26-1.82,2.24-3.24,2.94
			c-1.43,0.71-3.12,1.06-5.08,1.06c-2.7,0-4.85-0.64-6.44-1.93c-1.59-1.29-2.39-2.99-2.39-5.11c0-2.05,0.74-3.71,2.23-4.97
			c1.49-1.26,3.86-1.89,7.11-1.89h7.68v-1.47c0-2.08-0.58-3.67-1.75-4.76s-2.87-1.63-5.11-1.63c-1.53,0-3.01,0.25-4.42,0.76
			c-1.41,0.51-2.62,1.2-3.63,2.09l-1.47-2.44c1.23-1.04,2.7-1.85,4.42-2.42c1.72-0.57,3.53-0.85,5.43-0.85
			C116.61,642.12,119.03,642.91,120.72,644.49z M117.04,662.89c1.32-0.84,2.3-2.06,2.94-3.66v-3.96h-7.59
			c-4.14,0-6.21,1.44-6.21,4.32c0,1.41,0.54,2.52,1.61,3.33c1.07,0.81,2.58,1.22,4.51,1.22
			C114.14,664.16,115.72,663.73,117.04,662.89z"/>
		<path d="M132.98,665.88c-1.79-0.57-3.2-1.28-4.21-2.14l1.47-2.58c1.01,0.8,2.28,1.45,3.82,1.96c1.53,0.51,3.13,0.76,4.78,0.76
			c2.21,0,3.84-0.34,4.9-1.04c1.06-0.69,1.59-1.66,1.59-2.92c0-0.89-0.29-1.59-0.87-2.09s-1.32-0.89-2.21-1.15
			c-0.89-0.26-2.07-0.51-3.54-0.76c-1.96-0.37-3.54-0.74-4.74-1.13c-1.2-0.38-2.22-1.04-3.06-1.96c-0.84-0.92-1.27-2.19-1.27-3.82
			c0-2.02,0.84-3.68,2.53-4.97c1.69-1.29,4.03-1.93,7.04-1.93c1.56,0,3.13,0.21,4.69,0.62s2.85,0.96,3.86,1.63l-1.43,2.62
			c-1.99-1.38-4.37-2.07-7.13-2.07c-2.09,0-3.66,0.37-4.72,1.1c-1.06,0.74-1.59,1.7-1.59,2.9c0,0.92,0.3,1.66,0.9,2.21
			c0.6,0.55,1.34,0.96,2.23,1.22c0.89,0.26,2.12,0.53,3.68,0.8c1.93,0.37,3.48,0.74,4.65,1.1c1.17,0.37,2.16,1,2.99,1.89
			c0.83,0.89,1.24,2.12,1.24,3.68c0,2.12-0.88,3.79-2.65,5.04c-1.76,1.24-4.21,1.86-7.34,1.86
			C136.65,666.73,134.77,666.45,132.98,665.88z"/>
		<path d="M167.36,665.03c-0.61,0.55-1.37,0.97-2.28,1.26c-0.9,0.29-1.85,0.44-2.83,0.44c-2.27,0-4.02-0.61-5.24-1.84
			c-1.23-1.23-1.84-2.96-1.84-5.2v-14.63h-4.32v-2.76h4.32v-5.29h3.27v5.29h7.36v2.76h-7.36v14.44c0,1.44,0.36,2.54,1.08,3.29
			c0.72,0.75,1.75,1.13,3.1,1.13c0.67,0,1.33-0.11,1.96-0.32c0.63-0.21,1.17-0.52,1.63-0.92L167.36,665.03z"/>
		<path d="M176.01,665.14c-1.87-1.06-3.34-2.52-4.42-4.39c-1.07-1.87-1.61-3.99-1.61-6.35s0.54-4.48,1.61-6.35
			c1.07-1.87,2.54-3.33,4.42-4.37c1.87-1.04,3.97-1.56,6.3-1.56s4.43,0.52,6.3,1.56c1.87,1.04,3.33,2.5,4.39,4.37
			c1.06,1.87,1.59,3.99,1.59,6.35s-0.53,4.48-1.59,6.35c-1.06,1.87-2.52,3.33-4.39,4.39c-1.87,1.06-3.97,1.59-6.3,1.59
			S177.88,666.2,176.01,665.14z M186.93,662.66c1.36-0.78,2.43-1.89,3.2-3.33c0.77-1.44,1.15-3.08,1.15-4.92
			c0-1.84-0.38-3.48-1.15-4.92c-0.77-1.44-1.83-2.55-3.2-3.34c-1.36-0.78-2.91-1.17-4.62-1.17c-1.72,0-3.26,0.39-4.62,1.17
			c-1.36,0.78-2.44,1.89-3.22,3.34c-0.78,1.44-1.17,3.08-1.17,4.92c0,1.84,0.39,3.48,1.17,4.92c0.78,1.44,1.85,2.55,3.22,3.33
			c1.36,0.78,2.91,1.17,4.62,1.17C184.03,663.83,185.57,663.44,186.93,662.66z"/>
	</g>
	<g>
		<path d="M39.13,952.82c1.76,1.64,2.65,3.78,2.65,6.42c0,1.84-0.44,3.47-1.33,4.9c-0.89,1.43-2.21,2.55-3.96,3.38
			s-3.88,1.24-6.39,1.24c-2.33,0-4.53-0.38-6.6-1.13c-2.07-0.75-3.73-1.76-4.99-3.01L20.1,962c1.07,1.1,2.5,2,4.28,2.69
			c1.78,0.69,3.68,1.04,5.7,1.04c2.64,0,4.68-0.58,6.12-1.73c1.44-1.15,2.16-2.74,2.16-4.76c0-1.99-0.72-3.56-2.16-4.69
			c-1.44-1.13-3.62-1.7-6.53-1.7h-2.3v-2.44l8.92-11.18H19.83v-2.94h20.7v2.35l-9.11,11.45C34.79,950.27,37.36,951.18,39.13,952.82z
			"/>
		<path d="M49.25,949.67c-1.12-0.64-2-1.52-2.65-2.64c-0.64-1.12-0.97-2.35-0.97-3.7c0-1.32,0.32-2.54,0.97-3.66
			c0.64-1.12,1.52-2,2.65-2.64c1.12-0.64,2.35-0.97,3.7-0.97c1.35,0,2.59,0.32,3.73,0.97c1.13,0.64,2.02,1.53,2.67,2.64
			c0.64,1.12,0.97,2.34,0.97,3.66c0,1.35-0.32,2.58-0.97,3.7c-0.64,1.12-1.53,2-2.67,2.64c-1.13,0.64-2.38,0.97-3.73,0.97
			C51.6,950.64,50.36,950.31,49.25,949.67z M56.74,947.16c1.03-1.03,1.54-2.31,1.54-3.84c0-1.5-0.51-2.77-1.54-3.79
			c-1.03-1.03-2.29-1.54-3.8-1.54s-2.76,0.51-3.77,1.54c-1.01,1.03-1.52,2.29-1.52,3.79c0,1.53,0.51,2.81,1.52,3.84
			c1.01,1.03,2.27,1.54,3.77,1.54S55.72,948.19,56.74,947.16z"/>
		<path d="M86.16,939.23H74.84v-2.94h26.04v2.94H89.56v29.26h-3.4V939.23z"/>
		<path d="M120.02,946.47c1.69,1.58,2.53,3.92,2.53,7.01v15h-3.13v-3.77c-0.74,1.26-1.82,2.24-3.24,2.94
			c-1.43,0.71-3.12,1.06-5.08,1.06c-2.7,0-4.85-0.64-6.44-1.93c-1.59-1.29-2.39-2.99-2.39-5.11c0-2.05,0.74-3.71,2.23-4.97
			c1.49-1.26,3.86-1.89,7.11-1.89h7.68v-1.47c0-2.08-0.58-3.67-1.75-4.76s-2.87-1.63-5.11-1.63c-1.53,0-3.01,0.25-4.42,0.76
			c-1.41,0.51-2.62,1.2-3.63,2.09l-1.47-2.44c1.23-1.04,2.7-1.85,4.42-2.42c1.72-0.57,3.53-0.85,5.43-0.85
			C115.91,944.1,118.33,944.89,120.02,946.47z M116.34,964.87c1.32-0.84,2.3-2.06,2.94-3.66v-3.96h-7.59
			c-4.14,0-6.21,1.44-6.21,4.32c0,1.41,0.54,2.52,1.61,3.33c1.07,0.81,2.58,1.22,4.51,1.22
			C113.44,966.14,115.02,965.72,116.34,964.87z"/>
		<path d="M132.27,967.86c-1.79-0.57-3.2-1.28-4.21-2.14l1.47-2.58c1.01,0.8,2.28,1.45,3.82,1.96c1.53,0.51,3.13,0.76,4.78,0.76
			c2.21,0,3.84-0.34,4.9-1.04c1.06-0.69,1.59-1.66,1.59-2.92c0-0.89-0.29-1.59-0.87-2.09s-1.32-0.89-2.21-1.15
			c-0.89-0.26-2.07-0.51-3.54-0.76c-1.96-0.37-3.54-0.74-4.74-1.13c-1.2-0.38-2.22-1.04-3.06-1.96c-0.84-0.92-1.27-2.19-1.27-3.82
			c0-2.02,0.84-3.68,2.53-4.97c1.69-1.29,4.03-1.93,7.04-1.93c1.56,0,3.13,0.21,4.69,0.62s2.85,0.96,3.86,1.63l-1.43,2.62
			c-1.99-1.38-4.37-2.07-7.13-2.07c-2.09,0-3.66,0.37-4.72,1.1c-1.06,0.74-1.59,1.7-1.59,2.9c0,0.92,0.3,1.66,0.9,2.21
			c0.6,0.55,1.34,0.96,2.23,1.22c0.89,0.26,2.12,0.53,3.68,0.8c1.93,0.37,3.48,0.74,4.65,1.1c1.17,0.37,2.16,1,2.99,1.89
			c0.83,0.89,1.24,2.12,1.24,3.68c0,2.12-0.88,3.79-2.65,5.04c-1.76,1.24-4.21,1.86-7.34,1.86
			C135.95,968.71,134.07,968.43,132.27,967.86z"/>
		<path d="M166.66,967.01c-0.61,0.55-1.37,0.97-2.28,1.26c-0.9,0.29-1.85,0.44-2.83,0.44c-2.27,0-4.02-0.61-5.24-1.84
			c-1.23-1.23-1.84-2.96-1.84-5.2v-14.63h-4.32v-2.76h4.32V939h3.27v5.29h7.36v2.76h-7.36v14.44c0,1.44,0.36,2.54,1.08,3.29
			c0.72,0.75,1.75,1.13,3.1,1.13c0.67,0,1.33-0.11,1.96-0.32c0.63-0.21,1.17-0.52,1.63-0.92L166.66,967.01z"/>
		<path d="M175.31,967.13c-1.87-1.06-3.34-2.52-4.42-4.39c-1.07-1.87-1.61-3.99-1.61-6.35s0.54-4.48,1.61-6.35
			c1.07-1.87,2.54-3.33,4.42-4.37c1.87-1.04,3.97-1.56,6.3-1.56s4.43,0.52,6.3,1.56c1.87,1.04,3.33,2.5,4.39,4.37
			c1.06,1.87,1.59,3.99,1.59,6.35s-0.53,4.48-1.59,6.35c-1.06,1.87-2.52,3.33-4.39,4.39c-1.87,1.06-3.97,1.59-6.3,1.59
			S177.18,968.19,175.31,967.13z M186.23,964.64c1.36-0.78,2.43-1.89,3.2-3.33c0.77-1.44,1.15-3.08,1.15-4.92
			c0-1.84-0.38-3.48-1.15-4.92c-0.77-1.44-1.83-2.55-3.2-3.34c-1.36-0.78-2.91-1.17-4.62-1.17c-1.72,0-3.26,0.39-4.62,1.17
			c-1.36,0.78-2.44,1.89-3.22,3.34c-0.78,1.44-1.17,3.08-1.17,4.92c0,1.84,0.39,3.48,1.17,4.92c0.78,1.44,1.85,2.55,3.22,3.33
			c1.36,0.78,2.91,1.17,4.62,1.17C183.33,965.82,184.87,965.43,186.23,964.64z"/>
	</g>
	<g>
		<path d="M47.84,1254H41.4v8.46h-3.31V1254H19.92v-2.39l17.07-21.34h3.68l-16.47,20.79h13.98v-7.45h3.22v7.45h6.44V1254z"/>
		<path d="M53.02,1243.65c-1.12-0.64-2-1.52-2.65-2.64c-0.64-1.12-0.97-2.35-0.97-3.7c0-1.32,0.32-2.54,0.97-3.66
			c0.64-1.12,1.52-2,2.65-2.64c1.12-0.64,2.35-0.97,3.7-0.97c1.35,0,2.59,0.32,3.73,0.97c1.13,0.64,2.02,1.53,2.67,2.64
			c0.64,1.12,0.97,2.34,0.97,3.66c0,1.35-0.32,2.58-0.97,3.7c-0.64,1.12-1.53,2-2.67,2.64c-1.13,0.64-2.38,0.97-3.73,0.97
			C55.37,1244.62,54.14,1244.29,53.02,1243.65z M60.52,1241.14c1.03-1.03,1.54-2.31,1.54-3.84c0-1.5-0.51-2.77-1.54-3.79
			c-1.03-1.03-2.29-1.54-3.8-1.54s-2.76,0.51-3.77,1.54c-1.01,1.03-1.52,2.29-1.52,3.79c0,1.53,0.51,2.81,1.52,3.84
			c1.01,1.03,2.27,1.54,3.77,1.54S59.49,1242.17,60.52,1241.14z"/>
		<path d="M89.93,1233.21H78.62v-2.94h26.04v2.94H93.34v29.26h-3.4V1233.21z"/>
		<path d="M123.79,1240.45c1.69,1.58,2.53,3.92,2.53,7.01v15h-3.13v-3.77c-0.74,1.26-1.82,2.24-3.24,2.94
			c-1.43,0.71-3.12,1.06-5.08,1.06c-2.7,0-4.85-0.64-6.44-1.93c-1.59-1.29-2.39-2.99-2.39-5.11c0-2.05,0.74-3.71,2.23-4.97
			c1.49-1.26,3.86-1.89,7.11-1.89h7.68v-1.47c0-2.08-0.58-3.67-1.75-4.76s-2.87-1.63-5.11-1.63c-1.53,0-3.01,0.25-4.42,0.76
			c-1.41,0.51-2.62,1.2-3.63,2.09l-1.47-2.44c1.23-1.04,2.7-1.85,4.42-2.42c1.72-0.57,3.53-0.85,5.43-0.85
			C119.68,1238.08,122.1,1238.87,123.79,1240.45z M120.11,1258.85c1.32-0.84,2.3-2.06,2.94-3.66v-3.96h-7.59
			c-4.14,0-6.21,1.44-6.21,4.32c0,1.41,0.54,2.52,1.61,3.33c1.07,0.81,2.58,1.22,4.51,1.22
			C117.21,1260.12,118.79,1259.7,120.11,1258.85z"/>
		<path d="M136.05,1261.84c-1.79-0.57-3.2-1.28-4.21-2.14l1.47-2.58c1.01,0.8,2.28,1.45,3.82,1.96c1.53,0.51,3.13,0.76,4.78,0.76
			c2.21,0,3.84-0.34,4.9-1.04c1.06-0.69,1.59-1.66,1.59-2.92c0-0.89-0.29-1.59-0.87-2.09s-1.32-0.89-2.21-1.15
			c-0.89-0.26-2.07-0.51-3.54-0.76c-1.96-0.37-3.54-0.74-4.74-1.13c-1.2-0.38-2.22-1.04-3.06-1.96c-0.84-0.92-1.27-2.19-1.27-3.82
			c0-2.02,0.84-3.68,2.53-4.97c1.69-1.29,4.03-1.93,7.04-1.93c1.56,0,3.13,0.21,4.69,0.62s2.85,0.96,3.86,1.63l-1.43,2.62
			c-1.99-1.38-4.37-2.07-7.13-2.07c-2.09,0-3.66,0.37-4.72,1.1c-1.06,0.74-1.59,1.7-1.59,2.9c0,0.92,0.3,1.66,0.9,2.21
			c0.6,0.55,1.34,0.96,2.23,1.22c0.89,0.26,2.12,0.53,3.68,0.8c1.93,0.37,3.48,0.74,4.65,1.1c1.17,0.37,2.16,1,2.99,1.89
			c0.83,0.89,1.24,2.12,1.24,3.68c0,2.12-0.88,3.79-2.65,5.04c-1.76,1.24-4.21,1.86-7.34,1.86
			C139.72,1262.69,137.84,1262.41,136.05,1261.84z"/>
		<path d="M170.43,1260.99c-0.61,0.55-1.37,0.97-2.28,1.26c-0.9,0.29-1.85,0.44-2.83,0.44c-2.27,0-4.02-0.61-5.24-1.84
			c-1.23-1.23-1.84-2.96-1.84-5.2v-14.63h-4.32v-2.76h4.32v-5.29h3.27v5.29h7.36v2.76h-7.36v14.44c0,1.44,0.36,2.54,1.08,3.29
			c0.72,0.75,1.75,1.13,3.1,1.13c0.67,0,1.33-0.11,1.96-0.32c0.63-0.21,1.17-0.52,1.63-0.92L170.43,1260.99z"/>
		<path d="M179.08,1261.11c-1.87-1.06-3.34-2.52-4.42-4.39c-1.07-1.87-1.61-3.99-1.61-6.35s0.54-4.48,1.61-6.35
			c1.07-1.87,2.54-3.33,4.42-4.37c1.87-1.04,3.97-1.56,6.3-1.56s4.43,0.52,6.3,1.56c1.87,1.04,3.33,2.5,4.39,4.37
			c1.06,1.87,1.59,3.99,1.59,6.35s-0.53,4.48-1.59,6.35c-1.06,1.87-2.52,3.33-4.39,4.39c-1.87,1.06-3.97,1.59-6.3,1.59
			S180.95,1262.17,179.08,1261.11z M190,1258.62c1.36-0.78,2.43-1.89,3.2-3.33c0.77-1.44,1.15-3.08,1.15-4.92
			c0-1.84-0.38-3.48-1.15-4.92c-0.77-1.44-1.83-2.55-3.2-3.34c-1.36-0.78-2.91-1.17-4.62-1.17c-1.72,0-3.26,0.39-4.62,1.17
			c-1.36,0.78-2.44,1.89-3.22,3.34c-0.78,1.44-1.17,3.08-1.17,4.92c0,1.84,0.39,3.48,1.17,4.92c0.78,1.44,1.85,2.55,3.22,3.33
			c1.36,0.78,2.91,1.17,4.62,1.17C187.1,1259.8,188.64,1259.41,190,1258.62z"/>
	</g>
</g>
<g id="Note">
	<g>
		<path d="M310.58,1407.5v45.5h-4.62v-36.4l-17.88,30.62h-2.27l-17.88-30.42V1453h-4.61v-45.5h3.96l19.76,33.74l19.57-33.74H310.58z
			"/>
		<path d="M324.36,1410.36c-0.65-0.65-0.98-1.43-0.98-2.34c0-0.87,0.33-1.63,0.98-2.27c0.65-0.65,1.45-0.98,2.4-0.98
			c0.95,0,1.75,0.32,2.41,0.94c0.65,0.63,0.97,1.38,0.97,2.24c0,0.95-0.32,1.75-0.97,2.41c-0.65,0.65-1.45,0.97-2.41,0.97
			C325.81,1411.33,325.01,1411.01,324.36,1410.36z M324.42,1418.81h4.61V1453h-4.61V1418.81z"/>
	</g>
	<g>
		<path d="M467.91,1407.5h4.81v41.34h25.48v4.16h-30.29V1407.5z"/>
		<path d="M527.58,1421.9c2.38,2.23,3.58,5.54,3.58,9.91V1453h-4.42v-5.33c-1.04,1.78-2.57,3.16-4.58,4.16
			c-2.01,1-4.41,1.5-7.18,1.5c-3.81,0-6.85-0.91-9.1-2.73c-2.25-1.82-3.38-4.22-3.38-7.21c0-2.9,1.05-5.24,3.15-7.02
			c2.1-1.78,5.45-2.67,10.04-2.67h10.85v-2.08c0-2.95-0.82-5.19-2.47-6.73c-1.65-1.54-4.05-2.31-7.21-2.31
			c-2.17,0-4.25,0.36-6.24,1.07c-1.99,0.71-3.71,1.7-5.14,2.96l-2.08-3.45c1.73-1.47,3.81-2.61,6.24-3.41
			c2.43-0.8,4.98-1.2,7.67-1.2C521.77,1418.55,525.2,1419.67,527.58,1421.9z M522.38,1447.9c1.86-1.19,3.25-2.91,4.16-5.17v-5.59
			h-10.73c-5.85,0-8.77,2.04-8.77,6.11c0,1.99,0.76,3.56,2.27,4.71c1.52,1.15,3.64,1.72,6.37,1.72
			C518.28,1449.68,520.52,1449.09,522.38,1447.9z"/>
	</g>
	<g>
		<path d="M695.01,1454l-10.4-14.63c-1.17,0.13-2.38,0.2-3.64,0.2h-12.22V1454h-4.81v-45.5h17.03c5.81,0,10.36,1.39,13.65,4.16
			c3.29,2.77,4.94,6.59,4.94,11.44c0,3.55-0.9,6.56-2.7,9c-1.8,2.45-4.37,4.21-7.7,5.3l11.12,15.6H695.01z M691.18,1432.49
			c2.38-1.99,3.58-4.79,3.58-8.39c0-3.68-1.19-6.51-3.58-8.48c-2.38-1.97-5.83-2.96-10.33-2.96h-12.09v22.81h12.09
			C685.35,1435.47,688.79,1434.48,691.18,1432.49z"/>
		<path d="M739.73,1438.33h-28.6c0.26,3.55,1.63,6.42,4.1,8.61c2.47,2.19,5.59,3.28,9.36,3.28c2.12,0,4.07-0.38,5.85-1.14
			c1.78-0.76,3.31-1.87,4.61-3.35l2.6,2.99c-1.52,1.82-3.41,3.21-5.69,4.16c-2.27,0.95-4.78,1.43-7.51,1.43
			c-3.51,0-6.62-0.75-9.33-2.24c-2.71-1.49-4.82-3.56-6.34-6.21c-1.52-2.64-2.27-5.63-2.27-8.97s0.73-6.33,2.18-8.97
			c1.45-2.64,3.44-4.7,5.98-6.17c2.54-1.47,5.38-2.21,8.55-2.21c3.16,0,6,0.74,8.52,2.21c2.51,1.47,4.48,3.52,5.92,6.14
			c1.43,2.62,2.15,5.62,2.15,9L739.73,1438.33z M714.94,1426.67c-2.23,2.1-3.5,4.84-3.8,8.22h24.25c-0.3-3.38-1.57-6.12-3.8-8.22
			c-2.23-2.1-5.02-3.15-8.35-3.15C719.93,1423.51,717.17,1424.57,714.94,1426.67z"/>
	</g>
	<g>
		<path d="M860,1450.89c-3.1-1.08-5.49-2.51-7.18-4.29l1.88-3.71c1.65,1.65,3.84,2.98,6.57,4c2.73,1.02,5.55,1.53,8.45,1.53
			c4.07,0,7.13-0.75,9.17-2.24c2.04-1.5,3.05-3.43,3.05-5.82c0-1.82-0.55-3.27-1.66-4.36c-1.11-1.08-2.46-1.92-4.06-2.5
			c-1.6-0.58-3.83-1.22-6.7-1.92c-3.42-0.87-6.15-1.7-8.19-2.5c-2.04-0.8-3.78-2.02-5.23-3.67c-1.45-1.65-2.18-3.88-2.18-6.7
			c0-2.3,0.61-4.39,1.82-6.27c1.21-1.88,3.08-3.39,5.59-4.52c2.51-1.13,5.63-1.69,9.36-1.69c2.6,0,5.15,0.36,7.64,1.07
			c2.49,0.71,4.65,1.7,6.47,2.96l-1.63,3.83c-1.91-1.26-3.94-2.2-6.11-2.83c-2.17-0.63-4.29-0.94-6.37-0.94
			c-3.99,0-6.99,0.77-9,2.31c-2.02,1.54-3.02,3.52-3.02,5.95c0,1.82,0.55,3.28,1.66,4.39c1.11,1.1,2.49,1.95,4.16,2.54
			c1.67,0.58,3.91,1.22,6.73,1.92c3.34,0.82,6.03,1.64,8.09,2.44c2.06,0.8,3.8,2.02,5.23,3.64s2.14,3.82,2.14,6.6
			c0,2.3-0.62,4.39-1.85,6.27c-1.24,1.89-3.13,3.38-5.69,4.49c-2.56,1.11-5.7,1.66-9.42,1.66
			C866.33,1452.52,863.09,1451.98,860,1450.89z"/>
		<path d="M901.24,1450.21c-2.64-1.49-4.72-3.56-6.24-6.21c-1.52-2.64-2.28-5.63-2.28-8.97s0.76-6.33,2.28-8.97
			c1.52-2.64,3.6-4.7,6.24-6.17c2.64-1.47,5.61-2.21,8.91-2.21c3.29,0,6.26,0.74,8.91,2.21c2.64,1.47,4.71,3.53,6.21,6.17
			c1.5,2.64,2.24,5.63,2.24,8.97s-0.75,6.33-2.24,8.97c-1.5,2.64-3.56,4.71-6.21,6.21c-2.64,1.5-5.61,2.24-8.91,2.24
			C906.85,1452.45,903.88,1451.71,901.24,1450.21z M916.68,1446.7c1.93-1.1,3.43-2.67,4.52-4.71c1.08-2.04,1.63-4.36,1.63-6.96
			c0-2.6-0.54-4.92-1.63-6.96c-1.08-2.04-2.59-3.61-4.52-4.71c-1.93-1.1-4.11-1.66-6.53-1.66c-2.43,0-4.61,0.55-6.53,1.66
			c-1.93,1.11-3.44,2.68-4.55,4.71c-1.11,2.04-1.66,4.35-1.66,6.96c0,2.6,0.55,4.92,1.66,6.96c1.1,2.04,2.62,3.61,4.55,4.71
			c1.93,1.11,4.11,1.66,6.53,1.66C912.57,1448.36,914.75,1447.81,916.68,1446.7z"/>
		<path d="M936.92,1403.9h4.62v48.23h-4.62V1403.9z"/>
	</g>
	<g>
		<path d="M1080.88,1451.32c-3.1-1.08-5.49-2.51-7.18-4.29l1.89-3.71c1.65,1.65,3.83,2.98,6.56,4c2.73,1.02,5.55,1.53,8.45,1.53
			c4.07,0,7.13-0.75,9.17-2.24c2.04-1.5,3.05-3.43,3.05-5.82c0-1.82-0.55-3.27-1.66-4.36c-1.11-1.08-2.46-1.92-4.06-2.5
			c-1.6-0.58-3.83-1.22-6.7-1.92c-3.42-0.87-6.15-1.7-8.19-2.5c-2.04-0.8-3.78-2.02-5.23-3.67c-1.45-1.65-2.18-3.88-2.18-6.7
			c0-2.3,0.61-4.39,1.82-6.27c1.21-1.88,3.08-3.39,5.59-4.52c2.51-1.13,5.63-1.69,9.36-1.69c2.6,0,5.15,0.36,7.64,1.07
			c2.49,0.71,4.65,1.7,6.47,2.96l-1.63,3.83c-1.91-1.26-3.94-2.2-6.11-2.83c-2.17-0.63-4.29-0.94-6.37-0.94
			c-3.99,0-6.99,0.77-9,2.31c-2.02,1.54-3.02,3.52-3.02,5.95c0,1.82,0.55,3.28,1.66,4.39c1.11,1.1,2.49,1.95,4.16,2.54
			c1.67,0.58,3.91,1.22,6.73,1.92c3.34,0.82,6.03,1.64,8.09,2.44c2.06,0.8,3.8,2.02,5.23,3.64c1.43,1.63,2.14,3.82,2.14,6.6
			c0,2.3-0.62,4.39-1.85,6.27c-1.24,1.89-3.13,3.38-5.69,4.49c-2.56,1.11-5.7,1.66-9.42,1.66
			C1087.22,1452.95,1083.98,1452.4,1080.88,1451.32z"/>
		<path d="M1116.99,1409.92c-0.65-0.65-0.98-1.43-0.98-2.34c0-0.87,0.33-1.63,0.98-2.27c0.65-0.65,1.45-0.98,2.41-0.98
			c0.95,0,1.75,0.32,2.4,0.94c0.65,0.63,0.98,1.38,0.98,2.24c0,0.95-0.33,1.75-0.98,2.41c-0.65,0.65-1.45,0.97-2.4,0.97
			C1118.44,1410.89,1117.64,1410.57,1116.99,1409.92z M1117.06,1418.37h4.62v34.19h-4.62V1418.37z"/>
	</g>
	<g>
		<path d="M1321.34,1407.04v45.5h-4.62v-36.4l-17.88,30.62h-2.27l-17.88-30.42v36.21h-4.62v-45.5h3.96l19.76,33.74l19.57-33.74
			H1321.34z"/>
		<path d="M1335.12,1409.91c-0.65-0.65-0.98-1.43-0.98-2.34c0-0.87,0.33-1.63,0.98-2.27c0.65-0.65,1.45-0.98,2.41-0.98
			c0.95,0,1.75,0.32,2.4,0.94c0.65,0.63,0.98,1.38,0.98,2.24c0,0.95-0.33,1.75-0.98,2.41c-0.65,0.65-1.45,0.97-2.4,0.97
			C1336.57,1410.88,1335.77,1410.55,1335.12,1409.91z M1335.19,1418.35h4.62v34.19h-4.62V1418.35z"/>
	</g>
</g>
<g id="Dito_4" class="st5">
	<circle class="st6" cx="899.5" cy="953.5" r="65.5"/>
	<g class="st7">
		<path class="st8" d="M921.44,960.73l-9.21,0.02l0.03,10.32l-6.71,0.02l-0.03-10.32l-26.92,0.07l-0.01-4.2l24.71-27.55l7.47-0.02
			l-23.67,26.58l18.62-0.05l-0.02-9.12l6.51-0.02l0.02,9.12l9.21-0.02L921.44,960.73z"/>
	</g>
</g>
<g id="Corda_vuoto" class="st5">
	<circle class="st6" cx="299.5" cy="85.5" r="65.5"/>
	<g class="st7">
		<path class="st8" d="M313.58,103.04L299,85.74l-14.28,17.38l-7.96,0.02l18.15-21.59l-17.15-20.41l7.89-0.02l13.61,16.1
			l13.38-16.18l7.54-0.02l-17.04,20.33l18.4,21.67L313.58,103.04z"/>
	</g>
</g>
<g id="Corda_vuoto_1_" class="st5">
	<circle class="st6" cx="498.5" cy="85.5" r="65.5"/>
	<g class="st7">
		<path class="st8" d="M512.58,103.04L498,85.74l-14.28,17.38l-7.96,0.02l18.15-21.59l-17.15-20.41l7.89-0.02l13.61,16.1
			l13.38-16.18l7.54-0.02l-17.04,20.33l18.4,21.67L512.58,103.04z"/>
	</g>
</g>
<g id="Capotasto_1" class="st5">
	<path class="st6" d="M302.5,286h1000c36.73,0,66.5,29.77,66.5,66.5v0c0,36.73-29.77,66.5-66.5,66.5h-1000
		c-36.73,0-66.5-29.77-66.5-66.5v0C236,315.77,265.77,286,302.5,286z"/>
	<g class="st7">
		<path class="st8" d="M796.57,338.04h-0.12l-6.78,3.66l-1.02-4.02l8.52-4.56h4.5v39h-5.1V338.04z"/>
	</g>
</g>
<g id="Dito_2">
	<g>
		<circle class="st9" cx="898.5" cy="653.17" r="65.5"/>
	</g>
	<g>
		<g>
			<path class="st8" d="M915.64,665.51l0.01,5.22l-34.81,0.09l-0.01-4.08l19.68-16.55c2.39-2.01,4-3.74,4.83-5.2
				c0.83-1.46,1.24-2.93,1.23-4.41c-0.01-2.2-0.9-3.91-2.68-5.12c-1.78-1.21-4.33-1.82-7.65-1.81c-5.35,0.01-9.48,1.55-12.38,4.59
				l-4.72-3.53c1.89-2,4.36-3.57,7.43-4.7c3.06-1.13,6.49-1.7,10.27-1.71c5.08-0.01,9.12,1.03,12.12,3.12s4.51,4.94,4.52,8.54
				c0.01,2.24-0.54,4.36-1.64,6.36c-1.1,2-3.2,4.29-6.28,6.86l-14.78,12.4L915.64,665.51z"/>
		</g>
	</g>
</g>
<g id="Dito_1">
	<g>
		<circle class="st9" cx="696.5" cy="653.17" r="65.5"/>
	</g>
	<g>
		<g>
			<path class="st8" d="M701.57,628.76l0.11,42l-6.85,0.02l-0.1-36.78l-10.94,0.03l-0.01-5.22L701.57,628.76z"/>
		</g>
	</g>
</g>
<g id="Dito_3">
	<circle class="st9" cx="1101.5" cy="653.17" r="65.5"/>
	<g>
		<path class="st8" d="M1116.04,650.19c2.5,2.13,3.75,4.86,3.76,8.18c0.01,2.4-0.68,4.57-2.06,6.51c-1.38,1.94-3.44,3.49-6.18,4.64
			s-6.1,1.73-10.07,1.74c-3.46,0.01-6.78-0.43-9.97-1.32c-3.19-0.89-5.8-2.13-7.83-3.73l3.17-4.75c1.67,1.36,3.79,2.44,6.38,3.25
			c2.59,0.81,5.33,1.22,8.24,1.21c3.6-0.01,6.4-0.68,8.4-2c2-1.33,3-3.15,3-5.47c-0.01-2.32-1-4.12-2.99-5.39
			c-1.99-1.27-4.99-1.91-9-1.9l-3.88,0.01l-0.01-4.2l12.15-12.99l-23.32,0.06l-0.01-5.22l31.97-0.08l0.01,4.08l-12.63,13.59
			C1109.91,646.8,1113.54,648.06,1116.04,650.19z"/>
	</g>
	<g>
	</g>
	<g>
	</g>
	<g>
	</g>
	<g>
	</g>
	<g>
	</g>
	<g>
	</g>
	<g>
	</g>
	<g>
	</g>
	<g>
	</g>
	<g>
	</g>
	<g>
	</g>
	<g>
	</g>
	<g>
	</g>
	<g>
	</g>
	<g>
	</g>
</g>
</svg>
