<?xml version="1.0" encoding="utf-8"?>
<!-- Generator: Adobe Illustrator 23.0.1, SVG Export Plug-In . SVG Version: 6.00 Build 0)  -->
<svg version="1.1" xmlns="http://www.w3.org/2000/svg" xmlns:xlink="http://www.w3.org/1999/xlink" x="0px" y="0px"
	 viewBox="0 0 1391 1468" style="enable-background:new 0 0 1391 1468;" xml:space="preserve">
<style type="text/css">
	.st0{fill:none;stroke:#000000;stroke-width:6;stroke-miterlimit:10;}
	.st1{fill:none;stroke:#000000;stroke-width:4;stroke-miterlimit:10;}
	.st2{fill:none;stroke:#000000;stroke-width:3;stroke-miterlimit:10;}
	.st3{fill:none;stroke:#000000;stroke-width:2;stroke-miterlimit:10;}
	.st4{fill:none;stroke:#000000;stroke-miterlimit:10;}
	.st5{fill:#E55100;stroke:#E55100;stroke-width:4;stroke-miterlimit:10;}
	.st6{fill:#FFFFFF;}
	.st7{display:none;}
	.st8{display:inline;fill:#E55100;stroke:#E55100;stroke-width:4;stroke-miterlimit:10;}
	.st9{display:inline;}
</style>
<g id="CAPOTASTO">
	<g>
		<rect x="296.5" y="167.5" width="1003" height="22"/>
		<path d="M1299,168v21H297v-21H1299 M1300,167H296v23h1004V167L1300,167z"/>
	</g>
	<g>
		<line class="st0" x1="299" y1="189" x2="299" y2="1391"/>
	</g>
	<line class="st1" x1="499" y1="189" x2="499" y2="1391"/>
	<line class="st2" x1="699.5" y1="189" x2="699.5" y2="1392"/>
	<line class="st2" x1="898.5" y1="189" x2="898.5" y2="1392"/>
	<line class="st3" x1="1099.5" y1="189" x2="1100" y2="1391"/>
	<line class="st3" x1="1299" y1="189" x2="1307" y2="1391"/>
	<line class="st4" x1="299" y1="491" x2="1301.5" y2="490.5"/>
	<line class="st4" x1="298.5" y1="790.5" x2="1301" y2="790.5"/>
	<line class="st4" x1="298.5" y1="1090.5" x2="1306" y2="1090.5"/>
	<line class="st4" x1="298.5" y1="1390.5" x2="1308" y2="1391.5"/>
</g>
<g id="Scritte_Tasti">
	<g>
		<path d="M39.28,349.63c1.64,0.8,2.92,1.92,3.84,3.38s1.38,3.15,1.38,5.08c0,1.96-0.48,3.7-1.43,5.2c-0.95,1.5-2.26,2.66-3.93,3.47
			c-1.67,0.81-3.55,1.22-5.63,1.22c-4.26,0-7.53-1.4-9.8-4.21c-2.27-2.81-3.4-6.77-3.4-11.89c0-3.59,0.61-6.62,1.84-9.11
			c1.23-2.48,2.94-4.36,5.15-5.63c2.21-1.27,4.78-1.91,7.73-1.91c3.19,0,5.73,0.58,7.64,1.75l-1.33,2.67
			c-1.53-1.01-3.62-1.52-6.26-1.52c-3.56,0-6.35,1.13-8.37,3.38c-2.02,2.25-3.04,5.53-3.04,9.82c0,0.77,0.05,1.64,0.14,2.62
			c0.8-1.75,2.07-3.1,3.82-4.07c1.75-0.97,3.76-1.45,6.03-1.45C35.76,348.44,37.64,348.84,39.28,349.63z M39.05,363.27
			c1.46-1.27,2.18-2.97,2.18-5.08s-0.73-3.8-2.18-5.06c-1.46-1.26-3.43-1.89-5.91-1.89c-1.63,0-3.06,0.31-4.3,0.92
			c-1.24,0.61-2.22,1.46-2.92,2.53c-0.71,1.07-1.06,2.27-1.06,3.59c0,1.23,0.33,2.36,0.99,3.4c0.66,1.04,1.63,1.89,2.92,2.53
			s2.82,0.97,4.6,0.97C35.7,365.18,37.6,364.55,39.05,363.27z"/>
		<path d="M50.87,348.9c-1.12-0.64-2-1.53-2.65-2.65c-0.64-1.12-0.97-2.35-0.97-3.7c0-1.32,0.32-2.54,0.97-3.66
			c0.64-1.12,1.52-2,2.65-2.65c1.12-0.64,2.35-0.97,3.7-0.97c1.35,0,2.59,0.32,3.73,0.97c1.13,0.64,2.02,1.53,2.67,2.65
			c0.64,1.12,0.97,2.34,0.97,3.66c0,1.35-0.32,2.58-0.97,3.7c-0.64,1.12-1.53,2-2.67,2.65c-1.13,0.64-2.38,0.97-3.73,0.97
			C53.23,349.86,51.99,349.54,50.87,348.9z M58.37,346.39c1.03-1.03,1.54-2.31,1.54-3.84c0-1.5-0.51-2.77-1.54-3.79
			c-1.03-1.03-2.29-1.54-3.8-1.54s-2.76,0.51-3.77,1.54c-1.01,1.03-1.52,2.29-1.52,3.79c0,1.53,0.51,2.81,1.52,3.84
			c1.01,1.03,2.27,1.54,3.77,1.54S57.34,347.42,58.37,346.39z"/>
		<path d="M87.79,338.46H76.47v-2.94h26.04v2.94H91.19v29.26h-3.4V338.46z"/>
		<path d="M121.64,345.7c1.69,1.58,2.53,3.92,2.53,7.02v15h-3.13v-3.77c-0.74,1.26-1.82,2.24-3.24,2.94
			c-1.43,0.71-3.12,1.06-5.08,1.06c-2.7,0-4.85-0.64-6.44-1.93c-1.59-1.29-2.39-2.99-2.39-5.11c0-2.05,0.74-3.71,2.23-4.97
			c1.49-1.26,3.86-1.89,7.11-1.89h7.68v-1.47c0-2.09-0.58-3.67-1.75-4.76c-1.17-1.09-2.87-1.63-5.11-1.63
			c-1.53,0-3.01,0.25-4.42,0.76s-2.62,1.2-3.63,2.09l-1.47-2.44c1.23-1.04,2.7-1.85,4.42-2.42c1.72-0.57,3.53-0.85,5.43-0.85
			C117.53,343.33,119.96,344.12,121.64,345.7z M117.96,364.1c1.32-0.84,2.3-2.06,2.94-3.66v-3.96h-7.59c-4.14,0-6.21,1.44-6.21,4.32
			c0,1.41,0.54,2.52,1.61,3.33c1.07,0.81,2.58,1.22,4.51,1.22C115.07,365.37,116.65,364.94,117.96,364.1z"/>
		<path d="M133.9,367.09c-1.79-0.57-3.2-1.28-4.21-2.14l1.47-2.58c1.01,0.8,2.28,1.45,3.82,1.96c1.53,0.51,3.13,0.76,4.78,0.76
			c2.21,0,3.84-0.34,4.9-1.04c1.06-0.69,1.59-1.66,1.59-2.92c0-0.89-0.29-1.59-0.87-2.09s-1.32-0.89-2.21-1.15
			c-0.89-0.26-2.07-0.51-3.54-0.76c-1.96-0.37-3.54-0.74-4.74-1.13c-1.2-0.38-2.22-1.04-3.06-1.96c-0.84-0.92-1.27-2.19-1.27-3.82
			c0-2.02,0.84-3.68,2.53-4.97c1.69-1.29,4.03-1.93,7.04-1.93c1.56,0,3.13,0.21,4.69,0.62c1.56,0.41,2.85,0.96,3.86,1.63l-1.43,2.62
			c-1.99-1.38-4.37-2.07-7.13-2.07c-2.09,0-3.66,0.37-4.72,1.1c-1.06,0.74-1.59,1.7-1.59,2.9c0,0.92,0.3,1.66,0.9,2.21
			c0.6,0.55,1.34,0.96,2.23,1.22c0.89,0.26,2.12,0.53,3.68,0.81c1.93,0.37,3.48,0.74,4.65,1.1c1.17,0.37,2.16,1,2.99,1.89
			c0.83,0.89,1.24,2.12,1.24,3.68c0,2.12-0.88,3.79-2.65,5.04c-1.76,1.24-4.21,1.86-7.34,1.86
			C137.58,367.94,135.7,367.66,133.9,367.09z"/>
		<path d="M168.29,366.24c-0.61,0.55-1.37,0.97-2.28,1.27c-0.9,0.29-1.85,0.44-2.83,0.44c-2.27,0-4.02-0.61-5.24-1.84
			s-1.84-2.96-1.84-5.2v-14.63h-4.32v-2.76h4.32v-5.29h3.27v5.29h7.36v2.76h-7.36v14.44c0,1.44,0.36,2.54,1.08,3.29
			c0.72,0.75,1.75,1.13,3.1,1.13c0.67,0,1.33-0.11,1.96-0.32c0.63-0.21,1.17-0.52,1.63-0.92L168.29,366.24z"/>
		<path d="M176.94,366.35c-1.87-1.06-3.34-2.52-4.42-4.39c-1.07-1.87-1.61-3.99-1.61-6.35c0-2.36,0.54-4.48,1.61-6.35
			c1.07-1.87,2.54-3.33,4.42-4.37c1.87-1.04,3.97-1.56,6.3-1.56s4.43,0.52,6.3,1.56c1.87,1.04,3.33,2.5,4.39,4.37
			c1.06,1.87,1.59,3.99,1.59,6.35c0,2.36-0.53,4.48-1.59,6.35c-1.06,1.87-2.52,3.33-4.39,4.39c-1.87,1.06-3.97,1.59-6.3,1.59
			S178.81,367.41,176.94,366.35z M187.86,363.87c1.36-0.78,2.43-1.89,3.2-3.33c0.77-1.44,1.15-3.08,1.15-4.92
			c0-1.84-0.38-3.48-1.15-4.92c-0.77-1.44-1.83-2.55-3.2-3.33c-1.36-0.78-2.91-1.17-4.62-1.17c-1.72,0-3.26,0.39-4.62,1.17
			c-1.36,0.78-2.44,1.89-3.22,3.33c-0.78,1.44-1.17,3.08-1.17,4.92c0,1.84,0.39,3.48,1.17,4.92c0.78,1.44,1.85,2.55,3.22,3.33
			c1.36,0.78,2.91,1.17,4.62,1.17C184.95,365.04,186.5,364.65,187.86,363.87z"/>
	</g>
	<g>
		<path d="M43.03,634.3v2.35L29.55,666.5h-3.59l13.25-29.26H22.65v6.03h-3.27v-8.97H43.03z"/>
		<path d="M51.1,647.69c-1.12-0.64-2-1.52-2.65-2.64c-0.64-1.12-0.97-2.35-0.97-3.7c0-1.32,0.32-2.54,0.97-3.66
			c0.64-1.12,1.52-2,2.65-2.64c1.12-0.64,2.35-0.97,3.7-0.97c1.35,0,2.59,0.32,3.73,0.97c1.13,0.64,2.02,1.53,2.67,2.64
			c0.64,1.12,0.97,2.34,0.97,3.66c0,1.35-0.32,2.58-0.97,3.7c-0.64,1.12-1.53,2-2.67,2.64c-1.13,0.64-2.38,0.97-3.73,0.97
			C53.45,648.65,52.22,648.33,51.1,647.69z M58.6,645.18c1.03-1.03,1.54-2.31,1.54-3.84c0-1.5-0.51-2.77-1.54-3.79
			c-1.03-1.03-2.29-1.54-3.8-1.54s-2.76,0.51-3.77,1.54c-1.01,1.03-1.52,2.29-1.52,3.79c0,1.53,0.51,2.81,1.52,3.84
			c1.01,1.03,2.27,1.54,3.77,1.54S57.57,646.21,58.6,645.18z"/>
		<path d="M88.01,637.25H76.7v-2.94h26.04v2.94H91.42v29.26h-3.4V637.25z"/>
		<path d="M121.87,644.49c1.69,1.58,2.53,3.92,2.53,7.01v15h-3.13v-3.77c-0.74,1.26-1.82,2.24-3.24,2.94
			c-1.43,0.71-3.12,1.06-5.08,1.06c-2.7,0-4.85-0.64-6.44-1.93c-1.59-1.29-2.39-2.99-2.39-5.11c0-2.05,0.74-3.71,2.23-4.97
			c1.49-1.26,3.86-1.89,7.11-1.89h7.68v-1.47c0-2.08-0.58-3.67-1.75-4.76s-2.87-1.63-5.11-1.63c-1.53,0-3.01,0.25-4.42,0.76
			c-1.41,0.51-2.62,1.2-3.63,2.09l-1.47-2.44c1.23-1.04,2.7-1.85,4.42-2.42c1.72-0.57,3.53-0.85,5.43-0.85
			C117.76,642.12,120.18,642.91,121.87,644.49z M118.19,662.89c1.32-0.84,2.3-2.06,2.94-3.66v-3.96h-7.59
			c-4.14,0-6.21,1.44-6.21,4.32c0,1.41,0.54,2.52,1.61,3.33c1.07,0.81,2.58,1.22,4.51,1.22
			C115.29,664.16,116.87,663.73,118.19,662.89z"/>
		<path d="M134.13,665.88c-1.79-0.57-3.2-1.28-4.21-2.14l1.47-2.58c1.01,0.8,2.28,1.45,3.82,1.96c1.53,0.51,3.13,0.76,4.78,0.76
			c2.21,0,3.84-0.34,4.9-1.04c1.06-0.69,1.59-1.66,1.59-2.92c0-0.89-0.29-1.59-0.87-2.09s-1.32-0.89-2.21-1.15
			c-0.89-0.26-2.07-0.51-3.54-0.76c-1.96-0.37-3.54-0.74-4.74-1.13c-1.2-0.38-2.22-1.04-3.06-1.96c-0.84-0.92-1.27-2.19-1.27-3.82
			c0-2.02,0.84-3.68,2.53-4.97c1.69-1.29,4.03-1.93,7.04-1.93c1.56,0,3.13,0.21,4.69,0.62s2.85,0.96,3.86,1.63l-1.43,2.62
			c-1.99-1.38-4.37-2.07-7.13-2.07c-2.09,0-3.66,0.37-4.72,1.1c-1.06,0.74-1.59,1.7-1.59,2.9c0,0.92,0.3,1.66,0.9,2.21
			c0.6,0.55,1.34,0.96,2.23,1.22c0.89,0.26,2.12,0.53,3.68,0.8c1.93,0.37,3.48,0.74,4.65,1.1c1.17,0.37,2.16,1,2.99,1.89
			c0.83,0.89,1.24,2.12,1.24,3.68c0,2.12-0.88,3.79-2.65,5.04c-1.76,1.24-4.21,1.86-7.34,1.86
			C137.8,666.73,135.92,666.45,134.13,665.88z"/>
		<path d="M168.51,665.03c-0.61,0.55-1.37,0.97-2.28,1.26c-0.9,0.29-1.85,0.44-2.83,0.44c-2.27,0-4.02-0.61-5.24-1.84
			c-1.23-1.23-1.84-2.96-1.84-5.2v-14.63H152v-2.76h4.32v-5.29h3.27v5.29h7.36v2.76h-7.36v14.44c0,1.44,0.36,2.54,1.08,3.29
			c0.72,0.75,1.75,1.13,3.1,1.13c0.67,0,1.33-0.11,1.96-0.32c0.63-0.21,1.17-0.52,1.63-0.92L168.51,665.03z"/>
		<path d="M177.16,665.14c-1.87-1.06-3.34-2.52-4.42-4.39c-1.07-1.87-1.61-3.99-1.61-6.35s0.54-4.48,1.61-6.35
			c1.07-1.87,2.54-3.33,4.42-4.37c1.87-1.04,3.97-1.56,6.3-1.56s4.43,0.52,6.3,1.56c1.87,1.04,3.33,2.5,4.39,4.37
			c1.06,1.87,1.59,3.99,1.59,6.35s-0.53,4.48-1.59,6.35c-1.06,1.87-2.52,3.33-4.39,4.39c-1.87,1.06-3.97,1.59-6.3,1.59
			S179.03,666.2,177.16,665.14z M188.08,662.66c1.36-0.78,2.43-1.89,3.2-3.33c0.77-1.44,1.15-3.08,1.15-4.92
			c0-1.84-0.38-3.48-1.15-4.92c-0.77-1.44-1.83-2.55-3.2-3.34c-1.36-0.78-2.91-1.17-4.62-1.17c-1.72,0-3.26,0.39-4.62,1.17
			c-1.36,0.78-2.44,1.89-3.22,3.34c-0.78,1.44-1.17,3.08-1.17,4.92c0,1.84,0.39,3.48,1.17,4.92c0.78,1.44,1.85,2.55,3.22,3.33
			c1.36,0.78,2.91,1.17,4.62,1.17C185.18,663.83,186.72,663.44,188.08,662.66z"/>
	</g>
	<g>
		<path d="M43.59,954.64c1.09,1.35,1.63,2.97,1.63,4.88c0,1.87-0.51,3.5-1.52,4.9c-1.01,1.4-2.46,2.47-4.35,3.22
			c-1.89,0.75-4.1,1.13-6.65,1.13c-3.86,0-6.9-0.83-9.11-2.48s-3.31-3.91-3.31-6.76c0-1.93,0.53-3.57,1.59-4.9s2.6-2.34,4.62-3.01
			c-1.66-0.64-2.91-1.57-3.77-2.78c-0.86-1.21-1.29-2.64-1.29-4.3c0-2.61,1.02-4.68,3.06-6.21c2.04-1.53,4.78-2.3,8.21-2.3
			c2.27,0,4.25,0.34,5.96,1.03c1.7,0.69,3.03,1.68,3.98,2.97c0.95,1.29,1.43,2.79,1.43,4.51c0,1.66-0.45,3.09-1.33,4.3
			c-0.89,1.21-2.16,2.14-3.82,2.78C40.94,952.28,42.5,953.29,43.59,954.64z M39.4,964.21c1.61-1.17,2.42-2.74,2.42-4.74
			s-0.8-3.57-2.42-4.72c-1.61-1.15-3.84-1.72-6.69-1.72c-2.82,0-5.04,0.58-6.65,1.72c-1.61,1.15-2.42,2.72-2.42,4.72
			c0,2.02,0.8,3.61,2.39,4.76c1.59,1.15,3.82,1.72,6.67,1.72S37.79,965.37,39.4,964.21z M26.87,948.84
			c1.41,1.04,3.36,1.56,5.84,1.56s4.44-0.52,5.87-1.56c1.43-1.04,2.14-2.44,2.14-4.19c0-1.81-0.73-3.24-2.19-4.28
			c-1.46-1.04-3.4-1.56-5.82-1.56c-2.45,0-4.39,0.52-5.82,1.56c-1.43,1.04-2.14,2.45-2.14,4.23
			C24.75,946.39,25.46,947.8,26.87,948.84z"/>
		<path d="M53.34,949.67c-1.12-0.64-2-1.52-2.65-2.64c-0.64-1.12-0.97-2.35-0.97-3.7c0-1.32,0.32-2.54,0.97-3.66
			c0.64-1.12,1.52-2,2.65-2.64c1.12-0.64,2.35-0.97,3.7-0.97c1.35,0,2.59,0.32,3.73,0.97c1.13,0.64,2.02,1.53,2.67,2.64
			c0.64,1.12,0.97,2.34,0.97,3.66c0,1.35-0.32,2.58-0.97,3.7c-0.64,1.12-1.53,2-2.67,2.64c-1.13,0.64-2.38,0.97-3.73,0.97
			C55.69,950.64,54.46,950.31,53.34,949.67z M60.84,947.16c1.03-1.03,1.54-2.31,1.54-3.84c0-1.5-0.51-2.77-1.54-3.79
			c-1.03-1.03-2.29-1.54-3.8-1.54s-2.76,0.51-3.77,1.54c-1.01,1.03-1.52,2.29-1.52,3.79c0,1.53,0.51,2.81,1.52,3.84
			c1.01,1.03,2.27,1.54,3.77,1.54S59.81,948.19,60.84,947.16z"/>
		<path d="M90.25,939.23H78.94v-2.94h26.04v2.94H93.66v29.26h-3.4V939.23z"/>
		<path d="M124.11,946.47c1.69,1.58,2.53,3.92,2.53,7.01v15h-3.13v-3.77c-0.74,1.26-1.82,2.24-3.24,2.94
			c-1.43,0.71-3.12,1.06-5.08,1.06c-2.7,0-4.85-0.64-6.44-1.93c-1.59-1.29-2.39-2.99-2.39-5.11c0-2.05,0.74-3.71,2.23-4.97
			c1.49-1.26,3.86-1.89,7.11-1.89h7.68v-1.47c0-2.08-0.58-3.67-1.75-4.76s-2.87-1.63-5.11-1.63c-1.53,0-3.01,0.25-4.42,0.76
			c-1.41,0.51-2.62,1.2-3.63,2.09l-1.47-2.44c1.23-1.04,2.7-1.85,4.42-2.42c1.72-0.57,3.53-0.85,5.43-0.85
			C120,944.1,122.42,944.89,124.11,946.47z M120.43,964.87c1.32-0.84,2.3-2.06,2.94-3.66v-3.96h-7.59c-4.14,0-6.21,1.44-6.21,4.32
			c0,1.41,0.54,2.52,1.61,3.33c1.07,0.81,2.58,1.22,4.51,1.22C117.53,966.14,119.11,965.72,120.43,964.87z"/>
		<path d="M136.37,967.86c-1.79-0.57-3.2-1.28-4.21-2.14l1.47-2.58c1.01,0.8,2.28,1.45,3.82,1.96c1.53,0.51,3.13,0.76,4.78,0.76
			c2.21,0,3.84-0.34,4.9-1.04c1.06-0.69,1.59-1.66,1.59-2.92c0-0.89-0.29-1.59-0.87-2.09s-1.32-0.89-2.21-1.15
			c-0.89-0.26-2.07-0.51-3.54-0.76c-1.96-0.37-3.54-0.74-4.74-1.13c-1.2-0.38-2.22-1.04-3.06-1.96c-0.84-0.92-1.27-2.19-1.27-3.82
			c0-2.02,0.84-3.68,2.53-4.97c1.69-1.29,4.03-1.93,7.04-1.93c1.56,0,3.13,0.21,4.69,0.62s2.85,0.96,3.86,1.63l-1.43,2.62
			c-1.99-1.38-4.37-2.07-7.13-2.07c-2.09,0-3.66,0.37-4.72,1.1c-1.06,0.74-1.59,1.7-1.59,2.9c0,0.92,0.3,1.66,0.9,2.21
			c0.6,0.55,1.34,0.96,2.23,1.22c0.89,0.26,2.12,0.53,3.68,0.8c1.93,0.37,3.48,0.74,4.65,1.1c1.17,0.37,2.16,1,2.99,1.89
			c0.83,0.89,1.24,2.12,1.24,3.68c0,2.12-0.88,3.79-2.65,5.04c-1.76,1.24-4.21,1.86-7.34,1.86
			C140.04,968.71,138.16,968.43,136.37,967.86z"/>
		<path d="M170.75,967.01c-0.61,0.55-1.37,0.97-2.28,1.26c-0.9,0.29-1.85,0.44-2.83,0.44c-2.27,0-4.02-0.61-5.24-1.84
			c-1.23-1.23-1.84-2.96-1.84-5.2v-14.63h-4.32v-2.76h4.32V939h3.27v5.29h7.36v2.76h-7.36v14.44c0,1.44,0.36,2.54,1.08,3.29
			c0.72,0.75,1.75,1.13,3.1,1.13c0.67,0,1.33-0.11,1.96-0.32c0.63-0.21,1.17-0.52,1.63-0.92L170.75,967.01z"/>
		<path d="M179.4,967.13c-1.87-1.06-3.34-2.52-4.42-4.39c-1.07-1.87-1.61-3.99-1.61-6.35s0.54-4.48,1.61-6.35
			c1.07-1.87,2.54-3.33,4.42-4.37c1.87-1.04,3.97-1.56,6.3-1.56s4.43,0.52,6.3,1.56c1.87,1.04,3.33,2.5,4.39,4.37
			c1.06,1.87,1.59,3.99,1.59,6.35s-0.53,4.48-1.59,6.35c-1.06,1.87-2.52,3.33-4.39,4.39c-1.87,1.06-3.97,1.59-6.3,1.59
			S181.27,968.19,179.4,967.13z M190.33,964.64c1.36-0.78,2.43-1.89,3.2-3.33c0.77-1.44,1.15-3.08,1.15-4.92
			c0-1.84-0.38-3.48-1.15-4.92c-0.77-1.44-1.83-2.55-3.2-3.34c-1.36-0.78-2.91-1.17-4.62-1.17c-1.72,0-3.26,0.39-4.62,1.17
			c-1.36,0.78-2.44,1.89-3.22,3.34c-0.78,1.44-1.17,3.08-1.17,4.92c0,1.84,0.39,3.48,1.17,4.92c0.78,1.44,1.85,2.55,3.22,3.33
			c1.36,0.78,2.91,1.17,4.62,1.17C187.42,965.82,188.96,965.43,190.33,964.64z"/>
	</g>
	<g>
		<path d="M40.3,1234.2c2.27,2.81,3.4,6.77,3.4,11.89c0,3.59-0.61,6.62-1.84,9.11c-1.23,2.48-2.94,4.36-5.15,5.63
			s-4.78,1.91-7.73,1.91c-3.19,0-5.73-0.58-7.64-1.75l1.33-2.67c1.53,1.01,3.62,1.52,6.26,1.52c3.56,0,6.35-1.13,8.37-3.38
			s3.04-5.53,3.04-9.82c0-0.8-0.05-1.67-0.14-2.62c-0.8,1.75-2.07,3.11-3.82,4.07s-3.76,1.45-6.03,1.45c-2.12,0-4-0.4-5.64-1.2
			c-1.64-0.8-2.92-1.92-3.84-3.38c-0.92-1.46-1.38-3.15-1.38-5.08c0-1.96,0.48-3.7,1.43-5.2c0.95-1.5,2.26-2.66,3.93-3.47
			c1.67-0.81,3.55-1.22,5.63-1.22C34.76,1229.99,38.03,1231.39,40.3,1234.2z M35.17,1245.81c1.24-0.61,2.22-1.46,2.92-2.53
			s1.06-2.27,1.06-3.59c0-1.23-0.33-2.36-0.99-3.4c-0.66-1.04-1.63-1.89-2.92-2.53c-1.29-0.64-2.82-0.97-4.6-0.97
			c-2.33,0-4.23,0.64-5.68,1.91c-1.46,1.27-2.19,2.97-2.19,5.08s0.73,3.8,2.19,5.06c1.46,1.26,3.43,1.89,5.91,1.89
			C32.49,1246.73,33.93,1246.43,35.17,1245.81z"/>
		<path d="M52.19,1243.65c-1.12-0.64-2-1.52-2.65-2.64c-0.64-1.12-0.97-2.35-0.97-3.7c0-1.32,0.32-2.54,0.97-3.66
			c0.64-1.12,1.52-2,2.65-2.64c1.12-0.64,2.35-0.97,3.7-0.97c1.35,0,2.59,0.32,3.73,0.97c1.13,0.64,2.02,1.53,2.67,2.64
			c0.64,1.12,0.97,2.34,0.97,3.66c0,1.35-0.32,2.58-0.97,3.7c-0.64,1.12-1.53,2-2.67,2.64c-1.13,0.64-2.38,0.97-3.73,0.97
			C54.54,1244.62,53.31,1244.29,52.19,1243.65z M59.69,1241.14c1.03-1.03,1.54-2.31,1.54-3.84c0-1.5-0.51-2.77-1.54-3.79
			c-1.03-1.03-2.29-1.54-3.8-1.54s-2.76,0.51-3.77,1.54c-1.01,1.03-1.52,2.29-1.52,3.79c0,1.53,0.51,2.81,1.52,3.84
			c1.01,1.03,2.27,1.54,3.77,1.54S58.66,1242.17,59.69,1241.14z"/>
		<path d="M89.1,1233.21H77.79v-2.94h26.04v2.94H92.51v29.26h-3.4V1233.21z"/>
		<path d="M122.96,1240.45c1.69,1.58,2.53,3.92,2.53,7.01v15h-3.13v-3.77c-0.74,1.26-1.82,2.24-3.24,2.94
			c-1.43,0.71-3.12,1.06-5.08,1.06c-2.7,0-4.85-0.64-6.44-1.93c-1.59-1.29-2.39-2.99-2.39-5.11c0-2.05,0.74-3.71,2.23-4.97
			c1.49-1.26,3.86-1.89,7.11-1.89h7.68v-1.47c0-2.08-0.58-3.67-1.75-4.76s-2.87-1.63-5.11-1.63c-1.53,0-3.01,0.25-4.42,0.76
			c-1.41,0.51-2.62,1.2-3.63,2.09l-1.47-2.44c1.23-1.04,2.7-1.85,4.42-2.42c1.72-0.57,3.53-0.85,5.43-0.85
			C118.85,1238.08,121.27,1238.87,122.96,1240.45z M119.28,1258.85c1.32-0.84,2.3-2.06,2.94-3.66v-3.96h-7.59
			c-4.14,0-6.21,1.44-6.21,4.32c0,1.41,0.54,2.52,1.61,3.33c1.07,0.81,2.58,1.22,4.51,1.22
			C116.38,1260.12,117.96,1259.7,119.28,1258.85z"/>
		<path d="M135.22,1261.84c-1.79-0.57-3.2-1.28-4.21-2.14l1.47-2.58c1.01,0.8,2.28,1.45,3.82,1.96c1.53,0.51,3.13,0.76,4.78,0.76
			c2.21,0,3.84-0.34,4.9-1.04c1.06-0.69,1.59-1.66,1.59-2.92c0-0.89-0.29-1.59-0.87-2.09s-1.32-0.89-2.21-1.15
			c-0.89-0.26-2.07-0.51-3.54-0.76c-1.96-0.37-3.54-0.74-4.74-1.13c-1.2-0.38-2.22-1.04-3.06-1.96c-0.84-0.92-1.27-2.19-1.27-3.82
			c0-2.02,0.84-3.68,2.53-4.97c1.69-1.29,4.03-1.93,7.04-1.93c1.56,0,3.13,0.21,4.69,0.62s2.85,0.96,3.86,1.63l-1.43,2.62
			c-1.99-1.38-4.37-2.07-7.13-2.07c-2.09,0-3.66,0.37-4.72,1.1c-1.06,0.74-1.59,1.7-1.59,2.9c0,0.92,0.3,1.66,0.9,2.21
			c0.6,0.55,1.34,0.96,2.23,1.22c0.89,0.26,2.12,0.53,3.68,0.8c1.93,0.37,3.48,0.74,4.65,1.1c1.17,0.37,2.16,1,2.99,1.89
			c0.83,0.89,1.24,2.12,1.24,3.68c0,2.12-0.88,3.79-2.65,5.04c-1.76,1.24-4.21,1.86-7.34,1.86
			C138.89,1262.69,137.01,1262.41,135.22,1261.84z"/>
		<path d="M169.6,1260.99c-0.61,0.55-1.37,0.97-2.28,1.26c-0.9,0.29-1.85,0.44-2.83,0.44c-2.27,0-4.02-0.61-5.24-1.84
			c-1.23-1.23-1.84-2.96-1.84-5.2v-14.63h-4.32v-2.76h4.32v-5.29h3.27v5.29h7.36v2.76h-7.36v14.44c0,1.44,0.36,2.54,1.08,3.29
			c0.72,0.75,1.75,1.13,3.1,1.13c0.67,0,1.33-0.11,1.96-0.32c0.63-0.21,1.17-0.52,1.63-0.92L169.6,1260.99z"/>
		<path d="M178.25,1261.11c-1.87-1.06-3.34-2.52-4.42-4.39c-1.07-1.87-1.61-3.99-1.61-6.35s0.54-4.48,1.61-6.35
			c1.07-1.87,2.54-3.33,4.42-4.37c1.87-1.04,3.97-1.56,6.3-1.56s4.43,0.52,6.3,1.56c1.87,1.04,3.33,2.5,4.39,4.37
			c1.06,1.87,1.59,3.99,1.59,6.35s-0.53,4.48-1.59,6.35c-1.06,1.87-2.52,3.33-4.39,4.39c-1.87,1.06-3.97,1.59-6.3,1.59
			S180.12,1262.17,178.25,1261.11z M189.18,1258.62c1.36-0.78,2.43-1.89,3.2-3.33c0.77-1.44,1.15-3.08,1.15-4.92
			c0-1.84-0.38-3.48-1.15-4.92c-0.77-1.44-1.83-2.55-3.2-3.34c-1.36-0.78-2.91-1.17-4.62-1.17c-1.72,0-3.26,0.39-4.62,1.17
			c-1.36,0.78-2.44,1.89-3.22,3.34c-0.78,1.44-1.17,3.08-1.17,4.92c0,1.84,0.39,3.48,1.17,4.92c0.78,1.44,1.85,2.55,3.22,3.33
			c1.36,0.78,2.91,1.17,4.62,1.17C186.27,1259.8,187.81,1259.41,189.18,1258.62z"/>
	</g>
</g>
<g id="Note">
	<g>
		<path d="M310.58,1407.5v45.5h-4.62v-36.4l-17.88,30.62h-2.27l-17.88-30.42V1453h-4.61v-45.5h3.96l19.76,33.74l19.57-33.74H310.58z
			"/>
		<path d="M324.36,1410.36c-0.65-0.65-0.98-1.43-0.98-2.34c0-0.87,0.33-1.63,0.98-2.27c0.65-0.65,1.45-0.98,2.4-0.98
			c0.95,0,1.75,0.32,2.41,0.94c0.65,0.63,0.97,1.38,0.97,2.24c0,0.95-0.32,1.75-0.97,2.41c-0.65,0.65-1.45,0.97-2.41,0.97
			C325.81,1411.33,325.01,1411.01,324.36,1410.36z M324.42,1418.81h4.61V1453h-4.61V1418.81z"/>
	</g>
	<g>
		<path d="M467.91,1407.5h4.81v41.34h25.48v4.16h-30.29V1407.5z"/>
		<path d="M527.58,1421.9c2.38,2.23,3.58,5.54,3.58,9.91V1453h-4.42v-5.33c-1.04,1.78-2.57,3.16-4.58,4.16
			c-2.01,1-4.41,1.5-7.18,1.5c-3.81,0-6.85-0.91-9.1-2.73c-2.25-1.82-3.38-4.22-3.38-7.21c0-2.9,1.05-5.24,3.15-7.02
			c2.1-1.78,5.45-2.67,10.04-2.67h10.85v-2.08c0-2.95-0.82-5.19-2.47-6.73c-1.65-1.54-4.05-2.31-7.21-2.31
			c-2.17,0-4.25,0.36-6.24,1.07c-1.99,0.71-3.71,1.7-5.14,2.96l-2.08-3.45c1.73-1.47,3.81-2.61,6.24-3.41
			c2.43-0.8,4.98-1.2,7.67-1.2C521.77,1418.55,525.2,1419.67,527.58,1421.9z M522.38,1447.9c1.86-1.19,3.25-2.91,4.16-5.17v-5.59
			h-10.73c-5.85,0-8.77,2.04-8.77,6.11c0,1.99,0.76,3.56,2.27,4.71c1.52,1.15,3.64,1.72,6.37,1.72
			C518.28,1449.68,520.52,1449.09,522.38,1447.9z"/>
	</g>
	<g>
		<path d="M695.01,1454l-10.4-14.63c-1.17,0.13-2.38,0.2-3.64,0.2h-12.22V1454h-4.81v-45.5h17.03c5.81,0,10.36,1.39,13.65,4.16
			c3.29,2.77,4.94,6.59,4.94,11.44c0,3.55-0.9,6.56-2.7,9c-1.8,2.45-4.37,4.21-7.7,5.3l11.12,15.6H695.01z M691.18,1432.49
			c2.38-1.99,3.58-4.79,3.58-8.39c0-3.68-1.19-6.51-3.58-8.48c-2.38-1.97-5.83-2.96-10.33-2.96h-12.09v22.81h12.09
			C685.35,1435.47,688.79,1434.48,691.18,1432.49z"/>
		<path d="M739.73,1438.33h-28.6c0.26,3.55,1.63,6.42,4.1,8.61c2.47,2.19,5.59,3.28,9.36,3.28c2.12,0,4.07-0.38,5.85-1.14
			c1.78-0.76,3.31-1.87,4.61-3.35l2.6,2.99c-1.52,1.82-3.41,3.21-5.69,4.16c-2.27,0.95-4.78,1.43-7.51,1.43
			c-3.51,0-6.62-0.75-9.33-2.24c-2.71-1.49-4.82-3.56-6.34-6.21c-1.52-2.64-2.27-5.63-2.27-8.97s0.73-6.33,2.18-8.97
			c1.45-2.64,3.44-4.7,5.98-6.17c2.54-1.47,5.38-2.21,8.55-2.21c3.16,0,6,0.74,8.52,2.21c2.51,1.47,4.48,3.52,5.92,6.14
			c1.43,2.62,2.15,5.62,2.15,9L739.73,1438.33z M714.94,1426.67c-2.23,2.1-3.5,4.84-3.8,8.22h24.25c-0.3-3.38-1.57-6.12-3.8-8.22
			c-2.23-2.1-5.02-3.15-8.35-3.15C719.93,1423.51,717.17,1424.57,714.94,1426.67z"/>
	</g>
	<g>
		<path d="M860,1450.89c-3.1-1.08-5.49-2.51-7.18-4.29l1.88-3.71c1.65,1.65,3.84,2.98,6.57,4c2.73,1.02,5.55,1.53,8.45,1.53
			c4.07,0,7.13-0.75,9.17-2.24c2.04-1.5,3.05-3.43,3.05-5.82c0-1.82-0.55-3.27-1.66-4.36c-1.11-1.08-2.46-1.92-4.06-2.5
			c-1.6-0.58-3.83-1.22-6.7-1.92c-3.42-0.87-6.15-1.7-8.19-2.5c-2.04-0.8-3.78-2.02-5.23-3.67c-1.45-1.65-2.18-3.88-2.18-6.7
			c0-2.3,0.61-4.39,1.82-6.27c1.21-1.88,3.08-3.39,5.59-4.52c2.51-1.13,5.63-1.69,9.36-1.69c2.6,0,5.15,0.36,7.64,1.07
			c2.49,0.71,4.65,1.7,6.47,2.96l-1.63,3.83c-1.91-1.26-3.94-2.2-6.11-2.83c-2.17-0.63-4.29-0.94-6.37-0.94
			c-3.99,0-6.99,0.77-9,2.31c-2.02,1.54-3.02,3.52-3.02,5.95c0,1.82,0.55,3.28,1.66,4.39c1.11,1.1,2.49,1.95,4.16,2.54
			c1.67,0.58,3.91,1.22,6.73,1.92c3.34,0.82,6.03,1.64,8.09,2.44c2.06,0.8,3.8,2.02,5.23,3.64s2.14,3.82,2.14,6.6
			c0,2.3-0.62,4.39-1.85,6.27c-1.24,1.89-3.13,3.38-5.69,4.49c-2.56,1.11-5.7,1.66-9.42,1.66
			C866.33,1452.52,863.09,1451.98,860,1450.89z"/>
		<path d="M901.24,1450.21c-2.64-1.49-4.72-3.56-6.24-6.21c-1.52-2.64-2.28-5.63-2.28-8.97s0.76-6.33,2.28-8.97
			c1.52-2.64,3.6-4.7,6.24-6.17c2.64-1.47,5.61-2.21,8.91-2.21c3.29,0,6.26,0.74,8.91,2.21c2.64,1.47,4.71,3.53,6.21,6.17
			c1.5,2.64,2.24,5.63,2.24,8.97s-0.75,6.33-2.24,8.97c-1.5,2.64-3.56,4.71-6.21,6.21c-2.64,1.5-5.61,2.24-8.91,2.24
			C906.85,1452.45,903.88,1451.71,901.24,1450.21z M916.68,1446.7c1.93-1.1,3.43-2.67,4.52-4.71c1.08-2.04,1.63-4.36,1.63-6.96
			c0-2.6-0.54-4.92-1.63-6.96c-1.08-2.04-2.59-3.61-4.52-4.71c-1.93-1.1-4.11-1.66-6.53-1.66c-2.43,0-4.61,0.55-6.53,1.66
			c-1.93,1.11-3.44,2.68-4.55,4.71c-1.11,2.04-1.66,4.35-1.66,6.96c0,2.6,0.55,4.92,1.66,6.96c1.1,2.04,2.62,3.61,4.55,4.71
			c1.93,1.11,4.11,1.66,6.53,1.66C912.57,1448.36,914.75,1447.81,916.68,1446.7z"/>
		<path d="M936.92,1403.9h4.62v48.23h-4.62V1403.9z"/>
	</g>
	<g>
		<path d="M1080.88,1451.32c-3.1-1.08-5.49-2.51-7.18-4.29l1.89-3.71c1.65,1.65,3.83,2.98,6.56,4c2.73,1.02,5.55,1.53,8.45,1.53
			c4.07,0,7.13-0.75,9.17-2.24c2.04-1.5,3.05-3.43,3.05-5.82c0-1.82-0.55-3.27-1.66-4.36c-1.11-1.08-2.46-1.92-4.06-2.5
			c-1.6-0.58-3.83-1.22-6.7-1.92c-3.42-0.87-6.15-1.7-8.19-2.5c-2.04-0.8-3.78-2.02-5.23-3.67c-1.45-1.65-2.18-3.88-2.18-6.7
			c0-2.3,0.61-4.39,1.82-6.27c1.21-1.88,3.08-3.39,5.59-4.52c2.51-1.13,5.63-1.69,9.36-1.69c2.6,0,5.15,0.36,7.64,1.07
			c2.49,0.71,4.65,1.7,6.47,2.96l-1.63,3.83c-1.91-1.26-3.94-2.2-6.11-2.83c-2.17-0.63-4.29-0.94-6.37-0.94
			c-3.99,0-6.99,0.77-9,2.31c-2.02,1.54-3.02,3.52-3.02,5.95c0,1.82,0.55,3.28,1.66,4.39c1.11,1.1,2.49,1.95,4.16,2.54
			c1.67,0.58,3.91,1.22,6.73,1.92c3.34,0.82,6.03,1.64,8.09,2.44c2.06,0.8,3.8,2.02,5.23,3.64c1.43,1.63,2.14,3.82,2.14,6.6
			c0,2.3-0.62,4.39-1.85,6.27c-1.24,1.89-3.13,3.38-5.69,4.49c-2.56,1.11-5.7,1.66-9.42,1.66
			C1087.22,1452.95,1083.98,1452.4,1080.88,1451.32z"/>
		<path d="M1116.99,1409.92c-0.65-0.65-0.98-1.43-0.98-2.34c0-0.87,0.33-1.63,0.98-2.27c0.65-0.65,1.45-0.98,2.41-0.98
			c0.95,0,1.75,0.32,2.4,0.94c0.65,0.63,0.98,1.38,0.98,2.24c0,0.95-0.33,1.75-0.98,2.41c-0.65,0.65-1.45,0.97-2.4,0.97
			C1118.44,1410.89,1117.64,1410.57,1116.99,1409.92z M1117.06,1418.37h4.62v34.19h-4.62V1418.37z"/>
	</g>
	<g>
		<path d="M1321.34,1407.04v45.5h-4.62v-36.4l-17.88,30.62h-2.27l-17.88-30.42v36.21h-4.62v-45.5h3.96l19.76,33.74l19.57-33.74
			H1321.34z"/>
		<path d="M1335.12,1409.91c-0.65-0.65-0.98-1.43-0.98-2.34c0-0.87,0.33-1.63,0.98-2.27c0.65-0.65,1.45-0.98,2.41-0.98
			c0.95,0,1.75,0.32,2.4,0.94c0.65,0.63,0.98,1.38,0.98,2.24c0,0.95-0.33,1.75-0.98,2.41c-0.65,0.65-1.45,0.97-2.4,0.97
			C1336.57,1410.88,1335.77,1410.55,1335.12,1409.91z M1335.19,1418.35h4.62v34.19h-4.62V1418.35z"/>
	</g>
</g>
<g id="Dito_4">
	<circle class="st5" cx="1099.5" cy="953.5" r="65.5"/>
	<g>
		<path class="st6" d="M1121.44,960.73l-9.21,0.02l0.03,10.32l-6.71,0.02l-0.03-10.32l-26.92,0.07l-0.01-4.2l24.71-27.55l7.47-0.02
			l-23.67,26.58l18.62-0.05l-0.02-9.12l6.51-0.02l0.02,9.12l9.21-0.02L1121.44,960.73z"/>
	</g>
</g>
<g id="Corda_vuoto" class="st7">
	<circle class="st8" cx="299.5" cy="85.5" r="65.5"/>
	<g class="st9">
		<path class="st6" d="M313.58,103.04L299,85.74l-14.28,17.38l-7.96,0.02l18.15-21.59l-17.15-20.41l7.89-0.02l13.61,16.1
			l13.38-16.18l7.54-0.02l-17.04,20.33l18.4,21.67L313.58,103.04z"/>
	</g>
</g>
<g id="Corda_vuoto_1_" class="st7">
	<circle class="st8" cx="498.5" cy="85.5" r="65.5"/>
	<g class="st9">
		<path class="st6" d="M512.58,103.04L498,85.74l-14.28,17.38l-7.96,0.02l18.15-21.59l-17.15-20.41l7.89-0.02l13.61,16.1
			l13.38-16.18l7.54-0.02l-17.04,20.33l18.4,21.67L512.58,103.04z"/>
	</g>
</g>
<g id="Capotasto_1">
	<path class="st5" d="M302.5,286h1000c36.73,0,66.5,29.77,66.5,66.5v0c0,36.73-29.77,66.5-66.5,66.5h-1000
		c-36.73,0-66.5-29.77-66.5-66.5v0C236,315.77,265.77,286,302.5,286z"/>
	<g>
		<path class="st6" d="M796.57,338.04h-0.12l-6.78,3.66l-1.02-4.02l8.52-4.56h4.5v39h-5.1V338.04z"/>
	</g>
</g>
<g id="Dito_2">
	<g>
		<circle class="st5" cx="699.5" cy="953.5" r="65.5"/>
	</g>
	<g>
		<g>
			<path class="st6" d="M716.64,965.84l0.01,5.22l-34.81,0.09l-0.01-4.08l19.68-16.55c2.39-2.01,4-3.74,4.83-5.2
				s1.24-2.93,1.23-4.41c-0.01-2.2-0.9-3.91-2.68-5.12c-1.78-1.21-4.33-1.82-7.65-1.81c-5.35,0.01-9.48,1.55-12.38,4.59l-4.72-3.53
				c1.89-2,4.36-3.57,7.43-4.7c3.06-1.13,6.49-1.7,10.27-1.71c5.08-0.01,9.11,1.03,12.12,3.12c3,2.09,4.51,4.94,4.52,8.54
				c0.01,2.24-0.54,4.36-1.64,6.36c-1.1,2-3.2,4.29-6.28,6.86l-14.78,12.4L716.64,965.84z"/>
		</g>
	</g>
</g>
<g id="Dito_1" class="st7">
	<g class="st9">
		<circle class="st5" cx="1300.5" cy="350.5" r="65.5"/>
	</g>
	<g class="st9">
		<g>
			<path class="st6" d="M1305.57,326.1l0.11,42l-6.85,0.02l-0.1-36.78l-10.94,0.03l-0.01-5.22L1305.57,326.1z"/>
		</g>
	</g>
</g>
<g id="Dito_3">
	<circle class="st5" cx="898.5" cy="953.5" r="65.5"/>
	<g>
		<path class="st6" d="M913.04,950.53c2.5,2.13,3.75,4.86,3.76,8.18c0.01,2.4-0.68,4.57-2.06,6.52c-1.38,1.94-3.44,3.49-6.18,4.64
			c-2.74,1.15-6.1,1.73-10.07,1.74c-3.46,0.01-6.78-0.43-9.97-1.32c-3.19-0.89-5.8-2.13-7.83-3.73l3.17-4.75
			c1.67,1.36,3.79,2.44,6.38,3.25c2.59,0.81,5.33,1.22,8.24,1.21c3.6-0.01,6.4-0.68,8.4-2c2-1.33,3-3.15,3-5.47
			c-0.01-2.32-1-4.12-2.99-5.39c-1.99-1.27-4.99-1.91-9-1.9l-3.88,0.01l-0.01-4.2l12.15-12.99l-23.32,0.06l-0.01-5.22l31.97-0.08
			l0.01,4.08l-12.63,13.59C906.91,947.13,910.54,948.39,913.04,950.53z"/>
	</g>
	<g>
	</g>
	<g>
	</g>
	<g>
	</g>
	<g>
	</g>
	<g>
	</g>
	<g>
	</g>
	<g>
	</g>
	<g>
	</g>
	<g>
	</g>
	<g>
	</g>
	<g>
	</g>
	<g>
	</g>
	<g>
	</g>
	<g>
	</g>
	<g>
	</g>
</g>
</svg>
