<?xml version="1.0" encoding="utf-8"?>
<!-- Generator: Adobe Illustrator 23.0.1, SVG Export Plug-In . SVG Version: 6.00 Build 0)  -->
<svg version="1.1" xmlns="http://www.w3.org/2000/svg" xmlns:xlink="http://www.w3.org/1999/xlink" x="0px" y="0px"
	 viewBox="0 0 1391 1468" style="enable-background:new 0 0 1391 1468;" xml:space="preserve">
<style type="text/css">
	.st0{fill:none;stroke:#000000;stroke-width:6;stroke-miterlimit:10;}
	.st1{fill:none;stroke:#000000;stroke-width:4;stroke-miterlimit:10;}
	.st2{fill:none;stroke:#000000;stroke-width:3;stroke-miterlimit:10;}
	.st3{fill:none;stroke:#000000;stroke-width:2;stroke-miterlimit:10;}
	.st4{fill:none;stroke:#000000;stroke-miterlimit:10;}
	.st5{font-family:'Montserrat-Regular';}
	.st6{font-size:46px;}
	.st7{font-size:65px;}
	.st8{display:none;}
	.st9{display:inline;fill:#E55100;stroke:#E55100;stroke-width:4;stroke-miterlimit:10;}
	.st10{display:inline;fill:#FFFFFF;}
	.st11{font-family:'Montserrat-Medium';}
	.st12{font-size:60px;}
	.st13{font-family:'MyriadPro-Regular';}
	.st14{fill:#E55100;stroke:#E55100;stroke-width:4;stroke-miterlimit:10;}
	.st15{fill:#FFFFFF;}
</style>
<g id="CAPOTASTO">
	<g>
		<rect x="296.5" y="167.5" width="1003" height="22"/>
		<path d="M1299,168v21H297v-21H1299 M1300,167H296v23h1004V167L1300,167z"/>
	</g>
	<g>
		<line class="st0" x1="299" y1="189" x2="299" y2="1391"/>
	</g>
	<line class="st1" x1="499" y1="189" x2="499" y2="1391"/>
	<line class="st2" x1="699.5" y1="189" x2="699.5" y2="1392"/>
	<line class="st2" x1="898.5" y1="189" x2="898.5" y2="1392"/>
	<line class="st3" x1="1099.5" y1="189" x2="1100" y2="1391"/>
	<line class="st3" x1="1299" y1="189" x2="1307" y2="1391"/>
	<line class="st4" x1="299" y1="491" x2="1301.5" y2="490.5"/>
	<line class="st4" x1="298.5" y1="790.5" x2="1301" y2="790.5"/>
	<line class="st4" x1="298.5" y1="1090.5" x2="1306" y2="1090.5"/>
	<line class="st4" x1="298.5" y1="1390.5" x2="1308" y2="1391.5"/>
</g>
<g id="Scritte_Tasti">
	<text transform="matrix(1 0 0 1 17.915 367.7114)" class="st5 st6">1째 Tasto</text>
	<text transform="matrix(1 0 0 1 17.9092 666.502)" class="st5 st6">2째 Tasto</text>
	<text transform="matrix(1 0 0 1 18.0806 968.4844)" class="st5 st6">3째 Tasto</text>
	<text transform="matrix(1 0 0 1 18.0806 1262.4639)" class="st5 st6">4째 Tasto</text>
</g>
<g id="Note">
	<text transform="matrix(1 0 0 1 255.9136 1453)" class="st5 st7">Mi</text>
	<text transform="matrix(1 0 0 1 460.5654 1453)" class="st5 st7">La</text>
	<text transform="matrix(1 0 0 1 656.5332 1454)" class="st5 st7">Re</text>
	<text transform="matrix(1 0 0 1 849.7598 1452.1279)" class="st5 st7">Sol</text>
	<text transform="matrix(1 0 0 1 1070.6465 1452.5557)" class="st5 st7">Si</text>
	<text transform="matrix(1 0 0 1 1266.6768 1452.5449)" class="st5 st7">Mi</text>
</g>
<g id="Dito_4" class="st8">
	<circle class="st9" cx="700.5" cy="954.5" r="65.5"/>
	<text transform="matrix(1.1535 -3.056775e-03 2.650000e-03 1 676.9969 972.1427)" class="st10 st11 st12">4</text>
</g>
<g id="Corda_vuoto" class="st8">
	<circle class="st9" cx="299.5" cy="85.5" r="65.5"/>
	<text transform="matrix(1.1535 -3.056775e-03 2.650000e-03 1 275.8588 103.1431)" class="st10 st11 st12">X</text>
</g>
<g id="Capotasto_1" class="st8">
	<path class="st9" d="M302.5,286h1000c36.7,0,66.5,29.8,66.5,66.5v0c0,36.7-29.8,66.5-66.5,66.5h-1000c-36.7,0-66.5-29.8-66.5-66.5
		v0C236,315.8,265.8,286,302.5,286z"/>
	<text transform="matrix(1 0 0 1 782.415 372.1162)" class="st10 st13 st12">1</text>
</g>
<g id="Dito_2">
	<g>
		<circle class="st14" cx="299.5" cy="954.7" r="65.5"/>
	</g>
	<g>
		<text transform="matrix(1.1535 -3.056775e-03 2.650000e-03 1 279.2845 972.3983)" class="st15 st11 st12">2</text>
	</g>
</g>
<g id="Dito_1">
	<g>
		<circle class="st14" cx="498.5" cy="653.5" r="65.5"/>
	</g>
	<g>
		<text transform="matrix(1.1535 -3.056775e-03 2.650000e-03 1 479.3534 671.1339)" class="st15 st11 st12">3</text>
	</g>
</g>
<g id="Dito_3">
	<circle class="st14" cx="1304.5" cy="954.7" r="65.5"/>
	<text transform="matrix(1.1535 -3.056775e-03 2.650000e-03 1 1282.9969 972.4065)" class="st15 st11 st12">4</text>
</g>
</svg>
