<?xml version="1.0" encoding="utf-8"?>
<!-- Generator: Adobe Illustrator 23.0.1, SVG Export Plug-In . SVG Version: 6.00 Build 0)  -->
<svg version="1.1" xmlns="http://www.w3.org/2000/svg" xmlns:xlink="http://www.w3.org/1999/xlink" x="0px" y="0px"
	 viewBox="0 0 1149 153" style="enable-background:new 0 0 1149 153;" xml:space="preserve">
<style type="text/css">
	.st0{display:none;}
	.st1{display:inline;}
	.st2{fill:none;stroke:#000000;stroke-width:6;stroke-miterlimit:10;}
	.st3{display:inline;fill:none;stroke:#000000;stroke-width:4;stroke-miterlimit:10;}
	.st4{display:inline;fill:none;stroke:#000000;stroke-width:3;stroke-miterlimit:10;}
	.st5{display:inline;fill:none;stroke:#000000;stroke-width:2;stroke-miterlimit:10;}
	.st6{display:inline;fill:none;stroke:#000000;stroke-miterlimit:10;}
	.st7{display:inline;fill:#E55100;stroke:#E55100;stroke-width:4;stroke-miterlimit:10;}
	.st8{fill:#FFFFFF;}
	.st9{fill:#E55100;stroke:#E55100;stroke-width:4;stroke-miterlimit:10;}
</style>
<g id="CAPOTASTO" class="st0">
	<g class="st1">
		<rect x="68.5" y="-109.5" width="1003" height="22"/>
		<path d="M1071-109v21H69v-21H1071 M1072-110H68v23h1004V-110L1072-110z"/>
	</g>
	<g class="st1">
		<line class="st2" x1="71" y1="-88" x2="71" y2="1114"/>
	</g>
	<line class="st3" x1="271" y1="-88" x2="271" y2="1114"/>
	<line class="st4" x1="471.5" y1="-88" x2="471.5" y2="1115"/>
	<line class="st4" x1="670.5" y1="-88" x2="670.5" y2="1115"/>
	<line class="st5" x1="871.5" y1="-88" x2="872" y2="1114"/>
	<line class="st5" x1="1071" y1="-88" x2="1079" y2="1114"/>
	<line class="st6" x1="71" y1="214" x2="1073.5" y2="213.5"/>
	<line class="st6" x1="70.5" y1="513.5" x2="1073" y2="513.5"/>
	<line class="st6" x1="70.5" y1="813.5" x2="1078" y2="813.5"/>
	<line class="st6" x1="70.5" y1="1113.5" x2="1080" y2="1114.5"/>
</g>
<g id="Scritte_Tasti" class="st0">
	<g class="st1">
		<path d="M-190.99,87.77v2.94h-22.59v-2.35l13.39-13.11c1.69-1.66,2.83-3.09,3.43-4.3c0.6-1.21,0.9-2.43,0.9-3.66
			c0-1.9-0.65-3.38-1.96-4.44c-1.3-1.06-3.17-1.59-5.59-1.59c-3.77,0-6.7,1.2-8.79,3.59l-2.35-2.02c1.26-1.47,2.86-2.61,4.81-3.4
			c1.95-0.8,4.15-1.2,6.6-1.2c3.28,0,5.88,0.77,7.8,2.32c1.92,1.55,2.88,3.67,2.88,6.37c0,1.66-0.37,3.25-1.1,4.78
			c-0.74,1.53-2.13,3.3-4.19,5.29l-10.95,10.76H-190.99z"/>
		<path d="M-183.33,71.9c-1.12-0.64-2-1.53-2.65-2.65c-0.64-1.12-0.97-2.35-0.97-3.7c0-1.32,0.32-2.54,0.97-3.66
			c0.64-1.12,1.53-2,2.65-2.65c1.12-0.64,2.35-0.97,3.7-0.97s2.59,0.32,3.73,0.97c1.13,0.64,2.02,1.53,2.67,2.65
			c0.64,1.12,0.97,2.34,0.97,3.66c0,1.35-0.32,2.58-0.97,3.7c-0.64,1.12-1.53,2-2.67,2.65c-1.13,0.64-2.38,0.97-3.73,0.97
			S-182.22,72.54-183.33,71.9z M-175.84,69.39c1.03-1.03,1.54-2.31,1.54-3.84c0-1.5-0.51-2.77-1.54-3.79
			c-1.03-1.03-2.29-1.54-3.8-1.54c-1.5,0-2.76,0.51-3.77,1.54c-1.01,1.03-1.52,2.29-1.52,3.79c0,1.53,0.51,2.81,1.52,3.84
			c1.01,1.03,2.27,1.54,3.77,1.54C-178.13,70.93-176.87,70.42-175.84,69.39z"/>
		<path d="M-146.42,61.46h-11.32v-2.94h26.04v2.94h-11.32v29.26h-3.4V61.46z"/>
		<path d="M-112.57,68.7c1.69,1.58,2.53,3.92,2.53,7.02v15h-3.13v-3.77c-0.74,1.26-1.82,2.24-3.24,2.94
			c-1.43,0.71-3.12,1.06-5.08,1.06c-2.7,0-4.85-0.64-6.44-1.93s-2.39-2.99-2.39-5.11c0-2.05,0.74-3.71,2.23-4.97
			c1.49-1.26,3.86-1.89,7.11-1.89h7.68v-1.47c0-2.09-0.58-3.67-1.75-4.76c-1.17-1.09-2.87-1.63-5.11-1.63
			c-1.53,0-3.01,0.25-4.42,0.76c-1.41,0.51-2.62,1.2-3.63,2.09l-1.47-2.44c1.23-1.04,2.7-1.85,4.42-2.42s3.53-0.85,5.43-0.85
			C-116.67,66.33-114.25,67.12-112.57,68.7z M-116.25,87.1c1.32-0.84,2.3-2.06,2.94-3.66v-3.96h-7.59c-4.14,0-6.21,1.44-6.21,4.32
			c0,1.41,0.54,2.52,1.61,3.33c1.07,0.81,2.58,1.22,4.51,1.22C-119.14,88.37-117.56,87.94-116.25,87.1z"/>
		<path d="M-100.31,90.09c-1.79-0.57-3.2-1.28-4.21-2.14l1.47-2.58c1.01,0.8,2.28,1.45,3.82,1.96c1.53,0.51,3.13,0.76,4.78,0.76
			c2.21,0,3.84-0.34,4.9-1.04c1.06-0.69,1.59-1.66,1.59-2.92c0-0.89-0.29-1.59-0.87-2.09c-0.58-0.51-1.32-0.89-2.21-1.15
			c-0.89-0.26-2.07-0.51-3.54-0.76c-1.96-0.37-3.54-0.74-4.74-1.13c-1.2-0.38-2.22-1.04-3.06-1.96s-1.26-2.19-1.26-3.82
			c0-2.02,0.84-3.68,2.53-4.97c1.69-1.29,4.03-1.93,7.04-1.93c1.56,0,3.13,0.21,4.69,0.62c1.56,0.41,2.85,0.96,3.86,1.63l-1.43,2.62
			c-1.99-1.38-4.37-2.07-7.13-2.07c-2.09,0-3.66,0.37-4.72,1.1c-1.06,0.74-1.59,1.7-1.59,2.9c0,0.92,0.3,1.66,0.9,2.21
			c0.6,0.55,1.34,0.96,2.23,1.22c0.89,0.26,2.12,0.53,3.68,0.81c1.93,0.37,3.48,0.74,4.65,1.1c1.17,0.37,2.16,1,2.99,1.89
			c0.83,0.89,1.24,2.12,1.24,3.68c0,2.12-0.88,3.79-2.65,5.04c-1.76,1.24-4.21,1.86-7.34,1.86
			C-96.63,90.94-98.51,90.66-100.31,90.09z"/>
		<path d="M-65.92,89.24c-0.61,0.55-1.37,0.97-2.28,1.27c-0.91,0.29-1.85,0.44-2.83,0.44c-2.27,0-4.02-0.61-5.24-1.84
			s-1.84-2.96-1.84-5.2V69.28h-4.32v-2.76h4.32v-5.29h3.27v5.29h7.36v2.76h-7.36v14.44c0,1.44,0.36,2.54,1.08,3.29
			c0.72,0.75,1.75,1.13,3.11,1.13c0.67,0,1.33-0.11,1.96-0.32c0.63-0.21,1.17-0.52,1.63-0.92L-65.92,89.24z"/>
		<path d="M-57.27,89.35c-1.87-1.06-3.34-2.52-4.42-4.39c-1.07-1.87-1.61-3.99-1.61-6.35c0-2.36,0.54-4.48,1.61-6.35
			c1.07-1.87,2.54-3.33,4.42-4.37c1.87-1.04,3.97-1.56,6.3-1.56c2.33,0,4.43,0.52,6.3,1.56c1.87,1.04,3.33,2.5,4.39,4.37
			c1.06,1.87,1.59,3.99,1.59,6.35c0,2.36-0.53,4.48-1.59,6.35c-1.06,1.87-2.52,3.33-4.39,4.39c-1.87,1.06-3.97,1.59-6.3,1.59
			C-53.3,90.94-55.4,90.41-57.27,89.35z M-46.35,86.87c1.36-0.78,2.43-1.89,3.2-3.33c0.77-1.44,1.15-3.08,1.15-4.92
			c0-1.84-0.38-3.48-1.15-4.92c-0.77-1.44-1.83-2.55-3.2-3.33c-1.37-0.78-2.91-1.17-4.62-1.17c-1.72,0-3.26,0.39-4.62,1.17
			c-1.37,0.78-2.44,1.89-3.22,3.33c-0.78,1.44-1.17,3.08-1.17,4.92c0,1.84,0.39,3.48,1.17,4.92c0.78,1.44,1.85,2.55,3.22,3.33
			c1.36,0.78,2.91,1.17,4.62,1.17C-49.25,88.04-47.71,87.65-46.35,86.87z"/>
	</g>
	<g class="st1">
		<path d="M-193.89,373.84c1.76,1.64,2.65,3.78,2.65,6.42c0,1.84-0.44,3.47-1.33,4.9c-0.89,1.43-2.21,2.55-3.96,3.38
			s-3.88,1.24-6.39,1.24c-2.33,0-4.53-0.38-6.6-1.13c-2.07-0.75-3.73-1.76-4.99-3.01l1.61-2.62c1.07,1.1,2.5,2,4.28,2.69
			c1.78,0.69,3.68,1.04,5.7,1.04c2.64,0,4.68-0.58,6.12-1.73c1.44-1.15,2.16-2.74,2.16-4.76c0-1.99-0.72-3.56-2.16-4.69
			c-1.44-1.13-3.62-1.7-6.53-1.7h-2.3v-2.44l8.92-11.18h-16.47v-2.94h20.7v2.35l-9.11,11.45
			C-198.22,371.29-195.66,372.2-193.89,373.84z"/>
		<path d="M-183.77,370.69c-1.12-0.64-2-1.52-2.65-2.64c-0.64-1.12-0.97-2.35-0.97-3.7c0-1.32,0.32-2.54,0.97-3.66
			c0.64-1.12,1.52-2,2.65-2.64c1.12-0.64,2.35-0.97,3.7-0.97c1.35,0,2.59,0.32,3.73,0.97c1.13,0.64,2.02,1.53,2.67,2.64
			c0.64,1.12,0.97,2.34,0.97,3.66c0,1.35-0.32,2.58-0.97,3.7c-0.64,1.12-1.53,2-2.67,2.64c-1.13,0.64-2.38,0.97-3.73,0.97
			C-181.42,371.65-182.65,371.33-183.77,370.69z M-176.27,368.18c1.03-1.03,1.54-2.31,1.54-3.84c0-1.5-0.51-2.77-1.54-3.79
			c-1.03-1.03-2.29-1.54-3.8-1.54s-2.76,0.51-3.77,1.54c-1.01,1.03-1.52,2.29-1.52,3.79c0,1.53,0.51,2.81,1.52,3.84
			c1.01,1.03,2.27,1.54,3.77,1.54S-177.3,369.21-176.27,368.18z"/>
		<path d="M-146.86,360.25h-11.32v-2.94h26.04v2.94h-11.32v29.26h-3.4V360.25z"/>
		<path d="M-113,367.49c1.69,1.58,2.53,3.92,2.53,7.01v15h-3.13v-3.77c-0.74,1.26-1.82,2.24-3.24,2.94
			c-1.43,0.71-3.12,1.06-5.08,1.06c-2.7,0-4.85-0.64-6.44-1.93c-1.59-1.29-2.39-2.99-2.39-5.11c0-2.05,0.74-3.71,2.23-4.97
			c1.49-1.26,3.86-1.89,7.11-1.89h7.68v-1.47c0-2.08-0.58-3.67-1.75-4.76s-2.87-1.63-5.11-1.63c-1.53,0-3.01,0.25-4.42,0.76
			c-1.41,0.51-2.62,1.2-3.63,2.09l-1.47-2.44c1.23-1.04,2.7-1.85,4.42-2.42c1.72-0.57,3.53-0.85,5.43-0.85
			C-117.11,365.12-114.69,365.91-113,367.49z M-116.68,385.89c1.32-0.84,2.3-2.06,2.94-3.66v-3.96h-7.59
			c-4.14,0-6.21,1.44-6.21,4.32c0,1.41,0.54,2.52,1.61,3.33c1.07,0.81,2.58,1.22,4.51,1.22C-119.58,387.16-118,386.73-116.68,385.89
			z"/>
		<path d="M-100.74,388.88c-1.79-0.57-3.2-1.28-4.21-2.14l1.47-2.58c1.01,0.8,2.28,1.45,3.82,1.96c1.53,0.51,3.13,0.76,4.78,0.76
			c2.21,0,3.84-0.34,4.9-1.04c1.06-0.69,1.59-1.66,1.59-2.92c0-0.89-0.29-1.59-0.87-2.09s-1.32-0.89-2.21-1.15
			c-0.89-0.26-2.07-0.51-3.54-0.76c-1.96-0.37-3.54-0.74-4.74-1.13c-1.2-0.38-2.22-1.04-3.06-1.96c-0.84-0.92-1.27-2.19-1.27-3.82
			c0-2.02,0.84-3.68,2.53-4.97c1.69-1.29,4.03-1.93,7.04-1.93c1.56,0,3.13,0.21,4.69,0.62s2.85,0.96,3.86,1.63l-1.43,2.62
			c-1.99-1.38-4.37-2.07-7.13-2.07c-2.09,0-3.66,0.37-4.72,1.1c-1.06,0.74-1.59,1.7-1.59,2.9c0,0.92,0.3,1.66,0.9,2.21
			c0.6,0.55,1.34,0.96,2.23,1.22c0.89,0.26,2.12,0.53,3.68,0.8c1.93,0.37,3.48,0.74,4.65,1.1c1.17,0.37,2.16,1,2.99,1.89
			c0.83,0.89,1.24,2.12,1.24,3.68c0,2.12-0.88,3.79-2.65,5.04c-1.76,1.24-4.21,1.86-7.34,1.86
			C-97.07,389.73-98.95,389.45-100.74,388.88z"/>
		<path d="M-66.36,388.03c-0.61,0.55-1.37,0.97-2.28,1.26c-0.9,0.29-1.85,0.44-2.83,0.44c-2.27,0-4.02-0.61-5.24-1.84
			c-1.23-1.23-1.84-2.96-1.84-5.2v-14.63h-4.32v-2.76h4.32v-5.29h3.27v5.29h7.36v2.76h-7.36v14.44c0,1.44,0.36,2.54,1.08,3.29
			c0.72,0.75,1.75,1.13,3.1,1.13c0.67,0,1.33-0.11,1.96-0.32c0.63-0.21,1.17-0.52,1.63-0.92L-66.36,388.03z"/>
		<path d="M-57.71,388.14c-1.87-1.06-3.34-2.52-4.42-4.39c-1.07-1.87-1.61-3.99-1.61-6.35s0.54-4.48,1.61-6.35
			c1.07-1.87,2.54-3.33,4.42-4.37c1.87-1.04,3.97-1.56,6.3-1.56s4.43,0.52,6.3,1.56c1.87,1.04,3.33,2.5,4.39,4.37
			c1.06,1.87,1.59,3.99,1.59,6.35s-0.53,4.48-1.59,6.35c-1.06,1.87-2.52,3.33-4.39,4.39c-1.87,1.06-3.97,1.59-6.3,1.59
			S-55.84,389.2-57.71,388.14z M-46.79,385.66c1.36-0.78,2.43-1.89,3.2-3.33c0.77-1.44,1.15-3.08,1.15-4.92
			c0-1.84-0.38-3.48-1.15-4.92c-0.77-1.44-1.83-2.55-3.2-3.34c-1.36-0.78-2.91-1.17-4.62-1.17c-1.72,0-3.26,0.39-4.62,1.17
			c-1.36,0.78-2.44,1.89-3.22,3.34c-0.78,1.44-1.17,3.08-1.17,4.92c0,1.84,0.39,3.48,1.17,4.92c0.78,1.44,1.85,2.55,3.22,3.33
			c1.36,0.78,2.91,1.17,4.62,1.17C-49.69,386.83-48.15,386.44-46.79,385.66z"/>
	</g>
	<g class="st1">
		<path d="M-187.06,683.02h-6.44v8.46h-3.31v-8.46h-18.17v-2.39l17.07-21.34h3.68l-16.47,20.79h13.98v-7.45h3.22v7.45h6.44V683.02z"
			/>
		<path d="M-181.89,672.67c-1.12-0.64-2-1.52-2.65-2.64c-0.64-1.12-0.97-2.35-0.97-3.7c0-1.32,0.32-2.54,0.97-3.66
			c0.64-1.12,1.52-2,2.65-2.64c1.12-0.64,2.35-0.97,3.7-0.97c1.35,0,2.59,0.32,3.73,0.97c1.13,0.64,2.02,1.53,2.67,2.64
			c0.64,1.12,0.97,2.34,0.97,3.66c0,1.35-0.32,2.58-0.97,3.7c-0.64,1.12-1.53,2-2.67,2.64c-1.13,0.64-2.38,0.97-3.73,0.97
			C-179.53,673.64-180.77,673.31-181.89,672.67z M-174.39,670.16c1.03-1.03,1.54-2.31,1.54-3.84c0-1.5-0.51-2.77-1.54-3.79
			c-1.03-1.03-2.29-1.54-3.8-1.54s-2.76,0.51-3.77,1.54c-1.01,1.03-1.52,2.29-1.52,3.79c0,1.53,0.51,2.81,1.52,3.84
			c1.01,1.03,2.27,1.54,3.77,1.54S-175.42,671.19-174.39,670.16z"/>
		<path d="M-144.97,662.23h-11.32v-2.94h26.04v2.94h-11.32v29.26h-3.4V662.23z"/>
		<path d="M-111.12,669.47c1.69,1.58,2.53,3.92,2.53,7.01v15h-3.13v-3.77c-0.74,1.26-1.82,2.24-3.24,2.94
			c-1.43,0.71-3.12,1.06-5.08,1.06c-2.7,0-4.85-0.64-6.44-1.93c-1.59-1.29-2.39-2.99-2.39-5.11c0-2.05,0.74-3.71,2.23-4.97
			c1.49-1.26,3.86-1.89,7.11-1.89h7.68v-1.47c0-2.08-0.58-3.67-1.75-4.76s-2.87-1.63-5.11-1.63c-1.53,0-3.01,0.25-4.42,0.76
			c-1.41,0.51-2.62,1.2-3.63,2.09l-1.47-2.44c1.23-1.04,2.7-1.85,4.42-2.42c1.72-0.57,3.53-0.85,5.43-0.85
			C-115.23,667.1-112.8,667.89-111.12,669.47z M-114.8,687.87c1.32-0.84,2.3-2.06,2.94-3.66v-3.96h-7.59
			c-4.14,0-6.21,1.44-6.21,4.32c0,1.41,0.54,2.52,1.61,3.33c1.07,0.81,2.58,1.22,4.51,1.22
			C-117.69,689.14-116.12,688.72-114.8,687.87z"/>
		<path d="M-98.86,690.86c-1.79-0.57-3.2-1.28-4.21-2.14l1.47-2.58c1.01,0.8,2.28,1.45,3.82,1.96c1.53,0.51,3.13,0.76,4.78,0.76
			c2.21,0,3.84-0.34,4.9-1.04c1.06-0.69,1.59-1.66,1.59-2.92c0-0.89-0.29-1.59-0.87-2.09s-1.32-0.89-2.21-1.15
			c-0.89-0.26-2.07-0.51-3.54-0.76c-1.96-0.37-3.54-0.74-4.74-1.13c-1.2-0.38-2.22-1.04-3.06-1.96c-0.84-0.92-1.27-2.19-1.27-3.82
			c0-2.02,0.84-3.68,2.53-4.97c1.69-1.29,4.03-1.93,7.04-1.93c1.56,0,3.13,0.21,4.69,0.62s2.85,0.96,3.86,1.63l-1.43,2.62
			c-1.99-1.38-4.37-2.07-7.13-2.07c-2.09,0-3.66,0.37-4.72,1.1c-1.06,0.74-1.59,1.7-1.59,2.9c0,0.92,0.3,1.66,0.9,2.21
			c0.6,0.55,1.34,0.96,2.23,1.22c0.89,0.26,2.12,0.53,3.68,0.8c1.93,0.37,3.48,0.74,4.65,1.1c1.17,0.37,2.16,1,2.99,1.89
			c0.83,0.89,1.24,2.12,1.24,3.68c0,2.12-0.88,3.79-2.65,5.04c-1.76,1.24-4.21,1.86-7.34,1.86
			C-95.19,691.71-97.06,691.43-98.86,690.86z"/>
		<path d="M-64.47,690.01c-0.61,0.55-1.37,0.97-2.28,1.26c-0.9,0.29-1.85,0.44-2.83,0.44c-2.27,0-4.02-0.61-5.24-1.84
			c-1.23-1.23-1.84-2.96-1.84-5.2v-14.63h-4.32v-2.76h4.32V662h3.27v5.29h7.36v2.76h-7.36v14.44c0,1.44,0.36,2.54,1.08,3.29
			c0.72,0.75,1.75,1.13,3.1,1.13c0.67,0,1.33-0.11,1.96-0.32c0.63-0.21,1.17-0.52,1.63-0.92L-64.47,690.01z"/>
		<path d="M-55.82,690.13c-1.87-1.06-3.34-2.52-4.42-4.39c-1.07-1.87-1.61-3.99-1.61-6.35s0.54-4.48,1.61-6.35
			c1.07-1.87,2.54-3.33,4.42-4.37c1.87-1.04,3.97-1.56,6.3-1.56s4.43,0.52,6.3,1.56c1.87,1.04,3.33,2.5,4.39,4.37
			c1.06,1.87,1.59,3.99,1.59,6.35s-0.53,4.48-1.59,6.35c-1.06,1.87-2.52,3.33-4.39,4.39c-1.87,1.06-3.97,1.59-6.3,1.59
			S-53.95,691.19-55.82,690.13z M-44.9,687.64c1.36-0.78,2.43-1.89,3.2-3.33c0.77-1.44,1.15-3.08,1.15-4.92
			c0-1.84-0.38-3.48-1.15-4.92c-0.77-1.44-1.83-2.55-3.2-3.34c-1.36-0.78-2.91-1.17-4.62-1.17c-1.72,0-3.26,0.39-4.62,1.17
			c-1.36,0.78-2.44,1.89-3.22,3.34c-0.78,1.44-1.17,3.08-1.17,4.92c0,1.84,0.39,3.48,1.17,4.92c0.78,1.44,1.85,2.55,3.22,3.33
			c1.36,0.78,2.91,1.17,4.62,1.17C-47.81,688.82-46.26,688.43-44.9,687.64z"/>
	</g>
	<g class="st1">
		<path d="M-193.94,968.97c2.13,1.67,3.2,4.01,3.2,7.02c0,1.87-0.44,3.54-1.31,5.01s-2.19,2.63-3.93,3.47
			c-1.75,0.84-3.9,1.27-6.44,1.27c-2.3,0-4.48-0.38-6.56-1.13c-2.07-0.75-3.73-1.76-4.99-3.01l1.61-2.62c1.07,1.1,2.48,2,4.23,2.69
			c1.75,0.69,3.63,1.04,5.66,1.04c2.67,0,4.73-0.6,6.19-1.79c1.46-1.2,2.18-2.79,2.18-4.78c0-2.21-0.82-3.88-2.46-5.01
			c-1.64-1.13-4.41-1.7-8.3-1.7h-6.85l1.66-16.15h17.62v2.94h-14.72l-1.1,10.26h4.14C-199.47,966.47-196.07,967.3-193.94,968.97z"/>
		<path d="M-183.73,966.65c-1.12-0.64-2-1.52-2.65-2.64c-0.64-1.12-0.97-2.35-0.97-3.7c0-1.32,0.32-2.54,0.97-3.66
			c0.64-1.12,1.52-2,2.65-2.64c1.12-0.64,2.35-0.97,3.7-0.97c1.35,0,2.59,0.32,3.73,0.97c1.13,0.64,2.02,1.53,2.67,2.64
			c0.64,1.12,0.97,2.34,0.97,3.66c0,1.35-0.32,2.58-0.97,3.7c-0.64,1.12-1.53,2-2.67,2.64c-1.13,0.64-2.38,0.97-3.73,0.97
			C-181.37,967.62-182.61,967.29-183.73,966.65z M-176.23,964.14c1.03-1.03,1.54-2.31,1.54-3.84c0-1.5-0.51-2.77-1.54-3.79
			c-1.03-1.03-2.29-1.54-3.8-1.54s-2.76,0.51-3.77,1.54c-1.01,1.03-1.52,2.29-1.52,3.79c0,1.53,0.51,2.81,1.52,3.84
			c1.01,1.03,2.27,1.54,3.77,1.54S-177.26,965.17-176.23,964.14z"/>
		<path d="M-146.81,956.21h-11.32v-2.94h26.04v2.94h-11.32v29.26h-3.4V956.21z"/>
		<path d="M-112.96,963.45c1.69,1.58,2.53,3.92,2.53,7.01v15h-3.13v-3.77c-0.74,1.26-1.82,2.24-3.24,2.94
			c-1.43,0.71-3.12,1.06-5.08,1.06c-2.7,0-4.85-0.64-6.44-1.93c-1.59-1.29-2.39-2.99-2.39-5.11c0-2.05,0.74-3.71,2.23-4.97
			c1.49-1.26,3.86-1.89,7.11-1.89h7.68v-1.47c0-2.08-0.58-3.67-1.75-4.76s-2.87-1.63-5.11-1.63c-1.53,0-3.01,0.25-4.42,0.76
			c-1.41,0.51-2.62,1.2-3.63,2.09l-1.47-2.44c1.23-1.04,2.7-1.85,4.42-2.42c1.72-0.57,3.53-0.85,5.43-0.85
			C-117.07,961.08-114.64,961.87-112.96,963.45z M-116.64,981.85c1.32-0.84,2.3-2.06,2.94-3.66v-3.96h-7.59
			c-4.14,0-6.21,1.44-6.21,4.32c0,1.41,0.54,2.52,1.61,3.33c1.07,0.81,2.58,1.22,4.51,1.22
			C-119.53,983.12-117.96,982.7-116.64,981.85z"/>
		<path d="M-100.7,984.84c-1.79-0.57-3.2-1.28-4.21-2.14l1.47-2.58c1.01,0.8,2.28,1.45,3.82,1.96c1.53,0.51,3.13,0.76,4.78,0.76
			c2.21,0,3.84-0.34,4.9-1.04c1.06-0.69,1.59-1.66,1.59-2.92c0-0.89-0.29-1.59-0.87-2.09s-1.32-0.89-2.21-1.15
			c-0.89-0.26-2.07-0.51-3.54-0.76c-1.96-0.37-3.54-0.74-4.74-1.13c-1.2-0.38-2.22-1.04-3.06-1.96c-0.84-0.92-1.27-2.19-1.27-3.82
			c0-2.02,0.84-3.68,2.53-4.97c1.69-1.29,4.03-1.93,7.04-1.93c1.56,0,3.13,0.21,4.69,0.62s2.85,0.96,3.86,1.63l-1.43,2.62
			c-1.99-1.38-4.37-2.07-7.13-2.07c-2.09,0-3.66,0.37-4.72,1.1c-1.06,0.74-1.59,1.7-1.59,2.9c0,0.92,0.3,1.66,0.9,2.21
			c0.6,0.55,1.34,0.96,2.23,1.22c0.89,0.26,2.12,0.53,3.68,0.8c1.93,0.37,3.48,0.74,4.65,1.1c1.17,0.37,2.16,1,2.99,1.89
			c0.83,0.89,1.24,2.12,1.24,3.68c0,2.12-0.88,3.79-2.65,5.04c-1.76,1.24-4.21,1.86-7.34,1.86
			C-97.03,985.69-98.9,985.41-100.7,984.84z"/>
		<path d="M-66.31,983.99c-0.61,0.55-1.37,0.97-2.28,1.26c-0.9,0.29-1.85,0.44-2.83,0.44c-2.27,0-4.02-0.61-5.24-1.84
			c-1.23-1.23-1.84-2.96-1.84-5.2v-14.63h-4.32v-2.76h4.32v-5.29h3.27v5.29h7.36v2.76h-7.36v14.44c0,1.44,0.36,2.54,1.08,3.29
			c0.72,0.75,1.75,1.13,3.1,1.13c0.67,0,1.33-0.11,1.96-0.32c0.63-0.21,1.17-0.52,1.63-0.92L-66.31,983.99z"/>
		<path d="M-57.67,984.11c-1.87-1.06-3.34-2.52-4.42-4.39c-1.07-1.87-1.61-3.99-1.61-6.35s0.54-4.48,1.61-6.35
			c1.07-1.87,2.54-3.33,4.42-4.37c1.87-1.04,3.97-1.56,6.3-1.56s4.43,0.52,6.3,1.56c1.87,1.04,3.33,2.5,4.39,4.37
			c1.06,1.87,1.59,3.99,1.59,6.35s-0.53,4.48-1.59,6.35c-1.06,1.87-2.52,3.33-4.39,4.39c-1.87,1.06-3.97,1.59-6.3,1.59
			S-55.79,985.17-57.67,984.11z M-46.74,981.62c1.36-0.78,2.43-1.89,3.2-3.33c0.77-1.44,1.15-3.08,1.15-4.92
			c0-1.84-0.38-3.48-1.15-4.92c-0.77-1.44-1.83-2.55-3.2-3.34c-1.36-0.78-2.91-1.17-4.62-1.17c-1.72,0-3.26,0.39-4.62,1.17
			c-1.36,0.78-2.44,1.89-3.22,3.34c-0.78,1.44-1.17,3.08-1.17,4.92c0,1.84,0.39,3.48,1.17,4.92c0.78,1.44,1.85,2.55,3.22,3.33
			c1.36,0.78,2.91,1.17,4.62,1.17C-49.65,982.8-48.1,982.41-46.74,981.62z"/>
	</g>
</g>
<g id="Note" class="st0">
	<g class="st1">
		<path d="M82.58,1130.5v45.5h-4.62v-36.4l-17.88,30.62h-2.27l-17.88-30.42V1176h-4.61v-45.5h3.96l19.76,33.74l19.57-33.74H82.58z"
			/>
		<path d="M96.36,1133.36c-0.65-0.65-0.98-1.43-0.98-2.34c0-0.87,0.33-1.63,0.98-2.27c0.65-0.65,1.45-0.98,2.4-0.98
			c0.95,0,1.75,0.32,2.41,0.94c0.65,0.63,0.97,1.38,0.97,2.24c0,0.95-0.32,1.75-0.97,2.41c-0.65,0.65-1.45,0.97-2.41,0.97
			C97.81,1134.33,97.01,1134.01,96.36,1133.36z M96.42,1141.81h4.61V1176h-4.61V1141.81z"/>
	</g>
	<g class="st1">
		<path d="M239.91,1130.5h4.81v41.34h25.48v4.16h-30.29V1130.5z"/>
		<path d="M299.58,1144.9c2.38,2.23,3.58,5.54,3.58,9.91V1176h-4.42v-5.33c-1.04,1.78-2.57,3.16-4.58,4.16
			c-2.01,1-4.41,1.5-7.18,1.5c-3.81,0-6.85-0.91-9.1-2.73c-2.25-1.82-3.38-4.22-3.38-7.21c0-2.9,1.05-5.24,3.15-7.02
			c2.1-1.78,5.45-2.67,10.04-2.67h10.85v-2.08c0-2.95-0.82-5.19-2.47-6.73c-1.65-1.54-4.05-2.31-7.21-2.31
			c-2.17,0-4.25,0.36-6.24,1.07c-1.99,0.71-3.71,1.7-5.14,2.96l-2.08-3.45c1.73-1.47,3.81-2.61,6.24-3.41
			c2.43-0.8,4.98-1.2,7.67-1.2C293.77,1141.55,297.2,1142.67,299.58,1144.9z M294.38,1170.9c1.86-1.19,3.25-2.91,4.16-5.17v-5.59
			h-10.73c-5.85,0-8.77,2.04-8.77,6.11c0,1.99,0.76,3.56,2.27,4.71c1.52,1.15,3.64,1.72,6.37,1.72
			C290.28,1172.68,292.52,1172.09,294.38,1170.9z"/>
	</g>
	<g class="st1">
		<path d="M467.01,1177l-10.4-14.63c-1.17,0.13-2.38,0.2-3.64,0.2h-12.22V1177h-4.81v-45.5h17.03c5.81,0,10.36,1.39,13.65,4.16
			c3.29,2.77,4.94,6.59,4.94,11.44c0,3.55-0.9,6.56-2.7,9c-1.8,2.45-4.37,4.21-7.7,5.3l11.12,15.6H467.01z M463.18,1155.49
			c2.38-1.99,3.58-4.79,3.58-8.39c0-3.68-1.19-6.51-3.58-8.48c-2.38-1.97-5.83-2.96-10.33-2.96h-12.09v22.81h12.09
			C457.35,1158.47,460.79,1157.48,463.18,1155.49z"/>
		<path d="M511.73,1161.33h-28.6c0.26,3.55,1.63,6.42,4.1,8.61c2.47,2.19,5.59,3.28,9.36,3.28c2.12,0,4.07-0.38,5.85-1.14
			c1.78-0.76,3.31-1.87,4.61-3.35l2.6,2.99c-1.52,1.82-3.41,3.21-5.69,4.16c-2.27,0.95-4.78,1.43-7.51,1.43
			c-3.51,0-6.62-0.75-9.33-2.24c-2.71-1.49-4.82-3.56-6.34-6.21c-1.52-2.64-2.27-5.63-2.27-8.97s0.73-6.33,2.18-8.97
			c1.45-2.64,3.44-4.7,5.98-6.17c2.54-1.47,5.38-2.21,8.55-2.21c3.16,0,6,0.74,8.52,2.21c2.51,1.47,4.48,3.52,5.92,6.14
			c1.43,2.62,2.15,5.62,2.15,9L511.73,1161.33z M486.94,1149.67c-2.23,2.1-3.5,4.84-3.8,8.22h24.25c-0.3-3.38-1.57-6.12-3.8-8.22
			c-2.23-2.1-5.02-3.15-8.35-3.15C491.93,1146.51,489.17,1147.57,486.94,1149.67z"/>
	</g>
	<g class="st1">
		<path d="M632,1173.89c-3.1-1.08-5.49-2.51-7.18-4.29l1.88-3.71c1.65,1.65,3.84,2.98,6.57,4c2.73,1.02,5.55,1.53,8.45,1.53
			c4.07,0,7.13-0.75,9.17-2.24c2.04-1.5,3.05-3.43,3.05-5.82c0-1.82-0.55-3.27-1.66-4.36c-1.11-1.08-2.46-1.92-4.06-2.5
			c-1.6-0.58-3.83-1.22-6.7-1.92c-3.42-0.87-6.15-1.7-8.19-2.5c-2.04-0.8-3.78-2.02-5.23-3.67c-1.45-1.65-2.18-3.88-2.18-6.7
			c0-2.3,0.61-4.39,1.82-6.27c1.21-1.88,3.08-3.39,5.59-4.52c2.51-1.13,5.63-1.69,9.36-1.69c2.6,0,5.15,0.36,7.64,1.07
			c2.49,0.71,4.65,1.7,6.47,2.96l-1.63,3.83c-1.91-1.26-3.94-2.2-6.11-2.83c-2.17-0.63-4.29-0.94-6.37-0.94
			c-3.99,0-6.99,0.77-9,2.31c-2.02,1.54-3.02,3.52-3.02,5.95c0,1.82,0.55,3.28,1.66,4.39c1.11,1.1,2.49,1.95,4.16,2.54
			c1.67,0.58,3.91,1.22,6.73,1.92c3.34,0.82,6.03,1.64,8.09,2.44c2.06,0.8,3.8,2.02,5.23,3.64s2.14,3.82,2.14,6.6
			c0,2.3-0.62,4.39-1.85,6.27c-1.24,1.89-3.13,3.38-5.69,4.49c-2.56,1.11-5.7,1.66-9.42,1.66
			C638.33,1175.52,635.09,1174.98,632,1173.89z"/>
		<path d="M673.24,1173.21c-2.64-1.49-4.72-3.56-6.24-6.21c-1.52-2.64-2.28-5.63-2.28-8.97s0.76-6.33,2.28-8.97
			c1.52-2.64,3.6-4.7,6.24-6.17c2.64-1.47,5.61-2.21,8.91-2.21c3.29,0,6.26,0.74,8.91,2.21c2.64,1.47,4.71,3.53,6.21,6.17
			c1.5,2.64,2.24,5.63,2.24,8.97s-0.75,6.33-2.24,8.97c-1.5,2.64-3.56,4.71-6.21,6.21c-2.64,1.5-5.61,2.24-8.91,2.24
			C678.85,1175.45,675.88,1174.71,673.24,1173.21z M688.68,1169.7c1.93-1.1,3.43-2.67,4.52-4.71c1.08-2.04,1.63-4.36,1.63-6.96
			c0-2.6-0.54-4.92-1.63-6.96c-1.08-2.04-2.59-3.61-4.52-4.71c-1.93-1.1-4.11-1.66-6.53-1.66c-2.43,0-4.61,0.55-6.53,1.66
			c-1.93,1.11-3.44,2.68-4.55,4.71c-1.11,2.04-1.66,4.35-1.66,6.96c0,2.6,0.55,4.92,1.66,6.96c1.1,2.04,2.62,3.61,4.55,4.71
			c1.93,1.11,4.11,1.66,6.53,1.66C684.57,1171.36,686.75,1170.81,688.68,1169.7z"/>
		<path d="M708.92,1126.9h4.62v48.23h-4.62V1126.9z"/>
	</g>
	<g class="st1">
		<path d="M852.88,1174.32c-3.1-1.08-5.49-2.51-7.18-4.29l1.89-3.71c1.65,1.65,3.83,2.98,6.56,4c2.73,1.02,5.55,1.53,8.45,1.53
			c4.07,0,7.13-0.75,9.17-2.24c2.04-1.5,3.05-3.43,3.05-5.82c0-1.82-0.55-3.27-1.66-4.36c-1.11-1.08-2.46-1.92-4.06-2.5
			c-1.6-0.58-3.83-1.22-6.7-1.92c-3.42-0.87-6.15-1.7-8.19-2.5c-2.04-0.8-3.78-2.02-5.23-3.67c-1.45-1.65-2.18-3.88-2.18-6.7
			c0-2.3,0.61-4.39,1.82-6.27c1.21-1.88,3.08-3.39,5.59-4.52c2.51-1.13,5.63-1.69,9.36-1.69c2.6,0,5.15,0.36,7.64,1.07
			c2.49,0.71,4.65,1.7,6.47,2.96l-1.63,3.83c-1.91-1.26-3.94-2.2-6.11-2.83c-2.17-0.63-4.29-0.94-6.37-0.94
			c-3.99,0-6.99,0.77-9,2.31c-2.02,1.54-3.02,3.52-3.02,5.95c0,1.82,0.55,3.28,1.66,4.39c1.11,1.1,2.49,1.95,4.16,2.54
			c1.67,0.58,3.91,1.22,6.73,1.92c3.34,0.82,6.03,1.64,8.09,2.44c2.06,0.8,3.8,2.02,5.23,3.64c1.43,1.63,2.14,3.82,2.14,6.6
			c0,2.3-0.62,4.39-1.85,6.27c-1.24,1.89-3.13,3.38-5.69,4.49c-2.56,1.11-5.7,1.66-9.42,1.66
			C859.22,1175.95,855.98,1175.4,852.88,1174.32z"/>
		<path d="M888.99,1132.92c-0.65-0.65-0.98-1.43-0.98-2.34c0-0.87,0.33-1.63,0.98-2.27c0.65-0.65,1.45-0.98,2.41-0.98
			c0.95,0,1.75,0.32,2.4,0.94c0.65,0.63,0.98,1.38,0.98,2.24c0,0.95-0.33,1.75-0.98,2.41c-0.65,0.65-1.45,0.97-2.4,0.97
			C890.44,1133.89,889.64,1133.57,888.99,1132.92z M889.06,1141.37h4.62v34.19h-4.62V1141.37z"/>
	</g>
	<g class="st1">
		<path d="M1093.34,1130.04v45.5h-4.62v-36.4l-17.88,30.62h-2.27l-17.88-30.42v36.21h-4.62v-45.5h3.96l19.76,33.74l19.57-33.74
			H1093.34z"/>
		<path d="M1107.12,1132.91c-0.65-0.65-0.98-1.43-0.98-2.34c0-0.87,0.33-1.63,0.98-2.27c0.65-0.65,1.45-0.98,2.41-0.98
			c0.95,0,1.75,0.32,2.4,0.94c0.65,0.63,0.98,1.38,0.98,2.24c0,0.95-0.33,1.75-0.98,2.41c-0.65,0.65-1.45,0.97-2.4,0.97
			C1108.57,1133.88,1107.77,1133.55,1107.12,1132.91z M1107.19,1141.35h4.62v34.19h-4.62V1141.35z"/>
	</g>
</g>
<g id="Dito_4" class="st0">
	<circle class="st7" cx="470.5" cy="676.5" r="65.5"/>
	<g class="st1">
		<path class="st8" d="M492.44,683.73l-9.2,0.02l0.03,10.32l-6.71,0.02l-0.03-10.32l-26.92,0.07l-0.01-4.2l24.7-27.55l7.47-0.02
			l-23.67,26.58l18.62-0.05l-0.02-9.12l6.51-0.02l0.02,9.12l9.2-0.02L492.44,683.73z"/>
	</g>
</g>
<g id="Corda_vuoto" class="st0">
	<circle class="st7" cx="71.5" cy="-191.5" r="65.5"/>
	<g class="st1">
		<path class="st8" d="M85.58-173.96L71-191.26l-14.28,17.38l-7.96,0.02l18.15-21.59l-17.15-20.41l7.89-0.02l13.61,16.1l13.38-16.18
			l7.54-0.02l-17.04,20.33l18.4,21.67L85.58-173.96z"/>
	</g>
</g>
<g id="Corda_vuoto_1_" class="st0">
	<circle class="st7" cx="270.5" cy="-191.5" r="65.5"/>
	<g class="st1">
		<path class="st8" d="M284.58-173.96L270-191.26l-14.28,17.38l-7.96,0.02l18.15-21.59l-17.15-20.41l7.89-0.02l13.61,16.1
			l13.38-16.18l7.54-0.02l-17.04,20.33l18.4,21.67L284.58-173.96z"/>
	</g>
</g>
<g id="Capotasto_1">
	<path class="st9" d="M74.5,9h1000c36.73,0,66.5,29.77,66.5,66.5v0c0,36.73-29.77,66.5-66.5,66.5H74.5C37.77,142,8,112.23,8,75.5v0
		C8,38.77,37.77,9,74.5,9z"/>
	<g>
		<path class="st8" d="M568.57,61.04h-0.12l-6.78,3.66l-1.02-4.02l8.52-4.56h4.5v39h-5.1V61.04z"/>
	</g>
</g>
<g id="Dito_2" class="st0">
	<g class="st1">
		<circle class="st9" cx="670.5" cy="374.5" r="65.5"/>
	</g>
	<g class="st1">
		<g>
			<path class="st8" d="M687.64,386.84l0.01,5.22l-34.81,0.09l-0.01-4.08l19.68-16.55c2.39-2.01,4-3.74,4.83-5.2
				c0.83-1.46,1.24-2.93,1.23-4.41c-0.01-2.2-0.9-3.91-2.68-5.12c-1.78-1.21-4.33-1.82-7.65-1.81c-5.35,0.01-9.48,1.55-12.38,4.59
				l-4.72-3.53c1.89-2,4.36-3.57,7.43-4.7c3.06-1.13,6.49-1.7,10.27-1.71c5.08-0.01,9.12,1.03,12.12,3.12s4.51,4.94,4.52,8.54
				c0.01,2.24-0.54,4.36-1.64,6.36c-1.1,2-3.2,4.29-6.28,6.86l-14.78,12.4L687.64,386.84z"/>
		</g>
	</g>
</g>
<g id="Dito_1" class="st0">
	<g class="st1">
		<circle class="st9" cx="671.5" cy="73.5" r="65.5"/>
	</g>
	<g class="st1">
		<g>
			<path class="st8" d="M676.57,49.1l0.11,42l-6.85,0.02l-0.1-36.78l-10.94,0.03l-0.01-5.22L676.57,49.1z"/>
		</g>
	</g>
</g>
<g id="Dito_3" class="st0">
	<circle class="st7" cx="270.5" cy="676.5" r="65.5"/>
	<g class="st1">
		<path class="st8" d="M285.04,673.53c2.5,2.13,3.75,4.86,3.76,8.18c0.01,2.4-0.68,4.57-2.06,6.52c-1.38,1.94-3.44,3.49-6.18,4.64
			c-2.74,1.15-6.1,1.73-10.07,1.74c-3.46,0.01-6.78-0.43-9.97-1.32c-3.19-0.89-5.8-2.13-7.83-3.73l3.17-4.75
			c1.67,1.36,3.79,2.44,6.38,3.25c2.59,0.81,5.33,1.22,8.24,1.21c3.6-0.01,6.4-0.68,8.4-2c2-1.33,3-3.15,3-5.47
			c-0.01-2.32-1-4.12-2.99-5.39c-1.99-1.27-4.99-1.91-9-1.9l-3.88,0.01l-0.01-4.2l12.15-12.99l-23.32,0.06l-0.01-5.22l31.98-0.08
			l0.01,4.08l-12.63,13.59C278.91,670.13,282.54,671.39,285.04,673.53z"/>
	</g>
</g>
</svg>
