<?xml version="1.0" encoding="utf-8"?>
<!-- Generator: Adobe Illustrator 23.0.1, SVG Export Plug-In . SVG Version: 6.00 Build 0)  -->
<svg version="1.1" xmlns="http://www.w3.org/2000/svg" xmlns:xlink="http://www.w3.org/1999/xlink" x="0px" y="0px"
	 viewBox="0 0 1809 531" style="enable-background:new 0 0 1809 531;" xml:space="preserve">
<style type="text/css">
	.st0{fill:none;stroke:#000000;stroke-width:2;stroke-miterlimit:10;}
	.st1{display:none;}
	.st2{display:inline;}
	.st3{fill:#E55100;}
	.st4{display:inline;fill:#E55100;stroke:#E55100;stroke-width:4;stroke-miterlimit:10;}
</style>
<g id="TastiChitarra">
	<g id="_x31_">
		<line class="st0" x1="72" y1="99.5" x2="1800" y2="99.85"/>
	</g>
	<g id="_x32_">
		<line class="st0" x1="71.88" y1="169.5" x2="1799.5" y2="169.5"/>
	</g>
	<g id="_x33_">
		<line class="st0" x1="71.88" y1="241.5" x2="1799.5" y2="241.5"/>
	</g>
	<g id="_x34_">
		<line class="st0" x1="71.88" y1="313.5" x2="1800.5" y2="313.5"/>
	</g>
	<line id="_x35_" class="st0" x1="72.13" y1="385.5" x2="1800.5" y2="385.5"/>
	<g id="_x36_">
		<line class="st0" x1="71" y1="457.5" x2="1801" y2="457.5"/>
	</g>
	<line id="SX" class="st0" x1="73" y1="100" x2="72" y2="458"/>
	<line id="DX" class="st0" x1="1799" y1="100" x2="1800" y2="458"/>
</g>
<g id="Tasti">
	<line class="st0" x1="216" y1="99" x2="216" y2="458"/>
	<line class="st0" x1="360.5" y1="99.5" x2="360.5" y2="457.5"/>
	<line class="st0" x1="504.5" y1="99.5" x2="504.5" y2="458"/>
	<line class="st0" x1="648.5" y1="99.5" x2="648.5" y2="457.5"/>
	<line class="st0" x1="792.5" y1="99.5" x2="792.5" y2="457.5"/>
	<line class="st0" x1="936.5" y1="99.5" x2="936.5" y2="457.5"/>
	<line class="st0" x1="1080.5" y1="99.5" x2="1080.5" y2="457.5"/>
	<line class="st0" x1="1224.5" y1="99.5" x2="1224.5" y2="457.5"/>
	<line class="st0" x1="1368.5" y1="99.5" x2="1368.5" y2="457.5"/>
	<line class="st0" x1="1512.5" y1="99.5" x2="1512.5" y2="457.5"/>
	<line class="st0" x1="1656.5" y1="99.5" x2="1656.5" y2="457.5"/>
</g>
<g id="Numero_Tasto">
	<g>
		<path d="M104.97,500.24v18.02h-1.85v-16.37h-4.25v-1.65H104.97z"/>
		<path d="M111.24,507.73c-0.63-0.36-1.12-0.85-1.48-1.48c-0.36-0.63-0.54-1.32-0.54-2.07c0-0.74,0.18-1.42,0.54-2.05
			s0.85-1.12,1.48-1.48c0.63-0.36,1.32-0.54,2.07-0.54c0.75,0,1.45,0.18,2.08,0.54c0.63,0.36,1.13,0.85,1.49,1.48
			s0.54,1.31,0.54,2.05c0,0.75-0.18,1.45-0.54,2.07c-0.36,0.63-0.86,1.12-1.49,1.48c-0.64,0.36-1.33,0.54-2.08,0.54
			C112.56,508.27,111.86,508.09,111.24,507.73z M115.43,506.33c0.57-0.57,0.86-1.29,0.86-2.15c0-0.84-0.29-1.55-0.86-2.12
			c-0.58-0.57-1.28-0.86-2.12-0.86c-0.84,0-1.54,0.29-2.11,0.86s-0.85,1.28-0.85,2.12c0,0.86,0.28,1.57,0.85,2.15
			c0.57,0.58,1.27,0.86,2.11,0.86C114.15,507.19,114.86,506.9,115.43,506.33z"/>
		<path d="M131.89,501.89h-6.33v-1.65h14.57v1.65h-6.33v16.37h-1.9V501.89z"/>
		<path d="M150.84,505.94c0.94,0.88,1.42,2.19,1.42,3.93v8.39h-1.75v-2.11c-0.41,0.7-1.02,1.25-1.81,1.65
			c-0.8,0.4-1.75,0.59-2.84,0.59c-1.51,0-2.71-0.36-3.6-1.08c-0.89-0.72-1.34-1.67-1.34-2.86c0-1.15,0.42-2.08,1.25-2.78
			c0.83-0.7,2.16-1.06,3.98-1.06h4.3v-0.82c0-1.17-0.33-2.06-0.98-2.66c-0.65-0.61-1.6-0.91-2.86-0.91c-0.86,0-1.68,0.14-2.47,0.42
			c-0.79,0.28-1.47,0.67-2.03,1.17l-0.82-1.36c0.69-0.58,1.51-1.03,2.47-1.35c0.96-0.32,1.97-0.48,3.04-0.48
			C148.54,504.61,149.9,505.06,150.84,505.94z M148.78,516.24c0.74-0.47,1.29-1.15,1.65-2.05v-2.21h-4.25
			c-2.32,0-3.48,0.81-3.48,2.42c0,0.79,0.3,1.41,0.9,1.87s1.44,0.68,2.52,0.68C147.16,516.94,148.04,516.71,148.78,516.24z"/>
		<path d="M157.7,517.91c-1-0.32-1.79-0.72-2.35-1.2l0.82-1.44c0.57,0.45,1.28,0.81,2.14,1.09c0.86,0.28,1.75,0.42,2.68,0.42
			c1.24,0,2.15-0.19,2.74-0.58c0.59-0.39,0.89-0.93,0.89-1.63c0-0.5-0.16-0.89-0.49-1.17c-0.33-0.28-0.74-0.5-1.24-0.64
			c-0.5-0.15-1.16-0.29-1.98-0.42c-1.1-0.21-1.98-0.42-2.65-0.63c-0.67-0.21-1.24-0.58-1.71-1.09c-0.47-0.51-0.71-1.23-0.71-2.14
			c0-1.13,0.47-2.06,1.42-2.78c0.94-0.72,2.26-1.08,3.94-1.08c0.88,0,1.75,0.12,2.63,0.35c0.88,0.23,1.6,0.54,2.16,0.91l-0.8,1.47
			c-1.12-0.77-2.45-1.16-3.99-1.16c-1.17,0-2.05,0.21-2.64,0.62c-0.59,0.41-0.89,0.95-0.89,1.62c0,0.51,0.17,0.93,0.5,1.24
			s0.75,0.54,1.25,0.68c0.5,0.15,1.18,0.3,2.06,0.45c1.08,0.21,1.95,0.41,2.6,0.62c0.65,0.21,1.21,0.56,1.67,1.06
			c0.46,0.5,0.69,1.18,0.69,2.06c0,1.18-0.49,2.12-1.48,2.82c-0.99,0.69-2.36,1.04-4.11,1.04
			C159.75,518.38,158.7,518.23,157.7,517.91z"/>
		<path d="M176.94,517.43c-0.34,0.31-0.77,0.54-1.27,0.71c-0.51,0.16-1.03,0.24-1.58,0.24c-1.27,0-2.25-0.34-2.93-1.03
			c-0.69-0.69-1.03-1.66-1.03-2.91v-8.19h-2.42v-1.54h2.42v-2.96h1.83v2.96h4.12v1.54h-4.12v8.08c0,0.81,0.2,1.42,0.6,1.84
			c0.4,0.42,0.98,0.63,1.74,0.63c0.38,0,0.74-0.06,1.09-0.18c0.35-0.12,0.66-0.29,0.91-0.51L176.94,517.43z"/>
		<path d="M181.78,517.5c-1.05-0.59-1.87-1.41-2.47-2.46c-0.6-1.05-0.9-2.23-0.9-3.55s0.3-2.51,0.9-3.55
			c0.6-1.05,1.42-1.86,2.47-2.45c1.05-0.58,2.22-0.88,3.53-0.88c1.3,0,2.48,0.29,3.53,0.88c1.05,0.58,1.87,1.4,2.46,2.45
			c0.59,1.05,0.89,2.23,0.89,3.55s-0.3,2.51-0.89,3.55s-1.41,1.87-2.46,2.46c-1.05,0.59-2.22,0.89-3.53,0.89
			C184,518.38,182.82,518.09,181.78,517.5z M187.89,516.11c0.76-0.44,1.36-1.06,1.79-1.87c0.43-0.81,0.64-1.72,0.64-2.75
			c0-1.03-0.21-1.95-0.64-2.75c-0.43-0.81-1.03-1.43-1.79-1.87c-0.76-0.44-1.63-0.66-2.59-0.66c-0.96,0-1.82,0.22-2.59,0.66
			c-0.76,0.44-1.36,1.06-1.8,1.87c-0.44,0.81-0.66,1.72-0.66,2.75c0,1.03,0.22,1.95,0.66,2.75c0.44,0.81,1.04,1.43,1.8,1.87
			c0.76,0.44,1.63,0.66,2.59,0.66C186.27,516.76,187.13,516.54,187.89,516.11z"/>
	</g>
	<g>
		<path d="M253.62,516.61v1.65h-12.64v-1.31l7.49-7.34c0.94-0.93,1.58-1.73,1.92-2.41s0.5-1.36,0.5-2.05c0-1.06-0.37-1.89-1.09-2.48
			c-0.73-0.59-1.77-0.89-3.13-0.89c-2.11,0-3.75,0.67-4.92,2.01l-1.31-1.13c0.7-0.82,1.6-1.46,2.69-1.9
			c1.09-0.45,2.32-0.67,3.69-0.67c1.84,0,3.29,0.43,4.36,1.3c1.07,0.87,1.61,2.06,1.61,3.56c0,0.93-0.21,1.82-0.62,2.68
			c-0.41,0.86-1.19,1.85-2.34,2.96l-6.13,6.02H253.62z"/>
		<path d="M257.9,507.73c-0.63-0.36-1.12-0.85-1.48-1.48c-0.36-0.63-0.54-1.32-0.54-2.07c0-0.74,0.18-1.42,0.54-2.05
			s0.85-1.12,1.48-1.48s1.32-0.54,2.07-0.54s1.45,0.18,2.08,0.54s1.13,0.85,1.49,1.48s0.54,1.31,0.54,2.05
			c0,0.75-0.18,1.45-0.54,2.07c-0.36,0.63-0.86,1.12-1.49,1.48s-1.33,0.54-2.08,0.54S258.53,508.09,257.9,507.73z M262.1,506.33
			c0.57-0.57,0.86-1.29,0.86-2.15c0-0.84-0.29-1.55-0.86-2.12c-0.58-0.57-1.28-0.86-2.12-0.86s-1.54,0.29-2.11,0.86
			s-0.85,1.28-0.85,2.12c0,0.86,0.28,1.57,0.85,2.15c0.57,0.58,1.27,0.86,2.11,0.86S261.52,506.9,262.1,506.33z"/>
		<path d="M278.56,501.89h-6.33v-1.65h14.57v1.65h-6.33v16.37h-1.9V501.89z"/>
		<path d="M297.5,505.94c0.94,0.88,1.42,2.19,1.42,3.93v8.39h-1.75v-2.11c-0.41,0.7-1.02,1.25-1.81,1.65
			c-0.8,0.4-1.75,0.59-2.84,0.59c-1.51,0-2.71-0.36-3.6-1.08c-0.89-0.72-1.34-1.67-1.34-2.86c0-1.15,0.42-2.08,1.25-2.78
			s2.16-1.06,3.98-1.06h4.3v-0.82c0-1.17-0.33-2.06-0.98-2.66c-0.65-0.61-1.61-0.91-2.86-0.91c-0.86,0-1.68,0.14-2.47,0.42
			c-0.79,0.28-1.47,0.67-2.03,1.17l-0.82-1.36c0.69-0.58,1.51-1.03,2.47-1.35c0.96-0.32,1.97-0.48,3.04-0.48
			C295.2,504.61,296.56,505.06,297.5,505.94z M295.44,516.24c0.74-0.47,1.29-1.15,1.65-2.05v-2.21h-4.25
			c-2.32,0-3.47,0.81-3.47,2.42c0,0.79,0.3,1.41,0.9,1.87s1.44,0.68,2.52,0.68C293.82,516.94,294.71,516.71,295.44,516.24z"/>
		<path d="M304.36,517.91c-1-0.32-1.79-0.72-2.35-1.2l0.82-1.44c0.57,0.45,1.28,0.81,2.14,1.09c0.86,0.28,1.75,0.42,2.68,0.42
			c1.24,0,2.15-0.19,2.74-0.58s0.89-0.93,0.89-1.63c0-0.5-0.16-0.89-0.49-1.17c-0.33-0.28-0.74-0.5-1.24-0.64
			c-0.5-0.15-1.16-0.29-1.98-0.42c-1.1-0.21-1.98-0.42-2.65-0.63c-0.67-0.21-1.24-0.58-1.71-1.09c-0.47-0.51-0.71-1.23-0.71-2.14
			c0-1.13,0.47-2.06,1.42-2.78c0.94-0.72,2.26-1.08,3.94-1.08c0.88,0,1.75,0.12,2.63,0.35c0.88,0.23,1.6,0.54,2.16,0.91l-0.8,1.47
			c-1.12-0.77-2.45-1.16-3.99-1.16c-1.17,0-2.05,0.21-2.64,0.62c-0.59,0.41-0.89,0.95-0.89,1.62c0,0.51,0.17,0.93,0.5,1.24
			c0.33,0.31,0.75,0.54,1.25,0.68c0.5,0.15,1.18,0.3,2.06,0.45c1.08,0.21,1.95,0.41,2.6,0.62c0.65,0.21,1.21,0.56,1.67,1.06
			c0.46,0.5,0.7,1.18,0.7,2.06c0,1.18-0.49,2.12-1.48,2.82c-0.99,0.69-2.36,1.04-4.11,1.04
			C306.42,518.38,305.37,518.23,304.36,517.91z"/>
		<path d="M323.6,517.43c-0.34,0.31-0.77,0.54-1.27,0.71c-0.51,0.16-1.03,0.24-1.58,0.24c-1.27,0-2.25-0.34-2.93-1.03
			c-0.69-0.69-1.03-1.66-1.03-2.91v-8.19h-2.42v-1.54h2.42v-2.96h1.83v2.96h4.12v1.54h-4.12v8.08c0,0.81,0.2,1.42,0.61,1.84
			c0.4,0.42,0.98,0.63,1.74,0.63c0.38,0,0.74-0.06,1.09-0.18s0.66-0.29,0.91-0.51L323.6,517.43z"/>
		<path d="M328.44,517.5c-1.05-0.59-1.87-1.41-2.47-2.46s-0.9-2.23-0.9-3.55s0.3-2.51,0.9-3.55c0.6-1.05,1.42-1.86,2.47-2.45
			c1.05-0.58,2.22-0.88,3.53-0.88c1.3,0,2.48,0.29,3.53,0.88c1.05,0.58,1.87,1.4,2.46,2.45c0.59,1.05,0.89,2.23,0.89,3.55
			s-0.3,2.51-0.89,3.55s-1.41,1.87-2.46,2.46c-1.05,0.59-2.22,0.89-3.53,0.89C330.66,518.38,329.49,518.09,328.44,517.5z
			 M334.56,516.11c0.76-0.44,1.36-1.06,1.79-1.87c0.43-0.81,0.64-1.72,0.64-2.75c0-1.03-0.21-1.95-0.64-2.75
			c-0.43-0.81-1.03-1.43-1.79-1.87c-0.76-0.44-1.63-0.66-2.59-0.66c-0.96,0-1.82,0.22-2.59,0.66c-0.76,0.44-1.36,1.06-1.8,1.87
			c-0.44,0.81-0.66,1.72-0.66,2.75c0,1.03,0.22,1.95,0.66,2.75c0.44,0.81,1.04,1.43,1.8,1.87c0.76,0.44,1.63,0.66,2.59,0.66
			C332.93,516.76,333.79,516.54,334.56,516.11z"/>
	</g>
	<g>
		<path d="M396,509.49c0.99,0.92,1.48,2.12,1.48,3.59c0,1.03-0.25,1.94-0.75,2.74c-0.5,0.8-1.24,1.43-2.21,1.89
			s-2.17,0.69-3.58,0.69c-1.3,0-2.54-0.21-3.69-0.63s-2.09-0.98-2.79-1.69l0.9-1.47c0.6,0.62,1.4,1.12,2.39,1.51
			c1,0.39,2.06,0.58,3.19,0.58c1.48,0,2.62-0.32,3.42-0.97c0.81-0.64,1.21-1.53,1.21-2.66c0-1.12-0.4-1.99-1.21-2.63
			c-0.81-0.63-2.02-0.95-3.66-0.95h-1.29v-1.36l4.99-6.25h-9.21v-1.65h11.58v1.31l-5.1,6.41C393.57,508.06,395.01,508.57,396,509.49
			z"/>
		<path d="M401.66,507.73c-0.63-0.36-1.12-0.85-1.48-1.48c-0.36-0.63-0.54-1.32-0.54-2.07c0-0.74,0.18-1.42,0.54-2.05
			s0.85-1.12,1.48-1.48c0.63-0.36,1.32-0.54,2.07-0.54c0.75,0,1.45,0.18,2.08,0.54c0.63,0.36,1.13,0.85,1.49,1.48
			s0.54,1.31,0.54,2.05c0,0.75-0.18,1.45-0.54,2.07c-0.36,0.63-0.86,1.12-1.49,1.48c-0.64,0.36-1.33,0.54-2.08,0.54
			C402.97,508.27,402.28,508.09,401.66,507.73z M405.85,506.33c0.57-0.57,0.86-1.29,0.86-2.15c0-0.84-0.29-1.55-0.86-2.12
			c-0.58-0.57-1.28-0.86-2.12-0.86c-0.84,0-1.54,0.29-2.11,0.86s-0.85,1.28-0.85,2.12c0,0.86,0.28,1.57,0.85,2.15
			c0.57,0.58,1.27,0.86,2.11,0.86C404.57,507.19,405.28,506.9,405.85,506.33z"/>
		<path d="M422.31,501.89h-6.33v-1.65h14.57v1.65h-6.33v16.37h-1.9V501.89z"/>
		<path d="M441.26,505.94c0.94,0.88,1.42,2.19,1.42,3.93v8.39h-1.75v-2.11c-0.41,0.7-1.02,1.25-1.81,1.65
			c-0.8,0.4-1.75,0.59-2.84,0.59c-1.51,0-2.71-0.36-3.6-1.08c-0.89-0.72-1.34-1.67-1.34-2.86c0-1.15,0.42-2.08,1.25-2.78
			c0.83-0.7,2.16-1.06,3.98-1.06h4.3v-0.82c0-1.17-0.33-2.06-0.98-2.66c-0.65-0.61-1.6-0.91-2.86-0.91c-0.86,0-1.68,0.14-2.47,0.42
			c-0.79,0.28-1.47,0.67-2.03,1.17l-0.82-1.36c0.69-0.58,1.51-1.03,2.47-1.35c0.96-0.32,1.97-0.48,3.04-0.48
			C438.96,504.61,440.31,505.06,441.26,505.94z M439.2,516.24c0.74-0.47,1.29-1.15,1.65-2.05v-2.21h-4.25
			c-2.32,0-3.48,0.81-3.48,2.42c0,0.79,0.3,1.41,0.9,1.87s1.44,0.68,2.52,0.68C437.58,516.94,438.46,516.71,439.2,516.24z"/>
		<path d="M448.12,517.91c-1-0.32-1.79-0.72-2.35-1.2l0.82-1.44c0.57,0.45,1.28,0.81,2.14,1.09c0.86,0.28,1.75,0.42,2.68,0.42
			c1.24,0,2.15-0.19,2.74-0.58c0.59-0.39,0.89-0.93,0.89-1.63c0-0.5-0.16-0.89-0.49-1.17c-0.33-0.28-0.74-0.5-1.24-0.64
			c-0.5-0.15-1.16-0.29-1.98-0.42c-1.1-0.21-1.98-0.42-2.65-0.63c-0.67-0.21-1.24-0.58-1.71-1.09c-0.47-0.51-0.71-1.23-0.71-2.14
			c0-1.13,0.47-2.06,1.42-2.78c0.94-0.72,2.26-1.08,3.94-1.08c0.88,0,1.75,0.12,2.63,0.35c0.88,0.23,1.6,0.54,2.16,0.91l-0.8,1.47
			c-1.12-0.77-2.45-1.16-3.99-1.16c-1.17,0-2.05,0.21-2.64,0.62c-0.59,0.41-0.89,0.95-0.89,1.62c0,0.51,0.17,0.93,0.5,1.24
			s0.75,0.54,1.25,0.68c0.5,0.15,1.18,0.3,2.06,0.45c1.08,0.21,1.95,0.41,2.6,0.62c0.65,0.21,1.21,0.56,1.67,1.06
			c0.46,0.5,0.69,1.18,0.69,2.06c0,1.18-0.49,2.12-1.48,2.82c-0.99,0.69-2.36,1.04-4.11,1.04
			C450.17,518.38,449.12,518.23,448.12,517.91z"/>
		<path d="M467.36,517.43c-0.34,0.31-0.77,0.54-1.27,0.71c-0.51,0.16-1.03,0.24-1.58,0.24c-1.27,0-2.25-0.34-2.93-1.03
			c-0.69-0.69-1.03-1.66-1.03-2.91v-8.19h-2.42v-1.54h2.42v-2.96h1.83v2.96h4.12v1.54h-4.12v8.08c0,0.81,0.2,1.42,0.6,1.84
			c0.4,0.42,0.98,0.63,1.74,0.63c0.38,0,0.74-0.06,1.09-0.18c0.35-0.12,0.66-0.29,0.91-0.51L467.36,517.43z"/>
		<path d="M472.2,517.5c-1.05-0.59-1.87-1.41-2.47-2.46c-0.6-1.05-0.9-2.23-0.9-3.55s0.3-2.51,0.9-3.55
			c0.6-1.05,1.42-1.86,2.47-2.45c1.05-0.58,2.22-0.88,3.53-0.88c1.3,0,2.48,0.29,3.53,0.88c1.05,0.58,1.87,1.4,2.46,2.45
			c0.59,1.05,0.89,2.23,0.89,3.55s-0.3,2.51-0.89,3.55s-1.41,1.87-2.46,2.46c-1.05,0.59-2.22,0.89-3.53,0.89
			C474.42,518.38,473.24,518.09,472.2,517.5z M478.31,516.11c0.76-0.44,1.36-1.06,1.79-1.87c0.43-0.81,0.64-1.72,0.64-2.75
			c0-1.03-0.21-1.95-0.64-2.75c-0.43-0.81-1.03-1.43-1.79-1.87c-0.76-0.44-1.63-0.66-2.59-0.66c-0.96,0-1.82,0.22-2.59,0.66
			c-0.76,0.44-1.36,1.06-1.8,1.87c-0.44,0.81-0.66,1.72-0.66,2.75c0,1.03,0.22,1.95,0.66,2.75c0.44,0.81,1.04,1.43,1.8,1.87
			c0.76,0.44,1.63,0.66,2.59,0.66C476.68,516.76,477.55,516.54,478.31,516.11z"/>
	</g>
	<g>
		<path d="M543.82,513.52h-3.6v4.74h-1.85v-4.74h-10.17v-1.34l9.55-11.94h2.06l-9.21,11.63h7.83v-4.17h1.8v4.17h3.6V513.52z"/>
		<path d="M546.71,507.73c-0.63-0.36-1.12-0.85-1.48-1.48c-0.36-0.63-0.54-1.32-0.54-2.07c0-0.74,0.18-1.42,0.54-2.05
			s0.85-1.12,1.48-1.48c0.63-0.36,1.32-0.54,2.07-0.54c0.75,0,1.45,0.18,2.08,0.54c0.63,0.36,1.13,0.85,1.49,1.48
			s0.54,1.31,0.54,2.05c0,0.75-0.18,1.45-0.54,2.07c-0.36,0.63-0.86,1.12-1.49,1.48c-0.64,0.36-1.33,0.54-2.08,0.54
			C548.03,508.27,547.34,508.09,546.71,507.73z M550.91,506.33c0.57-0.57,0.86-1.29,0.86-2.15c0-0.84-0.29-1.55-0.86-2.12
			c-0.58-0.57-1.28-0.86-2.12-0.86c-0.84,0-1.54,0.29-2.11,0.86s-0.85,1.28-0.85,2.12c0,0.86,0.28,1.57,0.85,2.15
			c0.57,0.58,1.27,0.86,2.11,0.86C549.63,507.19,550.33,506.9,550.91,506.33z"/>
		<path d="M567.37,501.89h-6.33v-1.65h14.57v1.65h-6.33v16.37h-1.9V501.89z"/>
		<path d="M586.31,505.94c0.94,0.88,1.42,2.19,1.42,3.93v8.39h-1.75v-2.11c-0.41,0.7-1.02,1.25-1.81,1.65
			c-0.8,0.4-1.75,0.59-2.84,0.59c-1.51,0-2.71-0.36-3.6-1.08c-0.89-0.72-1.34-1.67-1.34-2.86c0-1.15,0.42-2.08,1.25-2.78
			c0.83-0.7,2.16-1.06,3.98-1.06h4.3v-0.82c0-1.17-0.33-2.06-0.98-2.66c-0.65-0.61-1.6-0.91-2.86-0.91c-0.86,0-1.68,0.14-2.47,0.42
			c-0.79,0.28-1.47,0.67-2.03,1.17l-0.82-1.36c0.69-0.58,1.51-1.03,2.47-1.35c0.96-0.32,1.97-0.48,3.04-0.48
			C584.01,504.61,585.37,505.06,586.31,505.94z M584.25,516.24c0.74-0.47,1.29-1.15,1.65-2.05v-2.21h-4.25
			c-2.32,0-3.48,0.81-3.48,2.42c0,0.79,0.3,1.41,0.9,1.87s1.44,0.68,2.52,0.68C582.63,516.94,583.52,516.71,584.25,516.24z"/>
		<path d="M593.17,517.91c-1-0.32-1.79-0.72-2.35-1.2l0.82-1.44c0.57,0.45,1.28,0.81,2.14,1.09c0.86,0.28,1.75,0.42,2.68,0.42
			c1.24,0,2.15-0.19,2.74-0.58c0.59-0.39,0.89-0.93,0.89-1.63c0-0.5-0.16-0.89-0.49-1.17c-0.33-0.28-0.74-0.5-1.24-0.64
			c-0.5-0.15-1.16-0.29-1.98-0.42c-1.1-0.21-1.98-0.42-2.65-0.63c-0.67-0.21-1.24-0.58-1.71-1.09c-0.47-0.51-0.71-1.23-0.71-2.14
			c0-1.13,0.47-2.06,1.42-2.78c0.94-0.72,2.26-1.08,3.94-1.08c0.88,0,1.75,0.12,2.63,0.35c0.88,0.23,1.6,0.54,2.16,0.91l-0.8,1.47
			c-1.12-0.77-2.45-1.16-3.99-1.16c-1.17,0-2.05,0.21-2.64,0.62c-0.59,0.41-0.89,0.95-0.89,1.62c0,0.51,0.17,0.93,0.5,1.24
			s0.75,0.54,1.25,0.68c0.5,0.15,1.18,0.3,2.06,0.45c1.08,0.21,1.95,0.41,2.6,0.62c0.65,0.21,1.21,0.56,1.67,1.06
			c0.46,0.5,0.69,1.18,0.69,2.06c0,1.18-0.49,2.12-1.48,2.82c-0.99,0.69-2.36,1.04-4.11,1.04
			C595.23,518.38,594.18,518.23,593.17,517.91z"/>
		<path d="M612.41,517.43c-0.34,0.31-0.77,0.54-1.27,0.71c-0.51,0.16-1.03,0.24-1.58,0.24c-1.27,0-2.25-0.34-2.93-1.03
			c-0.69-0.69-1.03-1.66-1.03-2.91v-8.19h-2.42v-1.54h2.42v-2.96h1.83v2.96h4.12v1.54h-4.12v8.08c0,0.81,0.2,1.42,0.6,1.84
			c0.4,0.42,0.98,0.63,1.74,0.63c0.38,0,0.74-0.06,1.09-0.18c0.35-0.12,0.66-0.29,0.91-0.51L612.41,517.43z"/>
		<path d="M617.25,517.5c-1.05-0.59-1.87-1.41-2.47-2.46c-0.6-1.05-0.9-2.23-0.9-3.55s0.3-2.51,0.9-3.55
			c0.6-1.05,1.42-1.86,2.47-2.45c1.05-0.58,2.22-0.88,3.53-0.88c1.3,0,2.48,0.29,3.53,0.88c1.05,0.58,1.87,1.4,2.46,2.45
			c0.59,1.05,0.89,2.23,0.89,3.55s-0.3,2.51-0.89,3.55s-1.41,1.87-2.46,2.46c-1.05,0.59-2.22,0.89-3.53,0.89
			C619.48,518.38,618.3,518.09,617.25,517.5z M623.37,516.11c0.76-0.44,1.36-1.06,1.79-1.87c0.43-0.81,0.64-1.72,0.64-2.75
			c0-1.03-0.21-1.95-0.64-2.75c-0.43-0.81-1.03-1.43-1.79-1.87c-0.76-0.44-1.63-0.66-2.59-0.66c-0.96,0-1.82,0.22-2.59,0.66
			c-0.76,0.44-1.36,1.06-1.8,1.87c-0.44,0.81-0.66,1.72-0.66,2.75c0,1.03,0.22,1.95,0.66,2.75c0.44,0.81,1.04,1.43,1.8,1.87
			c0.76,0.44,1.63,0.66,2.59,0.66C621.74,516.76,622.6,516.54,623.37,516.11z"/>
	</g>
	<g>
		<path d="M683.97,509.03c1.19,0.94,1.79,2.24,1.79,3.93c0,1.05-0.24,1.98-0.73,2.81c-0.49,0.82-1.22,1.47-2.2,1.94
			c-0.98,0.47-2.18,0.71-3.6,0.71c-1.29,0-2.51-0.21-3.67-0.63c-1.16-0.42-2.09-0.98-2.79-1.69l0.9-1.47
			c0.6,0.62,1.39,1.12,2.37,1.51c0.98,0.39,2.03,0.58,3.17,0.58c1.49,0,2.65-0.33,3.46-1c0.81-0.67,1.22-1.56,1.22-2.68
			c0-1.24-0.46-2.17-1.38-2.81c-0.92-0.63-2.47-0.95-4.65-0.95h-3.83l0.93-9.03h9.86v1.65h-8.24l-0.62,5.74h2.32
			C680.88,507.63,682.78,508.09,683.97,509.03z"/>
		<path d="M689.68,507.73c-0.63-0.36-1.12-0.85-1.48-1.48c-0.36-0.63-0.54-1.32-0.54-2.07c0-0.74,0.18-1.42,0.54-2.05
			s0.85-1.12,1.48-1.48c0.63-0.36,1.32-0.54,2.07-0.54c0.75,0,1.45,0.18,2.08,0.54c0.63,0.36,1.13,0.85,1.49,1.48
			s0.54,1.31,0.54,2.05c0,0.75-0.18,1.45-0.54,2.07c-0.36,0.63-0.86,1.12-1.49,1.48c-0.64,0.36-1.33,0.54-2.08,0.54
			C691,508.27,690.31,508.09,689.68,507.73z M693.88,506.33c0.57-0.57,0.86-1.29,0.86-2.15c0-0.84-0.29-1.55-0.86-2.12
			c-0.58-0.57-1.28-0.86-2.12-0.86c-0.84,0-1.54,0.29-2.11,0.86s-0.85,1.28-0.85,2.12c0,0.86,0.28,1.57,0.85,2.15
			c0.57,0.58,1.27,0.86,2.11,0.86C692.6,507.19,693.3,506.9,693.88,506.33z"/>
		<path d="M710.34,501.89h-6.33v-1.65h14.57v1.65h-6.33v16.37h-1.9V501.89z"/>
		<path d="M729.28,505.94c0.94,0.88,1.42,2.19,1.42,3.93v8.39h-1.75v-2.11c-0.41,0.7-1.02,1.25-1.81,1.65
			c-0.8,0.4-1.75,0.59-2.84,0.59c-1.51,0-2.71-0.36-3.6-1.08c-0.89-0.72-1.34-1.67-1.34-2.86c0-1.15,0.42-2.08,1.25-2.78
			c0.83-0.7,2.16-1.06,3.98-1.06h4.3v-0.82c0-1.17-0.33-2.06-0.98-2.66c-0.65-0.61-1.6-0.91-2.86-0.91c-0.86,0-1.68,0.14-2.47,0.42
			c-0.79,0.28-1.47,0.67-2.03,1.17l-0.82-1.36c0.69-0.58,1.51-1.03,2.47-1.35c0.96-0.32,1.97-0.48,3.04-0.48
			C726.98,504.61,728.34,505.06,729.28,505.94z M727.23,516.24c0.74-0.47,1.29-1.15,1.65-2.05v-2.21h-4.25
			c-2.32,0-3.48,0.81-3.48,2.42c0,0.79,0.3,1.41,0.9,1.87s1.44,0.68,2.52,0.68C725.6,516.94,726.49,516.71,727.23,516.24z"/>
		<path d="M736.14,517.91c-1-0.32-1.79-0.72-2.35-1.2l0.82-1.44c0.57,0.45,1.28,0.81,2.14,1.09c0.86,0.28,1.75,0.42,2.68,0.42
			c1.24,0,2.15-0.19,2.74-0.58c0.59-0.39,0.89-0.93,0.89-1.63c0-0.5-0.16-0.89-0.49-1.17c-0.33-0.28-0.74-0.5-1.24-0.64
			c-0.5-0.15-1.16-0.29-1.98-0.42c-1.1-0.21-1.98-0.42-2.65-0.63c-0.67-0.21-1.24-0.58-1.71-1.09c-0.47-0.51-0.71-1.23-0.71-2.14
			c0-1.13,0.47-2.06,1.42-2.78c0.94-0.72,2.26-1.08,3.94-1.08c0.88,0,1.75,0.12,2.63,0.35c0.88,0.23,1.6,0.54,2.16,0.91l-0.8,1.47
			c-1.12-0.77-2.45-1.16-3.99-1.16c-1.17,0-2.05,0.21-2.64,0.62c-0.59,0.41-0.89,0.95-0.89,1.62c0,0.51,0.17,0.93,0.5,1.24
			s0.75,0.54,1.25,0.68c0.5,0.15,1.18,0.3,2.06,0.45c1.08,0.21,1.95,0.41,2.6,0.62c0.65,0.21,1.21,0.56,1.67,1.06
			c0.46,0.5,0.69,1.18,0.69,2.06c0,1.18-0.49,2.12-1.48,2.82c-0.99,0.69-2.36,1.04-4.11,1.04
			C738.2,518.39,737.15,518.23,736.14,517.91z"/>
		<path d="M755.38,517.43c-0.34,0.31-0.77,0.54-1.27,0.71c-0.51,0.16-1.03,0.24-1.58,0.24c-1.27,0-2.25-0.34-2.93-1.03
			c-0.69-0.69-1.03-1.66-1.03-2.91v-8.19h-2.42v-1.54h2.42v-2.96h1.83v2.96h4.12v1.54h-4.12v8.08c0,0.81,0.2,1.42,0.6,1.84
			c0.4,0.42,0.98,0.63,1.74,0.63c0.38,0,0.74-0.06,1.09-0.18c0.35-0.12,0.66-0.29,0.91-0.51L755.38,517.43z"/>
		<path d="M760.22,517.5c-1.05-0.59-1.87-1.41-2.47-2.46c-0.6-1.05-0.9-2.23-0.9-3.55s0.3-2.51,0.9-3.55
			c0.6-1.05,1.42-1.86,2.47-2.45c1.05-0.58,2.22-0.88,3.53-0.88c1.3,0,2.48,0.29,3.53,0.88c1.05,0.58,1.87,1.4,2.46,2.45
			c0.59,1.05,0.89,2.23,0.89,3.55s-0.3,2.51-0.89,3.55s-1.41,1.87-2.46,2.46c-1.05,0.59-2.22,0.89-3.53,0.89
			C762.45,518.39,761.27,518.09,760.22,517.5z M766.34,516.11c0.76-0.44,1.36-1.06,1.79-1.87c0.43-0.81,0.64-1.72,0.64-2.75
			c0-1.03-0.21-1.95-0.64-2.75c-0.43-0.81-1.03-1.43-1.79-1.87c-0.76-0.44-1.63-0.66-2.59-0.66c-0.96,0-1.82,0.22-2.59,0.66
			c-0.76,0.44-1.36,1.06-1.8,1.87c-0.44,0.81-0.66,1.72-0.66,2.75c0,1.03,0.22,1.95,0.66,2.75c0.44,0.81,1.04,1.43,1.8,1.87
			c0.76,0.44,1.63,0.66,2.59,0.66C764.71,516.76,765.57,516.54,766.34,516.11z"/>
	</g>
	<g>
		<path d="M827.67,508.14c0.92,0.45,1.63,1.08,2.15,1.89c0.51,0.82,0.77,1.76,0.77,2.84c0,1.1-0.27,2.07-0.8,2.91
			c-0.53,0.84-1.27,1.49-2.2,1.94c-0.94,0.46-1.99,0.68-3.15,0.68c-2.39,0-4.21-0.79-5.48-2.35c-1.27-1.57-1.9-3.79-1.9-6.65
			c0-2.01,0.34-3.71,1.03-5.1c0.69-1.39,1.65-2.44,2.88-3.15s2.68-1.07,4.32-1.07c1.78,0,3.21,0.33,4.27,0.98l-0.75,1.49
			c-0.86-0.57-2.02-0.85-3.5-0.85c-1.99,0-3.55,0.63-4.68,1.89c-1.13,1.26-1.7,3.09-1.7,5.5c0,0.43,0.03,0.92,0.08,1.47
			c0.45-0.98,1.16-1.74,2.14-2.28s2.1-0.81,3.37-0.81C825.7,507.47,826.76,507.69,827.67,508.14z M827.54,515.77
			c0.81-0.71,1.22-1.66,1.22-2.84s-0.41-2.13-1.22-2.83c-0.82-0.7-1.92-1.06-3.31-1.06c-0.91,0-1.71,0.17-2.41,0.51
			c-0.69,0.34-1.24,0.82-1.63,1.42c-0.39,0.6-0.59,1.27-0.59,2.01c0,0.69,0.18,1.32,0.55,1.9c0.37,0.58,0.91,1.06,1.63,1.42
			s1.58,0.54,2.57,0.54C825.67,516.84,826.73,516.48,827.54,515.77z"/>
		<path d="M834.16,507.73c-0.63-0.36-1.12-0.85-1.48-1.48c-0.36-0.63-0.54-1.32-0.54-2.07c0-0.74,0.18-1.42,0.54-2.05
			s0.85-1.12,1.48-1.48c0.63-0.36,1.32-0.54,2.07-0.54c0.75,0,1.45,0.18,2.08,0.54c0.63,0.36,1.13,0.85,1.49,1.48
			s0.54,1.31,0.54,2.05c0,0.75-0.18,1.45-0.54,2.07c-0.36,0.63-0.86,1.12-1.49,1.48c-0.64,0.36-1.33,0.54-2.08,0.54
			C835.48,508.27,834.79,508.09,834.16,507.73z M838.36,506.33c0.57-0.57,0.86-1.29,0.86-2.15c0-0.84-0.29-1.55-0.86-2.12
			c-0.58-0.57-1.28-0.86-2.12-0.86c-0.84,0-1.54,0.29-2.11,0.86s-0.85,1.28-0.85,2.12c0,0.86,0.28,1.57,0.85,2.15
			c0.57,0.58,1.27,0.86,2.11,0.86C837.07,507.19,837.78,506.9,838.36,506.33z"/>
		<path d="M854.82,501.89h-6.33v-1.65h14.57v1.65h-6.33v16.37h-1.9V501.89z"/>
		<path d="M873.76,505.94c0.94,0.88,1.42,2.19,1.42,3.93v8.39h-1.75v-2.11c-0.41,0.7-1.02,1.25-1.81,1.65
			c-0.8,0.4-1.75,0.59-2.84,0.59c-1.51,0-2.71-0.36-3.6-1.08c-0.89-0.72-1.34-1.67-1.34-2.86c0-1.15,0.42-2.08,1.25-2.78
			c0.83-0.7,2.16-1.06,3.98-1.06h4.3v-0.82c0-1.17-0.33-2.06-0.98-2.66c-0.65-0.61-1.6-0.91-2.86-0.91c-0.86,0-1.68,0.14-2.47,0.42
			c-0.79,0.28-1.47,0.67-2.03,1.17l-0.82-1.36c0.69-0.58,1.51-1.03,2.47-1.35c0.96-0.32,1.97-0.48,3.04-0.48
			C871.46,504.61,872.82,505.06,873.76,505.94z M871.7,516.24c0.74-0.47,1.29-1.15,1.65-2.05v-2.21h-4.25
			c-2.32,0-3.48,0.81-3.48,2.42c0,0.79,0.3,1.41,0.9,1.87s1.44,0.68,2.52,0.68C870.08,516.94,870.96,516.71,871.7,516.24z"/>
		<path d="M880.62,517.91c-1-0.32-1.79-0.72-2.35-1.2l0.82-1.44c0.57,0.45,1.28,0.81,2.14,1.09c0.86,0.28,1.75,0.42,2.68,0.42
			c1.24,0,2.15-0.19,2.74-0.58c0.59-0.39,0.89-0.93,0.89-1.63c0-0.5-0.16-0.89-0.49-1.17c-0.33-0.28-0.74-0.5-1.24-0.64
			c-0.5-0.15-1.16-0.29-1.98-0.42c-1.1-0.21-1.98-0.42-2.65-0.63c-0.67-0.21-1.24-0.58-1.71-1.09c-0.47-0.51-0.71-1.23-0.71-2.14
			c0-1.13,0.47-2.06,1.42-2.78c0.94-0.72,2.26-1.08,3.94-1.08c0.88,0,1.75,0.12,2.63,0.35c0.88,0.23,1.6,0.54,2.16,0.91l-0.8,1.47
			c-1.12-0.77-2.45-1.16-3.99-1.16c-1.17,0-2.05,0.21-2.64,0.62c-0.59,0.41-0.89,0.95-0.89,1.62c0,0.51,0.17,0.93,0.5,1.24
			s0.75,0.54,1.25,0.68c0.5,0.15,1.18,0.3,2.06,0.45c1.08,0.21,1.95,0.41,2.6,0.62c0.65,0.21,1.21,0.56,1.67,1.06
			c0.46,0.5,0.69,1.18,0.69,2.06c0,1.18-0.49,2.12-1.48,2.82c-0.99,0.69-2.36,1.04-4.11,1.04
			C882.67,518.38,881.62,518.23,880.62,517.91z"/>
		<path d="M899.86,517.43c-0.34,0.31-0.77,0.54-1.27,0.71c-0.51,0.16-1.03,0.24-1.58,0.24c-1.27,0-2.25-0.34-2.93-1.03
			c-0.69-0.69-1.03-1.66-1.03-2.91v-8.19h-2.42v-1.54h2.42v-2.96h1.83v2.96h4.12v1.54h-4.12v8.08c0,0.81,0.2,1.42,0.6,1.84
			c0.4,0.42,0.98,0.63,1.74,0.63c0.38,0,0.74-0.06,1.09-0.18c0.35-0.12,0.66-0.29,0.91-0.51L899.86,517.43z"/>
		<path d="M904.7,517.5c-1.05-0.59-1.87-1.41-2.47-2.46c-0.6-1.05-0.9-2.23-0.9-3.55s0.3-2.51,0.9-3.55
			c0.6-1.05,1.42-1.86,2.47-2.45c1.05-0.58,2.22-0.88,3.53-0.88c1.3,0,2.48,0.29,3.53,0.88c1.05,0.58,1.87,1.4,2.46,2.45
			c0.59,1.05,0.89,2.23,0.89,3.55s-0.3,2.51-0.89,3.55s-1.41,1.87-2.46,2.46c-1.05,0.59-2.22,0.89-3.53,0.89
			C906.92,518.38,905.75,518.09,904.7,517.5z M910.81,516.11c0.76-0.44,1.36-1.06,1.79-1.87c0.43-0.81,0.64-1.72,0.64-2.75
			c0-1.03-0.21-1.95-0.64-2.75c-0.43-0.81-1.03-1.43-1.79-1.87c-0.76-0.44-1.63-0.66-2.59-0.66c-0.96,0-1.82,0.22-2.59,0.66
			c-0.76,0.44-1.36,1.06-1.8,1.87c-0.44,0.81-0.66,1.72-0.66,2.75c0,1.03,0.22,1.95,0.66,2.75c0.44,0.81,1.04,1.43,1.8,1.87
			c0.76,0.44,1.63,0.66,2.59,0.66C909.19,516.76,910.05,516.54,910.81,516.11z"/>
	</g>
	<g>
		<path d="M973.71,500.24v1.31l-7.54,16.71h-2.01l7.41-16.37h-9.27v3.37h-1.83v-5.02H973.71z"/>
		<path d="M978.22,507.73c-0.63-0.36-1.12-0.85-1.48-1.48c-0.36-0.63-0.54-1.32-0.54-2.07c0-0.74,0.18-1.42,0.54-2.05
			s0.85-1.12,1.48-1.48c0.63-0.36,1.32-0.54,2.07-0.54c0.75,0,1.45,0.18,2.08,0.54c0.63,0.36,1.13,0.85,1.49,1.48
			c0.36,0.63,0.54,1.31,0.54,2.05c0,0.75-0.18,1.45-0.54,2.07c-0.36,0.63-0.86,1.12-1.49,1.48c-0.64,0.36-1.33,0.54-2.08,0.54
			C979.54,508.27,978.85,508.09,978.22,507.73z M982.42,506.33c0.58-0.57,0.86-1.29,0.86-2.15c0-0.84-0.29-1.55-0.86-2.12
			s-1.28-0.86-2.12-0.86s-1.54,0.29-2.11,0.86c-0.57,0.57-0.85,1.28-0.85,2.12c0,0.86,0.28,1.57,0.85,2.15
			c0.57,0.58,1.27,0.86,2.11,0.86S981.84,506.9,982.42,506.33z"/>
		<path d="M998.88,501.89h-6.33v-1.65h14.57v1.65h-6.33v16.37h-1.91V501.89z"/>
		<path d="M1017.83,505.94c0.94,0.88,1.42,2.19,1.42,3.93v8.39h-1.75v-2.11c-0.41,0.7-1.02,1.25-1.81,1.65
			c-0.8,0.4-1.75,0.59-2.84,0.59c-1.51,0-2.71-0.36-3.6-1.08c-0.89-0.72-1.34-1.67-1.34-2.86c0-1.15,0.42-2.08,1.25-2.78
			s2.16-1.06,3.98-1.06h4.3v-0.82c0-1.17-0.33-2.06-0.98-2.66c-0.65-0.61-1.6-0.91-2.86-0.91c-0.86,0-1.68,0.14-2.47,0.42
			s-1.47,0.67-2.03,1.17l-0.82-1.36c0.69-0.58,1.51-1.03,2.47-1.35c0.96-0.32,1.97-0.48,3.04-0.48
			C1015.53,504.61,1016.88,505.06,1017.83,505.94z M1015.77,516.24c0.74-0.47,1.29-1.15,1.65-2.05v-2.21h-4.25
			c-2.32,0-3.47,0.81-3.47,2.42c0,0.79,0.3,1.41,0.9,1.87s1.44,0.68,2.52,0.68C1014.14,516.94,1015.03,516.71,1015.77,516.24z"/>
		<path d="M1024.68,517.91c-1-0.32-1.79-0.72-2.36-1.2l0.82-1.44c0.57,0.45,1.28,0.81,2.14,1.09c0.86,0.28,1.75,0.42,2.68,0.42
			c1.24,0,2.15-0.19,2.74-0.58s0.89-0.93,0.89-1.63c0-0.5-0.16-0.89-0.49-1.17s-0.74-0.5-1.24-0.64c-0.5-0.15-1.16-0.29-1.98-0.42
			c-1.1-0.21-1.98-0.42-2.65-0.63c-0.67-0.21-1.24-0.58-1.71-1.09c-0.47-0.51-0.71-1.23-0.71-2.14c0-1.13,0.47-2.06,1.42-2.78
			c0.94-0.72,2.26-1.08,3.94-1.08c0.88,0,1.75,0.12,2.63,0.35c0.88,0.23,1.6,0.54,2.16,0.91l-0.8,1.47
			c-1.12-0.77-2.45-1.16-3.99-1.16c-1.17,0-2.05,0.21-2.64,0.62c-0.59,0.41-0.89,0.95-0.89,1.62c0,0.51,0.17,0.93,0.5,1.24
			c0.33,0.31,0.75,0.54,1.25,0.68c0.5,0.15,1.18,0.3,2.06,0.45c1.08,0.21,1.95,0.41,2.6,0.62c0.65,0.21,1.21,0.56,1.67,1.06
			c0.46,0.5,0.69,1.18,0.69,2.06c0,1.18-0.49,2.12-1.48,2.82c-0.99,0.69-2.36,1.04-4.11,1.04
			C1026.74,518.38,1025.69,518.23,1024.68,517.91z"/>
		<path d="M1043.93,517.43c-0.34,0.31-0.77,0.54-1.27,0.71c-0.51,0.16-1.03,0.24-1.58,0.24c-1.27,0-2.25-0.34-2.93-1.03
			c-0.69-0.69-1.03-1.66-1.03-2.91v-8.19h-2.42v-1.54h2.42v-2.96h1.83v2.96h4.12v1.54h-4.12v8.08c0,0.81,0.2,1.42,0.61,1.84
			c0.4,0.42,0.98,0.63,1.74,0.63c0.38,0,0.74-0.06,1.09-0.18s0.66-0.29,0.91-0.51L1043.93,517.43z"/>
		<path d="M1048.76,517.5c-1.05-0.59-1.87-1.41-2.47-2.46s-0.9-2.23-0.9-3.55s0.3-2.51,0.9-3.55c0.6-1.05,1.42-1.86,2.47-2.45
			c1.05-0.58,2.22-0.88,3.53-0.88c1.3,0,2.48,0.29,3.53,0.88c1.05,0.58,1.87,1.4,2.46,2.45c0.59,1.05,0.89,2.23,0.89,3.55
			s-0.3,2.51-0.89,3.55c-0.59,1.05-1.41,1.87-2.46,2.46c-1.05,0.59-2.22,0.89-3.53,0.89
			C1050.99,518.38,1049.81,518.09,1048.76,517.5z M1054.88,516.11c0.76-0.44,1.36-1.06,1.79-1.87c0.43-0.81,0.64-1.72,0.64-2.75
			c0-1.03-0.21-1.95-0.64-2.75c-0.43-0.81-1.03-1.43-1.79-1.87c-0.76-0.44-1.63-0.66-2.59-0.66s-1.82,0.22-2.59,0.66
			c-0.76,0.44-1.36,1.06-1.8,1.87c-0.44,0.81-0.66,1.72-0.66,2.75c0,1.03,0.22,1.95,0.66,2.75c0.44,0.81,1.04,1.43,1.8,1.87
			s1.63,0.66,2.59,0.66S1054.11,516.54,1054.88,516.11z"/>
	</g>
	<g>
		<path d="M1117.35,510.51c0.61,0.76,0.91,1.66,0.91,2.73c0,1.05-0.28,1.96-0.85,2.74s-1.38,1.38-2.43,1.8
			c-1.05,0.42-2.29,0.63-3.72,0.63c-2.16,0-3.86-0.46-5.1-1.39c-1.24-0.93-1.85-2.19-1.85-3.78c0-1.08,0.3-1.99,0.89-2.74
			c0.59-0.75,1.45-1.31,2.59-1.69c-0.93-0.36-1.63-0.88-2.11-1.56c-0.48-0.68-0.72-1.48-0.72-2.41c0-1.46,0.57-2.62,1.71-3.47
			c1.14-0.86,2.67-1.29,4.59-1.29c1.27,0,2.38,0.19,3.33,0.58s1.69,0.94,2.23,1.66c0.53,0.72,0.8,1.56,0.8,2.52
			c0,0.93-0.25,1.73-0.75,2.41c-0.5,0.68-1.21,1.2-2.14,1.56C1115.87,509.19,1116.74,509.75,1117.35,510.51z M1115,515.86
			c0.9-0.65,1.35-1.54,1.35-2.65c0-1.12-0.45-2-1.35-2.64c-0.9-0.64-2.15-0.96-3.75-0.96c-1.58,0-2.82,0.32-3.72,0.96
			c-0.9,0.64-1.35,1.52-1.35,2.64c0,1.13,0.45,2.02,1.34,2.66c0.89,0.64,2.14,0.97,3.73,0.97S1114.1,516.51,1115,515.86z
			 M1107.99,507.26c0.79,0.58,1.88,0.88,3.27,0.88c1.39,0,2.48-0.29,3.28-0.88c0.8-0.58,1.2-1.36,1.2-2.34
			c0-1.01-0.41-1.81-1.22-2.39c-0.82-0.58-1.9-0.88-3.26-0.88c-1.37,0-2.46,0.29-3.26,0.88c-0.8,0.58-1.2,1.37-1.2,2.37
			S1107.2,506.68,1107.99,507.26z"/>
		<path d="M1122.8,507.73c-0.63-0.36-1.12-0.85-1.48-1.48c-0.36-0.63-0.54-1.32-0.54-2.07c0-0.74,0.18-1.42,0.54-2.05
			s0.85-1.12,1.48-1.48c0.63-0.36,1.32-0.54,2.07-0.54c0.75,0,1.45,0.18,2.08,0.54c0.63,0.36,1.13,0.85,1.49,1.48
			c0.36,0.63,0.54,1.31,0.54,2.05c0,0.75-0.18,1.45-0.54,2.07c-0.36,0.63-0.86,1.12-1.49,1.48c-0.64,0.36-1.33,0.54-2.08,0.54
			C1124.12,508.27,1123.43,508.09,1122.8,507.73z M1127,506.33c0.58-0.57,0.86-1.29,0.86-2.15c0-0.84-0.29-1.55-0.86-2.12
			s-1.28-0.86-2.12-0.86s-1.54,0.29-2.11,0.86c-0.57,0.57-0.85,1.28-0.85,2.12c0,0.86,0.28,1.57,0.85,2.15
			c0.57,0.58,1.27,0.86,2.11,0.86S1126.42,506.9,1127,506.33z"/>
		<path d="M1143.46,501.89h-6.33v-1.65h14.57v1.65h-6.33v16.37h-1.91V501.89z"/>
		<path d="M1162.41,505.94c0.94,0.88,1.42,2.19,1.42,3.93v8.39h-1.75v-2.11c-0.41,0.7-1.02,1.25-1.81,1.65
			c-0.8,0.4-1.75,0.59-2.84,0.59c-1.51,0-2.71-0.36-3.6-1.08c-0.89-0.72-1.34-1.67-1.34-2.86c0-1.15,0.42-2.08,1.25-2.78
			s2.16-1.06,3.98-1.06h4.3v-0.82c0-1.17-0.33-2.06-0.98-2.66c-0.65-0.61-1.6-0.91-2.86-0.91c-0.86,0-1.68,0.14-2.47,0.42
			s-1.47,0.67-2.03,1.17l-0.82-1.36c0.69-0.58,1.51-1.03,2.47-1.35c0.96-0.32,1.97-0.48,3.04-0.48
			C1160.11,504.61,1161.46,505.06,1162.41,505.94z M1160.35,516.24c0.74-0.47,1.29-1.15,1.65-2.05v-2.21h-4.25
			c-2.32,0-3.47,0.81-3.47,2.42c0,0.79,0.3,1.41,0.9,1.87s1.44,0.68,2.52,0.68C1158.72,516.94,1159.61,516.71,1160.35,516.24z"/>
		<path d="M1169.26,517.91c-1-0.32-1.79-0.72-2.36-1.2l0.82-1.44c0.57,0.45,1.28,0.81,2.14,1.09c0.86,0.28,1.75,0.42,2.68,0.42
			c1.24,0,2.15-0.19,2.74-0.58s0.89-0.93,0.89-1.63c0-0.5-0.16-0.89-0.49-1.17s-0.74-0.5-1.24-0.64c-0.5-0.15-1.16-0.29-1.98-0.42
			c-1.1-0.21-1.98-0.42-2.65-0.63c-0.67-0.21-1.24-0.58-1.71-1.09c-0.47-0.51-0.71-1.23-0.71-2.14c0-1.13,0.47-2.06,1.42-2.78
			c0.94-0.72,2.26-1.08,3.94-1.08c0.88,0,1.75,0.12,2.63,0.35c0.88,0.23,1.6,0.54,2.16,0.91l-0.8,1.47
			c-1.12-0.77-2.45-1.16-3.99-1.16c-1.17,0-2.05,0.21-2.64,0.62c-0.59,0.41-0.89,0.95-0.89,1.62c0,0.51,0.17,0.93,0.5,1.24
			c0.33,0.31,0.75,0.54,1.25,0.68c0.5,0.15,1.18,0.3,2.06,0.45c1.08,0.21,1.95,0.41,2.6,0.62c0.65,0.21,1.21,0.56,1.67,1.06
			c0.46,0.5,0.69,1.18,0.69,2.06c0,1.18-0.49,2.12-1.48,2.82c-0.99,0.69-2.36,1.04-4.11,1.04
			C1171.32,518.38,1170.27,518.23,1169.26,517.91z"/>
		<path d="M1188.51,517.43c-0.34,0.31-0.77,0.54-1.27,0.71c-0.51,0.16-1.03,0.24-1.58,0.24c-1.27,0-2.25-0.34-2.93-1.03
			c-0.69-0.69-1.03-1.66-1.03-2.91v-8.19h-2.42v-1.54h2.42v-2.96h1.83v2.96h4.12v1.54h-4.12v8.08c0,0.81,0.2,1.42,0.61,1.84
			c0.4,0.42,0.98,0.63,1.74,0.63c0.38,0,0.74-0.06,1.09-0.18s0.66-0.29,0.91-0.51L1188.51,517.43z"/>
		<path d="M1193.34,517.5c-1.05-0.59-1.87-1.41-2.47-2.46s-0.9-2.23-0.9-3.55s0.3-2.51,0.9-3.55c0.6-1.05,1.42-1.86,2.47-2.45
			c1.05-0.58,2.22-0.88,3.53-0.88c1.3,0,2.48,0.29,3.53,0.88c1.05,0.58,1.87,1.4,2.46,2.45c0.59,1.05,0.89,2.23,0.89,3.55
			s-0.3,2.51-0.89,3.55c-0.59,1.05-1.41,1.87-2.46,2.46c-1.05,0.59-2.22,0.89-3.53,0.89
			C1195.57,518.38,1194.39,518.09,1193.34,517.5z M1199.46,516.11c0.76-0.44,1.36-1.06,1.79-1.87c0.43-0.81,0.64-1.72,0.64-2.75
			c0-1.03-0.21-1.95-0.64-2.75c-0.43-0.81-1.03-1.43-1.79-1.87c-0.76-0.44-1.63-0.66-2.59-0.66s-1.82,0.22-2.59,0.66
			c-0.76,0.44-1.36,1.06-1.8,1.87c-0.44,0.81-0.66,1.72-0.66,2.75c0,1.03,0.22,1.95,0.66,2.75c0.44,0.81,1.04,1.43,1.8,1.87
			s1.63,0.66,2.59,0.66S1198.69,516.54,1199.46,516.11z"/>
	</g>
	<g>
		<path d="M1259.83,502.44c1.27,1.57,1.9,3.79,1.9,6.65c0,2.01-0.34,3.71-1.03,5.1s-1.65,2.44-2.88,3.15s-2.68,1.07-4.32,1.07
			c-1.79,0-3.21-0.33-4.27-0.98l0.75-1.49c0.86,0.57,2.02,0.85,3.5,0.85c1.99,0,3.55-0.63,4.69-1.89c1.13-1.26,1.7-3.09,1.7-5.5
			c0-0.45-0.03-0.94-0.08-1.47c-0.45,0.98-1.16,1.74-2.14,2.28c-0.98,0.54-2.1,0.81-3.37,0.81c-1.18,0-2.24-0.22-3.15-0.67
			c-0.92-0.45-1.63-1.08-2.15-1.89s-0.77-1.76-0.77-2.84c0-1.1,0.27-2.07,0.8-2.91s1.27-1.49,2.2-1.94
			c0.93-0.45,1.99-0.68,3.15-0.68C1256.73,500.08,1258.56,500.87,1259.83,502.44z M1256.96,508.94c0.7-0.34,1.24-0.81,1.63-1.42
			c0.39-0.6,0.59-1.27,0.59-2.01c0-0.69-0.18-1.32-0.55-1.9c-0.37-0.58-0.91-1.06-1.63-1.42s-1.58-0.54-2.57-0.54
			c-1.3,0-2.36,0.36-3.18,1.07c-0.81,0.71-1.22,1.66-1.22,2.84s0.41,2.13,1.22,2.83c0.82,0.7,1.92,1.06,3.31,1.06
			C1255.46,509.45,1256.26,509.28,1256.96,508.94z"/>
		<path d="M1266.48,507.73c-0.63-0.36-1.12-0.85-1.48-1.48c-0.36-0.63-0.54-1.32-0.54-2.07c0-0.74,0.18-1.42,0.54-2.05
			s0.85-1.12,1.48-1.48c0.63-0.36,1.32-0.54,2.07-0.54c0.75,0,1.45,0.18,2.08,0.54c0.63,0.36,1.13,0.85,1.49,1.48
			c0.36,0.63,0.54,1.31,0.54,2.05c0,0.75-0.18,1.45-0.54,2.07c-0.36,0.63-0.86,1.12-1.49,1.48c-0.64,0.36-1.33,0.54-2.08,0.54
			C1267.8,508.27,1267.11,508.09,1266.48,507.73z M1270.68,506.33c0.58-0.57,0.86-1.29,0.86-2.15c0-0.84-0.29-1.55-0.86-2.12
			s-1.28-0.86-2.12-0.86s-1.54,0.29-2.11,0.86c-0.57,0.57-0.85,1.28-0.85,2.12c0,0.86,0.28,1.57,0.85,2.15
			c0.57,0.58,1.27,0.86,2.11,0.86S1270.1,506.9,1270.68,506.33z"/>
		<path d="M1287.14,501.89h-6.33v-1.65h14.57v1.65h-6.33v16.37h-1.91V501.89z"/>
		<path d="M1306.08,505.94c0.94,0.88,1.42,2.19,1.42,3.93v8.39h-1.75v-2.11c-0.41,0.7-1.02,1.25-1.81,1.65
			c-0.8,0.4-1.75,0.59-2.84,0.59c-1.51,0-2.71-0.36-3.6-1.08c-0.89-0.72-1.34-1.67-1.34-2.86c0-1.15,0.42-2.08,1.25-2.78
			s2.16-1.06,3.98-1.06h4.3v-0.82c0-1.17-0.33-2.06-0.98-2.66c-0.65-0.61-1.6-0.91-2.86-0.91c-0.86,0-1.68,0.14-2.47,0.42
			s-1.47,0.67-2.03,1.17l-0.82-1.36c0.69-0.58,1.51-1.03,2.47-1.35c0.96-0.32,1.97-0.48,3.04-0.48
			C1303.78,504.61,1305.14,505.06,1306.08,505.94z M1304.02,516.24c0.74-0.47,1.29-1.15,1.65-2.05v-2.21h-4.25
			c-2.32,0-3.47,0.81-3.47,2.42c0,0.79,0.3,1.41,0.9,1.87s1.44,0.68,2.52,0.68C1302.4,516.94,1303.29,516.71,1304.02,516.24z"/>
		<path d="M1312.94,517.91c-1-0.32-1.79-0.72-2.36-1.2l0.82-1.44c0.57,0.45,1.28,0.81,2.14,1.09c0.86,0.28,1.75,0.42,2.68,0.42
			c1.24,0,2.15-0.19,2.74-0.58s0.89-0.93,0.89-1.63c0-0.5-0.16-0.89-0.49-1.17s-0.74-0.5-1.24-0.64c-0.5-0.15-1.16-0.29-1.98-0.42
			c-1.1-0.21-1.98-0.42-2.65-0.63c-0.67-0.21-1.24-0.58-1.71-1.09c-0.47-0.51-0.71-1.23-0.71-2.14c0-1.13,0.47-2.06,1.42-2.78
			c0.94-0.72,2.26-1.08,3.94-1.08c0.88,0,1.75,0.12,2.63,0.35c0.88,0.23,1.6,0.54,2.16,0.91l-0.8,1.47
			c-1.12-0.77-2.45-1.16-3.99-1.16c-1.17,0-2.05,0.21-2.64,0.62c-0.59,0.41-0.89,0.95-0.89,1.62c0,0.51,0.17,0.93,0.5,1.24
			c0.33,0.31,0.75,0.54,1.25,0.68c0.5,0.15,1.18,0.3,2.06,0.45c1.08,0.21,1.95,0.41,2.6,0.62c0.65,0.21,1.21,0.56,1.67,1.06
			c0.46,0.5,0.69,1.18,0.69,2.06c0,1.18-0.49,2.12-1.48,2.82c-0.99,0.69-2.36,1.04-4.11,1.04
			C1315,518.38,1313.95,518.23,1312.94,517.91z"/>
		<path d="M1332.18,517.43c-0.34,0.31-0.77,0.54-1.27,0.71c-0.51,0.16-1.03,0.24-1.58,0.24c-1.27,0-2.25-0.34-2.93-1.03
			c-0.69-0.69-1.03-1.66-1.03-2.91v-8.19h-2.42v-1.54h2.42v-2.96h1.83v2.96h4.12v1.54h-4.12v8.08c0,0.81,0.2,1.42,0.61,1.84
			c0.4,0.42,0.98,0.63,1.74,0.63c0.38,0,0.74-0.06,1.09-0.18s0.66-0.29,0.91-0.51L1332.18,517.43z"/>
		<path d="M1337.02,517.5c-1.05-0.59-1.87-1.41-2.47-2.46s-0.9-2.23-0.9-3.55s0.3-2.51,0.9-3.55c0.6-1.05,1.42-1.86,2.47-2.45
			c1.05-0.58,2.22-0.88,3.53-0.88c1.3,0,2.48,0.29,3.53,0.88c1.05,0.58,1.87,1.4,2.46,2.45c0.59,1.05,0.89,2.23,0.89,3.55
			s-0.3,2.51-0.89,3.55c-0.59,1.05-1.41,1.87-2.46,2.46c-1.05,0.59-2.22,0.89-3.53,0.89
			C1339.24,518.38,1338.07,518.09,1337.02,517.5z M1343.13,516.11c0.76-0.44,1.36-1.06,1.79-1.87c0.43-0.81,0.64-1.72,0.64-2.75
			c0-1.03-0.21-1.95-0.64-2.75c-0.43-0.81-1.03-1.43-1.79-1.87c-0.76-0.44-1.63-0.66-2.59-0.66s-1.82,0.22-2.59,0.66
			c-0.76,0.44-1.36,1.06-1.8,1.87c-0.44,0.81-0.66,1.72-0.66,2.75c0,1.03,0.22,1.95,0.66,2.75c0.44,0.81,1.04,1.43,1.8,1.87
			s1.63,0.66,2.59,0.66S1342.37,516.54,1343.13,516.11z"/>
	</g>
	<g>
		<path d="M1392.4,500.24v18.02h-1.85v-16.37h-4.25v-1.65H1392.4z"/>
		<path d="M1400.16,517.3c-1.09-0.74-1.94-1.8-2.55-3.18c-0.61-1.38-0.91-3.01-0.91-4.88s0.3-3.5,0.91-4.88s1.46-2.44,2.55-3.18
			c1.09-0.74,2.33-1.11,3.72-1.11c1.39,0,2.63,0.37,3.72,1.11s1.94,1.8,2.56,3.18c0.62,1.38,0.93,3.01,0.93,4.88
			s-0.31,3.5-0.93,4.88c-0.62,1.38-1.47,2.44-2.56,3.18s-2.33,1.11-3.72,1.11C1402.49,518.41,1401.25,518.04,1400.16,517.3z
			 M1406.65,515.84c0.8-0.58,1.42-1.43,1.87-2.55c0.45-1.12,0.67-2.46,0.67-4.04s-0.22-2.93-0.67-4.04
			c-0.45-1.12-1.07-1.96-1.87-2.55c-0.8-0.58-1.72-0.88-2.77-0.88s-1.97,0.29-2.77,0.88c-0.8,0.58-1.42,1.43-1.87,2.55
			c-0.45,1.12-0.67,2.46-0.67,4.04s0.22,2.93,0.67,4.04c0.45,1.12,1.07,1.96,1.87,2.55s1.72,0.88,2.77,0.88
			S1405.85,516.42,1406.65,515.84z"/>
		<path d="M1415.81,507.73c-0.63-0.36-1.12-0.85-1.48-1.48c-0.36-0.63-0.54-1.32-0.54-2.07c0-0.74,0.18-1.42,0.54-2.05
			s0.85-1.12,1.48-1.48c0.63-0.36,1.32-0.54,2.07-0.54c0.75,0,1.45,0.18,2.08,0.54c0.63,0.36,1.13,0.85,1.49,1.48
			c0.36,0.63,0.54,1.31,0.54,2.05c0,0.75-0.18,1.45-0.54,2.07c-0.36,0.63-0.86,1.12-1.49,1.48c-0.64,0.36-1.33,0.54-2.08,0.54
			C1417.13,508.27,1416.44,508.09,1415.81,507.73z M1420,506.33c0.58-0.57,0.86-1.29,0.86-2.15c0-0.84-0.29-1.55-0.86-2.12
			s-1.28-0.86-2.12-0.86s-1.54,0.29-2.11,0.86c-0.57,0.57-0.85,1.28-0.85,2.12c0,0.86,0.28,1.57,0.85,2.15
			c0.57,0.58,1.27,0.86,2.11,0.86S1419.43,506.9,1420,506.33z"/>
		<path d="M1436.47,501.89h-6.33v-1.65h14.57v1.65h-6.33v16.37h-1.91V501.89z"/>
		<path d="M1455.41,505.94c0.94,0.88,1.42,2.19,1.42,3.93v8.39h-1.75v-2.11c-0.41,0.7-1.02,1.25-1.81,1.65
			c-0.8,0.4-1.75,0.59-2.84,0.59c-1.51,0-2.71-0.36-3.6-1.08c-0.89-0.72-1.34-1.67-1.34-2.86c0-1.15,0.42-2.08,1.25-2.78
			s2.16-1.06,3.98-1.06h4.3v-0.82c0-1.17-0.33-2.06-0.98-2.66c-0.65-0.61-1.6-0.91-2.86-0.91c-0.86,0-1.68,0.14-2.47,0.42
			s-1.47,0.67-2.03,1.17l-0.82-1.36c0.69-0.58,1.51-1.03,2.47-1.35c0.96-0.32,1.97-0.48,3.04-0.48
			C1453.11,504.61,1454.47,505.06,1455.41,505.94z M1453.35,516.24c0.74-0.47,1.29-1.15,1.65-2.05v-2.21h-4.25
			c-2.32,0-3.47,0.81-3.47,2.42c0,0.79,0.3,1.41,0.9,1.87s1.44,0.68,2.52,0.68C1451.73,516.94,1452.61,516.71,1453.35,516.24z"/>
		<path d="M1462.27,517.91c-1-0.32-1.79-0.72-2.36-1.2l0.82-1.44c0.57,0.45,1.28,0.81,2.14,1.09c0.86,0.28,1.75,0.42,2.68,0.42
			c1.24,0,2.15-0.19,2.74-0.58s0.89-0.93,0.89-1.63c0-0.5-0.16-0.89-0.49-1.17s-0.74-0.5-1.24-0.64c-0.5-0.15-1.16-0.29-1.98-0.42
			c-1.1-0.21-1.98-0.42-2.65-0.63c-0.67-0.21-1.24-0.58-1.71-1.09c-0.47-0.51-0.71-1.23-0.71-2.14c0-1.13,0.47-2.06,1.42-2.78
			c0.94-0.72,2.26-1.08,3.94-1.08c0.88,0,1.75,0.12,2.63,0.35c0.88,0.23,1.6,0.54,2.16,0.91l-0.8,1.47
			c-1.12-0.77-2.45-1.16-3.99-1.16c-1.17,0-2.05,0.21-2.64,0.62c-0.59,0.41-0.89,0.95-0.89,1.62c0,0.51,0.17,0.93,0.5,1.24
			c0.33,0.31,0.75,0.54,1.25,0.68c0.5,0.15,1.18,0.3,2.06,0.45c1.08,0.21,1.95,0.41,2.6,0.62c0.65,0.21,1.21,0.56,1.67,1.06
			c0.46,0.5,0.69,1.18,0.69,2.06c0,1.18-0.49,2.12-1.48,2.82c-0.99,0.69-2.36,1.04-4.11,1.04
			C1464.33,518.38,1463.27,518.23,1462.27,517.91z"/>
		<path d="M1481.51,517.43c-0.34,0.31-0.77,0.54-1.27,0.71c-0.51,0.16-1.03,0.24-1.58,0.24c-1.27,0-2.25-0.34-2.93-1.03
			c-0.69-0.69-1.03-1.66-1.03-2.91v-8.19h-2.42v-1.54h2.42v-2.96h1.83v2.96h4.12v1.54h-4.12v8.08c0,0.81,0.2,1.42,0.61,1.84
			c0.4,0.42,0.98,0.63,1.74,0.63c0.38,0,0.74-0.06,1.09-0.18s0.66-0.29,0.91-0.51L1481.51,517.43z"/>
		<path d="M1486.35,517.5c-1.05-0.59-1.87-1.41-2.47-2.46s-0.9-2.23-0.9-3.55s0.3-2.51,0.9-3.55c0.6-1.05,1.42-1.86,2.47-2.45
			c1.05-0.58,2.22-0.88,3.53-0.88c1.3,0,2.48,0.29,3.53,0.88c1.05,0.58,1.87,1.4,2.46,2.45c0.59,1.05,0.89,2.23,0.89,3.55
			s-0.3,2.51-0.89,3.55c-0.59,1.05-1.41,1.87-2.46,2.46c-1.05,0.59-2.22,0.89-3.53,0.89C1488.57,518.38,1487.4,518.09,1486.35,517.5
			z M1492.46,516.11c0.76-0.44,1.36-1.06,1.79-1.87c0.43-0.81,0.64-1.72,0.64-2.75c0-1.03-0.21-1.95-0.64-2.75
			c-0.43-0.81-1.03-1.43-1.79-1.87c-0.76-0.44-1.63-0.66-2.59-0.66s-1.82,0.22-2.59,0.66c-0.76,0.44-1.36,1.06-1.8,1.87
			c-0.44,0.81-0.66,1.72-0.66,2.75c0,1.03,0.22,1.95,0.66,2.75c0.44,0.81,1.04,1.43,1.8,1.87s1.63,0.66,2.59,0.66
			S1491.7,516.54,1492.46,516.11z"/>
	</g>
	<g>
		<path d="M1540.33,500.24v18.02h-1.85v-16.37h-4.25v-1.65H1540.33z"/>
		<path d="M1549.62,500.24v18.02h-1.85v-16.37h-4.25v-1.65H1549.62z"/>
		<path d="M1555.88,507.73c-0.63-0.36-1.12-0.85-1.48-1.48c-0.36-0.63-0.54-1.32-0.54-2.07c0-0.74,0.18-1.42,0.54-2.05
			s0.85-1.12,1.48-1.48c0.63-0.36,1.32-0.54,2.07-0.54c0.75,0,1.45,0.18,2.08,0.54c0.63,0.36,1.13,0.85,1.49,1.48
			c0.36,0.63,0.54,1.31,0.54,2.05c0,0.75-0.18,1.45-0.54,2.07c-0.36,0.63-0.86,1.12-1.49,1.48c-0.64,0.36-1.33,0.54-2.08,0.54
			C1557.2,508.27,1556.51,508.09,1555.88,507.73z M1560.08,506.33c0.58-0.57,0.86-1.29,0.86-2.15c0-0.84-0.29-1.55-0.86-2.12
			s-1.28-0.86-2.12-0.86s-1.54,0.29-2.11,0.86c-0.57,0.57-0.85,1.28-0.85,2.12c0,0.86,0.28,1.57,0.85,2.15
			c0.57,0.58,1.27,0.86,2.11,0.86S1559.5,506.9,1560.08,506.33z"/>
		<path d="M1576.54,501.89h-6.33v-1.65h14.57v1.65h-6.33v16.37h-1.91V501.89z"/>
		<path d="M1595.49,505.94c0.94,0.88,1.42,2.19,1.42,3.93v8.39h-1.75v-2.11c-0.41,0.7-1.02,1.25-1.81,1.65
			c-0.8,0.4-1.75,0.59-2.84,0.59c-1.51,0-2.71-0.36-3.6-1.08c-0.89-0.72-1.34-1.67-1.34-2.86c0-1.15,0.42-2.08,1.25-2.78
			s2.16-1.06,3.98-1.06h4.3v-0.82c0-1.17-0.33-2.06-0.98-2.66c-0.65-0.61-1.6-0.91-2.86-0.91c-0.86,0-1.68,0.14-2.47,0.42
			s-1.47,0.67-2.03,1.17l-0.82-1.36c0.69-0.58,1.51-1.03,2.47-1.35c0.96-0.32,1.97-0.48,3.04-0.48
			C1593.19,504.61,1594.54,505.06,1595.49,505.94z M1593.43,516.24c0.74-0.47,1.29-1.15,1.65-2.05v-2.21h-4.25
			c-2.32,0-3.47,0.81-3.47,2.42c0,0.79,0.3,1.41,0.9,1.87s1.44,0.68,2.52,0.68C1591.81,516.94,1592.69,516.71,1593.43,516.24z"/>
		<path d="M1602.35,517.91c-1-0.32-1.79-0.72-2.36-1.2l0.82-1.44c0.57,0.45,1.28,0.81,2.14,1.09c0.86,0.28,1.75,0.42,2.68,0.42
			c1.24,0,2.15-0.19,2.74-0.58s0.89-0.93,0.89-1.63c0-0.5-0.16-0.89-0.49-1.17s-0.74-0.5-1.24-0.64c-0.5-0.15-1.16-0.29-1.98-0.42
			c-1.1-0.21-1.98-0.42-2.65-0.63c-0.67-0.21-1.24-0.58-1.71-1.09c-0.47-0.51-0.71-1.23-0.71-2.14c0-1.13,0.47-2.06,1.42-2.78
			c0.94-0.72,2.26-1.08,3.94-1.08c0.88,0,1.75,0.12,2.63,0.35c0.88,0.23,1.6,0.54,2.16,0.91l-0.8,1.47
			c-1.12-0.77-2.45-1.16-3.99-1.16c-1.17,0-2.05,0.21-2.64,0.62c-0.59,0.41-0.89,0.95-0.89,1.62c0,0.51,0.17,0.93,0.5,1.24
			c0.33,0.31,0.75,0.54,1.25,0.68c0.5,0.15,1.18,0.3,2.06,0.45c1.08,0.21,1.95,0.41,2.6,0.62c0.65,0.21,1.21,0.56,1.67,1.06
			c0.46,0.5,0.69,1.18,0.69,2.06c0,1.18-0.49,2.12-1.48,2.82c-0.99,0.69-2.36,1.04-4.11,1.04
			C1604.4,518.38,1603.35,518.23,1602.35,517.91z"/>
		<path d="M1621.59,517.43c-0.34,0.31-0.77,0.54-1.27,0.71c-0.51,0.16-1.03,0.24-1.58,0.24c-1.27,0-2.25-0.34-2.93-1.03
			c-0.69-0.69-1.03-1.66-1.03-2.91v-8.19h-2.42v-1.54h2.42v-2.96h1.83v2.96h4.12v1.54h-4.12v8.08c0,0.81,0.2,1.42,0.61,1.84
			c0.4,0.42,0.98,0.63,1.74,0.63c0.38,0,0.74-0.06,1.09-0.18s0.66-0.29,0.91-0.51L1621.59,517.43z"/>
		<path d="M1626.42,517.5c-1.05-0.59-1.87-1.41-2.47-2.46s-0.9-2.23-0.9-3.55s0.3-2.51,0.9-3.55c0.6-1.05,1.42-1.86,2.47-2.45
			c1.05-0.58,2.22-0.88,3.53-0.88c1.3,0,2.48,0.29,3.53,0.88c1.05,0.58,1.87,1.4,2.46,2.45c0.59,1.05,0.89,2.23,0.89,3.55
			s-0.3,2.51-0.89,3.55c-0.59,1.05-1.41,1.87-2.46,2.46c-1.05,0.59-2.22,0.89-3.53,0.89
			C1628.65,518.38,1627.47,518.09,1626.42,517.5z M1632.54,516.11c0.76-0.44,1.36-1.06,1.79-1.87c0.43-0.81,0.64-1.72,0.64-2.75
			c0-1.03-0.21-1.95-0.64-2.75c-0.43-0.81-1.03-1.43-1.79-1.87c-0.76-0.44-1.63-0.66-2.59-0.66s-1.82,0.22-2.59,0.66
			c-0.76,0.44-1.36,1.06-1.8,1.87c-0.44,0.81-0.66,1.72-0.66,2.75c0,1.03,0.22,1.95,0.66,2.75c0.44,0.81,1.04,1.43,1.8,1.87
			s1.63,0.66,2.59,0.66S1631.77,516.54,1632.54,516.11z"/>
	</g>
	<g>
		<path d="M1681.66,500.24v18.02h-1.85v-16.37h-4.25v-1.65H1681.66z"/>
		<path d="M1698.26,516.61v1.65h-12.64v-1.31l7.49-7.34c0.94-0.93,1.58-1.73,1.92-2.41c0.33-0.68,0.5-1.36,0.5-2.05
			c0-1.06-0.37-1.89-1.09-2.48c-0.73-0.59-1.77-0.89-3.13-0.89c-2.11,0-3.75,0.67-4.92,2.01l-1.31-1.13c0.7-0.82,1.6-1.46,2.69-1.9
			c1.09-0.45,2.32-0.67,3.69-0.67c1.84,0,3.29,0.43,4.36,1.3c1.07,0.87,1.61,2.06,1.61,3.56c0,0.93-0.21,1.82-0.62,2.68
			c-0.41,0.86-1.19,1.85-2.34,2.96l-6.13,6.02H1698.26z"/>
		<path d="M1702.55,507.73c-0.63-0.36-1.12-0.85-1.48-1.48c-0.36-0.63-0.54-1.32-0.54-2.07c0-0.74,0.18-1.42,0.54-2.05
			s0.85-1.12,1.48-1.48c0.63-0.36,1.32-0.54,2.07-0.54c0.75,0,1.45,0.18,2.08,0.54c0.63,0.36,1.13,0.85,1.49,1.48
			c0.36,0.63,0.54,1.31,0.54,2.05c0,0.75-0.18,1.45-0.54,2.07c-0.36,0.63-0.86,1.12-1.49,1.48c-0.64,0.36-1.33,0.54-2.08,0.54
			C1703.86,508.27,1703.17,508.09,1702.55,507.73z M1706.74,506.33c0.58-0.57,0.86-1.29,0.86-2.15c0-0.84-0.29-1.55-0.86-2.12
			s-1.28-0.86-2.12-0.86s-1.54,0.29-2.11,0.86c-0.57,0.57-0.85,1.28-0.85,2.12c0,0.86,0.28,1.57,0.85,2.15
			c0.57,0.58,1.27,0.86,2.11,0.86S1706.17,506.9,1706.74,506.33z"/>
		<path d="M1723.2,501.89h-6.33v-1.65h14.57v1.65h-6.33v16.37h-1.91V501.89z"/>
		<path d="M1742.15,505.94c0.94,0.88,1.42,2.19,1.42,3.93v8.39h-1.75v-2.11c-0.41,0.7-1.02,1.25-1.81,1.65
			c-0.8,0.4-1.75,0.59-2.84,0.59c-1.51,0-2.71-0.36-3.6-1.08c-0.89-0.72-1.34-1.67-1.34-2.86c0-1.15,0.42-2.08,1.25-2.78
			s2.16-1.06,3.98-1.06h4.3v-0.82c0-1.17-0.33-2.06-0.98-2.66c-0.65-0.61-1.6-0.91-2.86-0.91c-0.86,0-1.68,0.14-2.47,0.42
			s-1.47,0.67-2.03,1.17l-0.82-1.36c0.69-0.58,1.51-1.03,2.47-1.35c0.96-0.32,1.97-0.48,3.04-0.48
			C1739.85,504.61,1741.21,505.06,1742.15,505.94z M1740.09,516.24c0.74-0.47,1.29-1.15,1.65-2.05v-2.21h-4.25
			c-2.32,0-3.47,0.81-3.47,2.42c0,0.79,0.3,1.41,0.9,1.87s1.44,0.68,2.52,0.68C1738.47,516.94,1739.35,516.71,1740.09,516.24z"/>
		<path d="M1749.01,517.91c-1-0.32-1.79-0.72-2.36-1.2l0.82-1.44c0.57,0.45,1.28,0.81,2.14,1.09c0.86,0.28,1.75,0.42,2.68,0.42
			c1.24,0,2.15-0.19,2.74-0.58s0.89-0.93,0.89-1.63c0-0.5-0.16-0.89-0.49-1.17s-0.74-0.5-1.24-0.64c-0.5-0.15-1.16-0.29-1.98-0.42
			c-1.1-0.21-1.98-0.42-2.65-0.63c-0.67-0.21-1.24-0.58-1.71-1.09c-0.47-0.51-0.71-1.23-0.71-2.14c0-1.13,0.47-2.06,1.42-2.78
			c0.94-0.72,2.26-1.08,3.94-1.08c0.88,0,1.75,0.12,2.63,0.35c0.88,0.23,1.6,0.54,2.16,0.91l-0.8,1.47
			c-1.12-0.77-2.45-1.16-3.99-1.16c-1.17,0-2.05,0.21-2.64,0.62c-0.59,0.41-0.89,0.95-0.89,1.62c0,0.51,0.17,0.93,0.5,1.24
			c0.33,0.31,0.75,0.54,1.25,0.68c0.5,0.15,1.18,0.3,2.06,0.45c1.08,0.21,1.95,0.41,2.6,0.62c0.65,0.21,1.21,0.56,1.67,1.06
			c0.46,0.5,0.69,1.18,0.69,2.06c0,1.18-0.49,2.12-1.48,2.82c-0.99,0.69-2.36,1.04-4.11,1.04
			C1751.06,518.38,1750.01,518.23,1749.01,517.91z"/>
		<path d="M1768.25,517.43c-0.34,0.31-0.77,0.54-1.27,0.71c-0.51,0.16-1.03,0.24-1.58,0.24c-1.27,0-2.25-0.34-2.93-1.03
			c-0.69-0.69-1.03-1.66-1.03-2.91v-8.19h-2.42v-1.54h2.42v-2.96h1.83v2.96h4.12v1.54h-4.12v8.08c0,0.81,0.2,1.42,0.61,1.84
			c0.4,0.42,0.98,0.63,1.74,0.63c0.38,0,0.74-0.06,1.09-0.18s0.66-0.29,0.91-0.51L1768.25,517.43z"/>
		<path d="M1773.09,517.5c-1.05-0.59-1.87-1.41-2.47-2.46s-0.9-2.23-0.9-3.55s0.3-2.51,0.9-3.55c0.6-1.05,1.42-1.86,2.47-2.45
			c1.05-0.58,2.22-0.88,3.53-0.88c1.3,0,2.48,0.29,3.53,0.88c1.05,0.58,1.87,1.4,2.46,2.45c0.59,1.05,0.89,2.23,0.89,3.55
			s-0.3,2.51-0.89,3.55c-0.59,1.05-1.41,1.87-2.46,2.46c-1.05,0.59-2.22,0.89-3.53,0.89
			C1775.31,518.38,1774.13,518.09,1773.09,517.5z M1779.2,516.11c0.76-0.44,1.36-1.06,1.79-1.87c0.43-0.81,0.64-1.72,0.64-2.75
			c0-1.03-0.21-1.95-0.64-2.75c-0.43-0.81-1.03-1.43-1.79-1.87c-0.76-0.44-1.63-0.66-2.59-0.66s-1.82,0.22-2.59,0.66
			c-0.76,0.44-1.36,1.06-1.8,1.87c-0.44,0.81-0.66,1.72-0.66,2.75c0,1.03,0.22,1.95,0.66,2.75c0.44,0.81,1.04,1.43,1.8,1.87
			s1.63,0.66,2.59,0.66S1778.44,516.54,1779.2,516.11z"/>
	</g>
</g>
<g id="Guide" class="st1">
</g>
<g id="Corde">
	<g>
		<path d="M30.9,447.05v18.02h-1.83v-14.41l-7.08,12.12h-0.9l-7.08-12.05v14.34h-1.83v-18.02h1.57l7.82,13.36l7.75-13.36H30.9z"/>
		<path d="M36.35,448.18c-0.26-0.26-0.39-0.57-0.39-0.93c0-0.34,0.13-0.64,0.39-0.9s0.58-0.39,0.95-0.39c0.38,0,0.7,0.12,0.95,0.37
			c0.26,0.25,0.39,0.55,0.39,0.89c0,0.38-0.13,0.69-0.39,0.95c-0.26,0.26-0.58,0.39-0.95,0.39
			C36.93,448.57,36.61,448.44,36.35,448.18z M36.38,451.53h1.83v13.54h-1.83V451.53z"/>
	</g>
	<g>
		<path d="M12.74,375.05h1.9v16.37h10.09v1.65h-12V375.05z"/>
		<path d="M36.36,380.75c0.94,0.88,1.42,2.19,1.42,3.93v8.39h-1.75v-2.11c-0.41,0.7-1.02,1.25-1.81,1.65
			c-0.8,0.4-1.75,0.59-2.84,0.59c-1.51,0-2.71-0.36-3.6-1.08c-0.89-0.72-1.34-1.67-1.34-2.86c0-1.15,0.42-2.08,1.25-2.78
			s2.16-1.06,3.98-1.06h4.3v-0.82c0-1.17-0.33-2.06-0.98-2.66c-0.65-0.61-1.6-0.91-2.86-0.91c-0.86,0-1.68,0.14-2.47,0.42
			s-1.47,0.67-2.03,1.17l-0.82-1.36c0.69-0.58,1.51-1.03,2.47-1.35c0.96-0.32,1.97-0.48,3.04-0.48
			C34.06,379.42,35.42,379.87,36.36,380.75z M34.3,391.05c0.74-0.47,1.29-1.15,1.65-2.05v-2.21h-4.25c-2.32,0-3.47,0.81-3.47,2.42
			c0,0.79,0.3,1.41,0.9,1.87s1.44,0.68,2.52,0.68C32.68,391.75,33.57,391.52,34.3,391.05z"/>
	</g>
	<g>
		<path d="M23.16,321.07l-4.12-5.79c-0.46,0.05-0.94,0.08-1.44,0.08h-4.84v5.71h-1.9v-18.02h6.74c2.3,0,4.1,0.55,5.41,1.65
			c1.3,1.1,1.96,2.61,1.96,4.53c0,1.41-0.36,2.6-1.07,3.56c-0.71,0.97-1.73,1.67-3.05,2.1l4.4,6.18H23.16z M21.64,312.55
			c0.94-0.79,1.42-1.9,1.42-3.32c0-1.46-0.47-2.58-1.42-3.36c-0.94-0.78-2.31-1.17-4.09-1.17h-4.79v9.03h4.79
			C19.33,313.73,20.7,313.34,21.64,312.55z"/>
		<path d="M40.87,314.86H29.54c0.1,1.41,0.64,2.54,1.62,3.41c0.98,0.87,2.21,1.3,3.71,1.3c0.84,0,1.61-0.15,2.32-0.45
			c0.7-0.3,1.31-0.74,1.83-1.33l1.03,1.18c-0.6,0.72-1.35,1.27-2.25,1.65c-0.9,0.38-1.89,0.57-2.97,0.57c-1.39,0-2.62-0.3-3.69-0.89
			c-1.07-0.59-1.91-1.41-2.51-2.46s-0.9-2.23-0.9-3.55s0.29-2.51,0.86-3.55c0.58-1.05,1.36-1.86,2.37-2.45
			c1-0.58,2.13-0.88,3.38-0.88c1.25,0,2.38,0.29,3.37,0.88c1,0.58,1.78,1.39,2.34,2.43s0.85,2.23,0.85,3.56L40.87,314.86z
			 M31.05,310.24c-0.88,0.83-1.39,1.92-1.51,3.26h9.6c-0.12-1.34-0.62-2.42-1.51-3.26c-0.88-0.83-1.99-1.25-3.31-1.25
			C33.03,309,31.93,309.41,31.05,310.24z"/>
	</g>
	<g>
		<path d="M9.61,248.58c-1.23-0.43-2.18-0.99-2.84-1.7l0.75-1.47c0.65,0.65,1.52,1.18,2.6,1.58c1.08,0.4,2.2,0.61,3.35,0.61
			c1.61,0,2.82-0.3,3.63-0.89c0.81-0.59,1.21-1.36,1.21-2.3c0-0.72-0.22-1.29-0.66-1.72s-0.97-0.76-1.61-0.99s-1.52-0.49-2.65-0.76
			c-1.36-0.34-2.44-0.67-3.24-0.99c-0.81-0.32-1.5-0.8-2.07-1.45c-0.58-0.65-0.86-1.54-0.86-2.65c0-0.91,0.24-1.74,0.72-2.48
			c0.48-0.75,1.22-1.34,2.21-1.79s2.23-0.67,3.71-0.67c1.03,0,2.04,0.14,3.02,0.42s1.84,0.67,2.56,1.17l-0.64,1.52
			c-0.76-0.5-1.56-0.87-2.42-1.12c-0.86-0.25-1.7-0.37-2.52-0.37c-1.58,0-2.77,0.3-3.56,0.91s-1.2,1.39-1.2,2.36
			c0,0.72,0.22,1.3,0.66,1.74s0.99,0.77,1.65,1s1.55,0.48,2.66,0.76c1.32,0.33,2.39,0.65,3.2,0.97s1.51,0.8,2.07,1.44
			s0.85,1.51,0.85,2.61c0,0.91-0.24,1.74-0.73,2.48c-0.49,0.75-1.24,1.34-2.25,1.78s-2.26,0.66-3.73,0.66
			C12.12,249.22,10.83,249.01,9.61,248.58z"/>
		<path d="M25.94,248.31c-1.05-0.59-1.87-1.41-2.47-2.46c-0.6-1.05-0.9-2.23-0.9-3.55s0.3-2.5,0.9-3.55
			c0.6-1.05,1.42-1.86,2.47-2.45c1.05-0.58,2.22-0.88,3.53-0.88c1.3,0,2.48,0.29,3.53,0.88s1.87,1.4,2.46,2.45
			c0.59,1.05,0.89,2.23,0.89,3.55s-0.3,2.51-0.89,3.55c-0.59,1.05-1.41,1.87-2.46,2.46c-1.05,0.59-2.22,0.89-3.53,0.89
			C28.16,249.2,26.99,248.9,25.94,248.31z M32.05,246.92c0.76-0.44,1.36-1.06,1.79-1.87c0.43-0.81,0.64-1.72,0.64-2.75
			s-0.21-1.95-0.64-2.75s-1.03-1.43-1.79-1.87s-1.63-0.66-2.59-0.66s-1.82,0.22-2.59,0.66s-1.36,1.06-1.8,1.87
			c-0.44,0.81-0.66,1.72-0.66,2.75s0.22,1.95,0.66,2.75c0.44,0.81,1.04,1.43,1.8,1.87s1.63,0.66,2.59,0.66
			S31.29,247.36,32.05,246.92z"/>
		<path d="M40.07,229.97h1.83v19.1h-1.83V229.97z"/>
	</g>
	<g>
		<path d="M17.68,176.58c-1.23-0.43-2.17-0.99-2.84-1.7l0.75-1.47c0.65,0.65,1.52,1.18,2.6,1.58c1.08,0.4,2.2,0.6,3.35,0.6
			c1.61,0,2.82-0.3,3.63-0.89c0.81-0.59,1.21-1.36,1.21-2.3c0-0.72-0.22-1.3-0.66-1.72s-0.97-0.76-1.61-0.99
			c-0.64-0.23-1.52-0.48-2.65-0.76c-1.36-0.34-2.44-0.67-3.24-0.99c-0.81-0.32-1.5-0.8-2.07-1.45c-0.58-0.65-0.86-1.54-0.86-2.65
			c0-0.91,0.24-1.74,0.72-2.48s1.22-1.34,2.21-1.79c1-0.45,2.23-0.67,3.71-0.67c1.03,0,2.04,0.14,3.02,0.42s1.84,0.67,2.56,1.17
			l-0.64,1.52c-0.76-0.5-1.56-0.87-2.42-1.12c-0.86-0.25-1.7-0.37-2.52-0.37c-1.58,0-2.77,0.3-3.56,0.91
			c-0.8,0.61-1.2,1.39-1.2,2.36c0,0.72,0.22,1.3,0.66,1.74s0.99,0.77,1.65,1c0.66,0.23,1.55,0.48,2.66,0.76
			c1.32,0.33,2.39,0.65,3.21,0.97c0.81,0.32,1.51,0.8,2.07,1.44c0.57,0.64,0.85,1.51,0.85,2.61c0,0.91-0.24,1.74-0.73,2.48
			c-0.49,0.75-1.24,1.34-2.25,1.78c-1.01,0.44-2.26,0.66-3.73,0.66C20.19,177.22,18.9,177.01,17.68,176.58z"/>
		<path d="M31.98,160.18c-0.26-0.26-0.39-0.57-0.39-0.93c0-0.34,0.13-0.64,0.39-0.9s0.58-0.39,0.95-0.39c0.38,0,0.7,0.12,0.95,0.37
			c0.26,0.25,0.39,0.55,0.39,0.89c0,0.38-0.13,0.69-0.39,0.95c-0.26,0.26-0.58,0.39-0.95,0.39
			C32.55,160.57,32.23,160.44,31.98,160.18z M32,163.53h1.83v13.54H32V163.53z"/>
	</g>
	<g id="Mi_Cantino">
		<path d="M31.51,89.22v18.02h-2.02V92.83l-7.82,12.12h-1L12.86,92.9v14.34h-2.02V89.22h1.74l8.65,13.36l8.56-13.36H31.51z"/>
		<path d="M37.54,90.36c-0.28-0.26-0.43-0.57-0.43-0.93c0-0.34,0.14-0.64,0.43-0.9s0.63-0.39,1.05-0.39c0.42,0,0.77,0.13,1.05,0.37
			c0.29,0.25,0.43,0.54,0.43,0.89c0,0.38-0.14,0.69-0.43,0.95c-0.28,0.26-0.63,0.39-1.05,0.39C38.18,90.74,37.83,90.61,37.54,90.36z
			 M37.57,93.7h2.02v13.54h-2.02V93.7z"/>
	</g>
</g>
<g id="Nota_sullo_schema" class="st1">
	<g class="st2">
		<path class="st3" d="M875.1,5.49h13.68c3.55,0,6.69,0.71,9.41,2.14c2.72,1.42,4.83,3.41,6.34,5.95c1.5,2.54,2.26,5.45,2.26,8.71
			c0,3.26-0.75,6.17-2.26,8.71s-3.62,4.53-6.34,5.95c-2.72,1.42-5.86,2.14-9.41,2.14H875.1V5.49z M888.59,36.02
			c2.94,0,5.52-0.58,7.73-1.75c2.21-1.17,3.92-2.78,5.14-4.85c1.21-2.06,1.82-4.44,1.82-7.13s-0.61-5.06-1.82-7.13
			c-1.22-2.06-2.93-3.68-5.14-4.85c-2.21-1.17-4.78-1.75-7.73-1.75h-9.94v27.46H888.59z"/>
		<path class="st3" d="M917.77,37.67c-1.95-1.1-3.49-2.63-4.61-4.58c-1.12-1.95-1.68-4.16-1.68-6.62c0-2.46,0.56-4.67,1.68-6.62
			c1.12-1.95,2.66-3.47,4.61-4.56c1.95-1.09,4.14-1.63,6.58-1.63s4.62,0.54,6.58,1.63c1.95,1.09,3.48,2.61,4.58,4.56
			c1.1,1.95,1.66,4.16,1.66,6.62c0,2.46-0.55,4.67-1.66,6.62c-1.1,1.95-2.63,3.48-4.58,4.58s-4.14,1.66-6.58,1.66
			S919.72,38.78,917.77,37.67z M929.17,35.08c1.42-0.82,2.54-1.98,3.34-3.48c0.8-1.5,1.2-3.22,1.2-5.14s-0.4-3.63-1.2-5.14
			c-0.8-1.5-1.91-2.66-3.34-3.48c-1.42-0.82-3.03-1.22-4.82-1.22s-3.4,0.41-4.82,1.22c-1.42,0.82-2.54,1.98-3.36,3.48
			c-0.82,1.5-1.22,3.22-1.22,5.14s0.41,3.63,1.22,5.14c0.82,1.5,1.94,2.66,3.36,3.48c1.42,0.82,3.03,1.22,4.82,1.22
			S927.75,35.9,929.17,35.08z"/>
	</g>
</g>
<g id="Pallini">
	<g class="st1">
		<circle class="st4" cx="143.5" cy="169.5" r="32.5"/>
	</g>
	<g class="st1">
		<circle class="st4" cx="432.5" cy="385.5" r="32.5"/>
	</g>
	<g class="st1">
		<circle class="st4" cx="720.5" cy="241.5" r="32.5"/>
	</g>
	<g class="st1">
		<circle class="st4" cx="1152.5" cy="98.5" r="32.5"/>
	</g>
	<g class="st1">
		<circle class="st4" cx="1152.5" cy="457.5" r="32.5"/>
	</g>
	<g class="st1">
		<circle class="st4" cx="1440.5" cy="313.5" r="32.5"/>
	</g>
	<g>
	</g>
	<g>
	</g>
	<g>
	</g>
	<g>
	</g>
	<g>
	</g>
	<g>
	</g>
	<g>
	</g>
	<g>
	</g>
	<g>
	</g>
	<g>
	</g>
	<g>
	</g>
	<g>
	</g>
	<g>
	</g>
	<g>
	</g>
	<g>
	</g>
</g>
</svg>
