<?xml version="1.0" encoding="utf-8"?>
<!-- Generator: Adobe Illustrator 23.0.1, SVG Export Plug-In . SVG Version: 6.00 Build 0)  -->
<svg version="1.1" id="Livello_1" xmlns="http://www.w3.org/2000/svg" xmlns:xlink="http://www.w3.org/1999/xlink" x="0px" y="0px"
	 viewBox="0 0 80 78" style="enable-background:new 0 0 80 78;" xml:space="preserve">
<style type="text/css">
	.st0{display:none;}
	.st1{display:inline;}
	.st2{fill:none;stroke:#000000;stroke-width:2;stroke-miterlimit:10;}
	.st3{display:inline;fill:none;stroke:#000000;stroke-width:2;stroke-miterlimit:10;}
	.st4{fill:#E55100;}
	.st5{display:inline;fill:#00AA00;stroke:#00AA00;stroke-width:4;stroke-miterlimit:10;}
	.st6{fill:#00AA00;stroke:#00AA00;stroke-width:4;stroke-miterlimit:10;}
	.st7{fill-rule:evenodd;clip-rule:evenodd;fill:#FFFFFF;}
</style>
<g id="TastiChitarra" class="st0">
	<g id="_x31_" class="st1">
		<line class="st2" x1="-755" y1="-104.5" x2="973" y2="-104.2"/>
	</g>
	<g id="_x32_" class="st1">
		<line class="st2" x1="-755.1" y1="-34.5" x2="972.5" y2="-34.5"/>
	</g>
	<g id="_x33_" class="st1">
		<line class="st2" x1="-755.1" y1="37.5" x2="972.5" y2="37.5"/>
	</g>
	<g id="_x34_" class="st1">
		<line class="st2" x1="-755.1" y1="109.5" x2="973.5" y2="109.5"/>
	</g>
	<line id="_x35_" class="st3" x1="-754.9" y1="181.5" x2="973.5" y2="181.5"/>
	<g id="_x36_" class="st1">
		<line class="st2" x1="-756" y1="253.5" x2="974" y2="253.5"/>
	</g>
	<line id="SX" class="st3" x1="-754" y1="-104" x2="-755" y2="254"/>
	<line id="DX" class="st3" x1="972" y1="-104" x2="973" y2="254"/>
</g>
<g id="Tasti" class="st0">
	<line class="st3" x1="-611" y1="-105" x2="-611" y2="254"/>
	<line class="st3" x1="-466.5" y1="-104.5" x2="-466.5" y2="253.5"/>
	<line class="st3" x1="-322.5" y1="-104.5" x2="-322.5" y2="254"/>
	<line class="st3" x1="-178.5" y1="-104.5" x2="-178.5" y2="253.5"/>
	<line class="st3" x1="-34.5" y1="-104.5" x2="-34.5" y2="253.5"/>
	<line class="st3" x1="109.5" y1="-104.5" x2="109.5" y2="253.5"/>
	<line class="st3" x1="253.5" y1="-104.5" x2="253.5" y2="253.5"/>
	<line class="st3" x1="397.5" y1="-104.5" x2="397.5" y2="253.5"/>
	<line class="st3" x1="541.5" y1="-104.5" x2="541.5" y2="253.5"/>
	<line class="st3" x1="685.5" y1="-104.5" x2="685.5" y2="253.5"/>
	<line class="st3" x1="829.5" y1="-104.5" x2="829.5" y2="253.5"/>
</g>
<g id="Numero_Tasto" class="st0">
	<g class="st1">
		<path d="M-722,296.2v18h-1.8v-16.4h-4.3v-1.6H-722z"/>
		<path d="M-715.8,303.7c-0.6-0.4-1.1-0.9-1.5-1.5s-0.5-1.3-0.5-2.1c0-0.7,0.2-1.4,0.5-2s0.8-1.1,1.5-1.5c0.6-0.4,1.3-0.5,2.1-0.5
			s1.5,0.2,2.1,0.5c0.6,0.4,1.1,0.9,1.5,1.5s0.5,1.3,0.5,2c0,0.8-0.2,1.5-0.5,2.1c-0.4,0.6-0.9,1.1-1.5,1.5
			c-0.6,0.4-1.3,0.5-2.1,0.5C-714.4,304.3-715.1,304.1-715.8,303.7z M-711.6,302.3c0.6-0.6,0.9-1.3,0.9-2.1c0-0.8-0.3-1.5-0.9-2.1
			c-0.6-0.6-1.3-0.9-2.1-0.9c-0.8,0-1.5,0.3-2.1,0.9s-0.8,1.3-0.8,2.1c0,0.9,0.3,1.6,0.8,2.1c0.6,0.6,1.3,0.9,2.1,0.9
			C-712.8,303.2-712.1,302.9-711.6,302.3z"/>
		<path d="M-695.1,297.9h-6.3v-1.6h14.6v1.6h-6.3v16.4h-1.9L-695.1,297.9L-695.1,297.9z"/>
		<path d="M-676.2,301.9c0.9,0.9,1.4,2.2,1.4,3.9v8.4h-1.8v-2.1c-0.4,0.7-1,1.3-1.8,1.6c-0.8,0.4-1.8,0.6-2.8,0.6
			c-1.5,0-2.7-0.4-3.6-1.1c-0.9-0.7-1.3-1.7-1.3-2.9c0-1.1,0.4-2.1,1.3-2.8s2.2-1.1,4-1.1h4.3v-0.8c0-1.2-0.3-2.1-1-2.7
			c-0.7-0.6-1.6-0.9-2.9-0.9c-0.9,0-1.7,0.1-2.5,0.4s-1.5,0.7-2,1.2l-0.8-1.4c0.7-0.6,1.5-1,2.5-1.4c1-0.3,2-0.5,3-0.5
			C-678.5,300.6-677.1,301.1-676.2,301.9z M-678.2,312.2c0.7-0.5,1.3-1.1,1.7-2V308h-4.3c-2.3,0-3.5,0.8-3.5,2.4
			c0,0.8,0.3,1.4,0.9,1.9s1.4,0.7,2.5,0.7C-679.8,312.9-679,312.7-678.2,312.2z"/>
		<path d="M-669.3,313.9c-1-0.3-1.8-0.7-2.3-1.2l0.8-1.4c0.6,0.5,1.3,0.8,2.1,1.1s1.8,0.4,2.7,0.4c1.2,0,2.2-0.2,2.7-0.6
			c0.6-0.4,0.9-0.9,0.9-1.6c0-0.5-0.2-0.9-0.5-1.2s-0.7-0.5-1.2-0.6c-0.5-0.1-1.2-0.3-2-0.4c-1.1-0.2-2-0.4-2.7-0.6
			c-0.7-0.2-1.2-0.6-1.7-1.1c-0.5-0.5-0.7-1.2-0.7-2.1c0-1.1,0.5-2.1,1.4-2.8c0.9-0.7,2.3-1.1,3.9-1.1c0.9,0,1.8,0.1,2.6,0.4
			s1.6,0.5,2.2,0.9l-0.8,1.5c-1.1-0.8-2.5-1.2-4-1.2c-1.2,0-2,0.2-2.6,0.6s-0.9,1-0.9,1.6c0,0.5,0.2,0.9,0.5,1.2s0.8,0.5,1.3,0.7
			c0.5,0.1,1.2,0.3,2.1,0.5c1.1,0.2,2,0.4,2.6,0.6c0.7,0.2,1.2,0.6,1.7,1.1c0.5,0.5,0.7,1.2,0.7,2.1c0,1.2-0.5,2.1-1.5,2.8
			c-1,0.7-2.4,1-4.1,1C-667.3,314.4-668.3,314.2-669.3,313.9z"/>
		<path d="M-650.1,313.4c-0.3,0.3-0.8,0.5-1.3,0.7c-0.5,0.2-1,0.2-1.6,0.2c-1.3,0-2.3-0.3-2.9-1c-0.7-0.7-1-1.7-1-2.9v-8.2h-2.4
			v-1.5h2.4v-3h1.8v3h4.1v1.5h-4.1v8.1c0,0.8,0.2,1.4,0.6,1.8c0.4,0.4,1,0.6,1.7,0.6c0.4,0,0.7-0.1,1.1-0.2c0.3-0.1,0.7-0.3,0.9-0.5
			L-650.1,313.4z"/>
		<path d="M-645.2,313.5c-1-0.6-1.9-1.4-2.5-2.5s-0.9-2.2-0.9-3.5s0.3-2.5,0.9-3.5c0.6-1,1.4-1.9,2.5-2.5c1-0.6,2.2-0.9,3.5-0.9
			c1.3,0,2.5,0.3,3.5,0.9c1,0.6,1.9,1.4,2.5,2.5c0.6,1,0.9,2.2,0.9,3.5s-0.3,2.5-0.9,3.5s-1.4,1.9-2.5,2.5c-1,0.6-2.2,0.9-3.5,0.9
			C-643,314.4-644.2,314.1-645.2,313.5z M-639.1,312.1c0.8-0.4,1.4-1.1,1.8-1.9s0.6-1.7,0.6-2.8s-0.2-2-0.6-2.8
			c-0.4-0.8-1-1.4-1.8-1.9c-0.8-0.4-1.6-0.7-2.6-0.7s-1.8,0.2-2.6,0.7c-0.8,0.4-1.4,1.1-1.8,1.9s-0.7,1.7-0.7,2.8s0.2,2,0.7,2.8
			c0.4,0.8,1,1.4,1.8,1.9s1.6,0.7,2.6,0.7C-640.7,312.8-639.9,312.5-639.1,312.1z"/>
	</g>
	<g class="st1">
		<path d="M-573.4,312.6v1.6H-586v-1.3l7.5-7.3c0.9-0.9,1.6-1.7,1.9-2.4s0.5-1.4,0.5-2c0-1.1-0.4-1.9-1.1-2.5
			c-0.7-0.6-1.8-0.9-3.1-0.9c-2.1,0-3.8,0.7-4.9,2l-1.3-1.1c0.7-0.8,1.6-1.5,2.7-1.9c1.1-0.5,2.3-0.7,3.7-0.7c1.8,0,3.3,0.4,4.4,1.3
			s1.6,2.1,1.6,3.6c0,0.9-0.2,1.8-0.6,2.7s-1.2,1.9-2.3,3l-6.1,6L-573.4,312.6L-573.4,312.6z"/>
		<path d="M-569.1,303.7c-0.6-0.4-1.1-0.9-1.5-1.5s-0.5-1.3-0.5-2.1c0-0.7,0.2-1.4,0.5-2s0.8-1.1,1.5-1.5s1.3-0.5,2.1-0.5
			s1.5,0.2,2.1,0.5s1.1,0.9,1.5,1.5s0.5,1.3,0.5,2c0,0.8-0.2,1.5-0.5,2.1c-0.4,0.6-0.9,1.1-1.5,1.5s-1.3,0.5-2.1,0.5
			S-568.5,304.1-569.1,303.7z M-564.9,302.3c0.6-0.6,0.9-1.3,0.9-2.1c0-0.8-0.3-1.5-0.9-2.1c-0.6-0.6-1.3-0.9-2.1-0.9
			s-1.5,0.3-2.1,0.9s-0.8,1.3-0.8,2.1c0,0.9,0.3,1.6,0.8,2.1c0.6,0.6,1.3,0.9,2.1,0.9S-565.5,302.9-564.9,302.3z"/>
		<path d="M-548.4,297.9h-6.3v-1.6h14.6v1.6h-6.3v16.4h-1.9L-548.4,297.9L-548.4,297.9z"/>
		<path d="M-529.5,301.9c0.9,0.9,1.4,2.2,1.4,3.9v8.4h-1.8v-2.1c-0.4,0.7-1,1.3-1.8,1.6c-0.8,0.4-1.8,0.6-2.8,0.6
			c-1.5,0-2.7-0.4-3.6-1.1c-0.9-0.7-1.3-1.7-1.3-2.9c0-1.1,0.4-2.1,1.3-2.8s2.2-1.1,4-1.1h4.3v-0.8c0-1.2-0.3-2.1-1-2.7
			c-0.7-0.6-1.6-0.9-2.9-0.9c-0.9,0-1.7,0.1-2.5,0.4s-1.5,0.7-2,1.2l-0.8-1.4c0.7-0.6,1.5-1,2.5-1.4c1-0.3,2-0.5,3-0.5
			C-531.8,300.6-530.4,301.1-529.5,301.9z M-531.6,312.2c0.7-0.5,1.3-1.1,1.7-2V308h-4.3c-2.3,0-3.5,0.8-3.5,2.4
			c0,0.8,0.3,1.4,0.9,1.9s1.4,0.7,2.5,0.7C-533.2,312.9-532.3,312.7-531.6,312.2z"/>
		<path d="M-522.6,313.9c-1-0.3-1.8-0.7-2.3-1.2l0.8-1.4c0.6,0.5,1.3,0.8,2.1,1.1s1.8,0.4,2.7,0.4c1.2,0,2.2-0.2,2.7-0.6
			s0.9-0.9,0.9-1.6c0-0.5-0.2-0.9-0.5-1.2s-0.7-0.5-1.2-0.6c-0.5-0.1-1.2-0.3-2-0.4c-1.1-0.2-2-0.4-2.7-0.6
			c-0.7-0.2-1.2-0.6-1.7-1.1c-0.5-0.5-0.7-1.2-0.7-2.1c0-1.1,0.5-2.1,1.4-2.8c0.9-0.7,2.3-1.1,3.9-1.1c0.9,0,1.8,0.1,2.6,0.4
			s1.6,0.5,2.2,0.9l-0.8,1.5c-1.1-0.8-2.5-1.2-4-1.2c-1.2,0-2,0.2-2.6,0.6s-0.9,1-0.9,1.6c0,0.5,0.2,0.9,0.5,1.2s0.8,0.5,1.3,0.7
			c0.5,0.1,1.2,0.3,2.1,0.5c1.1,0.2,2,0.4,2.6,0.6c0.7,0.2,1.2,0.6,1.7,1.1c0.5,0.5,0.7,1.2,0.7,2.1c0,1.2-0.5,2.1-1.5,2.8
			c-1,0.7-2.4,1-4.1,1C-520.6,314.4-521.6,314.2-522.6,313.9z"/>
		<path d="M-503.4,313.4c-0.3,0.3-0.8,0.5-1.3,0.7c-0.5,0.2-1,0.2-1.6,0.2c-1.3,0-2.3-0.3-2.9-1c-0.7-0.7-1-1.7-1-2.9v-8.2h-2.4
			v-1.5h2.4v-3h1.8v3h4.1v1.5h-4.1v8.1c0,0.8,0.2,1.4,0.6,1.8c0.4,0.4,1,0.6,1.7,0.6c0.4,0,0.7-0.1,1.1-0.2s0.7-0.3,0.9-0.5
			L-503.4,313.4z"/>
		<path d="M-498.6,313.5c-1-0.6-1.9-1.4-2.5-2.5s-0.9-2.2-0.9-3.5s0.3-2.5,0.9-3.5c0.6-1,1.4-1.9,2.5-2.5c1-0.6,2.2-0.9,3.5-0.9
			c1.3,0,2.5,0.3,3.5,0.9c1,0.6,1.9,1.4,2.5,2.5c0.6,1,0.9,2.2,0.9,3.5s-0.3,2.5-0.9,3.5s-1.4,1.9-2.5,2.5s-2.2,0.9-3.5,0.9
			C-496.3,314.4-497.5,314.1-498.6,313.5z M-492.4,312.1c0.8-0.4,1.4-1.1,1.8-1.9c0.4-0.8,0.6-1.7,0.6-2.8s-0.2-2-0.6-2.8
			c-0.4-0.8-1-1.4-1.8-1.9s-1.6-0.7-2.6-0.7s-1.8,0.2-2.6,0.7c-0.8,0.4-1.4,1.1-1.8,1.9s-0.7,1.7-0.7,2.8s0.2,2,0.7,2.8
			c0.4,0.8,1,1.4,1.8,1.9s1.6,0.7,2.6,0.7S-493.2,312.5-492.4,312.1z"/>
	</g>
	<g class="st1">
		<path d="M-431,305.5c1,0.9,1.5,2.1,1.5,3.6c0,1-0.3,1.9-0.8,2.7s-1.2,1.4-2.2,1.9s-2.2,0.7-3.6,0.7c-1.3,0-2.5-0.2-3.7-0.6
			s-2.1-1-2.8-1.7l0.9-1.5c0.6,0.6,1.4,1.1,2.4,1.5c1,0.4,2.1,0.6,3.2,0.6c1.5,0,2.6-0.3,3.4-1c0.8-0.6,1.2-1.5,1.2-2.7
			c0-1.1-0.4-2-1.2-2.6c-0.8-0.6-2-1-3.7-1h-1.3v-1.4l5-6.3h-9.2v-1.6h11.6v1.3l-5.1,6.4C-433.4,304.1-432,304.6-431,305.5z"/>
		<path d="M-425.3,303.7c-0.6-0.4-1.1-0.9-1.5-1.5c-0.4-0.6-0.5-1.3-0.5-2.1c0-0.7,0.2-1.4,0.5-2s0.9-1.1,1.5-1.5
			c0.6-0.4,1.3-0.5,2.1-0.5s1.5,0.2,2.1,0.5c0.6,0.4,1.1,0.9,1.5,1.5s0.5,1.3,0.5,2c0,0.8-0.2,1.5-0.5,2.1c-0.4,0.6-0.9,1.1-1.5,1.5
			c-0.6,0.4-1.3,0.5-2.1,0.5C-424,304.3-424.7,304.1-425.3,303.7z M-421.1,302.3c0.6-0.6,0.9-1.3,0.9-2.1c0-0.8-0.3-1.5-0.9-2.1
			c-0.6-0.6-1.3-0.9-2.1-0.9s-1.5,0.3-2.1,0.9s-0.9,1.3-0.9,2.1c0,0.9,0.3,1.6,0.9,2.1s1.3,0.9,2.1,0.9
			C-422.4,303.2-421.7,302.9-421.1,302.3z"/>
		<path d="M-404.7,297.9h-6.3v-1.6h14.6v1.6h-6.3v16.4h-1.9L-404.7,297.9L-404.7,297.9z"/>
		<path d="M-385.7,301.9c0.9,0.9,1.4,2.2,1.4,3.9v8.4h-1.8v-2.1c-0.4,0.7-1,1.3-1.8,1.6c-0.8,0.4-1.8,0.6-2.8,0.6
			c-1.5,0-2.7-0.4-3.6-1.1s-1.3-1.7-1.3-2.9c0-1.1,0.4-2.1,1.3-2.8s2.2-1.1,4-1.1h4.3v-0.8c0-1.2-0.3-2.1-1-2.7
			c-0.6-0.6-1.6-0.9-2.9-0.9c-0.9,0-1.7,0.1-2.5,0.4s-1.5,0.7-2,1.2l-0.8-1.4c0.7-0.6,1.5-1,2.5-1.4s2-0.5,3-0.5
			C-388,300.6-386.7,301.1-385.7,301.9z M-387.8,312.2c0.7-0.5,1.3-1.1,1.6-2V308h-4.3c-2.3,0-3.5,0.8-3.5,2.4
			c0,0.8,0.3,1.4,0.9,1.9s1.4,0.7,2.5,0.7C-389.4,312.9-388.5,312.7-387.8,312.2z"/>
		<path d="M-378.9,313.9c-1-0.3-1.8-0.7-2.4-1.2l0.8-1.4c0.6,0.5,1.3,0.8,2.1,1.1c0.9,0.3,1.8,0.4,2.7,0.4c1.2,0,2.1-0.2,2.7-0.6
			c0.6-0.4,0.9-0.9,0.9-1.6c0-0.5-0.2-0.9-0.5-1.2s-0.7-0.5-1.2-0.6c-0.5-0.1-1.2-0.3-2-0.4c-1.1-0.2-2-0.4-2.6-0.6
			c-0.7-0.2-1.2-0.6-1.7-1.1s-0.7-1.2-0.7-2.1c0-1.1,0.5-2.1,1.4-2.8c0.9-0.7,2.3-1.1,3.9-1.1c0.9,0,1.8,0.1,2.6,0.4
			s1.6,0.5,2.2,0.9l-0.8,1.5c-1.1-0.8-2.5-1.2-4-1.2c-1.2,0-2,0.2-2.6,0.6c-0.6,0.4-0.9,1-0.9,1.6c0,0.5,0.2,0.9,0.5,1.2
			s0.8,0.5,1.3,0.7c0.5,0.1,1.2,0.3,2.1,0.5c1.1,0.2,2,0.4,2.6,0.6s1.2,0.6,1.7,1.1c0.5,0.5,0.7,1.2,0.7,2.1c0,1.2-0.5,2.1-1.5,2.8
			c-1,0.7-2.4,1-4.1,1C-376.8,314.4-377.9,314.2-378.9,313.9z"/>
		<path d="M-359.6,313.4c-0.3,0.3-0.8,0.5-1.3,0.7c-0.5,0.2-1,0.2-1.6,0.2c-1.3,0-2.3-0.3-2.9-1c-0.7-0.7-1-1.7-1-2.9v-8.2h-2.4
			v-1.5h2.4v-3h1.8v3h4.1v1.5h-4.1v8.1c0,0.8,0.2,1.4,0.6,1.8c0.4,0.4,1,0.6,1.7,0.6c0.4,0,0.7-0.1,1.1-0.2s0.7-0.3,0.9-0.5
			L-359.6,313.4z"/>
		<path d="M-354.8,313.5c-1-0.6-1.9-1.4-2.5-2.5s-0.9-2.2-0.9-3.5s0.3-2.5,0.9-3.5c0.6-1,1.4-1.9,2.5-2.5c1-0.6,2.2-0.9,3.5-0.9
			c1.3,0,2.5,0.3,3.5,0.9c1,0.6,1.9,1.4,2.5,2.5c0.6,1,0.9,2.2,0.9,3.5s-0.3,2.5-0.9,3.5s-1.4,1.9-2.5,2.5s-2.2,0.9-3.5,0.9
			C-352.6,314.4-353.8,314.1-354.8,313.5z M-348.7,312.1c0.8-0.4,1.4-1.1,1.8-1.9c0.4-0.8,0.6-1.7,0.6-2.8s-0.2-2-0.6-2.8
			c-0.4-0.8-1-1.4-1.8-1.9s-1.6-0.7-2.6-0.7s-1.8,0.2-2.6,0.7c-0.8,0.4-1.4,1.1-1.8,1.9s-0.7,1.7-0.7,2.8s0.2,2,0.7,2.8
			c0.4,0.8,1,1.4,1.8,1.9c0.8,0.4,1.6,0.7,2.6,0.7C-350.3,312.8-349.5,312.5-348.7,312.1z"/>
	</g>
	<g class="st1">
		<path d="M-283.2,309.5h-3.6v4.7h-1.9v-4.7h-10.2v-1.3l9.5-11.9h2.1l-9.2,11.6h7.8v-4.2h1.8v4.2h3.6L-283.2,309.5L-283.2,309.5z"/>
		<path d="M-280.3,303.7c-0.6-0.4-1.1-0.9-1.5-1.5c-0.4-0.6-0.5-1.3-0.5-2.1c0-0.7,0.2-1.4,0.5-2s0.9-1.1,1.5-1.5
			c0.6-0.4,1.3-0.5,2.1-0.5s1.5,0.2,2.1,0.5c0.6,0.4,1.1,0.9,1.5,1.5s0.5,1.3,0.5,2c0,0.8-0.2,1.5-0.5,2.1c-0.4,0.6-0.9,1.1-1.5,1.5
			c-0.6,0.4-1.3,0.5-2.1,0.5C-279,304.3-279.7,304.1-280.3,303.7z M-276.1,302.3c0.6-0.6,0.9-1.3,0.9-2.1c0-0.8-0.3-1.5-0.9-2.1
			c-0.6-0.6-1.3-0.9-2.1-0.9s-1.5,0.3-2.1,0.9s-0.9,1.3-0.9,2.1c0,0.9,0.3,1.6,0.9,2.1s1.3,0.9,2.1,0.9
			C-277.4,303.2-276.7,302.9-276.1,302.3z"/>
		<path d="M-259.6,297.9h-6.3v-1.6h14.6v1.6h-6.3v16.4h-1.9L-259.6,297.9L-259.6,297.9z"/>
		<path d="M-240.7,301.9c0.9,0.9,1.4,2.2,1.4,3.9v8.4h-1.8v-2.1c-0.4,0.7-1,1.3-1.8,1.6c-0.8,0.4-1.8,0.6-2.8,0.6
			c-1.5,0-2.7-0.4-3.6-1.1s-1.3-1.7-1.3-2.9c0-1.1,0.4-2.1,1.3-2.8s2.2-1.1,4-1.1h4.3v-0.8c0-1.2-0.3-2.1-1-2.7
			c-0.6-0.6-1.6-0.9-2.9-0.9c-0.9,0-1.7,0.1-2.5,0.4c-0.8,0.3-1.5,0.7-2,1.2l-0.8-1.4c0.7-0.6,1.5-1,2.5-1.4s2-0.5,3-0.5
			C-243,300.6-241.6,301.1-240.7,301.9z M-242.8,312.2c0.7-0.5,1.3-1.1,1.6-2V308h-4.3c-2.3,0-3.5,0.8-3.5,2.4
			c0,0.8,0.3,1.4,0.9,1.9s1.4,0.7,2.5,0.7C-244.4,312.9-243.5,312.7-242.8,312.2z"/>
		<path d="M-233.8,313.9c-1-0.3-1.8-0.7-2.4-1.2l0.8-1.4c0.6,0.5,1.3,0.8,2.1,1.1s1.8,0.4,2.7,0.4c1.2,0,2.1-0.2,2.7-0.6
			c0.6-0.4,0.9-0.9,0.9-1.6c0-0.5-0.2-0.9-0.5-1.2s-0.7-0.5-1.2-0.6c-0.5-0.1-1.2-0.3-2-0.4c-1.1-0.2-2-0.4-2.6-0.6
			s-1.2-0.6-1.7-1.1s-0.7-1.2-0.7-2.1c0-1.1,0.5-2.1,1.4-2.8c0.9-0.7,2.3-1.1,3.9-1.1c0.9,0,1.8,0.1,2.6,0.4s1.6,0.5,2.2,0.9
			l-0.8,1.5c-1.1-0.8-2.4-1.2-4-1.2c-1.2,0-2.1,0.2-2.6,0.6s-0.9,1-0.9,1.6c0,0.5,0.2,0.9,0.5,1.2s0.8,0.5,1.3,0.7
			c0.5,0.1,1.2,0.3,2.1,0.5c1.1,0.2,1.9,0.4,2.6,0.6c0.6,0.2,1.2,0.6,1.7,1.1c0.5,0.5,0.7,1.2,0.7,2.1c0,1.2-0.5,2.1-1.5,2.8
			c-1,0.7-2.4,1-4.1,1C-231.8,314.4-232.8,314.2-233.8,313.9z"/>
		<path d="M-214.6,313.4c-0.3,0.3-0.8,0.5-1.3,0.7c-0.5,0.2-1,0.2-1.6,0.2c-1.3,0-2.3-0.3-2.9-1c-0.7-0.7-1-1.7-1-2.9v-8.2h-2.4
			v-1.5h2.4v-3h1.8v3h4.1v1.5h-4.1v8.1c0,0.8,0.2,1.4,0.6,1.8c0.4,0.4,1,0.6,1.7,0.6c0.4,0,0.7-0.1,1.1-0.2c0.4-0.1,0.7-0.3,0.9-0.5
			L-214.6,313.4z"/>
		<path d="M-209.8,313.5c-1.1-0.6-1.9-1.4-2.5-2.5s-0.9-2.2-0.9-3.5s0.3-2.5,0.9-3.5c0.6-1,1.4-1.9,2.5-2.5c1.1-0.6,2.2-0.9,3.5-0.9
			c1.3,0,2.5,0.3,3.5,0.9c1.1,0.6,1.9,1.4,2.5,2.5c0.6,1,0.9,2.2,0.9,3.5s-0.3,2.5-0.9,3.5s-1.4,1.9-2.5,2.5s-2.2,0.9-3.5,0.9
			C-207.5,314.4-208.7,314.1-209.8,313.5z M-203.6,312.1c0.8-0.4,1.4-1.1,1.8-1.9s0.6-1.7,0.6-2.8s-0.2-2-0.6-2.8
			c-0.4-0.8-1-1.4-1.8-1.9s-1.6-0.7-2.6-0.7c-1,0-1.8,0.2-2.6,0.7c-0.8,0.4-1.4,1.1-1.8,1.9s-0.7,1.7-0.7,2.8s0.2,2,0.7,2.8
			c0.4,0.8,1,1.4,1.8,1.9c0.8,0.4,1.6,0.7,2.6,0.7C-205.3,312.8-204.4,312.5-203.6,312.1z"/>
	</g>
	<g class="st1">
		<path d="M-143,305c1.2,0.9,1.8,2.2,1.8,3.9c0,1-0.2,2-0.7,2.8c-0.5,0.8-1.2,1.5-2.2,1.9s-2.2,0.7-3.6,0.7c-1.3,0-2.5-0.2-3.7-0.6
			s-2.1-1-2.8-1.7l0.9-1.5c0.6,0.6,1.4,1.1,2.4,1.5s2,0.6,3.2,0.6c1.5,0,2.6-0.3,3.5-1c0.8-0.7,1.2-1.6,1.2-2.7
			c0-1.2-0.5-2.2-1.4-2.8c-0.9-0.6-2.5-1-4.6-1h-3.8l0.9-9h9.9v1.6h-8.2l-0.6,5.7h2.3C-146.1,303.6-144.2,304.1-143,305z"/>
		<path d="M-137.3,303.7c-0.6-0.4-1.1-0.9-1.5-1.5s-0.5-1.3-0.5-2.1c0-0.7,0.2-1.4,0.5-2s0.9-1.1,1.5-1.5c0.6-0.4,1.3-0.5,2.1-0.5
			s1.4,0.2,2.1,0.5c0.6,0.4,1.1,0.9,1.5,1.5s0.5,1.3,0.5,2c0,0.8-0.2,1.5-0.5,2.1c-0.4,0.6-0.9,1.1-1.5,1.5
			c-0.6,0.4-1.3,0.5-2.1,0.5C-136,304.3-136.7,304.1-137.3,303.7z M-133.1,302.3c0.6-0.6,0.9-1.3,0.9-2.1c0-0.8-0.3-1.5-0.9-2.1
			c-0.6-0.6-1.3-0.9-2.1-0.9s-1.5,0.3-2.1,0.9s-0.9,1.3-0.9,2.1c0,0.9,0.3,1.6,0.9,2.1s1.3,0.9,2.1,0.9
			C-134.4,303.2-133.7,302.9-133.1,302.3z"/>
		<path d="M-116.7,297.9h-6.3v-1.6h14.6v1.6h-6.3v16.4h-1.9L-116.7,297.9L-116.7,297.9z"/>
		<path d="M-97.7,301.9c0.9,0.9,1.4,2.2,1.4,3.9v8.4h-1.8v-2.1c-0.4,0.7-1,1.3-1.8,1.6c-0.8,0.4-1.8,0.6-2.8,0.6
			c-1.5,0-2.7-0.4-3.6-1.1s-1.3-1.7-1.3-2.9c0-1.1,0.4-2.1,1.3-2.8s2.2-1.1,4-1.1h4.3v-0.8c0-1.2-0.3-2.1-1-2.7
			c-0.7-0.6-1.6-0.9-2.9-0.9c-0.9,0-1.7,0.1-2.5,0.4s-1.5,0.7-2,1.2l-0.8-1.4c0.7-0.6,1.5-1,2.5-1.4s2-0.5,3-0.5
			C-100,300.6-98.7,301.1-97.7,301.9z M-99.8,312.2c0.7-0.5,1.3-1.1,1.7-2V308h-4.3c-2.3,0-3.5,0.8-3.5,2.4c0,0.8,0.3,1.4,0.9,1.9
			s1.4,0.7,2.5,0.7C-101.4,312.9-100.5,312.7-99.8,312.2z"/>
		<path d="M-90.9,313.9c-1-0.3-1.8-0.7-2.3-1.2l0.8-1.4c0.6,0.5,1.3,0.8,2.1,1.1s1.8,0.4,2.7,0.4c1.2,0,2.2-0.2,2.7-0.6
			c0.6-0.4,0.9-0.9,0.9-1.6c0-0.5-0.2-0.9-0.5-1.2c-0.3-0.3-0.7-0.5-1.2-0.6c-0.5-0.1-1.2-0.3-2-0.4c-1.1-0.2-2-0.4-2.7-0.6
			s-1.2-0.6-1.7-1.1s-0.7-1.2-0.7-2.1c0-1.1,0.5-2.1,1.4-2.8c0.9-0.7,2.3-1.1,3.9-1.1c0.9,0,1.8,0.1,2.6,0.4s1.6,0.5,2.2,0.9
			l-0.8,1.5c-1.1-0.8-2.4-1.2-4-1.2c-1.2,0-2.1,0.2-2.6,0.6s-0.9,1-0.9,1.6c0,0.5,0.2,0.9,0.5,1.2s0.8,0.5,1.3,0.7
			c0.5,0.1,1.2,0.3,2.1,0.5c1.1,0.2,1.9,0.4,2.6,0.6s1.2,0.6,1.7,1.1s0.7,1.2,0.7,2.1c0,1.2-0.5,2.1-1.5,2.8c-1,0.7-2.4,1-4.1,1
			C-88.8,314.4-89.8,314.2-90.9,313.9z"/>
		<path d="M-71.6,313.4c-0.3,0.3-0.8,0.5-1.3,0.7c-0.5,0.2-1,0.2-1.6,0.2c-1.3,0-2.3-0.3-2.9-1c-0.7-0.7-1-1.7-1-2.9v-8.2h-2.4v-1.5
			h2.4v-3h1.8v3h4.1v1.5h-4.1v8.1c0,0.8,0.2,1.4,0.6,1.8c0.4,0.4,1,0.6,1.7,0.6c0.4,0,0.7-0.1,1.1-0.2s0.7-0.3,0.9-0.5L-71.6,313.4z
			"/>
		<path d="M-66.8,313.5c-1.1-0.6-1.9-1.4-2.5-2.5s-0.9-2.2-0.9-3.5s0.3-2.5,0.9-3.5c0.6-1,1.4-1.9,2.5-2.5c1.1-0.6,2.2-0.9,3.5-0.9
			c1.3,0,2.5,0.3,3.5,0.9c1,0.6,1.9,1.4,2.5,2.5c0.6,1,0.9,2.2,0.9,3.5s-0.3,2.5-0.9,3.5s-1.4,1.9-2.5,2.5s-2.2,0.9-3.5,0.9
			C-64.6,314.4-65.7,314.1-66.8,313.5z M-60.7,312.1c0.8-0.4,1.4-1.1,1.8-1.9s0.6-1.7,0.6-2.8s-0.2-2-0.6-2.8
			c-0.4-0.8-1-1.4-1.8-1.9c-0.8-0.4-1.6-0.7-2.6-0.7s-1.8,0.2-2.6,0.7c-0.8,0.4-1.4,1.1-1.8,1.9s-0.7,1.7-0.7,2.8s0.2,2,0.7,2.8
			c0.4,0.8,1,1.4,1.8,1.9s1.6,0.7,2.6,0.7C-62.3,312.8-61.4,312.5-60.7,312.1z"/>
	</g>
	<g class="st1">
		<path d="M0.7,304.1c0.9,0.5,1.6,1.1,2.2,1.9c0.5,0.8,0.8,1.8,0.8,2.8c0,1.1-0.3,2.1-0.8,2.9s-1.3,1.5-2.2,1.9
			c-0.9,0.5-2,0.7-3.2,0.7c-2.4,0-4.2-0.8-5.5-2.4c-1.3-1.6-1.9-3.8-1.9-6.6c0-2,0.3-3.7,1-5.1s1.7-2.4,2.9-3.1s2.7-1.1,4.3-1.1
			c1.8,0,3.2,0.3,4.3,1l-0.8,1.5c-0.9-0.6-2-0.9-3.5-0.9c-2,0-3.6,0.6-4.7,1.9s-1.7,3.1-1.7,5.5c0,0.4,0,0.9,0.1,1.5
			c0.4-1,1.2-1.7,2.1-2.3s2.1-0.8,3.4-0.8C-1.3,303.5-0.2,303.7,0.7,304.1z M0.5,311.8c0.8-0.7,1.2-1.7,1.2-2.8s-0.4-2.1-1.2-2.8
			c-0.8-0.7-1.9-1.1-3.3-1.1c-0.9,0-1.7,0.2-2.4,0.5c-0.7,0.3-1.2,0.8-1.6,1.4c-0.4,0.6-0.6,1.3-0.6,2c0,0.7,0.2,1.3,0.6,1.9
			c0.4,0.6,0.9,1.1,1.6,1.4s1.6,0.5,2.6,0.5C-1.3,312.8-0.3,312.5,0.5,311.8z"/>
		<path d="M7.2,303.7c-0.6-0.4-1.1-0.9-1.5-1.5s-0.5-1.3-0.5-2.1c0-0.7,0.2-1.4,0.5-2s0.8-1.1,1.5-1.5c0.6-0.4,1.3-0.5,2.1-0.5
			s1.4,0.2,2.1,0.5c0.6,0.4,1.1,0.9,1.5,1.5s0.5,1.3,0.5,2c0,0.8-0.2,1.5-0.5,2.1c-0.4,0.6-0.9,1.1-1.5,1.5
			c-0.6,0.4-1.3,0.5-2.1,0.5C8.5,304.3,7.8,304.1,7.2,303.7z M11.4,302.3c0.6-0.6,0.9-1.3,0.9-2.1c0-0.8-0.3-1.5-0.9-2.1
			c-0.6-0.6-1.3-0.9-2.1-0.9s-1.5,0.3-2.1,0.9s-0.8,1.3-0.8,2.1c0,0.9,0.3,1.6,0.8,2.1s1.3,0.9,2.1,0.9
			C10.1,303.2,10.8,302.9,11.4,302.3z"/>
		<path d="M27.8,297.9h-6.3v-1.6h14.6v1.6h-6.3v16.4h-1.9L27.8,297.9L27.8,297.9z"/>
		<path d="M46.8,301.9c0.9,0.9,1.4,2.2,1.4,3.9v8.4h-1.8v-2.1c-0.4,0.7-1,1.3-1.8,1.6c-0.8,0.4-1.8,0.6-2.8,0.6
			c-1.5,0-2.7-0.4-3.6-1.1s-1.3-1.7-1.3-2.9c0-1.1,0.4-2.1,1.3-2.8s2.2-1.1,4-1.1h4.3v-0.8c0-1.2-0.3-2.1-1-2.7
			c-0.7-0.6-1.6-0.9-2.9-0.9c-0.9,0-1.7,0.1-2.5,0.4s-1.5,0.7-2,1.2l-0.8-1.4c0.7-0.6,1.5-1,2.5-1.4c1-0.3,2-0.5,3-0.5
			C44.5,300.6,45.8,301.1,46.8,301.9z M44.7,312.2c0.7-0.5,1.3-1.1,1.7-2V308h-4.3c-2.3,0-3.5,0.8-3.5,2.4c0,0.8,0.3,1.4,0.9,1.9
			S41,313,42,313C43.1,312.9,44,312.7,44.7,312.2z"/>
		<path d="M53.6,313.9c-1-0.3-1.8-0.7-2.3-1.2l0.8-1.4c0.6,0.5,1.3,0.8,2.1,1.1s1.8,0.4,2.7,0.4c1.2,0,2.2-0.2,2.7-0.6
			c0.6-0.4,0.9-0.9,0.9-1.6c0-0.5-0.2-0.9-0.5-1.2s-0.7-0.5-1.2-0.6c-0.5-0.1-1.2-0.3-2-0.4c-1.1-0.2-2-0.4-2.7-0.6
			c-0.7-0.2-1.2-0.6-1.7-1.1c-0.5-0.5-0.7-1.2-0.7-2.1c0-1.1,0.5-2.1,1.4-2.8c0.9-0.7,2.3-1.1,3.9-1.1c0.9,0,1.8,0.1,2.6,0.4
			s1.6,0.5,2.2,0.9l-0.8,1.5c-1.1-0.8-2.5-1.2-4-1.2c-1.2,0-2,0.2-2.6,0.6s-0.9,1-0.9,1.6c0,0.5,0.2,0.9,0.5,1.2s0.8,0.5,1.3,0.7
			c0.5,0.1,1.2,0.3,2.1,0.5c1.1,0.2,2,0.4,2.6,0.6c0.7,0.2,1.2,0.6,1.7,1.1s0.7,1.2,0.7,2.1c0,1.2-0.5,2.1-1.5,2.8
			c-1,0.7-2.4,1-4.1,1C55.7,314.4,54.6,314.2,53.6,313.9z"/>
		<path d="M72.9,313.4c-0.3,0.3-0.8,0.5-1.3,0.7c-0.5,0.2-1,0.2-1.6,0.2c-1.3,0-2.3-0.3-2.9-1c-0.7-0.7-1-1.7-1-2.9v-8.2h-2.4v-1.5
			h2.4v-3h1.8v3H72v1.5h-4.1v8.1c0,0.8,0.2,1.4,0.6,1.8c0.4,0.4,1,0.6,1.7,0.6c0.4,0,0.7-0.1,1.1-0.2s0.7-0.3,0.9-0.5L72.9,313.4z"
			/>
		<path d="M77.7,313.5c-1.1-0.6-1.9-1.4-2.5-2.5s-0.9-2.2-0.9-3.5s0.3-2.5,0.9-3.5c0.6-1,1.4-1.9,2.5-2.5c1.1-0.6,2.2-0.9,3.5-0.9
			c1.3,0,2.5,0.3,3.5,0.9c1.1,0.6,1.9,1.4,2.5,2.5c0.6,1,0.9,2.2,0.9,3.5s-0.3,2.5-0.9,3.5s-1.4,1.9-2.5,2.5
			c-1.1,0.6-2.2,0.9-3.5,0.9C79.9,314.4,78.8,314.1,77.7,313.5z M83.8,312.1c0.8-0.4,1.4-1.1,1.8-1.9s0.6-1.7,0.6-2.8
			s-0.2-2-0.6-2.8c-0.4-0.8-1-1.4-1.8-1.9s-1.6-0.7-2.6-0.7s-1.8,0.2-2.6,0.7c-0.8,0.4-1.4,1.1-1.8,1.9s-0.7,1.7-0.7,2.8
			s0.2,2,0.7,2.8c0.4,0.8,1,1.4,1.8,1.9s1.6,0.7,2.6,0.7C82.2,312.8,83.1,312.5,83.8,312.1z"/>
	</g>
	<g class="st1">
		<path d="M146.7,296.2v1.3l-7.5,16.7h-2l7.4-16.4h-9.3v3.4h-1.8v-5H146.7z"/>
		<path d="M151.2,303.7c-0.6-0.4-1.1-0.9-1.5-1.5s-0.5-1.3-0.5-2.1c0-0.7,0.2-1.4,0.5-2s0.9-1.1,1.5-1.5c0.6-0.4,1.3-0.5,2.1-0.5
			s1.4,0.2,2.1,0.5c0.6,0.4,1.1,0.9,1.5,1.5s0.5,1.3,0.5,2c0,0.8-0.2,1.5-0.5,2.1c-0.4,0.6-0.9,1.1-1.5,1.5
			c-0.6,0.4-1.3,0.5-2.1,0.5C152.5,304.3,151.9,304.1,151.2,303.7z M155.4,302.3c0.6-0.6,0.9-1.3,0.9-2.1c0-0.8-0.3-1.5-0.9-2.1
			s-1.3-0.9-2.1-0.9s-1.5,0.3-2.1,0.9c-0.6,0.6-0.9,1.3-0.9,2.1c0,0.9,0.3,1.6,0.9,2.1s1.3,0.9,2.1,0.9S154.8,302.9,155.4,302.3z"/>
		<path d="M171.9,297.9h-6.3v-1.6h14.6v1.6h-6.3v16.4h-1.9L171.9,297.9L171.9,297.9z"/>
		<path d="M190.8,301.9c0.9,0.9,1.4,2.2,1.4,3.9v8.4h-1.8v-2.1c-0.4,0.7-1,1.3-1.8,1.6c-0.8,0.4-1.8,0.6-2.8,0.6
			c-1.5,0-2.7-0.4-3.6-1.1s-1.3-1.7-1.3-2.9c0-1.1,0.4-2.1,1.3-2.8s2.2-1.1,4-1.1h4.3v-0.8c0-1.2-0.3-2.1-1-2.7
			c-0.6-0.6-1.6-0.9-2.9-0.9c-0.9,0-1.7,0.1-2.5,0.4s-1.5,0.7-2,1.2l-0.8-1.4c0.7-0.6,1.5-1,2.5-1.4s2-0.5,3-0.5
			C188.5,300.6,189.9,301.1,190.8,301.9z M188.8,312.2c0.7-0.5,1.3-1.1,1.6-2V308h-4.3c-2.3,0-3.5,0.8-3.5,2.4
			c0,0.8,0.3,1.4,0.9,1.9s1.4,0.7,2.5,0.7C187.1,312.9,188,312.7,188.8,312.2z"/>
		<path d="M197.7,313.9c-1-0.3-1.8-0.7-2.4-1.2l0.8-1.4c0.6,0.5,1.3,0.8,2.1,1.1s1.8,0.4,2.7,0.4c1.2,0,2.1-0.2,2.7-0.6
			s0.9-0.9,0.9-1.6c0-0.5-0.2-0.9-0.5-1.2s-0.7-0.5-1.2-0.6c-0.5-0.1-1.2-0.3-2-0.4c-1.1-0.2-2-0.4-2.6-0.6s-1.2-0.6-1.7-1.1
			s-0.7-1.2-0.7-2.1c0-1.1,0.5-2.1,1.4-2.8c0.9-0.7,2.3-1.1,3.9-1.1c0.9,0,1.8,0.1,2.6,0.4s1.6,0.5,2.2,0.9l-0.8,1.5
			c-1.1-0.8-2.4-1.2-4-1.2c-1.2,0-2.1,0.2-2.6,0.6s-0.9,1-0.9,1.6c0,0.5,0.2,0.9,0.5,1.2s0.8,0.5,1.3,0.7c0.5,0.1,1.2,0.3,2.1,0.5
			c1.1,0.2,1.9,0.4,2.6,0.6c0.6,0.2,1.2,0.6,1.7,1.1c0.5,0.5,0.7,1.2,0.7,2.1c0,1.2-0.5,2.1-1.5,2.8c-1,0.7-2.4,1-4.1,1
			C199.7,314.4,198.7,314.2,197.7,313.9z"/>
		<path d="M216.9,313.4c-0.3,0.3-0.8,0.5-1.3,0.7c-0.5,0.2-1,0.2-1.6,0.2c-1.3,0-2.3-0.3-2.9-1c-0.7-0.7-1-1.7-1-2.9v-8.2h-2.4v-1.5
			h2.4v-3h1.8v3h4.1v1.5h-4.1v8.1c0,0.8,0.2,1.4,0.6,1.8c0.4,0.4,1,0.6,1.7,0.6c0.4,0,0.7-0.1,1.1-0.2s0.7-0.3,0.9-0.5L216.9,313.4z
			"/>
		<path d="M221.8,313.5c-1.1-0.6-1.9-1.4-2.5-2.5s-0.9-2.2-0.9-3.5s0.3-2.5,0.9-3.5c0.6-1,1.4-1.9,2.5-2.5c1.1-0.6,2.2-0.9,3.5-0.9
			c1.3,0,2.5,0.3,3.5,0.9c1.1,0.6,1.9,1.4,2.5,2.5c0.6,1,0.9,2.2,0.9,3.5s-0.3,2.5-0.9,3.5c-0.6,1-1.4,1.9-2.5,2.5s-2.2,0.9-3.5,0.9
			C224,314.4,222.8,314.1,221.8,313.5z M227.9,312.1c0.8-0.4,1.4-1.1,1.8-1.9s0.6-1.7,0.6-2.8s-0.2-2-0.6-2.8
			c-0.4-0.8-1-1.4-1.8-1.9s-1.6-0.7-2.6-0.7s-1.8,0.2-2.6,0.7c-0.8,0.4-1.4,1.1-1.8,1.9s-0.7,1.7-0.7,2.8s0.2,2,0.7,2.8
			c0.4,0.8,1,1.4,1.8,1.9s1.6,0.7,2.6,0.7S227.1,312.5,227.9,312.1z"/>
	</g>
	<g class="st1">
		<path d="M290.4,306.5c0.6,0.8,0.9,1.7,0.9,2.7c0,1-0.3,2-0.9,2.7s-1.4,1.4-2.4,1.8c-1,0.4-2.3,0.6-3.7,0.6c-2.2,0-3.9-0.5-5.1-1.4
			c-1.2-0.9-1.9-2.2-1.9-3.8c0-1.1,0.3-2,0.9-2.7c0.6-0.8,1.5-1.3,2.6-1.7c-0.9-0.4-1.6-0.9-2.1-1.6c-0.5-0.7-0.7-1.5-0.7-2.4
			c0-1.5,0.6-2.6,1.7-3.5c1.1-0.9,2.7-1.3,4.6-1.3c1.3,0,2.4,0.2,3.3,0.6s1.7,0.9,2.2,1.7c0.5,0.7,0.8,1.6,0.8,2.5
			c0,0.9-0.3,1.7-0.8,2.4s-1.2,1.2-2.1,1.6C288.9,305.2,289.7,305.8,290.4,306.5z M288,311.9c0.9-0.6,1.4-1.5,1.4-2.6
			c0-1.1-0.5-2-1.4-2.6s-2.1-1-3.8-1c-1.6,0-2.8,0.3-3.7,1c-0.9,0.6-1.4,1.5-1.4,2.6c0,1.1,0.5,2,1.3,2.7c0.9,0.6,2.1,1,3.7,1
			S287.1,312.5,288,311.9z M281,303.3c0.8,0.6,1.9,0.9,3.3,0.9c1.4,0,2.5-0.3,3.3-0.9c0.8-0.6,1.2-1.4,1.2-2.3c0-1-0.4-1.8-1.2-2.4
			c-0.8-0.6-1.9-0.9-3.3-0.9c-1.4,0-2.5,0.3-3.3,0.9c-0.8,0.6-1.2,1.4-1.2,2.4S280.2,302.7,281,303.3z"/>
		<path d="M295.8,303.7c-0.6-0.4-1.1-0.9-1.5-1.5c-0.4-0.6-0.5-1.3-0.5-2.1c0-0.7,0.2-1.4,0.5-2s0.9-1.1,1.5-1.5
			c0.6-0.4,1.3-0.5,2.1-0.5s1.5,0.2,2.1,0.5c0.6,0.4,1.1,0.9,1.5,1.5s0.5,1.3,0.5,2c0,0.8-0.2,1.5-0.5,2.1c-0.4,0.6-0.9,1.1-1.5,1.5
			c-0.6,0.4-1.3,0.5-2.1,0.5C297.1,304.3,296.4,304.1,295.8,303.7z M300,302.3c0.6-0.6,0.9-1.3,0.9-2.1c0-0.8-0.3-1.5-0.9-2.1
			s-1.3-0.9-2.1-0.9s-1.5,0.3-2.1,0.9c-0.6,0.6-0.9,1.3-0.9,2.1c0,0.9,0.3,1.6,0.9,2.1s1.3,0.9,2.1,0.9S299.4,302.9,300,302.3z"/>
		<path d="M316.5,297.9h-6.3v-1.6h14.6v1.6h-6.3v16.4h-1.9L316.5,297.9L316.5,297.9z"/>
		<path d="M335.4,301.9c0.9,0.9,1.4,2.2,1.4,3.9v8.4h-1.8v-2.1c-0.4,0.7-1,1.3-1.8,1.6c-0.8,0.4-1.8,0.6-2.8,0.6
			c-1.5,0-2.7-0.4-3.6-1.1s-1.3-1.7-1.3-2.9c0-1.1,0.4-2.1,1.3-2.8s2.2-1.1,4-1.1h4.3v-0.8c0-1.2-0.3-2.1-1-2.7
			c-0.6-0.6-1.6-0.9-2.9-0.9c-0.9,0-1.7,0.1-2.5,0.4s-1.5,0.7-2,1.2l-0.8-1.4c0.7-0.6,1.5-1,2.5-1.4s2-0.5,3-0.5
			C333.1,300.6,334.5,301.1,335.4,301.9z M333.3,312.2c0.7-0.5,1.3-1.1,1.6-2V308h-4.3c-2.3,0-3.5,0.8-3.5,2.4
			c0,0.8,0.3,1.4,0.9,1.9s1.4,0.7,2.5,0.7C331.7,312.9,332.6,312.7,333.3,312.2z"/>
		<path d="M342.3,313.9c-1-0.3-1.8-0.7-2.4-1.2l0.8-1.4c0.6,0.5,1.3,0.8,2.1,1.1c0.9,0.3,1.8,0.4,2.7,0.4c1.2,0,2.1-0.2,2.7-0.6
			s0.9-0.9,0.9-1.6c0-0.5-0.2-0.9-0.5-1.2s-0.7-0.5-1.2-0.6c-0.5-0.1-1.2-0.3-2-0.4c-1.1-0.2-2-0.4-2.6-0.6
			c-0.7-0.2-1.2-0.6-1.7-1.1s-0.7-1.2-0.7-2.1c0-1.1,0.5-2.1,1.4-2.8c0.9-0.7,2.3-1.1,3.9-1.1c0.9,0,1.8,0.1,2.6,0.4
			s1.6,0.5,2.2,0.9l-0.8,1.5c-1.1-0.8-2.5-1.2-4-1.2c-1.2,0-2,0.2-2.6,0.6c-0.6,0.4-0.9,1-0.9,1.6c0,0.5,0.2,0.9,0.5,1.2
			s0.8,0.5,1.3,0.7c0.5,0.1,1.2,0.3,2.1,0.5c1.1,0.2,2,0.4,2.6,0.6s1.2,0.6,1.7,1.1c0.5,0.5,0.7,1.2,0.7,2.1c0,1.2-0.5,2.1-1.5,2.8
			c-1,0.7-2.4,1-4.1,1C344.3,314.4,343.3,314.2,342.3,313.9z"/>
		<path d="M361.5,313.4c-0.3,0.3-0.8,0.5-1.3,0.7c-0.5,0.2-1,0.2-1.6,0.2c-1.3,0-2.3-0.3-2.9-1c-0.7-0.7-1-1.7-1-2.9v-8.2h-2.4v-1.5
			h2.4v-3h1.8v3h4.1v1.5h-4.1v8.1c0,0.8,0.2,1.4,0.6,1.8c0.4,0.4,1,0.6,1.7,0.6c0.4,0,0.7-0.1,1.1-0.2s0.7-0.3,0.9-0.5L361.5,313.4z
			"/>
		<path d="M366.3,313.5c-1-0.6-1.9-1.4-2.5-2.5s-0.9-2.2-0.9-3.5s0.3-2.5,0.9-3.5c0.6-1,1.4-1.9,2.5-2.5c1-0.6,2.2-0.9,3.5-0.9
			c1.3,0,2.5,0.3,3.5,0.9c1,0.6,1.9,1.4,2.5,2.5c0.6,1,0.9,2.2,0.9,3.5s-0.3,2.5-0.9,3.5c-0.6,1-1.4,1.9-2.5,2.5s-2.2,0.9-3.5,0.9
			C368.6,314.4,367.4,314.1,366.3,313.5z M372.5,312.1c0.8-0.4,1.4-1.1,1.8-1.9c0.4-0.8,0.6-1.7,0.6-2.8s-0.2-2-0.6-2.8
			c-0.4-0.8-1-1.4-1.8-1.9s-1.6-0.7-2.6-0.7s-1.8,0.2-2.6,0.7c-0.8,0.4-1.4,1.1-1.8,1.9s-0.7,1.7-0.7,2.8s0.2,2,0.7,2.8
			c0.4,0.8,1,1.4,1.8,1.9s1.6,0.7,2.6,0.7S371.7,312.5,372.5,312.1z"/>
	</g>
	<g class="st1">
		<path d="M432.8,298.4c1.3,1.6,1.9,3.8,1.9,6.6c0,2-0.3,3.7-1,5.1s-1.6,2.4-2.9,3.1s-2.7,1.1-4.3,1.1c-1.8,0-3.2-0.3-4.3-1l0.8-1.5
			c0.9,0.6,2,0.9,3.5,0.9c2,0,3.5-0.6,4.7-1.9c1.1-1.3,1.7-3.1,1.7-5.5c0-0.5,0-0.9-0.1-1.5c-0.5,1-1.2,1.7-2.1,2.3
			s-2.1,0.8-3.4,0.8c-1.2,0-2.2-0.2-3.1-0.7c-0.9-0.5-1.6-1.1-2.1-1.9s-0.8-1.8-0.8-2.8c0-1.1,0.3-2.1,0.8-2.9s1.3-1.5,2.2-1.9
			c0.9-0.5,2-0.7,3.1-0.7C429.7,296.1,431.6,296.9,432.8,298.4z M430,304.9c0.7-0.3,1.2-0.8,1.6-1.4c0.4-0.6,0.6-1.3,0.6-2
			c0-0.7-0.2-1.3-0.5-1.9s-0.9-1.1-1.6-1.4s-1.6-0.5-2.6-0.5c-1.3,0-2.4,0.4-3.2,1.1c-0.8,0.7-1.2,1.7-1.2,2.8s0.4,2.1,1.2,2.8
			c0.8,0.7,1.9,1.1,3.3,1.1C428.5,305.5,429.3,305.3,430,304.9z"/>
		<path d="M439.5,303.7c-0.6-0.4-1.1-0.9-1.5-1.5c-0.4-0.6-0.5-1.3-0.5-2.1c0-0.7,0.2-1.4,0.5-2s0.9-1.1,1.5-1.5
			c0.6-0.4,1.3-0.5,2.1-0.5s1.5,0.2,2.1,0.5c0.6,0.4,1.1,0.9,1.5,1.5s0.5,1.3,0.5,2c0,0.8-0.2,1.5-0.5,2.1c-0.4,0.6-0.9,1.1-1.5,1.5
			c-0.6,0.4-1.3,0.5-2.1,0.5C440.8,304.3,440.1,304.1,439.5,303.7z M443.7,302.3c0.6-0.6,0.9-1.3,0.9-2.1c0-0.8-0.3-1.5-0.9-2.1
			s-1.3-0.9-2.1-0.9s-1.5,0.3-2.1,0.9c-0.6,0.6-0.9,1.3-0.9,2.1c0,0.9,0.3,1.6,0.9,2.1s1.3,0.9,2.1,0.9S443.1,302.9,443.7,302.3z"/>
		<path d="M460.1,297.9h-6.3v-1.6h14.6v1.6h-6.3v16.4h-1.9L460.1,297.9L460.1,297.9z"/>
		<path d="M479.1,301.9c0.9,0.9,1.4,2.2,1.4,3.9v8.4h-1.8v-2.1c-0.4,0.7-1,1.3-1.8,1.6c-0.8,0.4-1.8,0.6-2.8,0.6
			c-1.5,0-2.7-0.4-3.6-1.1s-1.3-1.7-1.3-2.9c0-1.1,0.4-2.1,1.3-2.8s2.2-1.1,4-1.1h4.3v-0.8c0-1.2-0.3-2.1-1-2.7
			c-0.6-0.6-1.6-0.9-2.9-0.9c-0.9,0-1.7,0.1-2.5,0.4s-1.5,0.7-2,1.2l-0.8-1.4c0.7-0.6,1.5-1,2.5-1.4s2-0.5,3-0.5
			C476.8,300.6,478.1,301.1,479.1,301.9z M477,312.2c0.7-0.5,1.3-1.1,1.6-2V308h-4.3c-2.3,0-3.5,0.8-3.5,2.4c0,0.8,0.3,1.4,0.9,1.9
			s1.4,0.7,2.5,0.7C475.4,312.9,476.3,312.7,477,312.2z"/>
		<path d="M485.9,313.9c-1-0.3-1.8-0.7-2.4-1.2l0.8-1.4c0.6,0.5,1.3,0.8,2.1,1.1c0.9,0.3,1.8,0.4,2.7,0.4c1.2,0,2.1-0.2,2.7-0.6
			s0.9-0.9,0.9-1.6c0-0.5-0.2-0.9-0.5-1.2s-0.7-0.5-1.2-0.6c-0.5-0.1-1.2-0.3-2-0.4c-1.1-0.2-2-0.4-2.6-0.6
			c-0.7-0.2-1.2-0.6-1.7-1.1s-0.7-1.2-0.7-2.1c0-1.1,0.5-2.1,1.4-2.8c0.9-0.7,2.3-1.1,3.9-1.1c0.9,0,1.8,0.1,2.6,0.4
			s1.6,0.5,2.2,0.9l-0.8,1.5c-1.1-0.8-2.5-1.2-4-1.2c-1.2,0-2,0.2-2.6,0.6c-0.6,0.4-0.9,1-0.9,1.6c0,0.5,0.2,0.9,0.5,1.2
			s0.8,0.5,1.3,0.7c0.5,0.1,1.2,0.3,2.1,0.5c1.1,0.2,2,0.4,2.6,0.6s1.2,0.6,1.7,1.1c0.5,0.5,0.7,1.2,0.7,2.1c0,1.2-0.5,2.1-1.5,2.8
			c-1,0.7-2.4,1-4.1,1C488,314.4,487,314.2,485.9,313.9z"/>
		<path d="M505.2,313.4c-0.3,0.3-0.8,0.5-1.3,0.7c-0.5,0.2-1,0.2-1.6,0.2c-1.3,0-2.3-0.3-2.9-1c-0.7-0.7-1-1.7-1-2.9v-8.2H496v-1.5
			h2.4v-3h1.8v3h4.1v1.5h-4.1v8.1c0,0.8,0.2,1.4,0.6,1.8c0.4,0.4,1,0.6,1.7,0.6c0.4,0,0.7-0.1,1.1-0.2s0.7-0.3,0.9-0.5L505.2,313.4z
			"/>
		<path d="M510,313.5c-1-0.6-1.9-1.4-2.5-2.5s-0.9-2.2-0.9-3.5s0.3-2.5,0.9-3.5c0.6-1,1.4-1.9,2.5-2.5c1-0.6,2.2-0.9,3.5-0.9
			c1.3,0,2.5,0.3,3.5,0.9c1,0.6,1.9,1.4,2.5,2.5c0.6,1,0.9,2.2,0.9,3.5s-0.3,2.5-0.9,3.5c-0.6,1-1.4,1.9-2.5,2.5
			c-1,0.6-2.2,0.9-3.5,0.9C512.2,314.4,511.1,314.1,510,313.5z M516.1,312.1c0.8-0.4,1.4-1.1,1.8-1.9s0.6-1.7,0.6-2.8
			s-0.2-2-0.6-2.8c-0.4-0.8-1-1.4-1.8-1.9c-0.8-0.4-1.6-0.7-2.6-0.7s-1.8,0.2-2.6,0.7c-0.8,0.4-1.4,1.1-1.8,1.9s-0.7,1.7-0.7,2.8
			s0.2,2,0.7,2.8c0.4,0.8,1,1.4,1.8,1.9s1.6,0.7,2.6,0.7S515.4,312.5,516.1,312.1z"/>
	</g>
	<g class="st1">
		<path d="M565.4,296.2v18h-1.8v-16.4h-4.3v-1.6H565.4z"/>
		<path d="M573.2,313.3c-1.1-0.7-1.9-1.8-2.5-3.2s-0.9-3-0.9-4.9s0.3-3.5,0.9-4.9s1.5-2.4,2.5-3.2c1.1-0.7,2.3-1.1,3.7-1.1
			c1.4,0,2.6,0.4,3.7,1.1s1.9,1.8,2.6,3.2s0.9,3,0.9,4.9s-0.3,3.5-0.9,4.9s-1.5,2.4-2.6,3.2s-2.3,1.1-3.7,1.1
			C575.5,314.4,574.3,314,573.2,313.3z M579.7,311.8c0.8-0.6,1.4-1.4,1.9-2.5s0.7-2.5,0.7-4s-0.2-2.9-0.7-4c-0.5-1.1-1.1-2-1.9-2.5
			c-0.8-0.6-1.7-0.9-2.8-0.9s-2,0.3-2.8,0.9c-0.8,0.6-1.4,1.4-1.9,2.5s-0.7,2.5-0.7,4s0.2,2.9,0.7,4c0.5,1.1,1.1,2,1.9,2.5
			s1.7,0.9,2.8,0.9S578.8,312.4,579.7,311.8z"/>
		<path d="M588.8,303.7c-0.6-0.4-1.1-0.9-1.5-1.5s-0.5-1.3-0.5-2.1c0-0.7,0.2-1.4,0.5-2s0.8-1.1,1.5-1.5c0.6-0.4,1.3-0.5,2.1-0.5
			s1.5,0.2,2.1,0.5c0.6,0.4,1.1,0.9,1.5,1.5s0.5,1.3,0.5,2c0,0.8-0.2,1.5-0.5,2.1c-0.4,0.6-0.9,1.1-1.5,1.5
			c-0.6,0.4-1.3,0.5-2.1,0.5C590.1,304.3,589.4,304.1,588.8,303.7z M593,302.3c0.6-0.6,0.9-1.3,0.9-2.1c0-0.8-0.3-1.5-0.9-2.1
			s-1.3-0.9-2.1-0.9s-1.5,0.3-2.1,0.9c-0.6,0.6-0.8,1.3-0.8,2.1c0,0.9,0.3,1.6,0.8,2.1c0.6,0.6,1.3,0.9,2.1,0.9
			S592.4,302.9,593,302.3z"/>
		<path d="M609.5,297.9h-6.3v-1.6h14.6v1.6h-6.3v16.4h-1.9V297.9z"/>
		<path d="M628.4,301.9c0.9,0.9,1.4,2.2,1.4,3.9v8.4h-1.8v-2.1c-0.4,0.7-1,1.3-1.8,1.6c-0.8,0.4-1.8,0.6-2.8,0.6
			c-1.5,0-2.7-0.4-3.6-1.1c-0.9-0.7-1.3-1.7-1.3-2.9c0-1.1,0.4-2.1,1.3-2.8s2.2-1.1,4-1.1h4.3v-0.8c0-1.2-0.3-2.1-1-2.7
			c-0.7-0.6-1.6-0.9-2.9-0.9c-0.9,0-1.7,0.1-2.5,0.4s-1.5,0.7-2,1.2l-0.8-1.4c0.7-0.6,1.5-1,2.5-1.4c1-0.3,2-0.5,3-0.5
			C626.1,300.6,627.5,301.1,628.4,301.9z M626.3,312.2c0.7-0.5,1.3-1.1,1.7-2V308h-4.3c-2.3,0-3.5,0.8-3.5,2.4
			c0,0.8,0.3,1.4,0.9,1.9s1.4,0.7,2.5,0.7C624.7,312.9,625.6,312.7,626.3,312.2z"/>
		<path d="M635.3,313.9c-1-0.3-1.8-0.7-2.4-1.2l0.8-1.4c0.6,0.5,1.3,0.8,2.1,1.1s1.8,0.4,2.7,0.4c1.2,0,2.2-0.2,2.7-0.6
			s0.9-0.9,0.9-1.6c0-0.5-0.2-0.9-0.5-1.2s-0.7-0.5-1.2-0.6c-0.5-0.1-1.2-0.3-2-0.4c-1.1-0.2-2-0.4-2.7-0.6
			c-0.7-0.2-1.2-0.6-1.7-1.1c-0.5-0.5-0.7-1.2-0.7-2.1c0-1.1,0.5-2.1,1.4-2.8c0.9-0.7,2.3-1.1,3.9-1.1c0.9,0,1.8,0.1,2.6,0.4
			s1.6,0.5,2.2,0.9l-0.8,1.5c-1.1-0.8-2.5-1.2-4-1.2c-1.2,0-2,0.2-2.6,0.6s-0.9,1-0.9,1.6c0,0.5,0.2,0.9,0.5,1.2s0.8,0.5,1.3,0.7
			c0.5,0.1,1.2,0.3,2.1,0.5c1.1,0.2,2,0.4,2.6,0.6c0.7,0.2,1.2,0.6,1.7,1.1c0.5,0.5,0.7,1.2,0.7,2.1c0,1.2-0.5,2.1-1.5,2.8
			c-1,0.7-2.4,1-4.1,1C637.3,314.4,636.3,314.2,635.3,313.9z"/>
		<path d="M654.5,313.4c-0.3,0.3-0.8,0.5-1.3,0.7c-0.5,0.2-1,0.2-1.6,0.2c-1.3,0-2.3-0.3-2.9-1c-0.7-0.7-1-1.7-1-2.9v-8.2h-2.4v-1.5
			h2.4v-3h1.8v3h4.1v1.5h-4.1v8.1c0,0.8,0.2,1.4,0.6,1.8c0.4,0.4,1,0.6,1.7,0.6c0.4,0,0.7-0.1,1.1-0.2s0.7-0.3,0.9-0.5L654.5,313.4z
			"/>
		<path d="M659.3,313.5c-1-0.6-1.9-1.4-2.5-2.5s-0.9-2.2-0.9-3.5s0.3-2.5,0.9-3.5c0.6-1,1.4-1.9,2.5-2.5c1-0.6,2.2-0.9,3.5-0.9
			c1.3,0,2.5,0.3,3.5,0.9c1,0.6,1.9,1.4,2.5,2.5c0.6,1,0.9,2.2,0.9,3.5s-0.3,2.5-0.9,3.5c-0.6,1-1.4,1.9-2.5,2.5
			c-1,0.6-2.2,0.9-3.5,0.9C661.6,314.4,660.4,314.1,659.3,313.5z M665.5,312.1c0.8-0.4,1.4-1.1,1.8-1.9s0.6-1.7,0.6-2.8
			s-0.2-2-0.6-2.8c-0.4-0.8-1-1.4-1.8-1.9c-0.8-0.4-1.6-0.7-2.6-0.7s-1.8,0.2-2.6,0.7c-0.8,0.4-1.4,1.1-1.8,1.9s-0.7,1.7-0.7,2.8
			s0.2,2,0.7,2.8c0.4,0.8,1,1.4,1.8,1.9s1.6,0.7,2.6,0.7S664.7,312.5,665.5,312.1z"/>
	</g>
	<g class="st1">
		<path d="M713.3,296.2v18h-1.8v-16.4h-4.3v-1.6H713.3z"/>
		<path d="M722.6,296.2v18h-1.8v-16.4h-4.3v-1.6H722.6z"/>
		<path d="M728.9,303.7c-0.6-0.4-1.1-0.9-1.5-1.5s-0.5-1.3-0.5-2.1c0-0.7,0.2-1.4,0.5-2s0.8-1.1,1.5-1.5c0.6-0.4,1.3-0.5,2.1-0.5
			s1.5,0.2,2.1,0.5c0.6,0.4,1.1,0.9,1.5,1.5s0.5,1.3,0.5,2c0,0.8-0.2,1.5-0.5,2.1c-0.4,0.6-0.9,1.1-1.5,1.5
			c-0.6,0.4-1.3,0.5-2.1,0.5C730.2,304.3,729.5,304.1,728.9,303.7z M733.1,302.3c0.6-0.6,0.9-1.3,0.9-2.1c0-0.8-0.3-1.5-0.9-2.1
			s-1.3-0.9-2.1-0.9s-1.5,0.3-2.1,0.9c-0.6,0.6-0.8,1.3-0.8,2.1c0,0.9,0.3,1.6,0.8,2.1c0.6,0.6,1.3,0.9,2.1,0.9
			S732.5,302.9,733.1,302.3z"/>
		<path d="M749.5,297.9h-6.3v-1.6h14.6v1.6h-6.3v16.4h-1.9V297.9z"/>
		<path d="M768.5,301.9c0.9,0.9,1.4,2.2,1.4,3.9v8.4h-1.8v-2.1c-0.4,0.7-1,1.3-1.8,1.6c-0.8,0.4-1.8,0.6-2.8,0.6
			c-1.5,0-2.7-0.4-3.6-1.1c-0.9-0.7-1.3-1.7-1.3-2.9c0-1.1,0.4-2.1,1.3-2.8s2.2-1.1,4-1.1h4.3v-0.8c0-1.2-0.3-2.1-1-2.7
			c-0.7-0.6-1.6-0.9-2.9-0.9c-0.9,0-1.7,0.1-2.5,0.4s-1.5,0.7-2,1.2l-0.8-1.4c0.7-0.6,1.5-1,2.5-1.4c1-0.3,2-0.5,3-0.5
			C766.2,300.6,767.5,301.1,768.5,301.9z M766.4,312.2c0.7-0.5,1.3-1.1,1.7-2V308h-4.3c-2.3,0-3.5,0.8-3.5,2.4
			c0,0.8,0.3,1.4,0.9,1.9s1.4,0.7,2.5,0.7C764.8,312.9,765.7,312.7,766.4,312.2z"/>
		<path d="M775.3,313.9c-1-0.3-1.8-0.7-2.4-1.2l0.8-1.4c0.6,0.5,1.3,0.8,2.1,1.1s1.8,0.4,2.7,0.4c1.2,0,2.2-0.2,2.7-0.6
			s0.9-0.9,0.9-1.6c0-0.5-0.2-0.9-0.5-1.2s-0.7-0.5-1.2-0.6c-0.5-0.1-1.2-0.3-2-0.4c-1.1-0.2-2-0.4-2.7-0.6
			c-0.7-0.2-1.2-0.6-1.7-1.1c-0.5-0.5-0.7-1.2-0.7-2.1c0-1.1,0.5-2.1,1.4-2.8c0.9-0.7,2.3-1.1,3.9-1.1c0.9,0,1.8,0.1,2.6,0.4
			s1.6,0.5,2.2,0.9l-0.8,1.5c-1.1-0.8-2.5-1.2-4-1.2c-1.2,0-2,0.2-2.6,0.6s-0.9,1-0.9,1.6c0,0.5,0.2,0.9,0.5,1.2s0.8,0.5,1.3,0.7
			c0.5,0.1,1.2,0.3,2.1,0.5c1.1,0.2,2,0.4,2.6,0.6c0.7,0.2,1.2,0.6,1.7,1.1c0.5,0.5,0.7,1.2,0.7,2.1c0,1.2-0.5,2.1-1.5,2.8
			c-1,0.7-2.4,1-4.1,1C777.4,314.4,776.3,314.2,775.3,313.9z"/>
		<path d="M794.6,313.4c-0.3,0.3-0.8,0.5-1.3,0.7c-0.5,0.2-1,0.2-1.6,0.2c-1.3,0-2.3-0.3-2.9-1c-0.7-0.7-1-1.7-1-2.9v-8.2h-2.4v-1.5
			h2.4v-3h1.8v3h4.1v1.5h-4.1v8.1c0,0.8,0.2,1.4,0.6,1.8c0.4,0.4,1,0.6,1.7,0.6c0.4,0,0.7-0.1,1.1-0.2s0.7-0.3,0.9-0.5L794.6,313.4z
			"/>
		<path d="M799.4,313.5c-1-0.6-1.9-1.4-2.5-2.5s-0.9-2.2-0.9-3.5s0.3-2.5,0.9-3.5c0.6-1,1.4-1.9,2.5-2.5c1-0.6,2.2-0.9,3.5-0.9
			c1.3,0,2.5,0.3,3.5,0.9c1,0.6,1.9,1.4,2.5,2.5c0.6,1,0.9,2.2,0.9,3.5s-0.3,2.5-0.9,3.5c-0.6,1-1.4,1.9-2.5,2.5
			c-1,0.6-2.2,0.9-3.5,0.9C801.7,314.4,800.5,314.1,799.4,313.5z M805.5,312.1c0.8-0.4,1.4-1.1,1.8-1.9s0.6-1.7,0.6-2.8
			s-0.2-2-0.6-2.8c-0.4-0.8-1-1.4-1.8-1.9c-0.8-0.4-1.6-0.7-2.6-0.7s-1.8,0.2-2.6,0.7c-0.8,0.4-1.4,1.1-1.8,1.9s-0.7,1.7-0.7,2.8
			s0.2,2,0.7,2.8c0.4,0.8,1,1.4,1.8,1.9s1.6,0.7,2.6,0.7S804.8,312.5,805.5,312.1z"/>
	</g>
	<g class="st1">
		<path d="M854.7,296.2v18h-1.8v-16.4h-4.3v-1.6H854.7z"/>
		<path d="M871.3,312.6v1.6h-12.6v-1.3l7.5-7.3c0.9-0.9,1.6-1.7,1.9-2.4c0.3-0.7,0.5-1.4,0.5-2c0-1.1-0.4-1.9-1.1-2.5
			c-0.7-0.6-1.8-0.9-3.1-0.9c-2.1,0-3.8,0.7-4.9,2l-1.3-1.1c0.7-0.8,1.6-1.5,2.7-1.9c1.1-0.5,2.3-0.7,3.7-0.7c1.8,0,3.3,0.4,4.4,1.3
			s1.6,2.1,1.6,3.6c0,0.9-0.2,1.8-0.6,2.7s-1.2,1.9-2.3,3l-6.1,6L871.3,312.6L871.3,312.6z"/>
		<path d="M875.5,303.7c-0.6-0.4-1.1-0.9-1.5-1.5s-0.5-1.3-0.5-2.1c0-0.7,0.2-1.4,0.5-2s0.8-1.1,1.5-1.5c0.6-0.4,1.3-0.5,2.1-0.5
			s1.5,0.2,2.1,0.5c0.6,0.4,1.1,0.9,1.5,1.5s0.5,1.3,0.5,2c0,0.8-0.2,1.5-0.5,2.1c-0.4,0.6-0.9,1.1-1.5,1.5
			c-0.6,0.4-1.3,0.5-2.1,0.5C876.9,304.3,876.2,304.1,875.5,303.7z M879.7,302.3c0.6-0.6,0.9-1.3,0.9-2.1c0-0.8-0.3-1.5-0.9-2.1
			s-1.3-0.9-2.1-0.9s-1.5,0.3-2.1,0.9c-0.6,0.6-0.8,1.3-0.8,2.1c0,0.9,0.3,1.6,0.8,2.1c0.6,0.6,1.3,0.9,2.1,0.9
			S879.2,302.9,879.7,302.3z"/>
		<path d="M896.2,297.9h-6.3v-1.6h14.6v1.6h-6.3v16.4h-1.9V297.9z"/>
		<path d="M915.2,301.9c0.9,0.9,1.4,2.2,1.4,3.9v8.4h-1.8v-2.1c-0.4,0.7-1,1.3-1.8,1.6c-0.8,0.4-1.8,0.6-2.8,0.6
			c-1.5,0-2.7-0.4-3.6-1.1c-0.9-0.7-1.3-1.7-1.3-2.9c0-1.1,0.4-2.1,1.3-2.8s2.2-1.1,4-1.1h4.3v-0.8c0-1.2-0.3-2.1-1-2.7
			c-0.7-0.6-1.6-0.9-2.9-0.9c-0.9,0-1.7,0.1-2.5,0.4s-1.5,0.7-2,1.2l-0.8-1.4c0.7-0.6,1.5-1,2.5-1.4c1-0.3,2-0.5,3-0.5
			C912.8,300.6,914.2,301.1,915.2,301.9z M913.1,312.2c0.7-0.5,1.3-1.1,1.7-2V308h-4.3c-2.3,0-3.5,0.8-3.5,2.4
			c0,0.8,0.3,1.4,0.9,1.9s1.4,0.7,2.5,0.7C911.5,312.9,912.3,312.7,913.1,312.2z"/>
		<path d="M922,313.9c-1-0.3-1.8-0.7-2.4-1.2l0.8-1.4c0.6,0.5,1.3,0.8,2.1,1.1s1.8,0.4,2.7,0.4c1.2,0,2.2-0.2,2.7-0.6
			s0.9-0.9,0.9-1.6c0-0.5-0.2-0.9-0.5-1.2s-0.7-0.5-1.2-0.6c-0.5-0.1-1.2-0.3-2-0.4c-1.1-0.2-2-0.4-2.7-0.6
			c-0.7-0.2-1.2-0.6-1.7-1.1c-0.5-0.5-0.7-1.2-0.7-2.1c0-1.1,0.5-2.1,1.4-2.8c0.9-0.7,2.3-1.1,3.9-1.1c0.9,0,1.8,0.1,2.6,0.4
			s1.6,0.5,2.2,0.9l-0.8,1.5c-1.1-0.8-2.5-1.2-4-1.2c-1.2,0-2,0.2-2.6,0.6s-0.9,1-0.9,1.6c0,0.5,0.2,0.9,0.5,1.2s0.8,0.5,1.3,0.7
			c0.5,0.1,1.2,0.3,2.1,0.5c1.1,0.2,2,0.4,2.6,0.6c0.7,0.2,1.2,0.6,1.7,1.1c0.5,0.5,0.7,1.2,0.7,2.1c0,1.2-0.5,2.1-1.5,2.8
			c-1,0.7-2.4,1-4.1,1C924.1,314.4,923,314.2,922,313.9z"/>
		<path d="M941.3,313.4c-0.3,0.3-0.8,0.5-1.3,0.7c-0.5,0.2-1,0.2-1.6,0.2c-1.3,0-2.3-0.3-2.9-1c-0.7-0.7-1-1.7-1-2.9v-8.2H932v-1.5
			h2.4v-3h1.8v3h4.1v1.5h-4.1v8.1c0,0.8,0.2,1.4,0.6,1.8c0.4,0.4,1,0.6,1.7,0.6c0.4,0,0.7-0.1,1.1-0.2s0.7-0.3,0.9-0.5L941.3,313.4z
			"/>
		<path d="M946.1,313.5c-1-0.6-1.9-1.4-2.5-2.5s-0.9-2.2-0.9-3.5s0.3-2.5,0.9-3.5c0.6-1,1.4-1.9,2.5-2.5c1-0.6,2.2-0.9,3.5-0.9
			c1.3,0,2.5,0.3,3.5,0.9c1,0.6,1.9,1.4,2.5,2.5c0.6,1,0.9,2.2,0.9,3.5s-0.3,2.5-0.9,3.5c-0.6,1-1.4,1.9-2.5,2.5
			c-1,0.6-2.2,0.9-3.5,0.9C948.3,314.4,947.1,314.1,946.1,313.5z M952.2,312.1c0.8-0.4,1.4-1.1,1.8-1.9s0.6-1.7,0.6-2.8
			s-0.2-2-0.6-2.8c-0.4-0.8-1-1.4-1.8-1.9c-0.8-0.4-1.6-0.7-2.6-0.7s-1.8,0.2-2.6,0.7c-0.8,0.4-1.4,1.1-1.8,1.9s-0.7,1.7-0.7,2.8
			s0.2,2,0.7,2.8c0.4,0.8,1,1.4,1.8,1.9s1.6,0.7,2.6,0.7S951.4,312.5,952.2,312.1z"/>
	</g>
</g>
<g id="Guide" class="st0">
</g>
<g id="Corde" class="st0">
	<g class="st1">
		<path d="M-796.1,243.1v18h-1.8v-14.4l-7.1,12.1h-0.9l-7.1-12.1v14.3h-1.8v-18h1.6l7.8,13.4l7.8-13.4H-796.1z"/>
		<path d="M-790.7,244.2c-0.3-0.3-0.4-0.6-0.4-0.9c0-0.3,0.1-0.6,0.4-0.9s0.6-0.4,1-0.4c0.4,0,0.7,0.1,1,0.4
			c0.3,0.3,0.4,0.6,0.4,0.9c0,0.4-0.1,0.7-0.4,0.9s-0.6,0.4-1,0.4C-790.1,244.6-790.4,244.4-790.7,244.2z M-790.6,247.5h1.8v13.5
			h-1.8V247.5z"/>
	</g>
	<g class="st1">
		<path d="M-814.3,171.1h1.9v16.4h10.1v1.6h-12L-814.3,171.1L-814.3,171.1z"/>
		<path d="M-790.6,176.8c0.9,0.9,1.4,2.2,1.4,3.9v8.4h-1.8V187c-0.4,0.7-1,1.3-1.8,1.6c-0.8,0.4-1.8,0.6-2.8,0.6
			c-1.5,0-2.7-0.4-3.6-1.1c-0.9-0.7-1.3-1.7-1.3-2.9c0-1.1,0.4-2.1,1.3-2.8s2.2-1.1,4-1.1h4.3v-0.8c0-1.2-0.3-2.1-1-2.7
			c-0.7-0.6-1.6-0.9-2.9-0.9c-0.9,0-1.7,0.1-2.5,0.4s-1.5,0.7-2,1.2l-0.8-1.4c0.7-0.6,1.5-1,2.5-1.4c1-0.3,2-0.5,3-0.5
			C-792.9,175.4-791.6,175.9-790.6,176.8z M-792.7,187.1c0.7-0.5,1.3-1.1,1.7-2.1v-2.2h-4.3c-2.3,0-3.5,0.8-3.5,2.4
			c0,0.8,0.3,1.4,0.9,1.9s1.4,0.7,2.5,0.7C-794.3,187.8-793.4,187.5-792.7,187.1z"/>
	</g>
	<g class="st1">
		<path d="M-803.8,117.1l-4.1-5.8c-0.5,0.1-0.9,0.1-1.4,0.1h-4.8v5.7h-1.9v-18h6.7c2.3,0,4.1,0.6,5.4,1.7c1.3,1.1,2,2.6,2,4.5
			c0,1.4-0.4,2.6-1.1,3.6c-0.7,1-1.7,1.7-3,2.1l4.4,6.2H-803.8z M-805.4,108.6c0.9-0.8,1.4-1.9,1.4-3.3c0-1.5-0.5-2.6-1.4-3.4
			c-0.9-0.8-2.3-1.2-4.1-1.2h-4.8v9h4.8C-807.7,109.7-806.3,109.3-805.4,108.6z"/>
		<path d="M-786.1,110.9h-11.3c0.1,1.4,0.6,2.5,1.6,3.4s2.2,1.3,3.7,1.3c0.8,0,1.6-0.2,2.3-0.4c0.7-0.3,1.3-0.7,1.8-1.3l1,1.2
			c-0.6,0.7-1.3,1.3-2.3,1.7c-0.9,0.4-1.9,0.6-3,0.6c-1.4,0-2.6-0.3-3.7-0.9s-1.9-1.4-2.5-2.5s-0.9-2.2-0.9-3.6s0.3-2.5,0.9-3.6
			c0.6-1.1,1.4-1.9,2.4-2.4c1-0.6,2.1-0.9,3.4-0.9s2.4,0.3,3.4,0.9c1,0.6,1.8,1.4,2.3,2.4s0.8,2.2,0.8,3.6L-786.1,110.9z
			 M-796,106.2c-0.9,0.8-1.4,1.9-1.5,3.3h9.6c-0.1-1.3-0.6-2.4-1.5-3.3c-0.9-0.8-2-1.3-3.3-1.3C-794,105-795.1,105.4-796,106.2z"/>
	</g>
	<g class="st1">
		<path d="M-817.4,44.6c-1.2-0.4-2.2-1-2.8-1.7l0.8-1.5c0.7,0.7,1.5,1.2,2.6,1.6c1.1,0.4,2.2,0.6,3.3,0.6c1.6,0,2.8-0.3,3.6-0.9
			s1.2-1.4,1.2-2.3c0-0.7-0.2-1.3-0.7-1.7s-1-0.8-1.6-1s-1.5-0.5-2.7-0.8c-1.4-0.3-2.4-0.7-3.2-1c-0.8-0.3-1.5-0.8-2.1-1.5
			c-0.6-0.7-0.9-1.5-0.9-2.6c0-0.9,0.2-1.7,0.7-2.5c0.5-0.8,1.2-1.3,2.2-1.8s2.2-0.7,3.7-0.7c1,0,2,0.1,3,0.4s1.8,0.7,2.6,1.2
			l-0.6,1.5c-0.8-0.5-1.6-0.9-2.4-1.1s-1.7-0.4-2.5-0.4c-1.6,0-2.8,0.3-3.6,0.9s-1.2,1.4-1.2,2.4c0,0.7,0.2,1.3,0.7,1.7s1,0.8,1.7,1
			s1.5,0.5,2.7,0.8c1.3,0.3,2.4,0.7,3.2,1s1.5,0.8,2.1,1.4s0.8,1.5,0.8,2.6c0,0.9-0.2,1.7-0.7,2.5c-0.5,0.8-1.2,1.3-2.3,1.8
			s-2.3,0.7-3.7,0.7C-814.9,45.2-816.2,45-817.4,44.6z"/>
		<path d="M-801.1,44.3c-1-0.6-1.9-1.4-2.5-2.5s-0.9-2.2-0.9-3.5s0.3-2.5,0.9-3.5c0.6-1,1.4-1.9,2.5-2.5c1-0.6,2.2-0.9,3.5-0.9
			c1.3,0,2.5,0.3,3.5,0.9c1.1,0.6,1.9,1.4,2.5,2.5s0.9,2.2,0.9,3.5s-0.3,2.5-0.9,3.5c-0.6,1-1.4,1.9-2.5,2.5c-1,0.6-2.2,0.9-3.5,0.9
			S-800,44.9-801.1,44.3z M-795,42.9c0.8-0.4,1.4-1.1,1.8-1.9c0.4-0.8,0.6-1.7,0.6-2.8s-0.2-2-0.6-2.8s-1-1.4-1.8-1.9
			s-1.6-0.7-2.6-0.7s-1.8,0.2-2.6,0.7s-1.4,1.1-1.8,1.9c-0.4,0.8-0.7,1.7-0.7,2.8s0.2,2,0.7,2.8c0.4,0.8,1,1.4,1.8,1.9
			s1.6,0.7,2.6,0.7S-795.7,43.4-795,42.9z"/>
		<path d="M-786.9,26h1.8v19.1h-1.8V26z"/>
	</g>
	<g class="st1">
		<path d="M-809.3-27.4c-1.2-0.4-2.2-1-2.8-1.7l0.8-1.5c0.7,0.6,1.5,1.2,2.6,1.6c1.1,0.4,2.2,0.6,3.3,0.6c1.6,0,2.8-0.3,3.6-0.9
			s1.2-1.4,1.2-2.3c0-0.7-0.2-1.3-0.7-1.7s-1-0.8-1.6-1c-0.6-0.2-1.5-0.5-2.7-0.8c-1.4-0.3-2.4-0.7-3.2-1c-0.8-0.3-1.5-0.8-2.1-1.5
			c-0.6-0.7-0.9-1.5-0.9-2.7c0-0.9,0.2-1.7,0.7-2.5s1.2-1.3,2.2-1.8c1-0.5,2.2-0.7,3.7-0.7c1,0,2,0.1,3,0.4s1.8,0.7,2.6,1.2
			l-0.6,1.5c-0.8-0.5-1.6-0.9-2.4-1.1s-1.7-0.4-2.5-0.4c-1.6,0-2.8,0.3-3.6,0.9c-0.8,0.6-1.2,1.4-1.2,2.4c0,0.7,0.2,1.3,0.7,1.7
			s1,0.8,1.7,1c0.7,0.2,1.5,0.5,2.7,0.8c1.3,0.3,2.4,0.7,3.2,1c0.8,0.3,1.5,0.8,2.1,1.4c0.6,0.6,0.8,1.5,0.8,2.6
			c0,0.9-0.2,1.7-0.7,2.5c-0.5,0.8-1.2,1.3-2.3,1.8s-2.3,0.7-3.7,0.7C-806.8-26.8-808.1-27-809.3-27.4z"/>
		<path d="M-795-43.8c-0.3-0.3-0.4-0.6-0.4-0.9c0-0.3,0.1-0.6,0.4-0.9s0.6-0.4,1-0.4c0.4,0,0.7,0.1,1,0.4c0.3,0.3,0.4,0.5,0.4,0.9
			c0,0.4-0.1,0.7-0.4,1c-0.3,0.3-0.6,0.4-1,0.4C-794.5-43.4-794.8-43.6-795-43.8z M-795-40.5h1.8v13.5h-1.8V-40.5z"/>
	</g>
	<g id="Mi_Cantino" class="st1">
		<path d="M-795.5-114.8v18h-2v-14.4l-7.8,12.1h-1l-7.8-12v14.3h-2v-18h1.7l8.7,13.4l8.6-13.4L-795.5-114.8L-795.5-114.8z"/>
		<path d="M-789.5-113.6c-0.3-0.3-0.4-0.6-0.4-0.9c0-0.3,0.1-0.6,0.4-0.9s0.6-0.4,1-0.4s0.8,0.1,1,0.4c0.3,0.3,0.4,0.5,0.4,0.9
			c0,0.4-0.1,0.7-0.4,0.9c-0.3,0.3-0.6,0.4-1,0.4C-788.8-113.3-789.2-113.4-789.5-113.6z M-789.4-110.3h2v13.5h-2V-110.3z"/>
	</g>
</g>
<g id="Nota_sullo_schema" class="st0">
	<g class="st1">
		<path class="st4" d="M48.1-198.5h13.7c3.6,0,6.7,0.7,9.4,2.1c2.7,1.4,4.8,3.4,6.3,5.9c1.5,2.5,2.3,5.4,2.3,8.7
			c0,3.3-0.8,6.2-2.3,8.7s-3.6,4.5-6.3,5.9c-2.7,1.4-5.9,2.1-9.4,2.1H48.1V-198.5z M61.6-168c2.9,0,5.5-0.6,7.7-1.8s3.9-2.8,5.1-4.9
			c1.2-2.1,1.8-4.4,1.8-7.1s-0.6-5.1-1.8-7.1c-1.2-2.1-2.9-3.7-5.1-4.9c-2.2-1.2-4.8-1.8-7.7-1.8h-9.9v27.5L61.6-168L61.6-168z"/>
		<path class="st4" d="M90.8-166.3c-1.9-1.1-3.5-2.6-4.6-4.6s-1.7-4.2-1.7-6.6c0-2.5,0.6-4.7,1.7-6.6s2.7-3.5,4.6-4.6
			s4.1-1.6,6.6-1.6s4.6,0.5,6.6,1.6c1.9,1.1,3.5,2.6,4.6,4.6s1.7,4.2,1.7,6.6c0,2.5-0.6,4.7-1.7,6.6c-1.1,1.9-2.6,3.5-4.6,4.6
			s-4.1,1.7-6.6,1.7S92.7-165.2,90.8-166.3z M102.2-168.9c1.4-0.8,2.5-2,3.3-3.5c0.8-1.5,1.2-3.2,1.2-5.1s-0.4-3.6-1.2-5.1
			c-0.8-1.5-1.9-2.7-3.3-3.5c-1.4-0.8-3-1.2-4.8-1.2s-3.4,0.4-4.8,1.2c-1.4,0.8-2.5,2-3.4,3.5s-1.2,3.2-1.2,5.1s0.4,3.6,1.2,5.1
			c0.8,1.5,1.9,2.7,3.4,3.5c1.4,0.8,3,1.2,4.8,1.2S100.8-168.1,102.2-168.9z"/>
	</g>
</g>
<g id="Pallini">
	<g class="st0">
		<circle class="st5" cx="-683.5" cy="-34.5" r="32.5"/>
	</g>
	<g class="st0">
		<circle class="st5" cx="-394.5" cy="181.5" r="32.5"/>
	</g>
	<g class="st0">
		<circle class="st5" cx="-106.5" cy="37.5" r="32.5"/>
	</g>
	<g class="st0">
		<circle class="st5" cx="325.5" cy="-105.5" r="32.5"/>
	</g>
	<g class="st0">
		<circle class="st5" cx="325.5" cy="253.5" r="32.5"/>
	</g>
	<g>
		<circle class="st6" cx="37.5" cy="38.5" r="32.5"/>
	</g>
</g>
<path id="Check" class="st7" d="M61,23.6c-0.8-0.8-2.1-0.8-2.9,0L29.5,52L16.9,39.6c-0.8-0.8-2.1-0.8-2.9,0c-0.8,0.8-0.8,2.1,0,2.8
	l14,13.8c0.8,0.8,2.1,0.8,2.9,0L61,26.4C61.8,25.6,61.8,24.4,61,23.6C60.2,22.8,61.8,24.4,61,23.6z"/>
</svg>
