<?xml version="1.0" encoding="utf-8"?>
<!-- Generator: Adobe Illustrator 23.0.1, SVG Export Plug-In . SVG Version: 6.00 Build 0)  -->
<svg version="1.1" xmlns="http://www.w3.org/2000/svg" xmlns:xlink="http://www.w3.org/1999/xlink" x="0px" y="0px"
	 viewBox="0 0 80 78" style="enable-background:new 0 0 80 78;" xml:space="preserve">
<style type="text/css">
	.st0{display:none;}
	.st1{display:inline;}
	.st2{fill:none;stroke:#000000;stroke-width:2;stroke-miterlimit:10;}
	.st3{display:inline;fill:none;stroke:#000000;stroke-width:2;stroke-miterlimit:10;}
	.st4{fill:#FF7428;}
	.st5{display:inline;fill:#FF7428;stroke:#FF7428;stroke-width:4;stroke-miterlimit:10;}
	.st6{fill:#FF7428;stroke:#FF7428;stroke-width:4;stroke-miterlimit:10;}
</style>
<g id="TastiChitarra" class="st0">
	<g id="_x31_" class="st1">
		<line class="st2" x1="-755" y1="-104.5" x2="973" y2="-104.15"/>
	</g>
	<g id="_x32_" class="st1">
		<line class="st2" x1="-755.13" y1="-34.5" x2="972.5" y2="-34.5"/>
	</g>
	<g id="_x33_" class="st1">
		<line class="st2" x1="-755.13" y1="37.5" x2="972.5" y2="37.5"/>
	</g>
	<g id="_x34_" class="st1">
		<line class="st2" x1="-755.13" y1="109.5" x2="973.5" y2="109.5"/>
	</g>
	<line id="_x35_" class="st3" x1="-754.88" y1="181.5" x2="973.5" y2="181.5"/>
	<g id="_x36_" class="st1">
		<line class="st2" x1="-756" y1="253.5" x2="974" y2="253.5"/>
	</g>
	<line id="SX" class="st3" x1="-754" y1="-104" x2="-755" y2="254"/>
	<line id="DX" class="st3" x1="972" y1="-104" x2="973" y2="254"/>
</g>
<g id="Tasti" class="st0">
	<line class="st3" x1="-611" y1="-105" x2="-611" y2="254"/>
	<line class="st3" x1="-466.5" y1="-104.5" x2="-466.5" y2="253.5"/>
	<line class="st3" x1="-322.5" y1="-104.5" x2="-322.5" y2="254"/>
	<line class="st3" x1="-178.5" y1="-104.5" x2="-178.5" y2="253.5"/>
	<line class="st3" x1="-34.5" y1="-104.5" x2="-34.5" y2="253.5"/>
	<line class="st3" x1="109.5" y1="-104.5" x2="109.5" y2="253.5"/>
	<line class="st3" x1="253.5" y1="-104.5" x2="253.5" y2="253.5"/>
	<line class="st3" x1="397.5" y1="-104.5" x2="397.5" y2="253.5"/>
	<line class="st3" x1="541.5" y1="-104.5" x2="541.5" y2="253.5"/>
	<line class="st3" x1="685.5" y1="-104.5" x2="685.5" y2="253.5"/>
	<line class="st3" x1="829.5" y1="-104.5" x2="829.5" y2="253.5"/>
</g>
<g id="Numero_Tasto" class="st0">
	<g class="st1">
		<path d="M-722.03,296.24v18.02h-1.85v-16.37h-4.25v-1.65H-722.03z"/>
		<path d="M-715.76,303.73c-0.63-0.36-1.12-0.85-1.48-1.48c-0.36-0.63-0.54-1.32-0.54-2.07c0-0.74,0.18-1.42,0.54-2.05
			s0.85-1.12,1.48-1.48c0.63-0.36,1.32-0.54,2.07-0.54c0.75,0,1.45,0.18,2.08,0.54c0.63,0.36,1.13,0.85,1.49,1.48
			s0.54,1.31,0.54,2.05c0,0.75-0.18,1.45-0.54,2.07c-0.36,0.63-0.86,1.12-1.49,1.48c-0.64,0.36-1.33,0.54-2.08,0.54
			C-714.44,304.27-715.14,304.09-715.76,303.73z M-711.57,302.33c0.57-0.57,0.86-1.29,0.86-2.15c0-0.84-0.29-1.55-0.86-2.12
			c-0.58-0.57-1.28-0.86-2.12-0.86c-0.84,0-1.54,0.29-2.11,0.86s-0.85,1.28-0.85,2.12c0,0.86,0.28,1.57,0.85,2.15
			c0.57,0.58,1.27,0.86,2.11,0.86C-712.85,303.19-712.14,302.9-711.57,302.33z"/>
		<path d="M-695.11,297.89h-6.33v-1.65h14.57v1.65h-6.33v16.37h-1.9V297.89z"/>
		<path d="M-676.16,301.94c0.94,0.88,1.42,2.19,1.42,3.93v8.39h-1.75v-2.11c-0.41,0.7-1.02,1.25-1.81,1.65
			c-0.8,0.4-1.75,0.59-2.84,0.59c-1.51,0-2.71-0.36-3.6-1.08c-0.89-0.72-1.34-1.67-1.34-2.86c0-1.15,0.42-2.08,1.25-2.78
			c0.83-0.7,2.16-1.06,3.98-1.06h4.3v-0.82c0-1.17-0.33-2.06-0.98-2.66c-0.65-0.61-1.6-0.91-2.86-0.91c-0.86,0-1.68,0.14-2.47,0.42
			c-0.79,0.28-1.47,0.67-2.03,1.17l-0.82-1.36c0.69-0.58,1.51-1.03,2.47-1.35c0.96-0.32,1.97-0.48,3.04-0.48
			C-678.46,300.61-677.1,301.06-676.16,301.94z M-678.22,312.24c0.74-0.47,1.29-1.15,1.65-2.05v-2.21h-4.25
			c-2.32,0-3.48,0.81-3.48,2.42c0,0.79,0.3,1.41,0.9,1.87s1.44,0.68,2.52,0.68C-679.84,312.94-678.96,312.71-678.22,312.24z"/>
		<path d="M-669.3,313.91c-1-0.32-1.79-0.72-2.35-1.2l0.82-1.44c0.57,0.45,1.28,0.81,2.14,1.09c0.86,0.28,1.75,0.42,2.68,0.42
			c1.24,0,2.15-0.19,2.74-0.58c0.59-0.39,0.89-0.93,0.89-1.63c0-0.5-0.16-0.89-0.49-1.17c-0.33-0.28-0.74-0.5-1.24-0.64
			c-0.5-0.15-1.16-0.29-1.98-0.42c-1.1-0.21-1.98-0.42-2.65-0.63c-0.67-0.21-1.24-0.58-1.71-1.09c-0.47-0.51-0.71-1.23-0.71-2.14
			c0-1.13,0.47-2.06,1.42-2.78c0.94-0.72,2.26-1.08,3.94-1.08c0.88,0,1.75,0.12,2.63,0.35c0.88,0.23,1.6,0.54,2.16,0.91l-0.8,1.47
			c-1.12-0.77-2.45-1.16-3.99-1.16c-1.17,0-2.05,0.21-2.64,0.62c-0.59,0.41-0.89,0.95-0.89,1.62c0,0.51,0.17,0.93,0.5,1.24
			s0.75,0.54,1.25,0.68c0.5,0.15,1.18,0.3,2.06,0.45c1.08,0.21,1.95,0.41,2.6,0.62c0.65,0.21,1.21,0.56,1.67,1.06
			c0.46,0.5,0.69,1.18,0.69,2.06c0,1.18-0.49,2.12-1.48,2.82c-0.99,0.69-2.36,1.04-4.11,1.04
			C-667.25,314.38-668.3,314.23-669.3,313.91z"/>
		<path d="M-650.06,313.43c-0.34,0.31-0.77,0.54-1.27,0.71c-0.51,0.16-1.03,0.24-1.58,0.24c-1.27,0-2.25-0.34-2.93-1.03
			c-0.69-0.69-1.03-1.66-1.03-2.91v-8.19h-2.42v-1.54h2.42v-2.96h1.83v2.96h4.12v1.54h-4.12v8.08c0,0.81,0.2,1.42,0.6,1.84
			c0.4,0.42,0.98,0.63,1.74,0.63c0.38,0,0.74-0.06,1.09-0.18c0.35-0.12,0.66-0.29,0.91-0.51L-650.06,313.43z"/>
		<path d="M-645.22,313.5c-1.05-0.59-1.87-1.41-2.47-2.46c-0.6-1.05-0.9-2.23-0.9-3.55s0.3-2.51,0.9-3.55
			c0.6-1.05,1.42-1.86,2.47-2.45c1.05-0.58,2.22-0.88,3.53-0.88c1.3,0,2.48,0.29,3.53,0.88c1.05,0.58,1.87,1.4,2.46,2.45
			c0.59,1.05,0.89,2.23,0.89,3.55s-0.3,2.51-0.89,3.55s-1.41,1.87-2.46,2.46c-1.05,0.59-2.22,0.89-3.53,0.89
			C-643,314.38-644.18,314.09-645.22,313.5z M-639.11,312.11c0.76-0.44,1.36-1.06,1.79-1.87c0.43-0.81,0.64-1.72,0.64-2.75
			c0-1.03-0.21-1.95-0.64-2.75c-0.43-0.81-1.03-1.43-1.79-1.87c-0.76-0.44-1.63-0.66-2.59-0.66c-0.96,0-1.82,0.22-2.59,0.66
			c-0.76,0.44-1.36,1.06-1.8,1.87c-0.44,0.81-0.66,1.72-0.66,2.75c0,1.03,0.22,1.95,0.66,2.75c0.44,0.81,1.04,1.43,1.8,1.87
			c0.76,0.44,1.63,0.66,2.59,0.66C-640.73,312.76-639.87,312.54-639.11,312.11z"/>
	</g>
	<g class="st1">
		<path d="M-573.38,312.61v1.65h-12.64v-1.31l7.49-7.34c0.94-0.93,1.58-1.73,1.92-2.41s0.5-1.36,0.5-2.05
			c0-1.06-0.37-1.89-1.09-2.48c-0.73-0.59-1.77-0.89-3.13-0.89c-2.11,0-3.75,0.67-4.92,2.01l-1.31-1.13c0.7-0.82,1.6-1.46,2.69-1.9
			c1.09-0.45,2.32-0.67,3.69-0.67c1.84,0,3.29,0.43,4.36,1.3c1.07,0.87,1.61,2.06,1.61,3.56c0,0.93-0.21,1.82-0.62,2.68
			c-0.41,0.86-1.19,1.85-2.34,2.96l-6.13,6.02H-573.38z"/>
		<path d="M-569.1,303.73c-0.63-0.36-1.12-0.85-1.48-1.48c-0.36-0.63-0.54-1.32-0.54-2.07c0-0.74,0.18-1.42,0.54-2.05
			s0.85-1.12,1.48-1.48s1.32-0.54,2.07-0.54s1.45,0.18,2.08,0.54s1.13,0.85,1.49,1.48s0.54,1.31,0.54,2.05
			c0,0.75-0.18,1.45-0.54,2.07c-0.36,0.63-0.86,1.12-1.49,1.48s-1.33,0.54-2.08,0.54S-568.47,304.09-569.1,303.73z M-564.9,302.33
			c0.57-0.57,0.86-1.29,0.86-2.15c0-0.84-0.29-1.55-0.86-2.12c-0.58-0.57-1.28-0.86-2.12-0.86s-1.54,0.29-2.11,0.86
			s-0.85,1.28-0.85,2.12c0,0.86,0.28,1.57,0.85,2.15c0.57,0.58,1.27,0.86,2.11,0.86S-565.48,302.9-564.9,302.33z"/>
		<path d="M-548.44,297.89h-6.33v-1.65h14.57v1.65h-6.33v16.37h-1.9V297.89z"/>
		<path d="M-529.5,301.94c0.94,0.88,1.42,2.19,1.42,3.93v8.39h-1.75v-2.11c-0.41,0.7-1.02,1.25-1.81,1.65
			c-0.8,0.4-1.75,0.59-2.84,0.59c-1.51,0-2.71-0.36-3.6-1.08c-0.89-0.72-1.34-1.67-1.34-2.86c0-1.15,0.42-2.08,1.25-2.78
			s2.16-1.06,3.98-1.06h4.3v-0.82c0-1.17-0.33-2.06-0.98-2.66c-0.65-0.61-1.61-0.91-2.86-0.91c-0.86,0-1.68,0.14-2.47,0.42
			c-0.79,0.28-1.47,0.67-2.03,1.17l-0.82-1.36c0.69-0.58,1.51-1.03,2.47-1.35c0.96-0.32,1.97-0.48,3.04-0.48
			C-531.8,300.61-530.44,301.06-529.5,301.94z M-531.56,312.24c0.74-0.47,1.29-1.15,1.65-2.05v-2.21h-4.25
			c-2.32,0-3.47,0.81-3.47,2.42c0,0.79,0.3,1.41,0.9,1.87s1.44,0.68,2.52,0.68C-533.18,312.94-532.29,312.71-531.56,312.24z"/>
		<path d="M-522.64,313.91c-1-0.32-1.79-0.72-2.35-1.2l0.82-1.44c0.57,0.45,1.28,0.81,2.14,1.09c0.86,0.28,1.75,0.42,2.68,0.42
			c1.24,0,2.15-0.19,2.74-0.58s0.89-0.93,0.89-1.63c0-0.5-0.16-0.89-0.49-1.17c-0.33-0.28-0.74-0.5-1.24-0.64
			c-0.5-0.15-1.16-0.29-1.98-0.42c-1.1-0.21-1.98-0.42-2.65-0.63c-0.67-0.21-1.24-0.58-1.71-1.09c-0.47-0.51-0.71-1.23-0.71-2.14
			c0-1.13,0.47-2.06,1.42-2.78c0.94-0.72,2.26-1.08,3.94-1.08c0.88,0,1.75,0.12,2.63,0.35c0.88,0.23,1.6,0.54,2.16,0.91l-0.8,1.47
			c-1.12-0.77-2.45-1.16-3.99-1.16c-1.17,0-2.05,0.21-2.64,0.62c-0.59,0.41-0.89,0.95-0.89,1.62c0,0.51,0.17,0.93,0.5,1.24
			c0.33,0.31,0.75,0.54,1.25,0.68c0.5,0.15,1.18,0.3,2.06,0.45c1.08,0.21,1.95,0.41,2.6,0.62c0.65,0.21,1.21,0.56,1.67,1.06
			c0.46,0.5,0.7,1.18,0.7,2.06c0,1.18-0.49,2.12-1.48,2.82c-0.99,0.69-2.36,1.04-4.11,1.04
			C-520.58,314.38-521.63,314.23-522.64,313.91z"/>
		<path d="M-503.4,313.43c-0.34,0.31-0.77,0.54-1.27,0.71c-0.51,0.16-1.03,0.24-1.58,0.24c-1.27,0-2.25-0.34-2.93-1.03
			c-0.69-0.69-1.03-1.66-1.03-2.91v-8.19h-2.42v-1.54h2.42v-2.96h1.83v2.96h4.12v1.54h-4.12v8.08c0,0.81,0.2,1.42,0.61,1.84
			c0.4,0.42,0.98,0.63,1.74,0.63c0.38,0,0.74-0.06,1.09-0.18s0.66-0.29,0.91-0.51L-503.4,313.43z"/>
		<path d="M-498.56,313.5c-1.05-0.59-1.87-1.41-2.47-2.46c-0.6-1.05-0.9-2.23-0.9-3.55s0.3-2.51,0.9-3.55
			c0.6-1.05,1.42-1.86,2.47-2.45c1.05-0.58,2.22-0.88,3.53-0.88c1.3,0,2.48,0.29,3.53,0.88c1.05,0.58,1.87,1.4,2.46,2.45
			c0.59,1.05,0.89,2.23,0.89,3.55s-0.3,2.51-0.89,3.55s-1.41,1.87-2.46,2.46c-1.05,0.59-2.22,0.89-3.53,0.89
			C-496.34,314.38-497.51,314.09-498.56,313.5z M-492.44,312.11c0.76-0.44,1.36-1.06,1.79-1.87c0.43-0.81,0.64-1.72,0.64-2.75
			c0-1.03-0.21-1.95-0.64-2.75c-0.43-0.81-1.03-1.43-1.79-1.87c-0.76-0.44-1.63-0.66-2.59-0.66s-1.82,0.22-2.59,0.66
			c-0.76,0.44-1.36,1.06-1.8,1.87c-0.44,0.81-0.66,1.72-0.66,2.75c0,1.03,0.22,1.95,0.66,2.75c0.44,0.81,1.04,1.43,1.8,1.87
			s1.63,0.66,2.59,0.66S-493.21,312.54-492.44,312.11z"/>
	</g>
	<g class="st1">
		<path d="M-431,305.49c0.99,0.92,1.48,2.12,1.48,3.59c0,1.03-0.25,1.94-0.75,2.74c-0.5,0.8-1.24,1.43-2.21,1.89
			s-2.17,0.69-3.58,0.69c-1.3,0-2.54-0.21-3.69-0.63s-2.09-0.98-2.79-1.69l0.9-1.47c0.6,0.62,1.4,1.12,2.39,1.51
			c1,0.39,2.06,0.58,3.19,0.58c1.48,0,2.62-0.32,3.42-0.97c0.81-0.64,1.21-1.53,1.21-2.66c0-1.12-0.4-1.99-1.21-2.63
			c-0.81-0.63-2.02-0.95-3.66-0.95h-1.29v-1.36l4.99-6.25h-9.21v-1.65h11.58v1.31l-5.1,6.41
			C-433.43,304.06-431.99,304.57-431,305.49z"/>
		<path d="M-425.34,303.73c-0.63-0.36-1.12-0.85-1.48-1.48c-0.36-0.63-0.54-1.32-0.54-2.07c0-0.74,0.18-1.42,0.54-2.05
			s0.85-1.12,1.48-1.48c0.63-0.36,1.32-0.54,2.07-0.54c0.75,0,1.45,0.18,2.08,0.54c0.63,0.36,1.13,0.85,1.49,1.48
			s0.54,1.31,0.54,2.05c0,0.75-0.18,1.45-0.54,2.07c-0.36,0.63-0.86,1.12-1.49,1.48c-0.64,0.36-1.33,0.54-2.08,0.54
			C-424.02,304.27-424.72,304.09-425.34,303.73z M-421.15,302.33c0.57-0.57,0.86-1.29,0.86-2.15c0-0.84-0.29-1.55-0.86-2.12
			c-0.58-0.57-1.28-0.86-2.12-0.86c-0.84,0-1.54,0.29-2.11,0.86s-0.85,1.28-0.85,2.12c0,0.86,0.28,1.57,0.85,2.15
			c0.57,0.58,1.27,0.86,2.11,0.86C-422.43,303.19-421.72,302.9-421.15,302.33z"/>
		<path d="M-404.69,297.89h-6.33v-1.65h14.57v1.65h-6.33v16.37h-1.9V297.89z"/>
		<path d="M-385.74,301.94c0.94,0.88,1.42,2.19,1.42,3.93v8.39h-1.75v-2.11c-0.41,0.7-1.02,1.25-1.81,1.65
			c-0.8,0.4-1.75,0.59-2.84,0.59c-1.51,0-2.71-0.36-3.6-1.08c-0.89-0.72-1.34-1.67-1.34-2.86c0-1.15,0.42-2.08,1.25-2.78
			c0.83-0.7,2.16-1.06,3.98-1.06h4.3v-0.82c0-1.17-0.33-2.06-0.98-2.66c-0.65-0.61-1.6-0.91-2.86-0.91c-0.86,0-1.68,0.14-2.47,0.42
			c-0.79,0.28-1.47,0.67-2.03,1.17l-0.82-1.36c0.69-0.58,1.51-1.03,2.47-1.35c0.96-0.32,1.97-0.48,3.04-0.48
			C-388.04,300.61-386.69,301.06-385.74,301.94z M-387.8,312.24c0.74-0.47,1.29-1.15,1.65-2.05v-2.21h-4.25
			c-2.32,0-3.48,0.81-3.48,2.42c0,0.79,0.3,1.41,0.9,1.87s1.44,0.68,2.52,0.68C-389.42,312.94-388.54,312.71-387.8,312.24z"/>
		<path d="M-378.88,313.91c-1-0.32-1.79-0.72-2.35-1.2l0.82-1.44c0.57,0.45,1.28,0.81,2.14,1.09c0.86,0.28,1.75,0.42,2.68,0.42
			c1.24,0,2.15-0.19,2.74-0.58c0.59-0.39,0.89-0.93,0.89-1.63c0-0.5-0.16-0.89-0.49-1.17c-0.33-0.28-0.74-0.5-1.24-0.64
			c-0.5-0.15-1.16-0.29-1.98-0.42c-1.1-0.21-1.98-0.42-2.65-0.63c-0.67-0.21-1.24-0.58-1.71-1.09c-0.47-0.51-0.71-1.23-0.71-2.14
			c0-1.13,0.47-2.06,1.42-2.78c0.94-0.72,2.26-1.08,3.94-1.08c0.88,0,1.75,0.12,2.63,0.35c0.88,0.23,1.6,0.54,2.16,0.91l-0.8,1.47
			c-1.12-0.77-2.45-1.16-3.99-1.16c-1.17,0-2.05,0.21-2.64,0.62c-0.59,0.41-0.89,0.95-0.89,1.62c0,0.51,0.17,0.93,0.5,1.24
			s0.75,0.54,1.25,0.68c0.5,0.15,1.18,0.3,2.06,0.45c1.08,0.21,1.95,0.41,2.6,0.62c0.65,0.21,1.21,0.56,1.67,1.06
			c0.46,0.5,0.69,1.18,0.69,2.06c0,1.18-0.49,2.12-1.48,2.82c-0.99,0.69-2.36,1.04-4.11,1.04
			C-376.83,314.38-377.88,314.23-378.88,313.91z"/>
		<path d="M-359.64,313.43c-0.34,0.31-0.77,0.54-1.27,0.71c-0.51,0.16-1.03,0.24-1.58,0.24c-1.27,0-2.25-0.34-2.93-1.03
			c-0.69-0.69-1.03-1.66-1.03-2.91v-8.19h-2.42v-1.54h2.42v-2.96h1.83v2.96h4.12v1.54h-4.12v8.08c0,0.81,0.2,1.42,0.6,1.84
			c0.4,0.42,0.98,0.63,1.74,0.63c0.38,0,0.74-0.06,1.09-0.18c0.35-0.12,0.66-0.29,0.91-0.51L-359.64,313.43z"/>
		<path d="M-354.8,313.5c-1.05-0.59-1.87-1.41-2.47-2.46c-0.6-1.05-0.9-2.23-0.9-3.55s0.3-2.51,0.9-3.55
			c0.6-1.05,1.42-1.86,2.47-2.45c1.05-0.58,2.22-0.88,3.53-0.88c1.3,0,2.48,0.29,3.53,0.88c1.05,0.58,1.87,1.4,2.46,2.45
			c0.59,1.05,0.89,2.23,0.89,3.55s-0.3,2.51-0.89,3.55s-1.41,1.87-2.46,2.46c-1.05,0.59-2.22,0.89-3.53,0.89
			C-352.58,314.38-353.76,314.09-354.8,313.5z M-348.69,312.11c0.76-0.44,1.36-1.06,1.79-1.87c0.43-0.81,0.64-1.72,0.64-2.75
			c0-1.03-0.21-1.95-0.64-2.75c-0.43-0.81-1.03-1.43-1.79-1.87c-0.76-0.44-1.63-0.66-2.59-0.66c-0.96,0-1.82,0.22-2.59,0.66
			c-0.76,0.44-1.36,1.06-1.8,1.87c-0.44,0.81-0.66,1.72-0.66,2.75c0,1.03,0.22,1.95,0.66,2.75c0.44,0.81,1.04,1.43,1.8,1.87
			c0.76,0.44,1.63,0.66,2.59,0.66C-350.32,312.76-349.45,312.54-348.69,312.11z"/>
	</g>
	<g class="st1">
		<path d="M-283.18,309.52h-3.6v4.74h-1.85v-4.74h-10.17v-1.34l9.55-11.94h2.06l-9.21,11.63h7.83v-4.17h1.8v4.17h3.6V309.52z"/>
		<path d="M-280.29,303.73c-0.63-0.36-1.12-0.85-1.48-1.48c-0.36-0.63-0.54-1.32-0.54-2.07c0-0.74,0.18-1.42,0.54-2.05
			s0.85-1.12,1.48-1.48c0.63-0.36,1.32-0.54,2.07-0.54c0.75,0,1.45,0.18,2.08,0.54c0.63,0.36,1.13,0.85,1.49,1.48
			s0.54,1.31,0.54,2.05c0,0.75-0.18,1.45-0.54,2.07c-0.36,0.63-0.86,1.12-1.49,1.48c-0.64,0.36-1.33,0.54-2.08,0.54
			C-278.97,304.27-279.66,304.09-280.29,303.73z M-276.09,302.33c0.57-0.57,0.86-1.29,0.86-2.15c0-0.84-0.29-1.55-0.86-2.12
			c-0.58-0.57-1.28-0.86-2.12-0.86c-0.84,0-1.54,0.29-2.11,0.86s-0.85,1.28-0.85,2.12c0,0.86,0.28,1.57,0.85,2.15
			c0.57,0.58,1.27,0.86,2.11,0.86C-277.37,303.19-276.67,302.9-276.09,302.33z"/>
		<path d="M-259.63,297.89h-6.33v-1.65h14.57v1.65h-6.33v16.37h-1.9V297.89z"/>
		<path d="M-240.69,301.94c0.94,0.88,1.42,2.19,1.42,3.93v8.39h-1.75v-2.11c-0.41,0.7-1.02,1.25-1.81,1.65
			c-0.8,0.4-1.75,0.59-2.84,0.59c-1.51,0-2.71-0.36-3.6-1.08c-0.89-0.72-1.34-1.67-1.34-2.86c0-1.15,0.42-2.08,1.25-2.78
			c0.83-0.7,2.16-1.06,3.98-1.06h4.3v-0.82c0-1.17-0.33-2.06-0.98-2.66c-0.65-0.61-1.6-0.91-2.86-0.91c-0.86,0-1.68,0.14-2.47,0.42
			c-0.79,0.28-1.47,0.67-2.03,1.17l-0.82-1.36c0.69-0.58,1.51-1.03,2.47-1.35c0.96-0.32,1.97-0.48,3.04-0.48
			C-242.99,300.61-241.63,301.06-240.69,301.94z M-242.75,312.24c0.74-0.47,1.29-1.15,1.65-2.05v-2.21h-4.25
			c-2.32,0-3.48,0.81-3.48,2.42c0,0.79,0.3,1.41,0.9,1.87s1.44,0.68,2.52,0.68C-244.37,312.94-243.48,312.71-242.75,312.24z"/>
		<path d="M-233.83,313.91c-1-0.32-1.79-0.72-2.35-1.2l0.82-1.44c0.57,0.45,1.28,0.81,2.14,1.09c0.86,0.28,1.75,0.42,2.68,0.42
			c1.24,0,2.15-0.19,2.74-0.58c0.59-0.39,0.89-0.93,0.89-1.63c0-0.5-0.16-0.89-0.49-1.17c-0.33-0.28-0.74-0.5-1.24-0.64
			c-0.5-0.15-1.16-0.29-1.98-0.42c-1.1-0.21-1.98-0.42-2.65-0.63c-0.67-0.21-1.24-0.58-1.71-1.09c-0.47-0.51-0.71-1.23-0.71-2.14
			c0-1.13,0.47-2.06,1.42-2.78c0.94-0.72,2.26-1.08,3.94-1.08c0.88,0,1.75,0.12,2.63,0.35c0.88,0.23,1.6,0.54,2.16,0.91l-0.8,1.47
			c-1.12-0.77-2.45-1.16-3.99-1.16c-1.17,0-2.05,0.21-2.64,0.62c-0.59,0.41-0.89,0.95-0.89,1.62c0,0.51,0.17,0.93,0.5,1.24
			s0.75,0.54,1.25,0.68c0.5,0.15,1.18,0.3,2.06,0.45c1.08,0.21,1.95,0.41,2.6,0.62c0.65,0.21,1.21,0.56,1.67,1.06
			c0.46,0.5,0.69,1.18,0.69,2.06c0,1.18-0.49,2.12-1.48,2.82c-0.99,0.69-2.36,1.04-4.11,1.04
			C-231.77,314.38-232.82,314.23-233.83,313.91z"/>
		<path d="M-214.59,313.43c-0.34,0.31-0.77,0.54-1.27,0.71c-0.51,0.16-1.03,0.24-1.58,0.24c-1.27,0-2.25-0.34-2.93-1.03
			c-0.69-0.69-1.03-1.66-1.03-2.91v-8.19h-2.42v-1.54h2.42v-2.96h1.83v2.96h4.12v1.54h-4.12v8.08c0,0.81,0.2,1.42,0.6,1.84
			c0.4,0.42,0.98,0.63,1.74,0.63c0.38,0,0.74-0.06,1.09-0.18c0.35-0.12,0.66-0.29,0.91-0.51L-214.59,313.43z"/>
		<path d="M-209.75,313.5c-1.05-0.59-1.87-1.41-2.47-2.46c-0.6-1.05-0.9-2.23-0.9-3.55s0.3-2.51,0.9-3.55
			c0.6-1.05,1.42-1.86,2.47-2.45c1.05-0.58,2.22-0.88,3.53-0.88c1.3,0,2.48,0.29,3.53,0.88c1.05,0.58,1.87,1.4,2.46,2.45
			c0.59,1.05,0.89,2.23,0.89,3.55s-0.3,2.51-0.89,3.55s-1.41,1.87-2.46,2.46c-1.05,0.59-2.22,0.89-3.53,0.89
			C-207.52,314.38-208.7,314.09-209.75,313.5z M-203.63,312.11c0.76-0.44,1.36-1.06,1.79-1.87c0.43-0.81,0.64-1.72,0.64-2.75
			c0-1.03-0.21-1.95-0.64-2.75c-0.43-0.81-1.03-1.43-1.79-1.87c-0.76-0.44-1.63-0.66-2.59-0.66c-0.96,0-1.82,0.22-2.59,0.66
			c-0.76,0.44-1.36,1.06-1.8,1.87c-0.44,0.81-0.66,1.72-0.66,2.75c0,1.03,0.22,1.95,0.66,2.75c0.44,0.81,1.04,1.43,1.8,1.87
			c0.76,0.44,1.63,0.66,2.59,0.66C-205.26,312.76-204.4,312.54-203.63,312.11z"/>
	</g>
	<g class="st1">
		<path d="M-143.03,305.03c1.19,0.94,1.79,2.24,1.79,3.93c0,1.05-0.24,1.98-0.73,2.81c-0.49,0.82-1.22,1.47-2.2,1.94
			c-0.98,0.47-2.18,0.71-3.6,0.71c-1.29,0-2.51-0.21-3.67-0.63c-1.16-0.42-2.09-0.98-2.79-1.69l0.9-1.47
			c0.6,0.62,1.39,1.12,2.37,1.51c0.98,0.39,2.03,0.58,3.17,0.58c1.49,0,2.65-0.33,3.46-1c0.81-0.67,1.22-1.56,1.22-2.68
			c0-1.24-0.46-2.17-1.38-2.81c-0.92-0.63-2.47-0.95-4.65-0.95h-3.83l0.93-9.03h9.86v1.65h-8.24l-0.62,5.74h2.32
			C-146.12,303.63-144.22,304.09-143.03,305.03z"/>
		<path d="M-137.32,303.73c-0.63-0.36-1.12-0.85-1.48-1.48c-0.36-0.63-0.54-1.32-0.54-2.07c0-0.74,0.18-1.42,0.54-2.05
			s0.85-1.12,1.48-1.48c0.63-0.36,1.32-0.54,2.07-0.54c0.75,0,1.45,0.18,2.08,0.54c0.63,0.36,1.13,0.85,1.49,1.48
			s0.54,1.31,0.54,2.05c0,0.75-0.18,1.45-0.54,2.07c-0.36,0.63-0.86,1.12-1.49,1.48c-0.64,0.36-1.33,0.54-2.08,0.54
			C-136,304.27-136.69,304.09-137.32,303.73z M-133.12,302.33c0.57-0.57,0.86-1.29,0.86-2.15c0-0.84-0.29-1.55-0.86-2.12
			c-0.58-0.57-1.28-0.86-2.12-0.86c-0.84,0-1.54,0.29-2.11,0.86s-0.85,1.28-0.85,2.12c0,0.86,0.28,1.57,0.85,2.15
			c0.57,0.58,1.27,0.86,2.11,0.86C-134.4,303.19-133.7,302.9-133.12,302.33z"/>
		<path d="M-116.66,297.89h-6.33v-1.65h14.57v1.65h-6.33v16.37h-1.9V297.89z"/>
		<path d="M-97.72,301.94c0.94,0.88,1.42,2.19,1.42,3.93v8.39h-1.75v-2.11c-0.41,0.7-1.02,1.25-1.81,1.65
			c-0.8,0.4-1.75,0.59-2.84,0.59c-1.51,0-2.71-0.36-3.6-1.08c-0.89-0.72-1.34-1.67-1.34-2.86c0-1.15,0.42-2.08,1.25-2.78
			c0.83-0.7,2.16-1.06,3.98-1.06h4.3v-0.82c0-1.17-0.33-2.06-0.98-2.66c-0.65-0.61-1.6-0.91-2.86-0.91c-0.86,0-1.68,0.14-2.47,0.42
			c-0.79,0.28-1.47,0.67-2.03,1.17l-0.82-1.36c0.69-0.58,1.51-1.03,2.47-1.35c0.96-0.32,1.97-0.48,3.04-0.48
			C-100.02,300.61-98.66,301.06-97.72,301.94z M-99.77,312.24c0.74-0.47,1.29-1.15,1.65-2.05v-2.21h-4.25
			c-2.32,0-3.48,0.81-3.48,2.42c0,0.79,0.3,1.41,0.9,1.87s1.44,0.68,2.52,0.68C-101.4,312.94-100.51,312.71-99.77,312.24z"/>
		<path d="M-90.86,313.91c-1-0.32-1.79-0.72-2.35-1.2l0.82-1.44c0.57,0.45,1.28,0.81,2.14,1.09c0.86,0.28,1.75,0.42,2.68,0.42
			c1.24,0,2.15-0.19,2.74-0.58c0.59-0.39,0.89-0.93,0.89-1.63c0-0.5-0.16-0.89-0.49-1.17c-0.33-0.28-0.74-0.5-1.24-0.64
			c-0.5-0.15-1.16-0.29-1.98-0.42c-1.1-0.21-1.98-0.42-2.65-0.63c-0.67-0.21-1.24-0.58-1.71-1.09c-0.47-0.51-0.71-1.23-0.71-2.14
			c0-1.13,0.47-2.06,1.42-2.78c0.94-0.72,2.26-1.08,3.94-1.08c0.88,0,1.75,0.12,2.63,0.35c0.88,0.23,1.6,0.54,2.16,0.91l-0.8,1.47
			c-1.12-0.77-2.45-1.16-3.99-1.16c-1.17,0-2.05,0.21-2.64,0.62c-0.59,0.41-0.89,0.95-0.89,1.62c0,0.51,0.17,0.93,0.5,1.24
			s0.75,0.54,1.25,0.68c0.5,0.15,1.18,0.3,2.06,0.45c1.08,0.21,1.95,0.41,2.6,0.62c0.65,0.21,1.21,0.56,1.67,1.06
			c0.46,0.5,0.69,1.18,0.69,2.06c0,1.18-0.49,2.12-1.48,2.82c-0.99,0.69-2.36,1.04-4.11,1.04
			C-88.8,314.39-89.85,314.23-90.86,313.91z"/>
		<path d="M-71.62,313.43c-0.34,0.31-0.77,0.54-1.27,0.71c-0.51,0.16-1.03,0.24-1.58,0.24c-1.27,0-2.25-0.34-2.93-1.03
			c-0.69-0.69-1.03-1.66-1.03-2.91v-8.19h-2.42v-1.54h2.42v-2.96h1.83v2.96h4.12v1.54h-4.12v8.08c0,0.81,0.2,1.42,0.6,1.84
			c0.4,0.42,0.98,0.63,1.74,0.63c0.38,0,0.74-0.06,1.09-0.18c0.35-0.12,0.66-0.29,0.91-0.51L-71.62,313.43z"/>
		<path d="M-66.78,313.5c-1.05-0.59-1.87-1.41-2.47-2.46c-0.6-1.05-0.9-2.23-0.9-3.55s0.3-2.51,0.9-3.55
			c0.6-1.05,1.42-1.86,2.47-2.45c1.05-0.58,2.22-0.88,3.53-0.88c1.3,0,2.48,0.29,3.53,0.88c1.05,0.58,1.87,1.4,2.46,2.45
			c0.59,1.05,0.89,2.23,0.89,3.55s-0.3,2.51-0.89,3.55s-1.41,1.87-2.46,2.46c-1.05,0.59-2.22,0.89-3.53,0.89
			C-64.55,314.39-65.73,314.09-66.78,313.5z M-60.66,312.11c0.76-0.44,1.36-1.06,1.79-1.87c0.43-0.81,0.64-1.72,0.64-2.75
			c0-1.03-0.21-1.95-0.64-2.75c-0.43-0.81-1.03-1.43-1.79-1.87c-0.76-0.44-1.63-0.66-2.59-0.66c-0.96,0-1.82,0.22-2.59,0.66
			c-0.76,0.44-1.36,1.06-1.8,1.87c-0.44,0.81-0.66,1.72-0.66,2.75c0,1.03,0.22,1.95,0.66,2.75c0.44,0.81,1.04,1.43,1.8,1.87
			c0.76,0.44,1.63,0.66,2.59,0.66C-62.29,312.76-61.43,312.54-60.66,312.11z"/>
	</g>
	<g class="st1">
		<path d="M0.67,304.14c0.92,0.45,1.63,1.08,2.15,1.89c0.51,0.82,0.77,1.76,0.77,2.84c0,1.1-0.27,2.07-0.8,2.91
			c-0.53,0.84-1.27,1.49-2.2,1.94c-0.94,0.46-1.99,0.68-3.15,0.68c-2.39,0-4.21-0.79-5.48-2.35c-1.27-1.57-1.9-3.79-1.9-6.65
			c0-2.01,0.34-3.71,1.03-5.1c0.69-1.39,1.65-2.44,2.88-3.15s2.68-1.07,4.32-1.07c1.78,0,3.21,0.33,4.27,0.98l-0.75,1.49
			c-0.86-0.57-2.02-0.85-3.5-0.85c-1.99,0-3.55,0.63-4.68,1.89c-1.13,1.26-1.7,3.09-1.7,5.5c0,0.43,0.03,0.92,0.08,1.47
			c0.45-0.98,1.16-1.74,2.14-2.28s2.1-0.81,3.37-0.81C-1.3,303.47-0.24,303.69,0.67,304.14z M0.54,311.77
			c0.81-0.71,1.22-1.66,1.22-2.84s-0.41-2.13-1.22-2.83c-0.82-0.7-1.92-1.06-3.31-1.06c-0.91,0-1.71,0.17-2.41,0.51
			c-0.69,0.34-1.24,0.82-1.63,1.42c-0.39,0.6-0.59,1.27-0.59,2.01c0,0.69,0.18,1.32,0.55,1.9c0.37,0.58,0.91,1.06,1.63,1.42
			s1.58,0.54,2.57,0.54C-1.33,312.84-0.27,312.48,0.54,311.77z"/>
		<path d="M7.16,303.73c-0.63-0.36-1.12-0.85-1.48-1.48c-0.36-0.63-0.54-1.32-0.54-2.07c0-0.74,0.18-1.42,0.54-2.05
			s0.85-1.12,1.48-1.48c0.63-0.36,1.32-0.54,2.07-0.54c0.75,0,1.45,0.18,2.08,0.54c0.63,0.36,1.13,0.85,1.49,1.48
			s0.54,1.31,0.54,2.05c0,0.75-0.18,1.45-0.54,2.07c-0.36,0.63-0.86,1.12-1.49,1.48c-0.64,0.36-1.33,0.54-2.08,0.54
			C8.48,304.27,7.79,304.09,7.16,303.73z M11.36,302.33c0.57-0.57,0.86-1.29,0.86-2.15c0-0.84-0.29-1.55-0.86-2.12
			c-0.58-0.57-1.28-0.86-2.12-0.86c-0.84,0-1.54,0.29-2.11,0.86s-0.85,1.28-0.85,2.12c0,0.86,0.28,1.57,0.85,2.15
			c0.57,0.58,1.27,0.86,2.11,0.86C10.07,303.19,10.78,302.9,11.36,302.33z"/>
		<path d="M27.82,297.89h-6.33v-1.65h14.57v1.65h-6.33v16.37h-1.9V297.89z"/>
		<path d="M46.76,301.94c0.94,0.88,1.42,2.19,1.42,3.93v8.39h-1.75v-2.11c-0.41,0.7-1.02,1.25-1.81,1.65
			c-0.8,0.4-1.75,0.59-2.84,0.59c-1.51,0-2.71-0.36-3.6-1.08c-0.89-0.72-1.34-1.67-1.34-2.86c0-1.15,0.42-2.08,1.25-2.78
			c0.83-0.7,2.16-1.06,3.98-1.06h4.3v-0.82c0-1.17-0.33-2.06-0.98-2.66c-0.65-0.61-1.6-0.91-2.86-0.91c-0.86,0-1.68,0.14-2.47,0.42
			c-0.79,0.28-1.47,0.67-2.03,1.17l-0.82-1.36c0.69-0.58,1.51-1.03,2.47-1.35c0.96-0.32,1.97-0.48,3.04-0.48
			C44.46,300.61,45.82,301.06,46.76,301.94z M44.7,312.24c0.74-0.47,1.29-1.15,1.65-2.05v-2.21H42.1c-2.32,0-3.48,0.81-3.48,2.42
			c0,0.79,0.3,1.41,0.9,1.87s1.44,0.68,2.52,0.68C43.08,312.94,43.96,312.71,44.7,312.24z"/>
		<path d="M53.62,313.91c-1-0.32-1.79-0.72-2.35-1.2l0.82-1.44c0.57,0.45,1.28,0.81,2.14,1.09c0.86,0.28,1.75,0.42,2.68,0.42
			c1.24,0,2.15-0.19,2.74-0.58c0.59-0.39,0.89-0.93,0.89-1.63c0-0.5-0.16-0.89-0.49-1.17c-0.33-0.28-0.74-0.5-1.24-0.64
			c-0.5-0.15-1.16-0.29-1.98-0.42c-1.1-0.21-1.98-0.42-2.65-0.63c-0.67-0.21-1.24-0.58-1.71-1.09c-0.47-0.51-0.71-1.23-0.71-2.14
			c0-1.13,0.47-2.06,1.42-2.78c0.94-0.72,2.26-1.08,3.94-1.08c0.88,0,1.75,0.12,2.63,0.35c0.88,0.23,1.6,0.54,2.16,0.91l-0.8,1.47
			c-1.12-0.77-2.45-1.16-3.99-1.16c-1.17,0-2.05,0.21-2.64,0.62c-0.59,0.41-0.89,0.95-0.89,1.62c0,0.51,0.17,0.93,0.5,1.24
			s0.75,0.54,1.25,0.68c0.5,0.15,1.18,0.3,2.06,0.45c1.08,0.21,1.95,0.41,2.6,0.62c0.65,0.21,1.21,0.56,1.67,1.06
			c0.46,0.5,0.69,1.18,0.69,2.06c0,1.18-0.49,2.12-1.48,2.82c-0.99,0.69-2.36,1.04-4.11,1.04
			C55.67,314.38,54.62,314.23,53.62,313.91z"/>
		<path d="M72.86,313.43c-0.34,0.31-0.77,0.54-1.27,0.71c-0.51,0.16-1.03,0.24-1.58,0.24c-1.27,0-2.25-0.34-2.93-1.03
			c-0.69-0.69-1.03-1.66-1.03-2.91v-8.19h-2.42v-1.54h2.42v-2.96h1.83v2.96h4.12v1.54h-4.12v8.08c0,0.81,0.2,1.42,0.6,1.84
			c0.4,0.42,0.98,0.63,1.74,0.63c0.38,0,0.74-0.06,1.09-0.18c0.35-0.12,0.66-0.29,0.91-0.51L72.86,313.43z"/>
		<path d="M77.7,313.5c-1.05-0.59-1.87-1.41-2.47-2.46c-0.6-1.05-0.9-2.23-0.9-3.55s0.3-2.51,0.9-3.55c0.6-1.05,1.42-1.86,2.47-2.45
			c1.05-0.58,2.22-0.88,3.53-0.88c1.3,0,2.48,0.29,3.53,0.88c1.05,0.58,1.87,1.4,2.46,2.45c0.59,1.05,0.89,2.23,0.89,3.55
			s-0.3,2.51-0.89,3.55s-1.41,1.87-2.46,2.46c-1.05,0.59-2.22,0.89-3.53,0.89C79.92,314.38,78.75,314.09,77.7,313.5z M83.81,312.11
			c0.76-0.44,1.36-1.06,1.79-1.87c0.43-0.81,0.64-1.72,0.64-2.75c0-1.03-0.21-1.95-0.64-2.75c-0.43-0.81-1.03-1.43-1.79-1.87
			c-0.76-0.44-1.63-0.66-2.59-0.66c-0.96,0-1.82,0.22-2.59,0.66c-0.76,0.44-1.36,1.06-1.8,1.87c-0.44,0.81-0.66,1.72-0.66,2.75
			c0,1.03,0.22,1.95,0.66,2.75c0.44,0.81,1.04,1.43,1.8,1.87c0.76,0.44,1.63,0.66,2.59,0.66C82.19,312.76,83.05,312.54,83.81,312.11
			z"/>
	</g>
	<g class="st1">
		<path d="M146.71,296.24v1.31l-7.54,16.71h-2.01l7.41-16.37h-9.27v3.37h-1.83v-5.02H146.71z"/>
		<path d="M151.22,303.73c-0.63-0.36-1.12-0.85-1.48-1.48c-0.36-0.63-0.54-1.32-0.54-2.07c0-0.74,0.18-1.42,0.54-2.05
			s0.85-1.12,1.48-1.48c0.63-0.36,1.32-0.54,2.07-0.54c0.75,0,1.45,0.18,2.08,0.54c0.63,0.36,1.13,0.85,1.49,1.48
			c0.36,0.63,0.54,1.31,0.54,2.05c0,0.75-0.18,1.45-0.54,2.07c-0.36,0.63-0.86,1.12-1.49,1.48c-0.64,0.36-1.33,0.54-2.08,0.54
			C152.54,304.27,151.85,304.09,151.22,303.73z M155.42,302.33c0.58-0.57,0.86-1.29,0.86-2.15c0-0.84-0.29-1.55-0.86-2.12
			s-1.28-0.86-2.12-0.86s-1.54,0.29-2.11,0.86c-0.57,0.57-0.85,1.28-0.85,2.12c0,0.86,0.28,1.57,0.85,2.15
			c0.57,0.58,1.27,0.86,2.11,0.86S154.84,302.9,155.42,302.33z"/>
		<path d="M171.88,297.89h-6.33v-1.65h14.57v1.65h-6.33v16.37h-1.91V297.89z"/>
		<path d="M190.83,301.94c0.94,0.88,1.42,2.19,1.42,3.93v8.39h-1.75v-2.11c-0.41,0.7-1.02,1.25-1.81,1.65
			c-0.8,0.4-1.75,0.59-2.84,0.59c-1.51,0-2.71-0.36-3.6-1.08c-0.89-0.72-1.34-1.67-1.34-2.86c0-1.15,0.42-2.08,1.25-2.78
			s2.16-1.06,3.98-1.06h4.3v-0.82c0-1.17-0.33-2.06-0.98-2.66c-0.65-0.61-1.6-0.91-2.86-0.91c-0.86,0-1.68,0.14-2.47,0.42
			s-1.47,0.67-2.03,1.17l-0.82-1.36c0.69-0.58,1.51-1.03,2.47-1.35c0.96-0.32,1.97-0.48,3.04-0.48
			C188.53,300.61,189.88,301.06,190.83,301.94z M188.77,312.24c0.74-0.47,1.29-1.15,1.65-2.05v-2.21h-4.25
			c-2.32,0-3.47,0.81-3.47,2.42c0,0.79,0.3,1.41,0.9,1.87s1.44,0.68,2.52,0.68C187.14,312.94,188.03,312.71,188.77,312.24z"/>
		<path d="M197.68,313.91c-1-0.32-1.79-0.72-2.36-1.2l0.82-1.44c0.57,0.45,1.28,0.81,2.14,1.09c0.86,0.28,1.75,0.42,2.68,0.42
			c1.24,0,2.15-0.19,2.74-0.58s0.89-0.93,0.89-1.63c0-0.5-0.16-0.89-0.49-1.17s-0.74-0.5-1.24-0.64c-0.5-0.15-1.16-0.29-1.98-0.42
			c-1.1-0.21-1.98-0.42-2.65-0.63c-0.67-0.21-1.24-0.58-1.71-1.09c-0.47-0.51-0.71-1.23-0.71-2.14c0-1.13,0.47-2.06,1.42-2.78
			c0.94-0.72,2.26-1.08,3.94-1.08c0.88,0,1.75,0.12,2.63,0.35c0.88,0.23,1.6,0.54,2.16,0.91l-0.8,1.47
			c-1.12-0.77-2.45-1.16-3.99-1.16c-1.17,0-2.05,0.21-2.64,0.62c-0.59,0.41-0.89,0.95-0.89,1.62c0,0.51,0.17,0.93,0.5,1.24
			c0.33,0.31,0.75,0.54,1.25,0.68c0.5,0.15,1.18,0.3,2.06,0.45c1.08,0.21,1.95,0.41,2.6,0.62c0.65,0.21,1.21,0.56,1.67,1.06
			c0.46,0.5,0.69,1.18,0.69,2.06c0,1.18-0.49,2.12-1.48,2.82c-0.99,0.69-2.36,1.04-4.11,1.04
			C199.74,314.38,198.69,314.23,197.68,313.91z"/>
		<path d="M216.93,313.43c-0.34,0.31-0.77,0.54-1.27,0.71c-0.51,0.16-1.03,0.24-1.58,0.24c-1.27,0-2.25-0.34-2.93-1.03
			c-0.69-0.69-1.03-1.66-1.03-2.91v-8.19h-2.42v-1.54h2.42v-2.96h1.83v2.96h4.12v1.54h-4.12v8.08c0,0.81,0.2,1.42,0.61,1.84
			c0.4,0.42,0.98,0.63,1.74,0.63c0.38,0,0.74-0.06,1.09-0.18s0.66-0.29,0.91-0.51L216.93,313.43z"/>
		<path d="M221.76,313.5c-1.05-0.59-1.87-1.41-2.47-2.46s-0.9-2.23-0.9-3.55s0.3-2.51,0.9-3.55c0.6-1.05,1.42-1.86,2.47-2.45
			c1.05-0.58,2.22-0.88,3.53-0.88c1.3,0,2.48,0.29,3.53,0.88c1.05,0.58,1.87,1.4,2.46,2.45c0.59,1.05,0.89,2.23,0.89,3.55
			s-0.3,2.51-0.89,3.55c-0.59,1.05-1.41,1.87-2.46,2.46c-1.05,0.59-2.22,0.89-3.53,0.89C223.99,314.38,222.81,314.09,221.76,313.5z
			 M227.88,312.11c0.76-0.44,1.36-1.06,1.79-1.87c0.43-0.81,0.64-1.72,0.64-2.75c0-1.03-0.21-1.95-0.64-2.75
			c-0.43-0.81-1.03-1.43-1.79-1.87c-0.76-0.44-1.63-0.66-2.59-0.66s-1.82,0.22-2.59,0.66c-0.76,0.44-1.36,1.06-1.8,1.87
			c-0.44,0.81-0.66,1.72-0.66,2.75c0,1.03,0.22,1.95,0.66,2.75c0.44,0.81,1.04,1.43,1.8,1.87s1.63,0.66,2.59,0.66
			S227.11,312.54,227.88,312.11z"/>
	</g>
	<g class="st1">
		<path d="M290.35,306.51c0.61,0.76,0.91,1.66,0.91,2.73c0,1.05-0.28,1.96-0.85,2.74s-1.38,1.38-2.43,1.8
			c-1.05,0.42-2.29,0.63-3.72,0.63c-2.16,0-3.86-0.46-5.1-1.39c-1.24-0.93-1.85-2.19-1.85-3.78c0-1.08,0.3-1.99,0.89-2.74
			c0.59-0.75,1.45-1.31,2.59-1.69c-0.93-0.36-1.63-0.88-2.11-1.56c-0.48-0.68-0.72-1.48-0.72-2.41c0-1.46,0.57-2.62,1.71-3.47
			c1.14-0.86,2.67-1.29,4.59-1.29c1.27,0,2.38,0.19,3.33,0.58s1.69,0.94,2.23,1.66c0.53,0.72,0.8,1.56,0.8,2.52
			c0,0.93-0.25,1.73-0.75,2.41c-0.5,0.68-1.21,1.2-2.14,1.56C288.87,305.19,289.74,305.75,290.35,306.51z M288,311.86
			c0.9-0.65,1.35-1.54,1.35-2.65c0-1.12-0.45-2-1.35-2.64c-0.9-0.64-2.15-0.96-3.75-0.96c-1.58,0-2.82,0.32-3.72,0.96
			c-0.9,0.64-1.35,1.52-1.35,2.64c0,1.13,0.45,2.02,1.34,2.66c0.89,0.64,2.14,0.97,3.73,0.97S287.1,312.51,288,311.86z
			 M280.99,303.26c0.79,0.58,1.88,0.88,3.27,0.88c1.39,0,2.48-0.29,3.28-0.88c0.8-0.58,1.2-1.36,1.2-2.34
			c0-1.01-0.41-1.81-1.22-2.39c-0.82-0.58-1.9-0.88-3.26-0.88c-1.37,0-2.46,0.29-3.26,0.88c-0.8,0.58-1.2,1.37-1.2,2.37
			S280.2,302.68,280.99,303.26z"/>
		<path d="M295.8,303.73c-0.63-0.36-1.12-0.85-1.48-1.48c-0.36-0.63-0.54-1.32-0.54-2.07c0-0.74,0.18-1.42,0.54-2.05
			s0.85-1.12,1.48-1.48c0.63-0.36,1.32-0.54,2.07-0.54c0.75,0,1.45,0.18,2.08,0.54c0.63,0.36,1.13,0.85,1.49,1.48
			c0.36,0.63,0.54,1.31,0.54,2.05c0,0.75-0.18,1.45-0.54,2.07c-0.36,0.63-0.86,1.12-1.49,1.48c-0.64,0.36-1.33,0.54-2.08,0.54
			C297.12,304.27,296.43,304.09,295.8,303.73z M300,302.33c0.58-0.57,0.86-1.29,0.86-2.15c0-0.84-0.29-1.55-0.86-2.12
			s-1.28-0.86-2.12-0.86s-1.54,0.29-2.11,0.86c-0.57,0.57-0.85,1.28-0.85,2.12c0,0.86,0.28,1.57,0.85,2.15
			c0.57,0.58,1.27,0.86,2.11,0.86S299.42,302.9,300,302.33z"/>
		<path d="M316.46,297.89h-6.33v-1.65h14.57v1.65h-6.33v16.37h-1.91V297.89z"/>
		<path d="M335.4,301.94c0.94,0.88,1.42,2.19,1.42,3.93v8.39h-1.75v-2.11c-0.41,0.7-1.02,1.25-1.81,1.65
			c-0.8,0.4-1.75,0.59-2.84,0.59c-1.51,0-2.71-0.36-3.6-1.08c-0.89-0.72-1.34-1.67-1.34-2.86c0-1.15,0.42-2.08,1.25-2.78
			s2.16-1.06,3.98-1.06h4.3v-0.82c0-1.17-0.33-2.06-0.98-2.66c-0.65-0.61-1.6-0.91-2.86-0.91c-0.86,0-1.68,0.14-2.47,0.42
			s-1.47,0.67-2.03,1.17l-0.82-1.36c0.69-0.58,1.51-1.03,2.47-1.35c0.96-0.32,1.97-0.48,3.04-0.48
			C333.1,300.61,334.46,301.06,335.4,301.94z M333.34,312.24c0.74-0.47,1.29-1.15,1.65-2.05v-2.21h-4.25
			c-2.32,0-3.47,0.81-3.47,2.42c0,0.79,0.3,1.41,0.9,1.87s1.44,0.68,2.52,0.68C331.72,312.94,332.61,312.71,333.34,312.24z"/>
		<path d="M342.26,313.91c-1-0.32-1.79-0.72-2.36-1.2l0.82-1.44c0.57,0.45,1.28,0.81,2.14,1.09c0.86,0.28,1.75,0.42,2.68,0.42
			c1.24,0,2.15-0.19,2.74-0.58s0.89-0.93,0.89-1.63c0-0.5-0.16-0.89-0.49-1.17s-0.74-0.5-1.24-0.64c-0.5-0.15-1.16-0.29-1.98-0.42
			c-1.1-0.21-1.98-0.42-2.65-0.63c-0.67-0.21-1.24-0.58-1.71-1.09c-0.47-0.51-0.71-1.23-0.71-2.14c0-1.13,0.47-2.06,1.42-2.78
			c0.94-0.72,2.26-1.08,3.94-1.08c0.88,0,1.75,0.12,2.63,0.35c0.88,0.23,1.6,0.54,2.16,0.91l-0.8,1.47
			c-1.12-0.77-2.45-1.16-3.99-1.16c-1.17,0-2.05,0.21-2.64,0.62c-0.59,0.41-0.89,0.95-0.89,1.62c0,0.51,0.17,0.93,0.5,1.24
			c0.33,0.31,0.75,0.54,1.25,0.68c0.5,0.15,1.18,0.3,2.06,0.45c1.08,0.21,1.95,0.41,2.6,0.62c0.65,0.21,1.21,0.56,1.67,1.06
			c0.46,0.5,0.69,1.18,0.69,2.06c0,1.18-0.49,2.12-1.48,2.82c-0.99,0.69-2.36,1.04-4.11,1.04
			C344.32,314.38,343.27,314.23,342.26,313.91z"/>
		<path d="M361.5,313.43c-0.34,0.31-0.77,0.54-1.27,0.71c-0.51,0.16-1.03,0.24-1.58,0.24c-1.27,0-2.25-0.34-2.93-1.03
			c-0.69-0.69-1.03-1.66-1.03-2.91v-8.19h-2.42v-1.54h2.42v-2.96h1.83v2.96h4.12v1.54h-4.12v8.08c0,0.81,0.2,1.42,0.61,1.84
			c0.4,0.42,0.98,0.63,1.74,0.63c0.38,0,0.74-0.06,1.09-0.18s0.66-0.29,0.91-0.51L361.5,313.43z"/>
		<path d="M366.34,313.5c-1.05-0.59-1.87-1.41-2.47-2.46s-0.9-2.23-0.9-3.55s0.3-2.51,0.9-3.55c0.6-1.05,1.42-1.86,2.47-2.45
			c1.05-0.58,2.22-0.88,3.53-0.88c1.3,0,2.48,0.29,3.53,0.88c1.05,0.58,1.87,1.4,2.46,2.45c0.59,1.05,0.89,2.23,0.89,3.55
			s-0.3,2.51-0.89,3.55c-0.59,1.05-1.41,1.87-2.46,2.46c-1.05,0.59-2.22,0.89-3.53,0.89C368.57,314.38,367.39,314.09,366.34,313.5z
			 M372.46,312.11c0.76-0.44,1.36-1.06,1.79-1.87c0.43-0.81,0.64-1.72,0.64-2.75c0-1.03-0.21-1.95-0.64-2.75
			c-0.43-0.81-1.03-1.43-1.79-1.87c-0.76-0.44-1.63-0.66-2.59-0.66s-1.82,0.22-2.59,0.66c-0.76,0.44-1.36,1.06-1.8,1.87
			c-0.44,0.81-0.66,1.72-0.66,2.75c0,1.03,0.22,1.95,0.66,2.75c0.44,0.81,1.04,1.43,1.8,1.87s1.63,0.66,2.59,0.66
			S371.69,312.54,372.46,312.11z"/>
	</g>
	<g class="st1">
		<path d="M432.83,298.44c1.27,1.57,1.9,3.79,1.9,6.65c0,2.01-0.34,3.71-1.03,5.1s-1.65,2.44-2.88,3.15s-2.68,1.07-4.32,1.07
			c-1.79,0-3.21-0.33-4.27-0.98l0.75-1.49c0.86,0.57,2.02,0.85,3.5,0.85c1.99,0,3.55-0.63,4.69-1.89c1.13-1.26,1.7-3.09,1.7-5.5
			c0-0.45-0.03-0.94-0.08-1.47c-0.45,0.98-1.16,1.74-2.14,2.28c-0.98,0.54-2.1,0.81-3.37,0.81c-1.18,0-2.24-0.22-3.15-0.67
			c-0.92-0.45-1.63-1.08-2.15-1.89s-0.77-1.76-0.77-2.84c0-1.1,0.27-2.07,0.8-2.91s1.27-1.49,2.2-1.94
			c0.93-0.45,1.99-0.68,3.15-0.68C429.73,296.08,431.56,296.87,432.83,298.44z M429.96,304.94c0.7-0.34,1.24-0.81,1.63-1.42
			c0.39-0.6,0.59-1.27,0.59-2.01c0-0.69-0.18-1.32-0.55-1.9c-0.37-0.58-0.91-1.06-1.63-1.42s-1.58-0.54-2.57-0.54
			c-1.3,0-2.36,0.36-3.18,1.07c-0.81,0.71-1.22,1.66-1.22,2.84s0.41,2.13,1.22,2.83c0.82,0.7,1.92,1.06,3.31,1.06
			C428.46,305.45,429.26,305.28,429.96,304.94z"/>
		<path d="M439.48,303.73c-0.63-0.36-1.12-0.85-1.48-1.48c-0.36-0.63-0.54-1.32-0.54-2.07c0-0.74,0.18-1.42,0.54-2.05
			s0.85-1.12,1.48-1.48c0.63-0.36,1.32-0.54,2.07-0.54c0.75,0,1.45,0.18,2.08,0.54c0.63,0.36,1.13,0.85,1.49,1.48
			c0.36,0.63,0.54,1.31,0.54,2.05c0,0.75-0.18,1.45-0.54,2.07c-0.36,0.63-0.86,1.12-1.49,1.48c-0.64,0.36-1.33,0.54-2.08,0.54
			C440.8,304.27,440.11,304.09,439.48,303.73z M443.68,302.33c0.58-0.57,0.86-1.29,0.86-2.15c0-0.84-0.29-1.55-0.86-2.12
			s-1.28-0.86-2.12-0.86s-1.54,0.29-2.11,0.86c-0.57,0.57-0.85,1.28-0.85,2.12c0,0.86,0.28,1.57,0.85,2.15
			c0.57,0.58,1.27,0.86,2.11,0.86S443.1,302.9,443.68,302.33z"/>
		<path d="M460.14,297.89h-6.33v-1.65h14.57v1.65h-6.33v16.37h-1.91V297.89z"/>
		<path d="M479.08,301.94c0.94,0.88,1.42,2.19,1.42,3.93v8.39h-1.75v-2.11c-0.41,0.7-1.02,1.25-1.81,1.65
			c-0.8,0.4-1.75,0.59-2.84,0.59c-1.51,0-2.71-0.36-3.6-1.08c-0.89-0.72-1.34-1.67-1.34-2.86c0-1.15,0.42-2.08,1.25-2.78
			s2.16-1.06,3.98-1.06h4.3v-0.82c0-1.17-0.33-2.06-0.98-2.66c-0.65-0.61-1.6-0.91-2.86-0.91c-0.86,0-1.68,0.14-2.47,0.42
			s-1.47,0.67-2.03,1.17l-0.82-1.36c0.69-0.58,1.51-1.03,2.47-1.35c0.96-0.32,1.97-0.48,3.04-0.48
			C476.78,300.61,478.14,301.06,479.08,301.94z M477.02,312.24c0.74-0.47,1.29-1.15,1.65-2.05v-2.21h-4.25
			c-2.32,0-3.47,0.81-3.47,2.42c0,0.79,0.3,1.41,0.9,1.87s1.44,0.68,2.52,0.68C475.4,312.94,476.28,312.71,477.02,312.24z"/>
		<path d="M485.94,313.91c-1-0.32-1.79-0.72-2.36-1.2l0.82-1.44c0.57,0.45,1.28,0.81,2.14,1.09c0.86,0.28,1.75,0.42,2.68,0.42
			c1.24,0,2.15-0.19,2.74-0.58s0.89-0.93,0.89-1.63c0-0.5-0.16-0.89-0.49-1.17s-0.74-0.5-1.24-0.64c-0.5-0.15-1.16-0.29-1.98-0.42
			c-1.1-0.21-1.98-0.42-2.65-0.63c-0.67-0.21-1.24-0.58-1.71-1.09c-0.47-0.51-0.71-1.23-0.71-2.14c0-1.13,0.47-2.06,1.42-2.78
			c0.94-0.72,2.26-1.08,3.94-1.08c0.88,0,1.75,0.12,2.63,0.35c0.88,0.23,1.6,0.54,2.16,0.91l-0.8,1.47
			c-1.12-0.77-2.45-1.16-3.99-1.16c-1.17,0-2.05,0.21-2.64,0.62c-0.59,0.41-0.89,0.95-0.89,1.62c0,0.51,0.17,0.93,0.5,1.24
			c0.33,0.31,0.75,0.54,1.25,0.68c0.5,0.15,1.18,0.3,2.06,0.45c1.08,0.21,1.95,0.41,2.6,0.62c0.65,0.21,1.21,0.56,1.67,1.06
			c0.46,0.5,0.69,1.18,0.69,2.06c0,1.18-0.49,2.12-1.48,2.82c-0.99,0.69-2.36,1.04-4.11,1.04
			C488,314.38,486.95,314.23,485.94,313.91z"/>
		<path d="M505.18,313.43c-0.34,0.31-0.77,0.54-1.27,0.71c-0.51,0.16-1.03,0.24-1.58,0.24c-1.27,0-2.25-0.34-2.93-1.03
			c-0.69-0.69-1.03-1.66-1.03-2.91v-8.19h-2.42v-1.54h2.42v-2.96h1.83v2.96h4.12v1.54h-4.12v8.08c0,0.81,0.2,1.42,0.61,1.84
			c0.4,0.42,0.98,0.63,1.74,0.63c0.38,0,0.74-0.06,1.09-0.18s0.66-0.29,0.91-0.51L505.18,313.43z"/>
		<path d="M510.02,313.5c-1.05-0.59-1.87-1.41-2.47-2.46s-0.9-2.23-0.9-3.55s0.3-2.51,0.9-3.55c0.6-1.05,1.42-1.86,2.47-2.45
			c1.05-0.58,2.22-0.88,3.53-0.88c1.3,0,2.48,0.29,3.53,0.88c1.05,0.58,1.87,1.4,2.46,2.45c0.59,1.05,0.89,2.23,0.89,3.55
			s-0.3,2.51-0.89,3.55c-0.59,1.05-1.41,1.87-2.46,2.46c-1.05,0.59-2.22,0.89-3.53,0.89C512.24,314.38,511.07,314.09,510.02,313.5z
			 M516.13,312.11c0.76-0.44,1.36-1.06,1.79-1.87c0.43-0.81,0.64-1.72,0.64-2.75c0-1.03-0.21-1.95-0.64-2.75
			c-0.43-0.81-1.03-1.43-1.79-1.87c-0.76-0.44-1.63-0.66-2.59-0.66s-1.82,0.22-2.59,0.66c-0.76,0.44-1.36,1.06-1.8,1.87
			c-0.44,0.81-0.66,1.72-0.66,2.75c0,1.03,0.22,1.95,0.66,2.75c0.44,0.81,1.04,1.43,1.8,1.87s1.63,0.66,2.59,0.66
			S515.37,312.54,516.13,312.11z"/>
	</g>
	<g class="st1">
		<path d="M565.4,296.24v18.02h-1.85v-16.37h-4.25v-1.65H565.4z"/>
		<path d="M573.16,313.3c-1.09-0.74-1.94-1.8-2.55-3.18c-0.61-1.38-0.91-3.01-0.91-4.88s0.3-3.5,0.91-4.88s1.46-2.44,2.55-3.18
			c1.09-0.74,2.33-1.11,3.72-1.11c1.39,0,2.63,0.37,3.72,1.11s1.94,1.8,2.56,3.18c0.62,1.38,0.93,3.01,0.93,4.88
			s-0.31,3.5-0.93,4.88c-0.62,1.38-1.47,2.44-2.56,3.18s-2.33,1.11-3.72,1.11C575.49,314.41,574.25,314.04,573.16,313.3z
			 M579.65,311.84c0.8-0.58,1.42-1.43,1.87-2.55c0.45-1.12,0.67-2.46,0.67-4.04s-0.22-2.93-0.67-4.04
			c-0.45-1.12-1.07-1.96-1.87-2.55c-0.8-0.58-1.72-0.88-2.77-0.88s-1.97,0.29-2.77,0.88c-0.8,0.58-1.42,1.43-1.87,2.55
			c-0.45,1.12-0.67,2.46-0.67,4.04s0.22,2.93,0.67,4.04c0.45,1.12,1.07,1.96,1.87,2.55s1.72,0.88,2.77,0.88
			S578.85,312.42,579.65,311.84z"/>
		<path d="M588.81,303.73c-0.63-0.36-1.12-0.85-1.48-1.48c-0.36-0.63-0.54-1.32-0.54-2.07c0-0.74,0.18-1.42,0.54-2.05
			s0.85-1.12,1.48-1.48c0.63-0.36,1.32-0.54,2.07-0.54c0.75,0,1.45,0.18,2.08,0.54c0.63,0.36,1.13,0.85,1.49,1.48
			c0.36,0.63,0.54,1.31,0.54,2.05c0,0.75-0.18,1.45-0.54,2.07c-0.36,0.63-0.86,1.12-1.49,1.48c-0.64,0.36-1.33,0.54-2.08,0.54
			C590.13,304.27,589.44,304.09,588.81,303.73z M593.01,302.33c0.58-0.57,0.86-1.29,0.86-2.15c0-0.84-0.29-1.55-0.86-2.12
			s-1.28-0.86-2.12-0.86s-1.54,0.29-2.11,0.86c-0.57,0.57-0.85,1.28-0.85,2.12c0,0.86,0.28,1.57,0.85,2.15
			c0.57,0.58,1.27,0.86,2.11,0.86S592.43,302.9,593.01,302.33z"/>
		<path d="M609.47,297.89h-6.33v-1.65h14.57v1.65h-6.33v16.37h-1.91V297.89z"/>
		<path d="M628.41,301.94c0.94,0.88,1.42,2.19,1.42,3.93v8.39h-1.75v-2.11c-0.41,0.7-1.02,1.25-1.81,1.65
			c-0.8,0.4-1.75,0.59-2.84,0.59c-1.51,0-2.71-0.36-3.6-1.08c-0.89-0.72-1.34-1.67-1.34-2.86c0-1.15,0.42-2.08,1.25-2.78
			s2.16-1.06,3.98-1.06h4.3v-0.82c0-1.17-0.33-2.06-0.98-2.66c-0.65-0.61-1.6-0.91-2.86-0.91c-0.86,0-1.68,0.14-2.47,0.42
			s-1.47,0.67-2.03,1.17l-0.82-1.36c0.69-0.58,1.51-1.03,2.47-1.35c0.96-0.32,1.97-0.48,3.04-0.48
			C626.11,300.61,627.47,301.06,628.41,301.94z M626.35,312.24c0.74-0.47,1.29-1.15,1.65-2.05v-2.21h-4.25
			c-2.32,0-3.47,0.81-3.47,2.42c0,0.79,0.3,1.41,0.9,1.87s1.44,0.68,2.52,0.68C624.73,312.94,625.61,312.71,626.35,312.24z"/>
		<path d="M635.27,313.91c-1-0.32-1.79-0.72-2.36-1.2l0.82-1.44c0.57,0.45,1.28,0.81,2.14,1.09c0.86,0.28,1.75,0.42,2.68,0.42
			c1.24,0,2.15-0.19,2.74-0.58s0.89-0.93,0.89-1.63c0-0.5-0.16-0.89-0.49-1.17s-0.74-0.5-1.24-0.64c-0.5-0.15-1.16-0.29-1.98-0.42
			c-1.1-0.21-1.98-0.42-2.65-0.63c-0.67-0.21-1.24-0.58-1.71-1.09c-0.47-0.51-0.71-1.23-0.71-2.14c0-1.13,0.47-2.06,1.42-2.78
			c0.94-0.72,2.26-1.08,3.94-1.08c0.88,0,1.75,0.12,2.63,0.35c0.88,0.23,1.6,0.54,2.16,0.91l-0.8,1.47
			c-1.12-0.77-2.45-1.16-3.99-1.16c-1.17,0-2.05,0.21-2.64,0.62c-0.59,0.41-0.89,0.95-0.89,1.62c0,0.51,0.17,0.93,0.5,1.24
			c0.33,0.31,0.75,0.54,1.25,0.68c0.5,0.15,1.18,0.3,2.06,0.45c1.08,0.21,1.95,0.41,2.6,0.62c0.65,0.21,1.21,0.56,1.67,1.06
			c0.46,0.5,0.69,1.18,0.69,2.06c0,1.18-0.49,2.12-1.48,2.82c-0.99,0.69-2.36,1.04-4.11,1.04
			C637.33,314.38,636.27,314.23,635.27,313.91z"/>
		<path d="M654.51,313.43c-0.34,0.31-0.77,0.54-1.27,0.71c-0.51,0.16-1.03,0.24-1.58,0.24c-1.27,0-2.25-0.34-2.93-1.03
			c-0.69-0.69-1.03-1.66-1.03-2.91v-8.19h-2.42v-1.54h2.42v-2.96h1.83v2.96h4.12v1.54h-4.12v8.08c0,0.81,0.2,1.42,0.61,1.84
			c0.4,0.42,0.98,0.63,1.74,0.63c0.38,0,0.74-0.06,1.09-0.18s0.66-0.29,0.91-0.51L654.51,313.43z"/>
		<path d="M659.35,313.5c-1.05-0.59-1.87-1.41-2.47-2.46s-0.9-2.23-0.9-3.55s0.3-2.51,0.9-3.55c0.6-1.05,1.42-1.86,2.47-2.45
			c1.05-0.58,2.22-0.88,3.53-0.88c1.3,0,2.48,0.29,3.53,0.88c1.05,0.58,1.87,1.4,2.46,2.45c0.59,1.05,0.89,2.23,0.89,3.55
			s-0.3,2.51-0.89,3.55c-0.59,1.05-1.41,1.87-2.46,2.46c-1.05,0.59-2.22,0.89-3.53,0.89C661.57,314.38,660.4,314.09,659.35,313.5z
			 M665.46,312.11c0.76-0.44,1.36-1.06,1.79-1.87c0.43-0.81,0.64-1.72,0.64-2.75c0-1.03-0.21-1.95-0.64-2.75
			c-0.43-0.81-1.03-1.43-1.79-1.87c-0.76-0.44-1.63-0.66-2.59-0.66s-1.82,0.22-2.59,0.66c-0.76,0.44-1.36,1.06-1.8,1.87
			c-0.44,0.81-0.66,1.72-0.66,2.75c0,1.03,0.22,1.95,0.66,2.75c0.44,0.81,1.04,1.43,1.8,1.87s1.63,0.66,2.59,0.66
			S664.7,312.54,665.46,312.11z"/>
	</g>
	<g class="st1">
		<path d="M713.33,296.24v18.02h-1.85v-16.37h-4.25v-1.65H713.33z"/>
		<path d="M722.62,296.24v18.02h-1.85v-16.37h-4.25v-1.65H722.62z"/>
		<path d="M728.88,303.73c-0.63-0.36-1.12-0.85-1.48-1.48c-0.36-0.63-0.54-1.32-0.54-2.07c0-0.74,0.18-1.42,0.54-2.05
			s0.85-1.12,1.48-1.48c0.63-0.36,1.32-0.54,2.07-0.54c0.75,0,1.45,0.18,2.08,0.54c0.63,0.36,1.13,0.85,1.49,1.48
			c0.36,0.63,0.54,1.31,0.54,2.05c0,0.75-0.18,1.45-0.54,2.07c-0.36,0.63-0.86,1.12-1.49,1.48c-0.64,0.36-1.33,0.54-2.08,0.54
			C730.2,304.27,729.51,304.09,728.88,303.73z M733.08,302.33c0.58-0.57,0.86-1.29,0.86-2.15c0-0.84-0.29-1.55-0.86-2.12
			s-1.28-0.86-2.12-0.86s-1.54,0.29-2.11,0.86c-0.57,0.57-0.85,1.28-0.85,2.12c0,0.86,0.28,1.57,0.85,2.15
			c0.57,0.58,1.27,0.86,2.11,0.86S732.5,302.9,733.08,302.33z"/>
		<path d="M749.54,297.89h-6.33v-1.65h14.57v1.65h-6.33v16.37h-1.91V297.89z"/>
		<path d="M768.49,301.94c0.94,0.88,1.42,2.19,1.42,3.93v8.39h-1.75v-2.11c-0.41,0.7-1.02,1.25-1.81,1.65
			c-0.8,0.4-1.75,0.59-2.84,0.59c-1.51,0-2.71-0.36-3.6-1.08c-0.89-0.72-1.34-1.67-1.34-2.86c0-1.15,0.42-2.08,1.25-2.78
			s2.16-1.06,3.98-1.06h4.3v-0.82c0-1.17-0.33-2.06-0.98-2.66c-0.65-0.61-1.6-0.91-2.86-0.91c-0.86,0-1.68,0.14-2.47,0.42
			s-1.47,0.67-2.03,1.17l-0.82-1.36c0.69-0.58,1.51-1.03,2.47-1.35c0.96-0.32,1.97-0.48,3.04-0.48
			C766.19,300.61,767.54,301.06,768.49,301.94z M766.43,312.24c0.74-0.47,1.29-1.15,1.65-2.05v-2.21h-4.25
			c-2.32,0-3.47,0.81-3.47,2.42c0,0.79,0.3,1.41,0.9,1.87s1.44,0.68,2.52,0.68C764.8,312.94,765.69,312.71,766.43,312.24z"/>
		<path d="M775.34,313.91c-1-0.32-1.79-0.72-2.36-1.2l0.82-1.44c0.57,0.45,1.28,0.81,2.14,1.09c0.86,0.28,1.75,0.42,2.68,0.42
			c1.24,0,2.15-0.19,2.74-0.58s0.89-0.93,0.89-1.63c0-0.5-0.16-0.89-0.49-1.17s-0.74-0.5-1.24-0.64c-0.5-0.15-1.16-0.29-1.98-0.42
			c-1.1-0.21-1.98-0.42-2.65-0.63c-0.67-0.21-1.24-0.58-1.71-1.09c-0.47-0.51-0.71-1.23-0.71-2.14c0-1.13,0.47-2.06,1.42-2.78
			c0.94-0.72,2.26-1.08,3.94-1.08c0.88,0,1.75,0.12,2.63,0.35c0.88,0.23,1.6,0.54,2.16,0.91l-0.8,1.47
			c-1.12-0.77-2.45-1.16-3.99-1.16c-1.17,0-2.05,0.21-2.64,0.62c-0.59,0.41-0.89,0.95-0.89,1.62c0,0.51,0.17,0.93,0.5,1.24
			c0.33,0.31,0.75,0.54,1.25,0.68c0.5,0.15,1.18,0.3,2.06,0.45c1.08,0.21,1.95,0.41,2.6,0.62c0.65,0.21,1.21,0.56,1.67,1.06
			c0.46,0.5,0.69,1.18,0.69,2.06c0,1.18-0.49,2.12-1.48,2.82c-0.99,0.69-2.36,1.04-4.11,1.04
			C777.4,314.38,776.35,314.23,775.34,313.91z"/>
		<path d="M794.59,313.43c-0.34,0.31-0.77,0.54-1.27,0.71c-0.51,0.16-1.03,0.24-1.58,0.24c-1.27,0-2.25-0.34-2.93-1.03
			c-0.69-0.69-1.03-1.66-1.03-2.91v-8.19h-2.42v-1.54h2.42v-2.96h1.83v2.96h4.12v1.54h-4.12v8.08c0,0.81,0.2,1.42,0.61,1.84
			c0.4,0.42,0.98,0.63,1.74,0.63c0.38,0,0.74-0.06,1.09-0.18s0.66-0.29,0.91-0.51L794.59,313.43z"/>
		<path d="M799.42,313.5c-1.05-0.59-1.87-1.41-2.47-2.46s-0.9-2.23-0.9-3.55s0.3-2.51,0.9-3.55c0.6-1.05,1.42-1.86,2.47-2.45
			c1.05-0.58,2.22-0.88,3.53-0.88c1.3,0,2.48,0.29,3.53,0.88c1.05,0.58,1.87,1.4,2.46,2.45c0.59,1.05,0.89,2.23,0.89,3.55
			s-0.3,2.51-0.89,3.55c-0.59,1.05-1.41,1.87-2.46,2.46c-1.05,0.59-2.22,0.89-3.53,0.89C801.65,314.38,800.47,314.09,799.42,313.5z
			 M805.54,312.11c0.76-0.44,1.36-1.06,1.79-1.87c0.43-0.81,0.64-1.72,0.64-2.75c0-1.03-0.21-1.95-0.64-2.75
			c-0.43-0.81-1.03-1.43-1.79-1.87c-0.76-0.44-1.63-0.66-2.59-0.66s-1.82,0.22-2.59,0.66c-0.76,0.44-1.36,1.06-1.8,1.87
			c-0.44,0.81-0.66,1.72-0.66,2.75c0,1.03,0.22,1.95,0.66,2.75c0.44,0.81,1.04,1.43,1.8,1.87s1.63,0.66,2.59,0.66
			S804.77,312.54,805.54,312.11z"/>
	</g>
	<g class="st1">
		<path d="M854.66,296.24v18.02h-1.85v-16.37h-4.25v-1.65H854.66z"/>
		<path d="M871.26,312.61v1.65h-12.64v-1.31l7.49-7.34c0.94-0.93,1.58-1.73,1.92-2.41c0.33-0.68,0.5-1.36,0.5-2.05
			c0-1.06-0.37-1.89-1.09-2.48c-0.73-0.59-1.77-0.89-3.13-0.89c-2.11,0-3.75,0.67-4.92,2.01l-1.31-1.13c0.7-0.82,1.6-1.46,2.69-1.9
			c1.09-0.45,2.32-0.67,3.69-0.67c1.84,0,3.29,0.43,4.36,1.3c1.07,0.87,1.61,2.06,1.61,3.56c0,0.93-0.21,1.82-0.62,2.68
			c-0.41,0.86-1.19,1.85-2.34,2.96l-6.13,6.02H871.26z"/>
		<path d="M875.55,303.73c-0.63-0.36-1.12-0.85-1.48-1.48c-0.36-0.63-0.54-1.32-0.54-2.07c0-0.74,0.18-1.42,0.54-2.05
			s0.85-1.12,1.48-1.48c0.63-0.36,1.32-0.54,2.07-0.54c0.75,0,1.45,0.18,2.08,0.54c0.63,0.36,1.13,0.85,1.49,1.48
			c0.36,0.63,0.54,1.31,0.54,2.05c0,0.75-0.18,1.45-0.54,2.07c-0.36,0.63-0.86,1.12-1.49,1.48c-0.64,0.36-1.33,0.54-2.08,0.54
			C876.86,304.27,876.17,304.09,875.55,303.73z M879.74,302.33c0.58-0.57,0.86-1.29,0.86-2.15c0-0.84-0.29-1.55-0.86-2.12
			s-1.28-0.86-2.12-0.86s-1.54,0.29-2.11,0.86c-0.57,0.57-0.85,1.28-0.85,2.12c0,0.86,0.28,1.57,0.85,2.15
			c0.57,0.58,1.27,0.86,2.11,0.86S879.17,302.9,879.74,302.33z"/>
		<path d="M896.2,297.89h-6.33v-1.65h14.57v1.65h-6.33v16.37h-1.91V297.89z"/>
		<path d="M915.15,301.94c0.94,0.88,1.42,2.19,1.42,3.93v8.39h-1.75v-2.11c-0.41,0.7-1.02,1.25-1.81,1.65
			c-0.8,0.4-1.75,0.59-2.84,0.59c-1.51,0-2.71-0.36-3.6-1.08c-0.89-0.72-1.34-1.67-1.34-2.86c0-1.15,0.42-2.08,1.25-2.78
			s2.16-1.06,3.98-1.06h4.3v-0.82c0-1.17-0.33-2.06-0.98-2.66c-0.65-0.61-1.6-0.91-2.86-0.91c-0.86,0-1.68,0.14-2.47,0.42
			s-1.47,0.67-2.03,1.17l-0.82-1.36c0.69-0.58,1.51-1.03,2.47-1.35c0.96-0.32,1.97-0.48,3.04-0.48
			C912.85,300.61,914.2,301.06,915.15,301.94z M913.09,312.24c0.74-0.47,1.29-1.15,1.65-2.05v-2.21h-4.25
			c-2.32,0-3.47,0.81-3.47,2.42c0,0.79,0.3,1.41,0.9,1.87s1.44,0.68,2.52,0.68C911.47,312.94,912.35,312.71,913.09,312.24z"/>
		<path d="M922.01,313.91c-1-0.32-1.79-0.72-2.36-1.2l0.82-1.44c0.57,0.45,1.28,0.81,2.14,1.09c0.86,0.28,1.75,0.42,2.68,0.42
			c1.24,0,2.15-0.19,2.74-0.58s0.89-0.93,0.89-1.63c0-0.5-0.16-0.89-0.49-1.17s-0.74-0.5-1.24-0.64c-0.5-0.15-1.16-0.29-1.98-0.42
			c-1.1-0.21-1.98-0.42-2.65-0.63c-0.67-0.21-1.24-0.58-1.71-1.09c-0.47-0.51-0.71-1.23-0.71-2.14c0-1.13,0.47-2.06,1.42-2.78
			c0.94-0.72,2.26-1.08,3.94-1.08c0.88,0,1.75,0.12,2.63,0.35c0.88,0.23,1.6,0.54,2.16,0.91l-0.8,1.47
			c-1.12-0.77-2.45-1.16-3.99-1.16c-1.17,0-2.05,0.21-2.64,0.62c-0.59,0.41-0.89,0.95-0.89,1.62c0,0.51,0.17,0.93,0.5,1.24
			c0.33,0.31,0.75,0.54,1.25,0.68c0.5,0.15,1.18,0.3,2.06,0.45c1.08,0.21,1.95,0.41,2.6,0.62c0.65,0.21,1.21,0.56,1.67,1.06
			c0.46,0.5,0.69,1.18,0.69,2.06c0,1.18-0.49,2.12-1.48,2.82c-0.99,0.69-2.36,1.04-4.11,1.04
			C924.06,314.38,923.01,314.23,922.01,313.91z"/>
		<path d="M941.25,313.43c-0.34,0.31-0.77,0.54-1.27,0.71c-0.51,0.16-1.03,0.24-1.58,0.24c-1.27,0-2.25-0.34-2.93-1.03
			c-0.69-0.69-1.03-1.66-1.03-2.91v-8.19h-2.42v-1.54h2.42v-2.96h1.83v2.96h4.12v1.54h-4.12v8.08c0,0.81,0.2,1.42,0.61,1.84
			c0.4,0.42,0.98,0.63,1.74,0.63c0.38,0,0.74-0.06,1.09-0.18s0.66-0.29,0.91-0.51L941.25,313.43z"/>
		<path d="M946.09,313.5c-1.05-0.59-1.87-1.41-2.47-2.46s-0.9-2.23-0.9-3.55s0.3-2.51,0.9-3.55c0.6-1.05,1.42-1.86,2.47-2.45
			c1.05-0.58,2.22-0.88,3.53-0.88c1.3,0,2.48,0.29,3.53,0.88c1.05,0.58,1.87,1.4,2.46,2.45c0.59,1.05,0.89,2.23,0.89,3.55
			s-0.3,2.51-0.89,3.55c-0.59,1.05-1.41,1.87-2.46,2.46c-1.05,0.59-2.22,0.89-3.53,0.89C948.31,314.38,947.13,314.09,946.09,313.5z
			 M952.2,312.11c0.76-0.44,1.36-1.06,1.79-1.87c0.43-0.81,0.64-1.72,0.64-2.75c0-1.03-0.21-1.95-0.64-2.75
			c-0.43-0.81-1.03-1.43-1.79-1.87c-0.76-0.44-1.63-0.66-2.59-0.66s-1.82,0.22-2.59,0.66c-0.76,0.44-1.36,1.06-1.8,1.87
			c-0.44,0.81-0.66,1.72-0.66,2.75c0,1.03,0.22,1.95,0.66,2.75c0.44,0.81,1.04,1.43,1.8,1.87s1.63,0.66,2.59,0.66
			S951.44,312.54,952.2,312.11z"/>
	</g>
</g>
<g id="Guide" class="st0">
</g>
<g id="Corde" class="st0">
	<g class="st1">
		<path d="M-796.1,243.05v18.02h-1.83v-14.41l-7.08,12.12h-0.9l-7.08-12.05v14.34h-1.83v-18.02h1.57l7.82,13.36l7.75-13.36H-796.1z"
			/>
		<path d="M-790.65,244.18c-0.26-0.26-0.39-0.57-0.39-0.93c0-0.34,0.13-0.64,0.39-0.9s0.58-0.39,0.95-0.39
			c0.38,0,0.7,0.12,0.95,0.37c0.26,0.25,0.39,0.55,0.39,0.89c0,0.38-0.13,0.69-0.39,0.95c-0.26,0.26-0.58,0.39-0.95,0.39
			C-790.07,244.57-790.39,244.44-790.65,244.18z M-790.62,247.53h1.83v13.54h-1.83V247.53z"/>
	</g>
	<g class="st1">
		<path d="M-814.26,171.05h1.9v16.37h10.09v1.65h-12V171.05z"/>
		<path d="M-790.64,176.75c0.94,0.88,1.42,2.19,1.42,3.93v8.39h-1.75v-2.11c-0.41,0.7-1.02,1.25-1.81,1.65
			c-0.8,0.4-1.75,0.59-2.84,0.59c-1.51,0-2.71-0.36-3.6-1.08c-0.89-0.72-1.34-1.67-1.34-2.86c0-1.15,0.42-2.08,1.25-2.78
			s2.16-1.06,3.98-1.06h4.3v-0.82c0-1.17-0.33-2.06-0.98-2.66c-0.65-0.61-1.6-0.91-2.86-0.91c-0.86,0-1.68,0.14-2.47,0.42
			s-1.47,0.67-2.03,1.17l-0.82-1.36c0.69-0.58,1.51-1.03,2.47-1.35c0.96-0.32,1.97-0.48,3.04-0.48
			C-792.94,175.42-791.58,175.87-790.64,176.75z M-792.7,187.05c0.74-0.47,1.29-1.15,1.65-2.05v-2.21h-4.25
			c-2.32,0-3.47,0.81-3.47,2.42c0,0.79,0.3,1.41,0.9,1.87s1.44,0.68,2.52,0.68C-794.32,187.75-793.43,187.52-792.7,187.05z"/>
	</g>
	<g class="st1">
		<path d="M-803.84,117.07l-4.12-5.79c-0.46,0.05-0.94,0.08-1.44,0.08h-4.84v5.71h-1.9V99.05h6.74c2.3,0,4.1,0.55,5.41,1.65
			c1.3,1.1,1.96,2.61,1.96,4.53c0,1.41-0.36,2.6-1.07,3.56c-0.71,0.97-1.73,1.67-3.05,2.1l4.4,6.18H-803.84z M-805.36,108.55
			c0.94-0.79,1.42-1.9,1.42-3.32c0-1.46-0.47-2.58-1.42-3.36c-0.94-0.78-2.31-1.17-4.09-1.17h-4.79v9.03h4.79
			C-807.67,109.73-806.3,109.34-805.36,108.55z"/>
		<path d="M-786.13,110.86h-11.33c0.1,1.41,0.64,2.54,1.62,3.41c0.98,0.87,2.21,1.3,3.71,1.3c0.84,0,1.61-0.15,2.32-0.45
			c0.7-0.3,1.31-0.74,1.83-1.33l1.03,1.18c-0.6,0.72-1.35,1.27-2.25,1.65c-0.9,0.38-1.89,0.57-2.97,0.57c-1.39,0-2.62-0.3-3.69-0.89
			c-1.07-0.59-1.91-1.41-2.51-2.46s-0.9-2.23-0.9-3.55s0.29-2.51,0.86-3.55c0.58-1.05,1.36-1.86,2.37-2.45
			c1-0.58,2.13-0.88,3.38-0.88c1.25,0,2.38,0.29,3.37,0.88c1,0.58,1.78,1.39,2.34,2.43s0.85,2.23,0.85,3.56L-786.13,110.86z
			 M-795.95,106.24c-0.88,0.83-1.39,1.92-1.51,3.26h9.6c-0.12-1.34-0.62-2.42-1.51-3.26c-0.88-0.83-1.99-1.25-3.31-1.25
			C-793.97,105-795.07,105.41-795.95,106.24z"/>
	</g>
	<g class="st1">
		<path d="M-817.39,44.58c-1.23-0.43-2.18-0.99-2.84-1.7l0.75-1.47c0.65,0.65,1.52,1.18,2.6,1.58c1.08,0.4,2.2,0.61,3.35,0.61
			c1.61,0,2.82-0.3,3.63-0.89c0.81-0.59,1.21-1.36,1.21-2.3c0-0.72-0.22-1.29-0.66-1.72s-0.97-0.76-1.61-0.99s-1.52-0.49-2.65-0.76
			c-1.36-0.34-2.44-0.67-3.24-0.99c-0.81-0.32-1.5-0.8-2.07-1.45c-0.58-0.65-0.86-1.54-0.86-2.65c0-0.91,0.24-1.74,0.72-2.48
			c0.48-0.75,1.22-1.34,2.21-1.79s2.23-0.67,3.71-0.67c1.03,0,2.04,0.14,3.02,0.42s1.84,0.67,2.56,1.17l-0.64,1.52
			c-0.76-0.5-1.56-0.87-2.42-1.12c-0.86-0.25-1.7-0.37-2.52-0.37c-1.58,0-2.77,0.3-3.56,0.91s-1.2,1.39-1.2,2.36
			c0,0.72,0.22,1.3,0.66,1.74s0.99,0.77,1.65,1s1.55,0.48,2.66,0.76c1.32,0.33,2.39,0.65,3.2,0.97s1.51,0.8,2.07,1.44
			s0.85,1.51,0.85,2.61c0,0.91-0.24,1.74-0.73,2.48c-0.49,0.75-1.24,1.34-2.25,1.78s-2.26,0.66-3.73,0.66
			C-814.88,45.22-816.17,45.01-817.39,44.58z"/>
		<path d="M-801.06,44.31c-1.05-0.59-1.87-1.41-2.47-2.46c-0.6-1.05-0.9-2.23-0.9-3.55s0.3-2.5,0.9-3.55
			c0.6-1.05,1.42-1.86,2.47-2.45c1.05-0.58,2.22-0.88,3.53-0.88c1.3,0,2.48,0.29,3.53,0.88s1.87,1.4,2.46,2.45
			c0.59,1.05,0.89,2.23,0.89,3.55s-0.3,2.51-0.89,3.55c-0.59,1.05-1.41,1.87-2.46,2.46c-1.05,0.59-2.22,0.89-3.53,0.89
			C-798.84,45.2-800.01,44.9-801.06,44.31z M-794.95,42.92c0.76-0.44,1.36-1.06,1.79-1.87c0.43-0.81,0.64-1.72,0.64-2.75
			s-0.21-1.95-0.64-2.75s-1.03-1.43-1.79-1.87s-1.63-0.66-2.59-0.66s-1.82,0.22-2.59,0.66s-1.36,1.06-1.8,1.87
			c-0.44,0.81-0.66,1.72-0.66,2.75s0.22,1.95,0.66,2.75c0.44,0.81,1.04,1.43,1.8,1.87s1.63,0.66,2.59,0.66
			S-795.71,43.36-794.95,42.92z"/>
		<path d="M-786.93,25.97h1.83v19.1h-1.83V25.97z"/>
	</g>
	<g class="st1">
		<path d="M-809.32-27.42c-1.23-0.43-2.17-0.99-2.84-1.7l0.75-1.47c0.65,0.65,1.52,1.18,2.6,1.58c1.08,0.4,2.2,0.6,3.35,0.6
			c1.61,0,2.82-0.3,3.63-0.89c0.81-0.59,1.21-1.36,1.21-2.3c0-0.72-0.22-1.3-0.66-1.72s-0.97-0.76-1.61-0.99
			c-0.64-0.23-1.52-0.48-2.65-0.76c-1.36-0.34-2.44-0.67-3.24-0.99c-0.81-0.32-1.5-0.8-2.07-1.45c-0.58-0.65-0.86-1.54-0.86-2.65
			c0-0.91,0.24-1.74,0.72-2.48s1.22-1.34,2.21-1.79c1-0.45,2.23-0.67,3.71-0.67c1.03,0,2.04,0.14,3.02,0.42s1.84,0.67,2.56,1.17
			l-0.64,1.52c-0.76-0.5-1.56-0.87-2.42-1.12c-0.86-0.25-1.7-0.37-2.52-0.37c-1.58,0-2.77,0.3-3.56,0.91
			c-0.8,0.61-1.2,1.39-1.2,2.36c0,0.72,0.22,1.3,0.66,1.74s0.99,0.77,1.65,1c0.66,0.23,1.55,0.48,2.66,0.76
			c1.32,0.33,2.39,0.65,3.21,0.97c0.81,0.32,1.51,0.8,2.07,1.44c0.57,0.64,0.85,1.51,0.85,2.61c0,0.91-0.24,1.74-0.73,2.48
			c-0.49,0.75-1.24,1.34-2.25,1.78c-1.01,0.44-2.26,0.66-3.73,0.66C-806.81-26.78-808.1-26.99-809.32-27.42z"/>
		<path d="M-795.02-43.82c-0.26-0.26-0.39-0.57-0.39-0.93c0-0.34,0.13-0.64,0.39-0.9s0.58-0.39,0.95-0.39c0.38,0,0.7,0.12,0.95,0.37
			c0.26,0.25,0.39,0.55,0.39,0.89c0,0.38-0.13,0.69-0.39,0.95c-0.26,0.26-0.58,0.39-0.95,0.39
			C-794.45-43.43-794.77-43.56-795.02-43.82z M-795-40.47h1.83v13.54H-795V-40.47z"/>
	</g>
	<g id="Mi_Cantino" class="st1">
		<path d="M-795.49-114.78v18.02h-2.02v-14.41l-7.82,12.12h-1l-7.82-12.04v14.34h-2.02v-18.02h1.74l8.65,13.36l8.56-13.36H-795.49z"
			/>
		<path d="M-789.46-113.64c-0.28-0.26-0.43-0.57-0.43-0.93c0-0.34,0.14-0.64,0.43-0.9s0.63-0.39,1.05-0.39
			c0.42,0,0.77,0.13,1.05,0.37c0.29,0.25,0.43,0.54,0.43,0.89c0,0.38-0.14,0.69-0.43,0.95c-0.28,0.26-0.63,0.39-1.05,0.39
			C-788.82-113.26-789.17-113.39-789.46-113.64z M-789.43-110.3h2.02v13.54h-2.02V-110.3z"/>
	</g>
</g>
<g id="Nota_sullo_schema" class="st0">
	<g class="st1">
		<path class="st4" d="M48.1-198.51h13.68c3.55,0,6.69,0.71,9.41,2.14c2.72,1.42,4.83,3.41,6.34,5.95c1.5,2.54,2.26,5.45,2.26,8.71
			c0,3.26-0.75,6.17-2.26,8.71s-3.62,4.53-6.34,5.95c-2.72,1.42-5.86,2.14-9.41,2.14H48.1V-198.51z M61.59-167.98
			c2.94,0,5.52-0.58,7.73-1.75c2.21-1.17,3.92-2.78,5.14-4.85c1.21-2.06,1.82-4.44,1.82-7.13s-0.61-5.06-1.82-7.13
			c-1.22-2.06-2.93-3.68-5.14-4.85c-2.21-1.17-4.78-1.75-7.73-1.75h-9.94v27.46H61.59z"/>
		<path class="st4" d="M90.77-166.33c-1.95-1.1-3.49-2.63-4.61-4.58c-1.12-1.95-1.68-4.16-1.68-6.62c0-2.46,0.56-4.67,1.68-6.62
			c1.12-1.95,2.66-3.47,4.61-4.56c1.95-1.09,4.14-1.63,6.58-1.63s4.62,0.54,6.58,1.63c1.95,1.09,3.48,2.61,4.58,4.56
			c1.1,1.95,1.66,4.16,1.66,6.62c0,2.46-0.55,4.67-1.66,6.62c-1.1,1.95-2.63,3.48-4.58,4.58s-4.14,1.66-6.58,1.66
			S92.72-165.22,90.77-166.33z M102.17-168.92c1.42-0.82,2.54-1.98,3.34-3.48c0.8-1.5,1.2-3.22,1.2-5.14s-0.4-3.63-1.2-5.14
			c-0.8-1.5-1.91-2.66-3.34-3.48c-1.42-0.82-3.03-1.22-4.82-1.22s-3.4,0.41-4.82,1.22c-1.42,0.82-2.54,1.98-3.36,3.48
			c-0.82,1.5-1.22,3.22-1.22,5.14s0.41,3.63,1.22,5.14c0.82,1.5,1.94,2.66,3.36,3.48c1.42,0.82,3.03,1.22,4.82,1.22
			S100.75-168.1,102.17-168.92z"/>
	</g>
</g>
<g id="Pallini">
	<g class="st0">
		<circle class="st5" cx="-683.5" cy="-34.5" r="32.5"/>
	</g>
	<g class="st0">
		<circle class="st5" cx="-394.5" cy="181.5" r="32.5"/>
	</g>
	<g class="st0">
		<circle class="st5" cx="-106.5" cy="37.5" r="32.5"/>
	</g>
	<g class="st0">
		<circle class="st5" cx="325.5" cy="-105.5" r="32.5"/>
	</g>
	<g class="st0">
		<circle class="st5" cx="325.5" cy="253.5" r="32.5"/>
	</g>
	<g>
		<circle class="st6" cx="37.5" cy="38.5" r="32.5"/>
	</g>
	<g>
	</g>
	<g>
	</g>
	<g>
	</g>
	<g>
	</g>
	<g>
	</g>
	<g>
	</g>
	<g>
	</g>
	<g>
	</g>
	<g>
	</g>
	<g>
	</g>
	<g>
	</g>
	<g>
	</g>
	<g>
	</g>
	<g>
	</g>
	<g>
	</g>
</g>
</svg>
